<svg id="Layer_1" data-name="Layer 1" xmlns="http://www.w3.org/2000/svg" viewBox="0 0 640 640"><defs><style>.cls-1{fill:#fff;}</style></defs><title>cdlogo-01</title><path class="cls-1" d="M52.2,520.6V300a8.6,8.6,0,0,1,2.5-6.1l58.6-58.6a8.6,8.6,0,0,1,12.2,0l7.2,7.2a8.7,8.7,0,0,1,0,12.2L82.1,305.2a8.6,8.6,0,0,0-2.5,6.1V479a7.5,7.5,0,0,0,12.7,5.3l87.9-87.9a8.6,8.6,0,0,0,2.5-6.1v-273a8.6,8.6,0,0,1,2.5-6.1L261,35.5a8.6,8.6,0,0,1,6.1-2.5H566.8a8.7,8.7,0,0,1,6.1,14.8L425.7,195.1a8.6,8.6,0,0,1-6.1,2.5H253.5a8.7,8.7,0,0,1-8.7-8.7V178.8a8.7,8.7,0,0,1,8.7-8.7H408.2a8.6,8.6,0,0,0,6.1-2.5l92.4-92.4a8.7,8.7,0,0,0-6.1-14.8H278.4a8.6,8.6,0,0,0-6.1,2.5l-59.7,59.7a8.6,8.6,0,0,0-2.5,6.1V401.6a8.6,8.6,0,0,1-2.5,6.1L82.3,533C71.2,544.1,52.2,536.3,52.2,520.6Z"/><path class="cls-1" d="M431.9,608H113.2a2.2,2.2,0,0,1-1.6-3.7L271.9,444.2a2,2,0,0,1,1.5-.6h294a2.2,2.2,0,0,1,1.7,3.6l-135.5,160A2.5,2.5,0,0,1,431.9,608ZM179.5,580.6H419.2a2.5,2.5,0,0,0,1.7-.8l89-105.2a2.2,2.2,0,0,0-1.7-3.6H284.8a2,2,0,0,0-1.5.6L177.9,576.9A2.2,2.2,0,0,0,179.5,580.6Z"/></svg>