<svg width="202" height="202" viewBox="0 0 202 202" fill="none" xmlns="http://www.w3.org/2000/svg">
<circle cx="101" cy="101" r="97" fill="#2CF8C7" stroke="#00BF93" stroke-width="8"/>
<path d="M77 117C77 114.054 79.3878 111.667 82.3333 111.667H119.667C122.612 111.667 125 114.054 125 117C125 119.945 122.612 122.333 119.667 122.333H82.3333C79.3878 122.333 77 119.945 77 117Z" fill="#1A8068"/>
<path d="M82.3333 127.667C79.3878 127.667 77 130.054 77 133C77 135.945 79.3878 138.333 82.3333 138.333H101C103.946 138.333 106.333 135.945 106.333 133C106.333 130.054 103.946 127.667 101 127.667H82.3333Z" fill="#1A8068"/>
<path d="M115.438 67.8953C117.521 69.9781 117.521 73.355 115.438 75.4378L108.542 82.3332L115.438 89.2287C117.521 91.3115 117.521 94.6884 115.438 96.7712C113.355 98.8539 109.978 98.8539 107.895 96.7712L101 89.8757L94.1046 96.7712C92.0218 98.8539 88.6449 98.8539 86.5621 96.7712C84.4793 94.6884 84.4793 91.3115 86.5621 89.2287L93.4575 82.3332L86.5621 75.4378C84.4793 73.355 84.4793 69.9781 86.5621 67.8953C88.6449 65.8126 92.0218 65.8126 94.1046 67.8953L101 74.7908L107.895 67.8953C109.978 65.8126 113.355 65.8126 115.438 67.8953Z" fill="#1A8068"/>
<path fill-rule="evenodd" clip-rule="evenodd" d="M53 52.9999C53 47.1089 57.7756 42.3333 63.6667 42.3333H138.333C144.225 42.3333 149 47.1089 149 52.9999V149C149 154.891 144.224 159.667 138.333 159.667H63.6667C57.7757 159.667 53 154.891 53 149V52.9999ZM138.333 52.9999H63.6667V149H138.333V52.9999Z" fill="#1A8068"/>
</svg>
