<svg width="653" height="350" viewBox="0 0 653 350" fill="none" xmlns="http://www.w3.org/2000/svg">
<circle cx="329" cy="128" r="128" fill="#11D8AA" fill-opacity="0.9"/>
<path d="M284.925 132.308V135.44H288.813V137.528H284.925V140.912H289.875V143H282.711V130.22H289.875V132.308H284.925ZM294.753 138.446L291.117 133.892H293.853L296.121 136.934L298.389 133.892H301.125L297.489 138.446L301.125 143H298.389L296.121 139.958L293.853 143H291.117L294.753 138.446ZM302.424 133.892H304.512L304.638 135.692C304.89 135.104 305.322 134.63 305.934 134.27C306.558 133.898 307.254 133.712 308.022 133.712C308.874 133.712 309.636 133.922 310.308 134.342C310.98 134.762 311.502 135.338 311.874 136.07C312.246 136.79 312.432 137.582 312.432 138.446C312.432 139.31 312.246 140.108 311.874 140.84C311.502 141.56 310.98 142.13 310.308 142.55C309.636 142.97 308.874 143.18 308.022 143.18C307.242 143.18 306.54 142.994 305.916 142.622C305.304 142.25 304.878 141.77 304.638 141.182V147.14H302.424V133.892ZM304.89 138.446C304.89 138.926 304.998 139.37 305.214 139.778C305.442 140.174 305.76 140.492 306.168 140.732C306.576 140.972 307.032 141.092 307.536 141.092C308.04 141.092 308.496 140.972 308.904 140.732C309.312 140.492 309.63 140.174 309.858 139.778C310.086 139.37 310.2 138.926 310.2 138.446C310.2 137.966 310.086 137.528 309.858 137.132C309.63 136.724 309.312 136.4 308.904 136.16C308.496 135.92 308.04 135.8 307.536 135.8C307.032 135.8 306.576 135.92 306.168 136.16C305.76 136.4 305.442 136.724 305.214 137.132C304.998 137.528 304.89 137.966 304.89 138.446ZM322.606 139.13H315.712C315.748 139.73 315.982 140.228 316.414 140.624C316.846 141.02 317.446 141.218 318.214 141.218C318.754 141.218 319.21 141.104 319.582 140.876C319.966 140.636 320.26 140.336 320.464 139.976L322.408 140.192C322.312 140.648 322.084 141.104 321.724 141.56C321.364 142.016 320.884 142.4 320.284 142.712C319.684 143.024 318.988 143.18 318.196 143.18C317.284 143.18 316.468 142.97 315.748 142.55C315.04 142.118 314.488 141.542 314.092 140.822C313.696 140.09 313.498 139.28 313.498 138.392C313.498 137.54 313.684 136.76 314.056 136.052C314.44 135.332 314.98 134.762 315.676 134.342C316.372 133.922 317.164 133.712 318.052 133.712C318.964 133.712 319.762 133.934 320.446 134.378C321.142 134.81 321.676 135.398 322.048 136.142C322.42 136.874 322.606 137.678 322.606 138.554V139.13ZM318.052 135.674C317.392 135.674 316.84 135.86 316.396 136.232C315.964 136.604 315.736 137.06 315.712 137.6H320.392C320.368 137.072 320.14 136.622 319.708 136.25C319.276 135.866 318.724 135.674 318.052 135.674ZM328.256 133.712C328.496 133.712 328.712 133.754 328.904 133.838C329.096 133.91 329.246 134 329.354 134.108L329.03 136.034C328.922 135.974 328.784 135.92 328.616 135.872C328.46 135.824 328.298 135.8 328.13 135.8C327.542 135.8 327.086 136.082 326.762 136.646C326.45 137.21 326.294 137.978 326.294 138.95V143H324.08V133.892H326.168L326.294 135.188V135.206C326.546 134.726 326.828 134.36 327.14 134.108C327.464 133.844 327.836 133.712 328.256 133.712ZM332.77 143H330.556V133.892H332.77V143ZM331.654 132.632C331.342 132.632 331.072 132.524 330.844 132.308C330.628 132.08 330.52 131.81 330.52 131.498C330.52 131.186 330.628 130.922 330.844 130.706C331.072 130.478 331.342 130.364 331.654 130.364C331.966 130.364 332.23 130.478 332.446 130.706C332.674 130.922 332.788 131.186 332.788 131.498C332.788 131.81 332.674 132.08 332.446 132.308C332.23 132.524 331.966 132.632 331.654 132.632ZM345.824 133.712C346.772 133.712 347.504 134.036 348.02 134.684C348.536 135.332 348.794 136.196 348.794 137.276V143H346.58V138.032C346.58 137.348 346.436 136.808 346.148 136.412C345.872 136.004 345.476 135.8 344.96 135.8C344.324 135.8 343.808 136.106 343.412 136.718C343.028 137.33 342.824 138.116 342.8 139.076V143H340.586V138.032C340.586 137.348 340.442 136.808 340.154 136.412C339.878 136.004 339.482 135.8 338.966 135.8C338.33 135.8 337.814 136.106 337.418 136.718C337.034 137.33 336.824 138.116 336.788 139.076V143H334.574V133.892H336.662L336.77 135.17C337.682 134.198 338.696 133.712 339.812 133.712C340.46 133.712 341.012 133.868 341.468 134.18C341.924 134.492 342.26 134.93 342.476 135.494C343.472 134.306 344.588 133.712 345.824 133.712ZM359.327 139.13H352.433C352.469 139.73 352.703 140.228 353.135 140.624C353.567 141.02 354.167 141.218 354.935 141.218C355.475 141.218 355.931 141.104 356.303 140.876C356.687 140.636 356.981 140.336 357.185 139.976L359.129 140.192C359.033 140.648 358.805 141.104 358.445 141.56C358.085 142.016 357.605 142.4 357.005 142.712C356.405 143.024 355.709 143.18 354.917 143.18C354.005 143.18 353.189 142.97 352.469 142.55C351.761 142.118 351.209 141.542 350.813 140.822C350.417 140.09 350.219 139.28 350.219 138.392C350.219 137.54 350.405 136.76 350.777 136.052C351.161 135.332 351.701 134.762 352.397 134.342C353.093 133.922 353.885 133.712 354.773 133.712C355.685 133.712 356.483 133.934 357.167 134.378C357.863 134.81 358.397 135.398 358.769 136.142C359.141 136.874 359.327 137.678 359.327 138.554V139.13ZM354.773 135.674C354.113 135.674 353.561 135.86 353.117 136.232C352.685 136.604 352.457 137.06 352.433 137.6H357.113C357.089 137.072 356.861 136.622 356.429 136.25C355.997 135.866 355.445 135.674 354.773 135.674ZM366.399 133.712C367.491 133.712 368.319 134.054 368.883 134.738C369.459 135.41 369.747 136.37 369.747 137.618V143H367.533V138.644C367.533 137.624 367.359 136.898 367.011 136.466C366.675 136.022 366.183 135.8 365.535 135.8C364.767 135.8 364.155 136.064 363.699 136.592C363.243 137.12 363.015 137.78 363.015 138.572V143H360.801V133.892H362.889L362.997 135.242C364.017 134.222 365.151 133.712 366.399 133.712ZM376.706 135.98H374.69V143H372.476V135.98H371.054V133.892H372.476V131.192H374.69V133.892H376.706V135.98Z" fill="white"/>
<path d="M329.001 105V117" stroke="white" stroke-width="2" stroke-linecap="round" stroke-linejoin="round"/>
<path d="M329.001 105C330.382 105 331.501 103.881 331.501 102.5C331.501 101.12 330.382 100 329.001 100C327.62 100 326.501 101.12 326.501 102.5C326.501 103.881 327.62 105 329.001 105Z" stroke="white" stroke-width="2" stroke-linecap="round" stroke-linejoin="round"/>
<path d="M322.001 95.0004V90.0004C322.001 89.7352 322.106 89.4809 322.294 89.2933C322.481 89.1058 322.736 89.0004 323.001 89.0004H335.001C335.266 89.0004 335.521 89.1058 335.708 89.2933C335.896 89.4809 336.001 89.7352 336.001 90.0004V95.0004" stroke="white" stroke-width="2" stroke-linecap="round" stroke-linejoin="round"/>
<path d="M322.001 95.0004L318.578 101.929C318.496 102.094 318.462 102.277 318.478 102.46C318.494 102.643 318.56 102.817 318.669 102.965L329.001 117L339.333 102.965C339.442 102.817 339.508 102.643 339.524 102.46C339.54 102.277 339.505 102.094 339.424 101.929L336.001 95.0004H322.001Z" stroke="white" stroke-width="2" stroke-linecap="round" stroke-linejoin="round"/>
<circle cx="525" cy="128" r="128" fill="#4EF6D0" fill-opacity="0.8"/>
<path d="M503.186 130.22V143H500.954V134.216L496.94 140.624H496.04L492.026 134.216V143H489.812V130.22H492.026L496.49 137.294L500.954 130.22H503.186ZM514.053 139.13H507.159C507.195 139.73 507.429 140.228 507.861 140.624C508.293 141.02 508.893 141.218 509.661 141.218C510.201 141.218 510.657 141.104 511.029 140.876C511.413 140.636 511.707 140.336 511.911 139.976L513.855 140.192C513.759 140.648 513.531 141.104 513.171 141.56C512.811 142.016 512.331 142.4 511.731 142.712C511.131 143.024 510.435 143.18 509.643 143.18C508.731 143.18 507.915 142.97 507.195 142.55C506.487 142.118 505.935 141.542 505.539 140.822C505.143 140.09 504.945 139.28 504.945 138.392C504.945 137.54 505.131 136.76 505.503 136.052C505.887 135.332 506.427 134.762 507.123 134.342C507.819 133.922 508.611 133.712 509.499 133.712C510.411 133.712 511.209 133.934 511.893 134.378C512.589 134.81 513.123 135.398 513.495 136.142C513.867 136.874 514.053 137.678 514.053 138.554V139.13ZM509.499 135.674C508.839 135.674 508.287 135.86 507.843 136.232C507.411 136.604 507.183 137.06 507.159 137.6H511.839C511.815 137.072 511.587 136.622 511.155 136.25C510.723 135.866 510.171 135.674 509.499 135.674ZM515.299 138.446C515.299 137.582 515.485 136.79 515.857 136.07C516.229 135.338 516.745 134.762 517.405 134.342C518.077 133.922 518.839 133.712 519.691 133.712C520.507 133.712 521.209 133.91 521.797 134.306C522.397 134.702 522.823 135.206 523.075 135.818L523.201 133.892H525.307V143H523.201L523.075 141.056C522.823 141.668 522.397 142.178 521.797 142.586C521.209 142.982 520.507 143.18 519.691 143.18C518.839 143.18 518.077 142.97 517.405 142.55C516.745 142.13 516.229 141.56 515.857 140.84C515.485 140.108 515.299 139.31 515.299 138.446ZM517.513 138.446C517.513 138.926 517.627 139.37 517.855 139.778C518.083 140.174 518.401 140.492 518.809 140.732C519.229 140.972 519.691 141.092 520.195 141.092C520.699 141.092 521.149 140.972 521.545 140.732C521.953 140.492 522.271 140.174 522.499 139.778C522.727 139.37 522.841 138.926 522.841 138.446C522.841 137.966 522.727 137.528 522.499 137.132C522.271 136.724 521.953 136.4 521.545 136.16C521.149 135.92 520.699 135.8 520.195 135.8C519.691 135.8 519.229 135.92 518.809 136.16C518.401 136.4 518.083 136.724 517.855 137.132C517.627 137.528 517.513 137.966 517.513 138.446ZM529.167 140.246C529.227 140.57 529.425 140.834 529.761 141.038C530.109 141.23 530.547 141.326 531.075 141.326C531.483 141.326 531.825 141.254 532.101 141.11C532.377 140.966 532.515 140.762 532.515 140.498C532.515 140.282 532.449 140.114 532.317 139.994C532.185 139.862 531.993 139.748 531.741 139.652C531.489 139.544 531.075 139.4 530.499 139.22C530.139 139.1 529.959 139.04 529.959 139.04C529.107 138.776 528.441 138.434 527.961 138.014C527.481 137.594 527.241 137.036 527.241 136.34C527.241 135.812 527.397 135.35 527.709 134.954C528.021 134.558 528.435 134.252 528.951 134.036C529.467 133.82 530.019 133.712 530.607 133.712C531.339 133.712 531.975 133.838 532.515 134.09C533.067 134.33 533.487 134.666 533.775 135.098C534.075 135.518 534.237 135.986 534.261 136.502H532.047C532.023 136.19 531.873 135.956 531.597 135.8C531.321 135.632 531.015 135.548 530.679 135.548C530.367 135.548 530.085 135.62 529.833 135.764C529.581 135.908 529.455 136.1 529.455 136.34C529.455 136.508 529.509 136.646 529.617 136.754C529.737 136.862 529.911 136.964 530.139 137.06C530.367 137.144 530.751 137.276 531.291 137.456L532.029 137.708C532.989 138.032 533.679 138.434 534.099 138.914C534.531 139.382 534.747 139.928 534.747 140.552C534.747 141.368 534.393 142.01 533.685 142.478C532.989 142.946 532.101 143.18 531.021 143.18C529.833 143.18 528.873 142.934 528.141 142.442C527.409 141.938 527.013 141.206 526.953 140.246H529.167ZM544.933 133.892V143H542.845L542.737 141.65C541.717 142.67 540.577 143.18 539.317 143.18C538.237 143.18 537.409 142.844 536.833 142.172C536.269 141.488 535.987 140.522 535.987 139.274V133.892H538.201V138.248C538.201 139.268 538.369 140 538.705 140.444C539.053 140.876 539.551 141.092 540.199 141.092C540.967 141.092 541.579 140.828 542.035 140.3C542.491 139.772 542.719 139.112 542.719 138.32V133.892H544.933ZM551.01 133.712C551.25 133.712 551.466 133.754 551.658 133.838C551.85 133.91 552 134 552.108 134.108L551.784 136.034C551.676 135.974 551.538 135.92 551.37 135.872C551.214 135.824 551.052 135.8 550.884 135.8C550.296 135.8 549.84 136.082 549.516 136.646C549.204 137.21 549.048 137.978 549.048 138.95V143H546.834V133.892H548.922L549.048 135.188V135.206C549.3 134.726 549.582 134.36 549.894 134.108C550.218 133.844 550.59 133.712 551.01 133.712ZM561.62 139.13H554.726C554.762 139.73 554.996 140.228 555.428 140.624C555.86 141.02 556.46 141.218 557.228 141.218C557.768 141.218 558.224 141.104 558.596 140.876C558.98 140.636 559.274 140.336 559.478 139.976L561.422 140.192C561.326 140.648 561.098 141.104 560.738 141.56C560.378 142.016 559.898 142.4 559.298 142.712C558.698 143.024 558.002 143.18 557.21 143.18C556.298 143.18 555.482 142.97 554.762 142.55C554.054 142.118 553.502 141.542 553.106 140.822C552.71 140.09 552.512 139.28 552.512 138.392C552.512 137.54 552.698 136.76 553.07 136.052C553.454 135.332 553.994 134.762 554.69 134.342C555.386 133.922 556.178 133.712 557.066 133.712C557.978 133.712 558.776 133.934 559.46 134.378C560.156 134.81 560.69 135.398 561.062 136.142C561.434 136.874 561.62 137.678 561.62 138.554V139.13ZM557.066 135.674C556.406 135.674 555.854 135.86 555.41 136.232C554.978 136.604 554.75 137.06 554.726 137.6H559.406C559.382 137.072 559.154 136.622 558.722 136.25C558.29 135.866 557.738 135.674 557.066 135.674Z" fill="white"/>
<path d="M518 98.5H513C512.448 98.5 512 98.9477 512 99.5V104.5C512 105.052 512.448 105.5 513 105.5H518C518.552 105.5 519 105.052 519 104.5V99.5C519 98.9477 518.552 98.5 518 98.5Z" stroke="white" stroke-width="2" stroke-linecap="round" stroke-linejoin="round"/>
<path d="M536 91H530C529.448 91 529 91.4477 529 92V98C529 98.5523 529.448 99 530 99H536C536.552 99 537 98.5523 537 98V92C537 91.4477 536.552 91 536 91Z" stroke="white" stroke-width="2" stroke-linecap="round" stroke-linejoin="round"/>
<path d="M536 105H530C529.448 105 529 105.448 529 106V112C529 112.552 529.448 113 530 113H536C536.552 113 537 112.552 537 112V106C537 105.448 536.552 105 536 105Z" stroke="white" stroke-width="2" stroke-linecap="round" stroke-linejoin="round"/>
<path d="M519 102H524" stroke="white" stroke-width="2" stroke-linecap="round" stroke-linejoin="round"/>
<path d="M529 109H527C526.204 109 525.441 108.684 524.879 108.121C524.316 107.559 524 106.796 524 106V98C524 97.2044 524.316 96.4413 524.879 95.8787C525.441 95.3161 526.204 95 527 95H529" stroke="white" stroke-width="2" stroke-linecap="round" stroke-linejoin="round"/>
<circle cx="128" cy="128" r="128" fill="#00BF93"/>
<path d="M94.3415 132.308V135.44H98.2295V137.528H94.3415V140.912H99.2915V143H92.1275V130.22H99.2915V132.308H94.3415ZM110.336 133.892L106.484 143H103.928L100.076 133.892H102.56L105.224 140.678L107.87 133.892H110.336ZM110.662 138.446C110.662 137.582 110.848 136.79 111.22 136.07C111.592 135.338 112.108 134.762 112.768 134.342C113.44 133.922 114.202 133.712 115.054 133.712C115.87 133.712 116.572 133.91 117.16 134.306C117.76 134.702 118.186 135.206 118.438 135.818L118.564 133.892H120.67V143H118.564L118.438 141.056C118.186 141.668 117.76 142.178 117.16 142.586C116.572 142.982 115.87 143.18 115.054 143.18C114.202 143.18 113.44 142.97 112.768 142.55C112.108 142.13 111.592 141.56 111.22 140.84C110.848 140.108 110.662 139.31 110.662 138.446ZM112.876 138.446C112.876 138.926 112.99 139.37 113.218 139.778C113.446 140.174 113.764 140.492 114.172 140.732C114.592 140.972 115.054 141.092 115.558 141.092C116.062 141.092 116.512 140.972 116.908 140.732C117.316 140.492 117.634 140.174 117.862 139.778C118.09 139.37 118.204 138.926 118.204 138.446C118.204 137.966 118.09 137.528 117.862 137.132C117.634 136.724 117.316 136.4 116.908 136.16C116.512 135.92 116.062 135.8 115.558 135.8C115.054 135.8 114.592 135.92 114.172 136.16C113.764 136.4 113.446 136.724 113.218 137.132C112.99 137.528 112.876 137.966 112.876 138.446ZM124.776 143H122.562V129.5H124.776V143ZM135.673 133.892V143H133.585L133.477 141.65C132.457 142.67 131.317 143.18 130.057 143.18C128.977 143.18 128.149 142.844 127.573 142.172C127.009 141.488 126.727 140.522 126.727 139.274V133.892H128.941V138.248C128.941 139.268 129.109 140 129.445 140.444C129.793 140.876 130.291 141.092 130.939 141.092C131.707 141.092 132.319 140.828 132.775 140.3C133.231 139.772 133.459 139.112 133.459 138.32V133.892H135.673ZM136.976 138.446C136.976 137.582 137.162 136.79 137.534 136.07C137.906 135.338 138.422 134.762 139.082 134.342C139.754 133.922 140.516 133.712 141.368 133.712C142.184 133.712 142.886 133.91 143.474 134.306C144.074 134.702 144.5 135.206 144.752 135.818L144.878 133.892H146.984V143H144.878L144.752 141.056C144.5 141.668 144.074 142.178 143.474 142.586C142.886 142.982 142.184 143.18 141.368 143.18C140.516 143.18 139.754 142.97 139.082 142.55C138.422 142.13 137.906 141.56 137.534 140.84C137.162 140.108 136.976 139.31 136.976 138.446ZM139.19 138.446C139.19 138.926 139.304 139.37 139.532 139.778C139.76 140.174 140.078 140.492 140.486 140.732C140.906 140.972 141.368 141.092 141.872 141.092C142.376 141.092 142.826 140.972 143.222 140.732C143.63 140.492 143.948 140.174 144.176 139.778C144.404 139.37 144.518 138.926 144.518 138.446C144.518 137.966 144.404 137.528 144.176 137.132C143.948 136.724 143.63 136.4 143.222 136.16C142.826 135.92 142.376 135.8 141.872 135.8C141.368 135.8 140.906 135.92 140.486 136.16C140.078 136.4 139.76 136.724 139.532 137.132C139.304 137.528 139.19 137.966 139.19 138.446ZM154.112 135.98H152.096V143H149.882V135.98H148.46V133.892H149.882V131.192H152.096V133.892H154.112V135.98ZM163.926 139.13H157.032C157.068 139.73 157.302 140.228 157.734 140.624C158.166 141.02 158.766 141.218 159.534 141.218C160.074 141.218 160.53 141.104 160.902 140.876C161.286 140.636 161.58 140.336 161.784 139.976L163.728 140.192C163.632 140.648 163.404 141.104 163.044 141.56C162.684 142.016 162.204 142.4 161.604 142.712C161.004 143.024 160.308 143.18 159.516 143.18C158.604 143.18 157.788 142.97 157.068 142.55C156.36 142.118 155.808 141.542 155.412 140.822C155.016 140.09 154.818 139.28 154.818 138.392C154.818 137.54 155.004 136.76 155.376 136.052C155.76 135.332 156.3 134.762 156.996 134.342C157.692 133.922 158.484 133.712 159.372 133.712C160.284 133.712 161.082 133.934 161.766 134.378C162.462 134.81 162.996 135.398 163.368 136.142C163.74 136.874 163.926 137.678 163.926 138.554V139.13ZM159.372 135.674C158.712 135.674 158.16 135.86 157.716 136.232C157.284 136.604 157.056 137.06 157.032 137.6H161.712C161.688 137.072 161.46 136.622 161.028 136.25C160.596 135.866 160.044 135.674 159.372 135.674Z" fill="white"/>
<path d="M128 92.999C118 92.999 114 102 114 102C114 102 118 110.999 128 110.999C138 110.999 142 102 142 102C142 102 138 92.999 128 92.999Z" stroke="white" stroke-width="2" stroke-linecap="round" stroke-linejoin="round"/>
<path d="M128 107C130.761 107 133 104.761 133 102C133 99.2386 130.761 97.0001 128 97.0001C125.239 97.0001 123 99.2386 123 102C123 104.761 125.239 107 128 107Z" stroke="white" stroke-width="2" stroke-linecap="round" stroke-linejoin="round"/>
<path d="M505.849 290.22H498.037V291.678H501.169V303H502.717V291.678H505.849V290.22ZM514.783 298.536C514.783 295.962 513.019 293.712 510.229 293.712C507.529 293.712 505.675 295.836 505.675 298.392C505.675 301.146 507.619 303.18 510.373 303.18C512.767 303.18 514.171 301.596 514.531 300.354L513.163 300.174C512.767 300.984 511.867 301.794 510.373 301.794C508.501 301.794 507.277 300.588 507.223 298.932H514.783V298.536ZM510.229 295.098C512.011 295.098 513.145 296.394 513.235 297.816H507.223C507.277 296.322 508.519 295.098 510.229 295.098ZM516.011 300.48C516.227 302.226 517.721 303.18 519.809 303.18C521.807 303.18 523.265 302.226 523.265 300.714C523.265 299.346 522.293 298.536 520.583 297.906C518.765 297.204 517.847 296.97 517.847 296.142C517.847 295.404 518.693 295.008 519.431 295.008C520.259 295.008 521.051 295.458 521.159 296.286H522.689C522.599 294.81 521.321 293.712 519.395 293.712C517.829 293.712 516.317 294.612 516.317 296.142C516.317 297.582 517.541 298.266 518.873 298.716C520.781 299.436 521.717 299.652 521.717 300.678C521.717 301.398 520.943 301.866 519.845 301.866C518.567 301.866 517.793 301.308 517.559 300.48H516.011ZM529.116 293.892H527.226V291.192H525.696V293.892H524.4V295.35H525.696V303H527.226V295.35H529.116V293.892ZM531.418 292.38C531.922 292.38 532.3 291.984 532.3 291.498C532.3 290.994 531.922 290.616 531.418 290.616C530.932 290.616 530.536 290.994 530.536 291.498C530.536 291.984 530.932 292.38 531.418 292.38ZM532.192 293.892H530.644V303H532.192V293.892ZM539.685 293.712C538.119 293.712 536.931 294.504 536.103 295.476L536.031 293.892H534.573V303H536.121V298.356C536.121 297.06 536.985 295.17 539.145 295.17C540.549 295.17 541.521 296.034 541.521 298.32V303H543.069V297.672C543.069 295.098 541.791 293.712 539.685 293.712ZM548.651 301.524C547.553 301.524 546.887 301.38 546.887 300.912C546.887 300.678 547.085 300.48 547.409 300.336C547.823 300.48 548.291 300.552 548.777 300.552C550.901 300.552 552.539 299.076 552.539 297.132C552.539 296.394 552.305 295.728 551.891 295.188L552.953 295.278V293.892L550.577 294.108C550.037 293.856 549.425 293.712 548.777 293.712C546.635 293.712 545.015 295.17 545.015 297.132C545.015 298.284 545.573 299.256 546.473 299.868C545.951 300.12 545.429 300.552 545.429 301.164C545.429 301.668 545.771 302.064 546.257 302.334C545.591 302.748 545.015 303.414 545.015 304.422C545.015 306.294 546.851 307.32 548.993 307.32C551.135 307.32 552.971 306.294 552.971 304.422C552.971 302.658 551.351 301.524 548.651 301.524ZM548.777 295.008C550.055 295.008 551.063 295.908 551.063 297.132C551.063 298.338 550.055 299.238 548.777 299.238C547.517 299.238 546.473 298.338 546.473 297.132C546.473 295.908 547.517 295.008 548.777 295.008ZM548.993 306.024C547.499 306.024 546.473 305.448 546.473 304.386C546.473 303.684 547.157 303.054 547.715 302.802C547.895 302.82 548.057 302.838 548.237 302.838C550.145 302.838 551.513 303.252 551.513 304.44C551.513 305.484 550.469 306.024 548.993 306.024Z" fill="#00BF93"/>
<path d="M491.844 312.678V311.22H484.986V324H486.534V318.15H490.998V316.692H486.534V312.678H491.844ZM501.379 319.536C501.379 316.962 499.615 314.712 496.825 314.712C494.125 314.712 492.271 316.836 492.271 319.392C492.271 322.146 494.215 324.18 496.969 324.18C499.363 324.18 500.767 322.596 501.127 321.354L499.759 321.174C499.363 321.984 498.463 322.794 496.969 322.794C495.097 322.794 493.873 321.588 493.819 319.932H501.379V319.536ZM496.825 316.098C498.607 316.098 499.741 317.394 499.831 318.816H493.819C493.873 317.322 495.115 316.098 496.825 316.098ZM511.997 319.536C511.997 316.962 510.233 314.712 507.443 314.712C504.743 314.712 502.889 316.836 502.889 319.392C502.889 322.146 504.833 324.18 507.587 324.18C509.981 324.18 511.385 322.596 511.745 321.354L510.377 321.174C509.981 321.984 509.081 322.794 507.587 322.794C505.715 322.794 504.491 321.588 504.437 319.932H511.997V319.536ZM507.443 316.098C509.225 316.098 510.359 317.394 510.449 318.816H504.437C504.491 317.322 505.733 316.098 507.443 316.098ZM513.506 319.428C513.506 322.056 515.432 324.18 518.042 324.18C519.752 324.18 521.21 323.208 521.786 321.84L521.858 324H523.334V310.5H521.786V317.034C521.21 315.684 519.752 314.712 518.042 314.712C515.432 314.712 513.506 316.836 513.506 319.428ZM515.054 319.428C515.054 317.664 516.494 316.17 518.348 316.17C520.22 316.17 521.624 317.664 521.624 319.428C521.624 321.228 520.22 322.722 518.348 322.722C516.494 322.722 515.054 321.228 515.054 319.428ZM535.406 319.428C535.406 316.836 533.48 314.712 530.87 314.712C529.16 314.712 527.684 315.684 527.126 317.034V310.5H525.578V324H527.054L527.126 321.84C527.684 323.208 529.16 324.18 530.87 324.18C533.48 324.18 535.406 322.056 535.406 319.428ZM533.858 319.428C533.858 321.228 532.418 322.722 530.546 322.722C528.692 322.722 527.288 321.228 527.288 319.428C527.288 317.664 528.692 316.17 530.546 316.17C532.418 316.17 533.858 317.664 533.858 319.428ZM536.726 319.428C536.726 322.056 538.652 324.18 541.262 324.18C543.044 324.18 544.43 323.136 545.006 321.768L545.078 324H546.554V314.892H545.078L545.006 317.124C544.43 315.756 543.044 314.712 541.262 314.712C538.652 314.712 536.726 316.836 536.726 319.428ZM538.274 319.428C538.274 317.664 539.714 316.17 541.568 316.17C543.44 316.17 544.844 317.664 544.844 319.428C544.844 321.228 543.44 322.722 541.568 322.722C539.714 322.722 538.274 321.228 538.274 319.428ZM555.712 317.304V315.81C555.01 315.126 554.038 314.712 552.868 314.712C550.204 314.712 548.152 316.872 548.152 319.428C548.152 322.038 550.204 324.18 552.868 324.18C554.038 324.18 555.01 323.766 555.712 323.082V321.57C554.956 322.326 554.128 322.722 553.102 322.722C551.356 322.722 549.772 321.336 549.772 319.428C549.772 317.556 551.356 316.17 553.102 316.17C554.128 316.17 554.956 316.566 555.712 317.304ZM566.189 314.892H564.029L559.403 319.266V310.5H557.855V324H559.403V321.318L560.915 319.896L564.263 324H566.189L562.013 318.852L566.189 314.892Z" fill="#00BF93"/>
<path d="M501.16 332.22H497.038V345H501.16C504.796 345 507.226 342.192 507.226 338.61C507.226 335.028 504.796 332.22 501.16 332.22ZM501.16 343.542H498.568V333.678H501.16C503.77 333.678 505.678 335.622 505.678 338.61C505.678 341.598 503.77 343.542 501.16 343.542ZM517.542 340.536C517.542 337.962 515.778 335.712 512.988 335.712C510.288 335.712 508.434 337.836 508.434 340.392C508.434 343.146 510.378 345.18 513.132 345.18C515.526 345.18 516.93 343.596 517.29 342.354L515.922 342.174C515.526 342.984 514.626 343.794 513.132 343.794C511.26 343.794 510.036 342.588 509.982 340.932H517.542V340.536ZM512.988 337.098C514.77 337.098 515.904 338.394 515.994 339.816H509.982C510.036 338.322 511.278 337.098 512.988 337.098ZM519.333 349.14H520.881V342.84C521.439 344.226 522.915 345.18 524.625 345.18C527.235 345.18 529.161 343.056 529.161 340.428C529.161 337.836 527.235 335.712 524.625 335.712C522.915 335.712 521.439 336.666 520.881 338.034L520.791 335.892H519.333V349.14ZM521.025 340.428C521.025 338.664 522.447 337.17 524.301 337.17C526.173 337.17 527.613 338.664 527.613 340.428C527.613 342.228 526.173 343.722 524.301 343.722C522.447 343.722 521.025 342.228 521.025 340.428ZM532.412 331.5H530.864V345H532.412V331.5ZM539.151 345.18C541.923 345.18 543.975 343.056 543.975 340.428C543.975 337.836 541.923 335.712 539.151 335.712C536.397 335.712 534.309 337.836 534.309 340.428C534.309 343.056 536.397 345.18 539.151 345.18ZM539.151 343.722C537.297 343.722 535.857 342.228 535.857 340.428C535.857 338.664 537.297 337.17 539.151 337.17C541.023 337.17 542.427 338.664 542.427 340.428C542.427 342.228 541.023 343.722 539.151 343.722ZM544.711 335.892L548.671 344.982L546.871 349.14H548.509L554.251 335.892H552.595L549.499 343.074L546.367 335.892H544.711Z" fill="#00BF93"/>
<path d="M292.968 303H294.516V290.22H292.968V303ZM296.4 298.428C296.4 301.056 298.326 303.18 300.936 303.18C302.646 303.18 304.104 302.208 304.68 300.84L304.752 303H306.228V289.5H304.68V296.034C304.104 294.684 302.646 293.712 300.936 293.712C298.326 293.712 296.4 295.836 296.4 298.428ZM297.948 298.428C297.948 296.664 299.388 295.17 301.242 295.17C303.114 295.17 304.518 296.664 304.518 298.428C304.518 300.228 303.114 301.722 301.242 301.722C299.388 301.722 297.948 300.228 297.948 298.428ZM317.409 298.536C317.409 295.962 315.645 293.712 312.855 293.712C310.155 293.712 308.301 295.836 308.301 298.392C308.301 301.146 310.245 303.18 312.999 303.18C315.393 303.18 316.797 301.596 317.157 300.354L315.789 300.174C315.393 300.984 314.493 301.794 312.999 301.794C311.127 301.794 309.903 300.588 309.849 298.932H317.409V298.536ZM312.855 295.098C314.637 295.098 315.771 296.394 315.861 297.816H309.849C309.903 296.322 311.145 295.098 312.855 295.098ZM318.918 298.428C318.918 301.056 320.844 303.18 323.454 303.18C325.236 303.18 326.622 302.136 327.198 300.768L327.27 303H328.746V293.892H327.27L327.198 296.124C326.622 294.756 325.236 293.712 323.454 293.712C320.844 293.712 318.918 295.836 318.918 298.428ZM320.466 298.428C320.466 296.664 321.906 295.17 323.76 295.17C325.632 295.17 327.036 296.664 327.036 298.428C327.036 300.228 325.632 301.722 323.76 301.722C321.906 301.722 320.466 300.228 320.466 298.428ZM335.24 293.892H333.35V291.192H331.82V293.892H330.524V295.35H331.82V303H333.35V295.35H335.24V293.892ZM337.542 292.38C338.046 292.38 338.424 291.984 338.424 291.498C338.424 290.994 338.046 290.616 337.542 290.616C337.056 290.616 336.66 290.994 336.66 291.498C336.66 291.984 337.056 292.38 337.542 292.38ZM338.316 293.892H336.768V303H338.316V293.892ZM345.205 303.18C347.977 303.18 350.029 301.056 350.029 298.428C350.029 295.836 347.977 293.712 345.205 293.712C342.451 293.712 340.363 295.836 340.363 298.428C340.363 301.056 342.451 303.18 345.205 303.18ZM345.205 301.722C343.351 301.722 341.911 300.228 341.911 298.428C341.911 296.664 343.351 295.17 345.205 295.17C347.077 295.17 348.481 296.664 348.481 298.428C348.481 300.228 347.077 301.722 345.205 301.722ZM356.936 293.712C355.37 293.712 354.182 294.504 353.354 295.476L353.282 293.892H351.824V303H353.372V298.356C353.372 297.06 354.236 295.17 356.396 295.17C357.8 295.17 358.772 296.034 358.772 298.32V303H360.32V297.672C360.32 295.098 359.042 293.712 356.936 293.712Z" fill="#00BF93"/>
<path d="M290.42 311.22H286.208V324H287.738V319.626H290.42C292.904 319.626 294.938 318.168 294.938 315.414C294.938 312.678 292.904 311.22 290.42 311.22ZM290.42 318.15H287.738V312.678H290.42C292.13 312.678 293.408 313.56 293.408 315.414C293.408 317.268 292.13 318.15 290.42 318.15ZM300.151 314.712C299.161 314.712 298.531 315.414 298.063 316.386V316.35L297.973 314.892H296.515V324H298.063V319.464C298.063 317.754 298.657 316.17 300.061 316.17C300.493 316.17 300.853 316.332 301.033 316.458L301.303 315.108C301.105 314.928 300.709 314.712 300.151 314.712ZM306.735 324.18C309.507 324.18 311.559 322.056 311.559 319.428C311.559 316.836 309.507 314.712 306.735 314.712C303.981 314.712 301.893 316.836 301.893 319.428C301.893 322.056 303.981 324.18 306.735 324.18ZM306.735 322.722C304.881 322.722 303.441 321.228 303.441 319.428C303.441 317.664 304.881 316.17 306.735 316.17C308.607 316.17 310.011 317.664 310.011 319.428C310.011 321.228 308.607 322.722 306.735 322.722ZM317.53 314.892H315.64V312.192H314.11V314.892H312.814V316.35H314.11V324H315.64V316.35H317.53V314.892ZM323.329 324.18C326.101 324.18 328.153 322.056 328.153 319.428C328.153 316.836 326.101 314.712 323.329 314.712C320.575 314.712 318.487 316.836 318.487 319.428C318.487 322.056 320.575 324.18 323.329 324.18ZM323.329 322.722C321.475 322.722 320.035 321.228 320.035 319.428C320.035 317.664 321.475 316.17 323.329 316.17C325.201 316.17 326.605 317.664 326.605 319.428C326.605 321.228 325.201 322.722 323.329 322.722ZM334.124 314.892H332.234V312.192H330.704V314.892H329.408V316.35H330.704V324H332.234V316.35H334.124V314.892ZM335.463 314.892L339.423 323.982L337.623 328.14H339.261L345.003 314.892H343.347L340.251 322.074L337.119 314.892H335.463ZM346.647 328.14H348.195V321.84C348.753 323.226 350.229 324.18 351.939 324.18C354.549 324.18 356.475 322.056 356.475 319.428C356.475 316.836 354.549 314.712 351.939 314.712C350.229 314.712 348.753 315.666 348.195 317.034L348.105 314.892H346.647V328.14ZM348.339 319.428C348.339 317.664 349.761 316.17 351.615 316.17C353.487 316.17 354.927 317.664 354.927 319.428C354.927 321.228 353.487 322.722 351.615 322.722C349.761 322.722 348.339 321.228 348.339 319.428ZM366.9 319.536C366.9 316.962 365.136 314.712 362.346 314.712C359.646 314.712 357.792 316.836 357.792 319.392C357.792 322.146 359.736 324.18 362.49 324.18C364.884 324.18 366.288 322.596 366.648 321.354L365.28 321.174C364.884 321.984 363.984 322.794 362.49 322.794C360.618 322.794 359.394 321.588 359.34 319.932H366.9V319.536ZM362.346 316.098C364.128 316.098 365.262 317.394 365.352 318.816H359.34C359.394 317.322 360.636 316.098 362.346 316.098Z" fill="#00BF93"/>
<path d="M310.263 332.22L305.349 340.14L300.417 332.22H298.887V345H300.417V335.028L304.989 342.408H305.691L310.263 335.028V345H311.811V332.22H310.263ZM318.689 345.18C321.461 345.18 323.513 343.056 323.513 340.428C323.513 337.836 321.461 335.712 318.689 335.712C315.935 335.712 313.847 337.836 313.847 340.428C313.847 343.056 315.935 345.18 318.689 345.18ZM318.689 343.722C316.835 343.722 315.395 342.228 315.395 340.428C315.395 338.664 316.835 337.17 318.689 337.17C320.561 337.17 321.965 338.664 321.965 340.428C321.965 342.228 320.561 343.722 318.689 343.722ZM329.484 335.892H327.594V333.192H326.063V335.892H324.768V337.35H326.063V345H327.594V337.35H329.484V335.892ZM331.785 334.38C332.289 334.38 332.667 333.984 332.667 333.498C332.667 332.994 332.289 332.616 331.785 332.616C331.299 332.616 330.903 332.994 330.903 333.498C330.903 333.984 331.299 334.38 331.785 334.38ZM332.559 335.892H331.011V345H332.559V335.892ZM339.448 345.18C342.22 345.18 344.272 343.056 344.272 340.428C344.272 337.836 342.22 335.712 339.448 335.712C336.694 335.712 334.606 337.836 334.606 340.428C334.606 343.056 336.694 345.18 339.448 345.18ZM339.448 343.722C337.594 343.722 336.154 342.228 336.154 340.428C336.154 338.664 337.594 337.17 339.448 337.17C341.32 337.17 342.724 338.664 342.724 340.428C342.724 342.228 341.32 343.722 339.448 343.722ZM351.179 335.712C349.613 335.712 348.425 336.504 347.597 337.476L347.525 335.892H346.067V345H347.615V340.356C347.615 339.06 348.479 337.17 350.639 337.17C352.043 337.17 353.015 338.034 353.015 340.32V345H354.563V339.672C354.563 337.098 353.285 335.712 351.179 335.712Z" fill="#00BF93"/>
<path d="M78.0012 303H79.6032L74.9952 290.22H73.2492L68.6412 303H70.2432L71.3772 299.85H76.8672L78.0012 303ZM71.8992 298.392L74.1132 292.236L76.3272 298.392H71.8992ZM80.5809 300.48C80.7969 302.226 82.2909 303.18 84.3789 303.18C86.3769 303.18 87.8349 302.226 87.8349 300.714C87.8349 299.346 86.8629 298.536 85.1529 297.906C83.3349 297.204 82.4169 296.97 82.4169 296.142C82.4169 295.404 83.2629 295.008 84.0009 295.008C84.8289 295.008 85.6209 295.458 85.7289 296.286H87.2589C87.1689 294.81 85.8909 293.712 83.9649 293.712C82.3989 293.712 80.8869 294.612 80.8869 296.142C80.8869 297.582 82.1109 298.266 83.4429 298.716C85.3509 299.436 86.2869 299.652 86.2869 300.678C86.2869 301.398 85.5129 301.866 84.4149 301.866C83.1369 301.866 82.3629 301.308 82.1289 300.48H80.5809ZM88.9657 300.48C89.1817 302.226 90.6757 303.18 92.7637 303.18C94.7617 303.18 96.2197 302.226 96.2197 300.714C96.2197 299.346 95.2477 298.536 93.5377 297.906C91.7197 297.204 90.8017 296.97 90.8017 296.142C90.8017 295.404 91.6477 295.008 92.3857 295.008C93.2137 295.008 94.0057 295.458 94.1137 296.286H95.6437C95.5537 294.81 94.2757 293.712 92.3497 293.712C90.7837 293.712 89.2717 294.612 89.2717 296.142C89.2717 297.582 90.4957 298.266 91.8277 298.716C93.7357 299.436 94.6717 299.652 94.6717 300.678C94.6717 301.398 93.8977 301.866 92.7997 301.866C91.5217 301.866 90.7477 301.308 90.5137 300.48H88.9657ZM104.683 293.892V298.536H104.665C104.665 299.832 103.801 301.722 101.641 301.722C100.237 301.722 99.2651 300.858 99.2651 298.572V293.892H97.7171V299.22C97.7171 301.794 98.9951 303.18 101.101 303.18C102.685 303.18 103.855 302.388 104.701 301.398L104.755 303H106.213V293.892H104.683ZM119.44 293.712C117.928 293.712 116.794 294.63 116.002 295.764C115.588 294.504 114.634 293.712 113.212 293.712C111.844 293.712 110.764 294.486 109.99 295.476L109.918 293.892H108.46V303H110.008V298.662C110.116 296.754 111.106 295.17 112.672 295.17C113.968 295.17 114.688 296.232 114.688 297.798V303H116.236V298.662C116.344 296.754 117.334 295.17 118.9 295.17C120.214 295.17 120.916 296.232 120.916 297.798V303H122.464V297.33C122.464 295.206 121.384 293.712 119.44 293.712ZM124.72 307.14H126.268V300.84C126.826 302.226 128.302 303.18 130.012 303.18C132.622 303.18 134.548 301.056 134.548 298.428C134.548 295.836 132.622 293.712 130.012 293.712C128.302 293.712 126.826 294.666 126.268 296.034L126.178 293.892H124.72V307.14ZM126.412 298.428C126.412 296.664 127.834 295.17 129.688 295.17C131.56 295.17 133 296.664 133 298.428C133 300.228 131.56 301.722 129.688 301.722C127.834 301.722 126.412 300.228 126.412 298.428ZM140.515 293.892H138.625V291.192H137.095V293.892H135.799V295.35H137.095V303H138.625V295.35H140.515V293.892ZM142.816 292.38C143.32 292.38 143.698 291.984 143.698 291.498C143.698 290.994 143.32 290.616 142.816 290.616C142.33 290.616 141.934 290.994 141.934 291.498C141.934 291.984 142.33 292.38 142.816 292.38ZM143.59 293.892H142.042V303H143.59V293.892ZM150.48 303.18C153.252 303.18 155.304 301.056 155.304 298.428C155.304 295.836 153.252 293.712 150.48 293.712C147.726 293.712 145.638 295.836 145.638 298.428C145.638 301.056 147.726 303.18 150.48 303.18ZM150.48 301.722C148.626 301.722 147.186 300.228 147.186 298.428C147.186 296.664 148.626 295.17 150.48 295.17C152.352 295.17 153.756 296.664 153.756 298.428C153.756 300.228 152.352 301.722 150.48 301.722ZM162.211 293.712C160.645 293.712 159.457 294.504 158.629 295.476L158.557 293.892H157.099V303H158.647V298.356C158.647 297.06 159.511 295.17 161.671 295.17C163.075 295.17 164.047 296.034 164.047 298.32V303H165.595V297.672C165.595 295.098 164.317 293.712 162.211 293.712ZM167.276 300.48C167.492 302.226 168.986 303.18 171.074 303.18C173.072 303.18 174.53 302.226 174.53 300.714C174.53 299.346 173.558 298.536 171.848 297.906C170.03 297.204 169.112 296.97 169.112 296.142C169.112 295.404 169.958 295.008 170.696 295.008C171.524 295.008 172.316 295.458 172.424 296.286H173.954C173.864 294.81 172.586 293.712 170.66 293.712C169.094 293.712 167.582 294.612 167.582 296.142C167.582 297.582 168.806 298.266 170.138 298.716C172.046 299.436 172.982 299.652 172.982 300.678C172.982 301.398 172.208 301.866 171.11 301.866C169.832 301.866 169.058 301.308 168.824 300.48H167.276Z" fill="#00BF93"/>
<path d="M81.3681 311.22H77.1561V324H78.6861V319.626H81.3681C83.8521 319.626 85.8861 318.168 85.8861 315.414C85.8861 312.678 83.8521 311.22 81.3681 311.22ZM81.3681 318.15H78.6861V312.678H81.3681C83.0781 312.678 84.3561 313.56 84.3561 315.414C84.3561 317.268 83.0781 318.15 81.3681 318.15ZM86.7421 319.428C86.7421 322.056 88.6681 324.18 91.2781 324.18C93.0601 324.18 94.4461 323.136 95.0221 321.768L95.0941 324H96.5701V314.892H95.0941L95.0221 317.124C94.4461 315.756 93.0601 314.712 91.2781 314.712C88.6681 314.712 86.7421 316.836 86.7421 319.428ZM88.2901 319.428C88.2901 317.664 89.7301 316.17 91.5841 316.17C93.4561 316.17 94.8601 317.664 94.8601 319.428C94.8601 321.228 93.4561 322.722 91.5841 322.722C89.7301 322.722 88.2901 321.228 88.2901 319.428ZM99.249 313.38C99.753 313.38 100.131 312.984 100.131 312.498C100.131 311.994 99.753 311.616 99.249 311.616C98.763 311.616 98.367 311.994 98.367 312.498C98.367 312.984 98.763 313.38 99.249 313.38ZM100.023 314.892H98.475V324H100.023V314.892ZM107.516 314.712C105.95 314.712 104.762 315.504 103.934 316.476L103.862 314.892H102.404V324H103.952V319.356C103.952 318.06 104.816 316.17 106.976 316.17C108.38 316.17 109.352 317.034 109.352 319.32V324H110.9V318.672C110.9 316.098 109.622 314.712 107.516 314.712ZM122.202 311.22H117.99V324H119.52V319.626H122.202C124.686 319.626 126.72 318.168 126.72 315.414C126.72 312.678 124.686 311.22 122.202 311.22ZM122.202 318.15H119.52V312.678H122.202C123.912 312.678 125.19 313.56 125.19 315.414C125.19 317.268 123.912 318.15 122.202 318.15ZM132.418 324.18C135.19 324.18 137.242 322.056 137.242 319.428C137.242 316.836 135.19 314.712 132.418 314.712C129.664 314.712 127.576 316.836 127.576 319.428C127.576 322.056 129.664 324.18 132.418 324.18ZM132.418 322.722C130.564 322.722 129.124 321.228 129.124 319.428C129.124 317.664 130.564 316.17 132.418 316.17C134.29 316.17 135.694 317.664 135.694 319.428C135.694 321.228 134.29 322.722 132.418 322.722ZM139.696 313.38C140.2 313.38 140.578 312.984 140.578 312.498C140.578 311.994 140.2 311.616 139.696 311.616C139.21 311.616 138.814 311.994 138.814 312.498C138.814 312.984 139.21 313.38 139.696 313.38ZM140.47 314.892H138.922V324H140.47V314.892ZM147.963 314.712C146.397 314.712 145.209 315.504 144.381 316.476L144.309 314.892H142.851V324H144.399V319.356C144.399 318.06 145.263 316.17 147.423 316.17C148.827 316.17 149.799 317.034 149.799 319.32V324H151.347V318.672C151.347 316.098 150.069 314.712 147.963 314.712ZM157.662 314.892H155.772V312.192H154.242V314.892H152.946V316.35H154.242V324H155.772V316.35H157.662V314.892ZM158.689 321.48C158.905 323.226 160.399 324.18 162.487 324.18C164.485 324.18 165.943 323.226 165.943 321.714C165.943 320.346 164.971 319.536 163.261 318.906C161.443 318.204 160.525 317.97 160.525 317.142C160.525 316.404 161.371 316.008 162.109 316.008C162.937 316.008 163.729 316.458 163.837 317.286H165.367C165.277 315.81 163.999 314.712 162.073 314.712C160.507 314.712 158.995 315.612 158.995 317.142C158.995 318.582 160.219 319.266 161.551 319.716C163.459 320.436 164.395 320.652 164.395 321.678C164.395 322.398 163.621 322.866 162.523 322.866C161.245 322.866 160.471 322.308 160.237 321.48H158.689Z" fill="#00BF93"/>
<path d="M73.9029 345.18C77.5569 345.18 80.3649 342.228 80.3649 338.61C80.3649 334.992 77.5569 332.04 73.9029 332.04C70.2669 332.04 67.4589 334.992 67.4589 338.61C67.4589 342.228 70.2669 345.18 73.9029 345.18ZM73.9029 343.722C71.1309 343.722 69.0069 341.4 69.0069 338.61C69.0069 335.82 71.1309 333.498 73.9029 333.498C76.6929 333.498 78.8169 335.82 78.8169 338.61C78.8169 341.4 76.6929 343.722 73.9029 343.722ZM81.9432 349.14H83.4912V342.84C84.0492 344.226 85.5252 345.18 87.2352 345.18C89.8452 345.18 91.7712 343.056 91.7712 340.428C91.7712 337.836 89.8452 335.712 87.2352 335.712C85.5252 335.712 84.0492 336.666 83.4912 338.034L83.4012 335.892H81.9432V349.14ZM83.6352 340.428C83.6352 338.664 85.0572 337.17 86.9112 337.17C88.7832 337.17 90.2232 338.664 90.2232 340.428C90.2232 342.228 88.7832 343.722 86.9112 343.722C85.0572 343.722 83.6352 342.228 83.6352 340.428ZM93.5624 349.14H95.1104V342.84C95.6684 344.226 97.1444 345.18 98.8544 345.18C101.464 345.18 103.39 343.056 103.39 340.428C103.39 337.836 101.464 335.712 98.8544 335.712C97.1444 335.712 95.6684 336.666 95.1104 338.034L95.0204 335.892H93.5624V349.14ZM95.2544 340.428C95.2544 338.664 96.6764 337.17 98.5304 337.17C100.402 337.17 101.842 338.664 101.842 340.428C101.842 342.228 100.402 343.722 98.5304 343.722C96.6764 343.722 95.2544 342.228 95.2544 340.428ZM109.549 345.18C112.321 345.18 114.373 343.056 114.373 340.428C114.373 337.836 112.321 335.712 109.549 335.712C106.795 335.712 104.707 337.836 104.707 340.428C104.707 343.056 106.795 345.18 109.549 345.18ZM109.549 343.722C107.695 343.722 106.255 342.228 106.255 340.428C106.255 338.664 107.695 337.17 109.549 337.17C111.421 337.17 112.825 338.664 112.825 340.428C112.825 342.228 111.421 343.722 109.549 343.722ZM119.804 335.712C118.814 335.712 118.184 336.414 117.716 337.386V337.35L117.626 335.892H116.168V345H117.716V340.464C117.716 338.754 118.31 337.17 119.714 337.17C120.146 337.17 120.506 337.332 120.686 337.458L120.956 336.108C120.758 335.928 120.362 335.712 119.804 335.712ZM126.707 335.892H124.817V333.192H123.287V335.892H121.991V337.35H123.287V345H124.817V337.35H126.707V335.892ZM135.155 335.892V340.536H135.137C135.137 341.832 134.273 343.722 132.113 343.722C130.709 343.722 129.737 342.858 129.737 340.572V335.892H128.189V341.22C128.189 343.794 129.467 345.18 131.573 345.18C133.157 345.18 134.327 344.388 135.173 343.398L135.227 345H136.685V335.892H135.155ZM144.044 335.712C142.478 335.712 141.29 336.504 140.462 337.476L140.39 335.892H138.932V345H140.48V340.356C140.48 339.06 141.344 337.17 143.504 337.17C144.908 337.17 145.88 338.034 145.88 340.32V345H147.428V339.672C147.428 337.098 146.15 335.712 144.044 335.712ZM150.296 334.38C150.8 334.38 151.178 333.984 151.178 333.498C151.178 332.994 150.8 332.616 150.296 332.616C149.81 332.616 149.414 332.994 149.414 333.498C149.414 333.984 149.81 334.38 150.296 334.38ZM151.07 335.892H149.522V345H151.07V335.892ZM157.346 335.892H155.456V333.192H153.926V335.892H152.63V337.35H153.926V345H155.456V337.35H157.346V335.892ZM167.411 340.536C167.411 337.962 165.647 335.712 162.857 335.712C160.157 335.712 158.303 337.836 158.303 340.392C158.303 343.146 160.247 345.18 163.001 345.18C165.395 345.18 166.799 343.596 167.159 342.354L165.791 342.174C165.395 342.984 164.495 343.794 163.001 343.794C161.129 343.794 159.905 342.588 159.851 340.932H167.411V340.536ZM162.857 337.098C164.639 337.098 165.773 338.394 165.863 339.816H159.851C159.905 338.322 161.147 337.098 162.857 337.098ZM168.639 342.48C168.855 344.226 170.349 345.18 172.437 345.18C174.435 345.18 175.893 344.226 175.893 342.714C175.893 341.346 174.921 340.536 173.211 339.906C171.393 339.204 170.475 338.97 170.475 338.142C170.475 337.404 171.321 337.008 172.059 337.008C172.887 337.008 173.679 337.458 173.787 338.286H175.317C175.227 336.81 173.949 335.712 172.023 335.712C170.457 335.712 168.945 336.612 168.945 338.142C168.945 339.582 170.169 340.266 171.501 340.716C173.409 341.436 174.345 341.652 174.345 342.678C174.345 343.398 173.571 343.866 172.473 343.866C171.195 343.866 170.421 343.308 170.187 342.48H168.639Z" fill="#00BF93"/>
<path d="M463 278H587" stroke="black"/>
<rect x="461" y="276" width="4" height="4" fill="#00BF93"/>
<rect x="585" y="276" width="4" height="4" fill="#00BF93"/>
<path d="M264 278H388" stroke="black"/>
<rect x="262" y="276" width="4" height="4" fill="#00BF93"/>
<rect x="386" y="276" width="4" height="4" fill="#00BF93"/>
<path d="M264 278H388" stroke="black"/>
<rect x="262" y="276" width="4" height="4" fill="#00BF93"/>
<rect x="386" y="276" width="4" height="4" fill="#00BF93"/>
<path d="M59 278H183" stroke="black"/>
<rect x="57" y="276" width="4" height="4" fill="#00BF93"/>
<rect x="181" y="276" width="4" height="4" fill="#00BF93"/>
<path d="M59 278H183" stroke="black"/>
<rect x="57" y="276" width="4" height="4" fill="#00BF93"/>
<rect x="181" y="276" width="4" height="4" fill="#00BF93"/>
</svg>
