<svg width="1231" height="1142" viewBox="0 0 1231 1142" fill="none" xmlns="http://www.w3.org/2000/svg">
<g filter="url(#filter0_d)">
<g clip-path="url(#clip0)">
<rect x="44" y="40" width="1143" height="1054" rx="10" fill="white"/>
<path d="M108.412 755.44C110.788 755.44 112.912 756.004 114.784 757.132C116.656 758.26 118.108 759.796 119.14 761.74C120.196 763.684 120.724 765.844 120.724 768.22C120.724 770.596 120.196 772.756 119.14 774.7C118.108 776.644 116.656 778.18 114.784 779.308C112.912 780.436 110.788 781 108.412 781H99.628V755.44H108.412ZM108.412 776.824C109.9 776.824 111.244 776.488 112.444 775.816C113.644 775.144 114.58 774.16 115.252 772.864C115.948 771.568 116.296 770.02 116.296 768.22C116.296 766.42 115.948 764.872 115.252 763.576C114.58 762.28 113.644 761.296 112.444 760.624C111.244 759.952 109.9 759.616 108.412 759.616H104.056V776.824H108.412ZM140.921 773.26H127.133C127.205 774.46 127.673 775.456 128.537 776.248C129.401 777.04 130.601 777.436 132.137 777.436C133.217 777.436 134.129 777.208 134.873 776.752C135.641 776.272 136.229 775.672 136.637 774.952L140.525 775.384C140.333 776.296 139.877 777.208 139.157 778.12C138.437 779.032 137.477 779.8 136.277 780.424C135.077 781.048 133.685 781.36 132.101 781.36C130.277 781.36 128.645 780.94 127.205 780.1C125.789 779.236 124.685 778.084 123.893 776.644C123.101 775.18 122.705 773.56 122.705 771.784C122.705 770.08 123.077 768.52 123.821 767.104C124.589 765.664 125.669 764.524 127.061 763.684C128.453 762.844 130.037 762.424 131.813 762.424C133.637 762.424 135.233 762.868 136.601 763.756C137.993 764.62 139.061 765.796 139.805 767.284C140.549 768.748 140.921 770.356 140.921 772.108V773.26ZM131.813 766.348C130.493 766.348 129.389 766.72 128.501 767.464C127.637 768.208 127.181 769.12 127.133 770.2H136.493C136.445 769.144 135.989 768.244 135.125 767.5C134.261 766.732 133.157 766.348 131.813 766.348ZM147.383 775.492C147.503 776.14 147.899 776.668 148.571 777.076C149.267 777.46 150.143 777.652 151.199 777.652C152.015 777.652 152.699 777.508 153.251 777.22C153.803 776.932 154.079 776.524 154.079 775.996C154.079 775.564 153.947 775.228 153.683 774.988C153.419 774.724 153.035 774.496 152.531 774.304C152.027 774.088 151.199 773.8 150.047 773.44C149.327 773.2 148.967 773.08 148.967 773.08C147.263 772.552 145.931 771.868 144.971 771.028C144.011 770.188 143.531 769.072 143.531 767.68C143.531 766.624 143.843 765.7 144.467 764.908C145.091 764.116 145.919 763.504 146.951 763.072C147.983 762.64 149.087 762.424 150.263 762.424C151.727 762.424 152.999 762.676 154.079 763.18C155.183 763.66 156.023 764.332 156.599 765.196C157.199 766.036 157.523 766.972 157.571 768.004H153.143C153.095 767.38 152.795 766.912 152.243 766.6C151.691 766.264 151.079 766.096 150.407 766.096C149.783 766.096 149.219 766.24 148.715 766.528C148.211 766.816 147.959 767.2 147.959 767.68C147.959 768.016 148.067 768.292 148.283 768.508C148.523 768.724 148.871 768.928 149.327 769.12C149.783 769.288 150.551 769.552 151.631 769.912L153.107 770.416C155.027 771.064 156.407 771.868 157.247 772.828C158.111 773.764 158.543 774.856 158.543 776.104C158.543 777.736 157.835 779.02 156.419 779.956C155.027 780.892 153.251 781.36 151.091 781.36C148.715 781.36 146.795 780.868 145.331 779.884C143.867 778.876 143.075 777.412 142.955 775.492H147.383ZM165.748 781H161.32V762.784H165.748V781ZM163.516 760.264C162.892 760.264 162.352 760.048 161.896 759.616C161.464 759.16 161.248 758.62 161.248 757.996C161.248 757.372 161.464 756.844 161.896 756.412C162.352 755.956 162.892 755.728 163.516 755.728C164.14 755.728 164.668 755.956 165.1 756.412C165.556 756.844 165.784 757.372 165.784 757.996C165.784 758.62 165.556 759.16 165.1 759.616C164.668 760.048 164.14 760.264 163.516 760.264ZM185.74 766.708L184.048 766.42C184.456 767.308 184.66 768.256 184.66 769.264C184.66 770.584 184.324 771.76 183.652 772.792C182.98 773.824 182.056 774.64 180.88 775.24C179.704 775.816 178.396 776.104 176.956 776.104C175.996 776.104 175.144 775.984 174.4 775.744C174.064 775.96 173.896 776.236 173.896 776.572C173.896 776.98 174.148 777.256 174.652 777.4C175.18 777.544 175.948 777.616 176.956 777.616C179.74 777.616 181.876 778.18 183.364 779.308C184.852 780.412 185.596 781.852 185.596 783.628C185.596 784.876 185.212 785.956 184.444 786.868C183.7 787.78 182.704 788.464 181.456 788.92C180.208 789.4 178.864 789.64 177.424 789.64C175.984 789.64 174.64 789.4 173.392 788.92C172.144 788.464 171.136 787.78 170.368 786.868C169.624 785.956 169.252 784.876 169.252 783.628C169.252 781.996 169.936 780.736 171.304 779.848C170.248 779.128 169.72 778.3 169.72 777.364C169.72 776.212 170.452 775.264 171.916 774.52C171.076 773.896 170.416 773.14 169.936 772.252C169.48 771.34 169.252 770.344 169.252 769.264C169.252 767.944 169.588 766.768 170.26 765.736C170.932 764.68 171.856 763.864 173.032 763.288C174.208 762.712 175.516 762.424 176.956 762.424C178.348 762.424 179.608 762.688 180.736 763.216L185.74 762.784V766.708ZM176.956 772.396C177.916 772.396 178.732 772.108 179.404 771.532C180.1 770.932 180.448 770.176 180.448 769.264C180.448 768.328 180.1 767.572 179.404 766.996C178.732 766.396 177.916 766.096 176.956 766.096C175.996 766.096 175.168 766.396 174.472 766.996C173.776 767.572 173.428 768.328 173.428 769.264C173.428 770.176 173.776 770.932 174.472 771.532C175.168 772.108 175.996 772.396 176.956 772.396ZM181.42 783.7C181.42 782.836 180.928 782.212 179.944 781.828C178.984 781.468 177.556 781.288 175.66 781.288C175.468 781.288 175.312 781.276 175.192 781.252C174.712 781.492 174.292 781.816 173.932 782.224C173.596 782.632 173.428 783.064 173.428 783.52C173.428 784.288 173.788 784.888 174.508 785.32C175.228 785.752 176.2 785.968 177.424 785.968C178.672 785.968 179.644 785.776 180.34 785.392C181.06 785.008 181.42 784.444 181.42 783.7ZM200.487 762.424C202.671 762.424 204.327 763.108 205.455 764.476C206.607 765.82 207.183 767.74 207.183 770.236V781H202.755V772.288C202.755 770.248 202.407 768.796 201.711 767.932C201.039 767.044 200.055 766.6 198.759 766.6C197.223 766.6 195.999 767.128 195.087 768.184C194.175 769.24 193.719 770.56 193.719 772.144V781H189.291V762.784H193.467L193.683 765.484C195.723 763.444 197.991 762.424 200.487 762.424ZM237.263 759.616H231.215V781H226.787V759.616H220.739V755.44H237.263V759.616ZM251.323 762.424C253.507 762.424 255.163 763.108 256.291 764.476C257.443 765.82 258.019 767.74 258.019 770.236V781H253.591V772.288C253.591 770.248 253.243 768.796 252.547 767.932C251.875 767.044 250.891 766.6 249.595 766.6C248.059 766.6 246.835 767.128 245.923 768.184C245.011 769.24 244.555 770.56 244.555 772.144V781H240.127V754H244.555V765.448C246.619 763.432 248.875 762.424 251.323 762.424ZM266.084 781H261.656V762.784H266.084V781ZM263.852 760.264C263.228 760.264 262.688 760.048 262.232 759.616C261.8 759.16 261.584 758.62 261.584 757.996C261.584 757.372 261.8 756.844 262.232 756.412C262.688 755.956 263.228 755.728 263.852 755.728C264.476 755.728 265.004 755.956 265.436 756.412C265.892 756.844 266.12 757.372 266.12 757.996C266.12 758.62 265.892 759.16 265.436 759.616C265.004 760.048 264.476 760.264 263.852 760.264ZM280.889 762.424C283.073 762.424 284.729 763.108 285.857 764.476C287.009 765.82 287.585 767.74 287.585 770.236V781H283.157V772.288C283.157 770.248 282.809 768.796 282.113 767.932C281.441 767.044 280.457 766.6 279.161 766.6C277.625 766.6 276.401 767.128 275.489 768.184C274.577 769.24 274.121 770.56 274.121 772.144V781H269.693V762.784H273.869L274.085 765.484C276.125 763.444 278.393 762.424 280.889 762.424ZM301.68 770.704L309.996 781H304.488L298.548 773.656L295.848 776.248V781H291.42V754H295.848V770.344L303.804 762.784H309.996L301.68 770.704ZM316.745 781H312.317V762.784H316.745V781ZM314.513 760.264C313.889 760.264 313.349 760.048 312.893 759.616C312.461 759.16 312.245 758.62 312.245 757.996C312.245 757.372 312.461 756.844 312.893 756.412C313.349 755.956 313.889 755.728 314.513 755.728C315.137 755.728 315.665 755.956 316.097 756.412C316.553 756.844 316.781 757.372 316.781 757.996C316.781 758.62 316.553 759.16 316.097 759.616C315.665 760.048 315.137 760.264 314.513 760.264ZM331.549 762.424C333.733 762.424 335.389 763.108 336.517 764.476C337.669 765.82 338.245 767.74 338.245 770.236V781H333.817V772.288C333.817 770.248 333.469 768.796 332.773 767.932C332.101 767.044 331.117 766.6 329.821 766.6C328.285 766.6 327.061 767.128 326.149 768.184C325.237 769.24 324.781 770.56 324.781 772.144V781H320.353V762.784H324.529L324.745 765.484C326.785 763.444 329.053 762.424 331.549 762.424ZM358.216 766.708L356.524 766.42C356.932 767.308 357.136 768.256 357.136 769.264C357.136 770.584 356.8 771.76 356.128 772.792C355.456 773.824 354.532 774.64 353.356 775.24C352.18 775.816 350.872 776.104 349.432 776.104C348.472 776.104 347.62 775.984 346.876 775.744C346.54 775.96 346.372 776.236 346.372 776.572C346.372 776.98 346.624 777.256 347.128 777.4C347.656 777.544 348.424 777.616 349.432 777.616C352.216 777.616 354.352 778.18 355.84 779.308C357.328 780.412 358.072 781.852 358.072 783.628C358.072 784.876 357.688 785.956 356.92 786.868C356.176 787.78 355.18 788.464 353.932 788.92C352.684 789.4 351.34 789.64 349.9 789.64C348.46 789.64 347.116 789.4 345.868 788.92C344.62 788.464 343.612 787.78 342.844 786.868C342.1 785.956 341.728 784.876 341.728 783.628C341.728 781.996 342.412 780.736 343.78 779.848C342.724 779.128 342.196 778.3 342.196 777.364C342.196 776.212 342.928 775.264 344.392 774.52C343.552 773.896 342.892 773.14 342.412 772.252C341.956 771.34 341.728 770.344 341.728 769.264C341.728 767.944 342.064 766.768 342.736 765.736C343.408 764.68 344.332 763.864 345.508 763.288C346.684 762.712 347.992 762.424 349.432 762.424C350.824 762.424 352.084 762.688 353.212 763.216L358.216 762.784V766.708ZM349.432 772.396C350.392 772.396 351.208 772.108 351.88 771.532C352.576 770.932 352.924 770.176 352.924 769.264C352.924 768.328 352.576 767.572 351.88 766.996C351.208 766.396 350.392 766.096 349.432 766.096C348.472 766.096 347.644 766.396 346.948 766.996C346.252 767.572 345.904 768.328 345.904 769.264C345.904 770.176 346.252 770.932 346.948 771.532C347.644 772.108 348.472 772.396 349.432 772.396ZM353.896 783.7C353.896 782.836 353.404 782.212 352.42 781.828C351.46 781.468 350.032 781.288 348.136 781.288C347.944 781.288 347.788 781.276 347.668 781.252C347.188 781.492 346.768 781.816 346.408 782.224C346.072 782.632 345.904 783.064 345.904 783.52C345.904 784.288 346.264 784.888 346.984 785.32C347.704 785.752 348.676 785.968 349.9 785.968C351.148 785.968 352.12 785.776 352.816 785.392C353.536 785.008 353.896 784.444 353.896 783.7ZM116.332 841.44V852.636H102.796V841.44H99.736V867H102.796V855.552H116.332V867H119.428V841.44H116.332ZM132.705 867.36C138.249 867.36 142.353 863.112 142.353 857.856C142.353 852.672 138.249 848.424 132.705 848.424C127.197 848.424 123.021 852.672 123.021 857.856C123.021 863.112 127.197 867.36 132.705 867.36ZM132.705 864.444C128.997 864.444 126.117 861.456 126.117 857.856C126.117 854.328 128.997 851.34 132.705 851.34C136.449 851.34 139.257 854.328 139.257 857.856C139.257 861.456 136.449 864.444 132.705 864.444ZM169.718 848.784L164.786 863.22L159.854 848.784H156.578L151.682 863.22L146.75 848.784H143.474L150.062 867H153.266L158.234 853.32L163.166 867H166.406L172.994 848.784H169.718ZM202.653 853.608V850.62C201.249 849.252 199.305 848.424 196.965 848.424C191.637 848.424 187.533 852.744 187.533 857.856C187.533 863.076 191.637 867.36 196.965 867.36C199.305 867.36 201.249 866.532 202.653 865.164V862.14C201.141 863.652 199.485 864.444 197.433 864.444C193.941 864.444 190.773 861.672 190.773 857.856C190.773 854.112 193.941 851.34 197.433 851.34C199.485 851.34 201.141 852.132 202.653 853.608ZM205.674 857.856C205.674 863.112 209.526 867.36 214.746 867.36C218.31 867.36 221.082 865.272 222.234 862.536L222.378 867H225.33V848.784H222.378L222.234 853.248C221.082 850.512 218.31 848.424 214.746 848.424C209.526 848.424 205.674 852.672 205.674 857.856ZM208.77 857.856C208.77 854.328 211.65 851.34 215.358 851.34C219.102 851.34 221.91 854.328 221.91 857.856C221.91 861.456 219.102 864.444 215.358 864.444C211.65 864.444 208.77 861.456 208.77 857.856ZM240.05 848.424C236.918 848.424 234.542 850.008 232.886 851.952L232.742 848.784H229.826V867H232.922V857.712C232.922 855.12 234.65 851.34 238.97 851.34C241.778 851.34 243.722 853.068 243.722 857.64V867H246.818V856.344C246.818 851.196 244.262 848.424 240.05 848.424ZM287.386 848.784L282.454 863.22L277.522 848.784H274.246L269.35 863.22L264.418 848.784H261.142L267.73 867H270.934L275.902 853.32L280.834 867H284.074L290.662 848.784H287.386ZM310.339 858.072C310.339 852.924 306.811 848.424 301.231 848.424C295.831 848.424 292.123 852.672 292.123 857.784C292.123 863.292 296.011 867.36 301.519 867.36C306.307 867.36 309.115 864.192 309.835 861.708L307.099 861.348C306.307 862.968 304.507 864.588 301.519 864.588C297.775 864.588 295.327 862.176 295.219 858.864H310.339V858.072ZM301.231 851.196C304.795 851.196 307.063 853.788 307.243 856.632H295.219C295.327 853.644 297.811 851.196 301.231 851.196ZM340.36 853.608V850.62C338.956 849.252 337.012 848.424 334.672 848.424C329.344 848.424 325.24 852.744 325.24 857.856C325.24 863.076 329.344 867.36 334.672 867.36C337.012 867.36 338.956 866.532 340.36 865.164V862.14C338.848 863.652 337.192 864.444 335.14 864.444C331.648 864.444 328.48 861.672 328.48 857.856C328.48 854.112 331.648 851.34 335.14 851.34C337.192 851.34 338.848 852.132 340.36 853.608ZM353.065 867.36C358.609 867.36 362.713 863.112 362.713 857.856C362.713 852.672 358.609 848.424 353.065 848.424C347.557 848.424 343.381 852.672 343.381 857.856C343.381 863.112 347.557 867.36 353.065 867.36ZM353.065 864.444C349.357 864.444 346.477 861.456 346.477 857.856C346.477 854.328 349.357 851.34 353.065 851.34C356.809 851.34 359.617 854.328 359.617 857.856C359.617 861.456 356.809 864.444 353.065 864.444ZM376.527 848.424C373.395 848.424 371.019 850.008 369.363 851.952L369.219 848.784H366.303V867H369.399V857.712C369.399 855.12 371.127 851.34 375.447 851.34C378.255 851.34 380.199 853.068 380.199 857.64V867H383.295V856.344C383.295 851.196 380.739 848.424 376.527 848.424ZM395.924 848.784H392.144V843.384H389.084V848.784H386.492V851.7H389.084V867H392.144V851.7H395.924V848.784ZM400.527 845.76C401.535 845.76 402.291 844.968 402.291 843.996C402.291 842.988 401.535 842.232 400.527 842.232C399.555 842.232 398.763 842.988 398.763 843.996C398.763 844.968 399.555 845.76 400.527 845.76ZM402.075 848.784H398.979V867H402.075V848.784ZM417.062 848.424C413.93 848.424 411.554 850.008 409.898 851.952L409.754 848.784H406.838V867H409.934V857.712C409.934 855.12 411.662 851.34 415.982 851.34C418.79 851.34 420.734 853.068 420.734 857.64V867H423.83V856.344C423.83 851.196 421.274 848.424 417.062 848.424ZM441.472 848.784V858.072H441.436C441.436 860.664 439.708 864.444 435.388 864.444C432.58 864.444 430.636 862.716 430.636 858.144V848.784H427.54V859.44C427.54 864.588 430.096 867.36 434.308 867.36C437.476 867.36 439.816 865.776 441.508 863.796L441.616 867H444.532V848.784H441.472ZM465.94 858.072C465.94 852.924 462.412 848.424 456.832 848.424C451.432 848.424 447.724 852.672 447.724 857.784C447.724 863.292 451.612 867.36 457.12 867.36C461.908 867.36 464.716 864.192 465.436 861.708L462.7 861.348C461.908 862.968 460.108 864.588 457.12 864.588C453.376 864.588 450.928 862.176 450.82 858.864H465.94V858.072ZM456.832 851.196C460.396 851.196 462.664 853.788 462.844 856.632H450.82C450.928 853.644 453.412 851.196 456.832 851.196ZM489.194 848.784H485.414V843.384H482.354V848.784H479.762V851.7H482.354V867H485.414V851.7H489.194V848.784ZM500.791 867.36C506.335 867.36 510.439 863.112 510.439 857.856C510.439 852.672 506.335 848.424 500.791 848.424C495.283 848.424 491.107 852.672 491.107 857.856C491.107 863.112 495.283 867.36 500.791 867.36ZM500.791 864.444C497.083 864.444 494.203 861.456 494.203 857.856C494.203 854.328 497.083 851.34 500.791 851.34C504.535 851.34 507.343 854.328 507.343 857.856C507.343 861.456 504.535 864.444 500.791 864.444ZM535.573 848.424C532.441 848.424 530.101 849.972 528.445 851.952V840H525.349V867H528.445V857.712C528.445 855.12 530.173 851.34 534.493 851.34C537.301 851.34 539.245 853.068 539.245 857.64V867H542.341V856.344C542.341 851.196 539.785 848.424 535.573 848.424ZM563.675 858.072C563.675 852.924 560.147 848.424 554.567 848.424C549.167 848.424 545.459 852.672 545.459 857.784C545.459 863.292 549.347 867.36 554.855 867.36C559.643 867.36 562.451 864.192 563.171 861.708L560.435 861.348C559.643 862.968 557.843 864.588 554.855 864.588C551.111 864.588 548.663 862.176 548.555 858.864H563.675V858.072ZM554.567 851.196C558.131 851.196 560.399 853.788 560.579 856.632H548.555C548.663 853.644 551.147 851.196 554.567 851.196ZM569.965 840H566.869V867H569.965V840ZM574.463 875.28H577.559V862.68C578.675 865.452 581.627 867.36 585.047 867.36C590.267 867.36 594.119 863.112 594.119 857.856C594.119 852.672 590.267 848.424 585.047 848.424C581.627 848.424 578.675 850.332 577.559 853.068L577.379 848.784H574.463V875.28ZM577.847 857.856C577.847 854.328 580.691 851.34 584.399 851.34C588.143 851.34 591.023 854.328 591.023 857.856C591.023 861.456 588.143 864.444 584.399 864.444C580.691 864.444 577.847 861.456 577.847 857.856ZM618.705 867.36C624.249 867.36 628.353 863.112 628.353 857.856C628.353 852.672 624.249 848.424 618.705 848.424C613.197 848.424 609.021 852.672 609.021 857.856C609.021 863.112 613.197 867.36 618.705 867.36ZM618.705 864.444C614.997 864.444 612.117 861.456 612.117 857.856C612.117 854.328 614.997 851.34 618.705 851.34C622.449 851.34 625.257 854.328 625.257 857.856C625.257 861.456 622.449 864.444 618.705 864.444ZM645.483 848.784V858.072H645.447C645.447 860.664 643.719 864.444 639.399 864.444C636.591 864.444 634.647 862.716 634.647 858.144V848.784H631.551V859.44C631.551 864.588 634.107 867.36 638.319 867.36C641.487 867.36 643.827 865.776 645.519 863.796L645.627 867H648.543V848.784H645.483ZM660.309 848.424C658.329 848.424 657.069 849.828 656.133 851.772V851.7L655.953 848.784H653.037V867H656.133V857.928C656.133 854.508 657.321 851.34 660.129 851.34C660.993 851.34 661.713 851.664 662.073 851.916L662.613 849.216C662.217 848.856 661.425 848.424 660.309 848.424ZM691.184 853.608V850.62C689.78 849.252 687.836 848.424 685.496 848.424C680.168 848.424 676.064 852.744 676.064 857.856C676.064 863.076 680.168 867.36 685.496 867.36C687.836 867.36 689.78 866.532 691.184 865.164V862.14C689.672 863.652 688.016 864.444 685.964 864.444C682.472 864.444 679.304 861.672 679.304 857.856C679.304 854.112 682.472 851.34 685.964 851.34C688.016 851.34 689.672 852.132 691.184 853.608ZM708.87 848.784V858.072H708.834C708.834 860.664 707.106 864.444 702.786 864.444C699.978 864.444 698.034 862.716 698.034 858.144V848.784H694.938V859.44C694.938 864.588 697.494 867.36 701.706 867.36C704.874 867.36 707.214 865.776 708.906 863.796L709.014 867H711.93V848.784H708.87ZM715.896 861.96C716.328 865.452 719.316 867.36 723.492 867.36C727.488 867.36 730.404 865.452 730.404 862.428C730.404 859.692 728.46 858.072 725.04 856.812C721.404 855.408 719.568 854.94 719.568 853.284C719.568 851.808 721.26 851.016 722.736 851.016C724.392 851.016 725.976 851.916 726.192 853.572H729.252C729.072 850.62 726.516 848.424 722.664 848.424C719.532 848.424 716.508 850.224 716.508 853.284C716.508 856.164 718.956 857.532 721.62 858.432C725.436 859.872 727.308 860.304 727.308 862.356C727.308 863.796 725.76 864.732 723.564 864.732C721.008 864.732 719.46 863.616 718.992 861.96H715.896ZM742.108 848.784H738.328V843.384H735.268V848.784H732.676V851.7H735.268V867H738.328V851.7H742.108V848.784ZM753.705 867.36C759.249 867.36 763.353 863.112 763.353 857.856C763.353 852.672 759.249 848.424 753.705 848.424C748.197 848.424 744.021 852.672 744.021 857.856C744.021 863.112 748.197 867.36 753.705 867.36ZM753.705 864.444C749.997 864.444 747.117 861.456 747.117 857.856C747.117 854.328 749.997 851.34 753.705 851.34C757.449 851.34 760.257 854.328 760.257 857.856C760.257 861.456 757.449 864.444 753.705 864.444ZM788.903 848.424C785.879 848.424 783.611 850.26 782.027 852.528C781.199 850.008 779.291 848.424 776.447 848.424C773.711 848.424 771.551 849.972 770.003 851.952L769.859 848.784H766.943V867H770.039V858.324C770.255 854.508 772.235 851.34 775.367 851.34C777.959 851.34 779.399 853.464 779.399 856.596V867H782.495V858.324C782.711 854.508 784.691 851.34 787.823 851.34C790.451 851.34 791.855 853.464 791.855 856.596V867H794.951V855.66C794.951 851.412 792.791 848.424 788.903 848.424ZM816.519 858.072C816.519 852.924 812.991 848.424 807.411 848.424C802.011 848.424 798.303 852.672 798.303 857.784C798.303 863.292 802.191 867.36 807.699 867.36C812.487 867.36 815.295 864.192 816.015 861.708L813.279 861.348C812.487 862.968 810.687 864.588 807.699 864.588C803.955 864.588 801.507 862.176 801.399 858.864H816.519V858.072ZM807.411 851.196C810.975 851.196 813.242 853.788 813.423 856.632H801.399C801.507 853.644 803.991 851.196 807.411 851.196ZM827.371 848.424C825.391 848.424 824.131 849.828 823.195 851.772V851.7L823.015 848.784H820.099V867H823.195V857.928C823.195 854.508 824.383 851.34 827.191 851.34C828.055 851.34 828.775 851.664 829.135 851.916L829.675 849.216C829.279 848.856 828.487 848.424 827.371 848.424ZM831.631 861.96C832.063 865.452 835.051 867.36 839.227 867.36C843.223 867.36 846.139 865.452 846.139 862.428C846.139 859.692 844.195 858.072 840.775 856.812C837.139 855.408 835.303 854.94 835.303 853.284C835.303 851.808 836.995 851.016 838.471 851.016C840.127 851.016 841.711 851.916 841.927 853.572H844.987C844.807 850.62 842.251 848.424 838.399 848.424C835.267 848.424 832.243 850.224 832.243 853.284C832.243 856.164 834.691 857.532 837.355 858.432C841.171 859.872 843.043 860.304 843.043 862.356C843.043 863.796 841.495 864.732 839.299 864.732C836.743 864.732 835.195 863.616 834.727 861.96H831.631ZM880.712 875.28V848.784H877.796L877.616 853.068C876.464 850.332 873.548 848.424 870.128 848.424C864.908 848.424 861.056 852.672 861.056 857.856C861.056 863.112 864.908 867.36 870.128 867.36C873.548 867.36 876.464 865.452 877.616 862.68V875.28H880.712ZM877.292 857.856C877.292 861.456 874.484 864.444 870.74 864.444C867.032 864.444 864.152 861.456 864.152 857.856C864.152 854.328 867.032 851.34 870.74 851.34C874.484 851.34 877.292 854.328 877.292 857.856ZM898.925 848.784V858.072H898.889C898.889 860.664 897.161 864.444 892.841 864.444C890.033 864.444 888.089 862.716 888.089 858.144V848.784H884.993V859.44C884.993 864.588 887.549 867.36 891.761 867.36C894.929 867.36 897.269 865.776 898.961 863.796L899.069 867H901.985V848.784H898.925ZM907.34 845.76C908.348 845.76 909.104 844.968 909.104 843.996C909.104 842.988 908.348 842.232 907.34 842.232C906.368 842.232 905.576 842.988 905.576 843.996C905.576 844.968 906.368 845.76 907.34 845.76ZM908.888 848.784H905.792V867H908.888V848.784ZM928.102 853.608V850.62C926.698 849.252 924.754 848.424 922.414 848.424C917.086 848.424 912.982 852.744 912.982 857.856C912.982 863.076 917.086 867.36 922.414 867.36C924.754 867.36 926.698 866.532 928.102 865.164V862.14C926.59 863.652 924.934 864.444 922.882 864.444C919.39 864.444 916.222 861.672 916.222 857.856C916.222 854.112 919.39 851.34 922.882 851.34C924.934 851.34 926.59 852.132 928.102 853.608ZM949.056 848.784H944.736L935.484 857.532V840H932.388V867H935.484V861.636L938.508 858.792L945.204 867H949.056L940.704 856.704L949.056 848.784ZM955.453 840H952.357V867H955.453V840ZM958.712 848.784L966.632 866.964L963.032 875.28H966.308L977.792 848.784H974.48L968.288 863.148L962.024 848.784H958.712ZM106.504 886.996C107.404 886.996 108.376 887.536 108.664 887.752V885.088C108.16 884.692 106.972 884.08 105.532 884.08C103.192 884.08 100.96 885.52 100.96 889.66V891.784H99.16V894.7H100.96V910H104.02V894.7H108.484V891.784H104.02V890.092C104.02 888.22 104.596 886.996 106.504 886.996ZM113.301 888.76C114.309 888.76 115.065 887.968 115.065 886.996C115.065 885.988 114.309 885.232 113.301 885.232C112.329 885.232 111.537 885.988 111.537 886.996C111.537 887.968 112.329 888.76 113.301 888.76ZM114.849 891.784H111.753V910H114.849V891.784ZM129.835 891.424C126.703 891.424 124.327 893.008 122.671 894.952L122.527 891.784H119.611V910H122.707V900.712C122.707 898.12 124.435 894.34 128.755 894.34C131.563 894.34 133.507 896.068 133.507 900.64V910H136.603V899.344C136.603 894.196 134.047 891.424 129.835 891.424ZM139.72 900.856C139.72 906.112 143.572 910.36 148.792 910.36C152.212 910.36 155.128 908.416 156.28 905.68L156.424 910H159.376V883H156.28V896.068C155.128 893.368 152.212 891.424 148.792 891.424C143.572 891.424 139.72 895.672 139.72 900.856ZM142.816 900.856C142.816 897.328 145.696 894.34 149.404 894.34C153.148 894.34 155.956 897.328 155.956 900.856C155.956 904.456 153.148 907.444 149.404 907.444C145.696 907.444 142.816 904.456 142.816 900.856ZM200.163 891.784L195.231 906.22L190.299 891.784H187.023L182.127 906.22L177.195 891.784H173.919L180.507 910H183.711L188.679 896.32L193.611 910H196.851L203.439 891.784H200.163ZM216.882 891.424C213.75 891.424 211.41 892.972 209.754 894.952V883H206.658V910H209.754V900.712C209.754 898.12 211.482 894.34 215.802 894.34C218.61 894.34 220.554 896.068 220.554 900.64V910H223.65V899.344C223.65 894.196 221.094 891.424 216.882 891.424ZM226.767 900.856C226.767 906.112 230.619 910.36 235.839 910.36C239.403 910.36 242.175 908.272 243.327 905.536L243.471 910H246.423V891.784H243.471L243.327 896.248C242.175 893.512 239.403 891.424 235.839 891.424C230.619 891.424 226.767 895.672 226.767 900.856ZM229.863 900.856C229.863 897.328 232.743 894.34 236.451 894.34C240.195 894.34 243.003 897.328 243.003 900.856C243.003 904.456 240.195 907.444 236.451 907.444C232.743 907.444 229.863 904.456 229.863 900.856ZM259.412 891.784H255.632V886.384H252.572V891.784H249.98V894.7H252.572V910H255.632V894.7H259.412V891.784ZM281.947 891.784H278.167V886.384H275.107V891.784H272.515V894.7H275.107V910H278.167V894.7H281.947V891.784ZM295.562 891.424C292.43 891.424 290.09 892.972 288.434 894.952V883H285.338V910H288.434V900.712C288.434 898.12 290.162 894.34 294.482 894.34C297.29 894.34 299.234 896.068 299.234 900.64V910H302.33V899.344C302.33 894.196 299.774 891.424 295.562 891.424ZM323.663 901.072C323.663 895.924 320.135 891.424 314.555 891.424C309.155 891.424 305.447 895.672 305.447 900.784C305.447 906.292 309.335 910.36 314.843 910.36C319.631 910.36 322.439 907.192 323.159 904.708L320.423 904.348C319.631 905.968 317.831 907.588 314.843 907.588C311.099 907.588 308.651 905.176 308.543 901.864H323.663V901.072ZM314.555 894.196C318.119 894.196 320.387 896.788 320.567 899.632H308.543C308.651 896.644 311.135 894.196 314.555 894.196ZM324.845 891.784L332.765 909.964L329.165 918.28H332.441L343.925 891.784H340.613L334.421 906.148L328.157 891.784H324.845ZM358.463 900.856C358.463 906.112 362.315 910.36 367.535 910.36C371.099 910.36 373.871 908.272 375.023 905.536L375.167 910H378.119V891.784H375.167L375.023 896.248C373.871 893.512 371.099 891.424 367.535 891.424C362.315 891.424 358.463 895.672 358.463 900.856ZM361.559 900.856C361.559 897.328 364.439 894.34 368.147 894.34C371.891 894.34 374.699 897.328 374.699 900.856C374.699 904.456 371.891 907.444 368.147 907.444C364.439 907.444 361.559 904.456 361.559 900.856ZM389.887 891.424C387.907 891.424 386.647 892.828 385.711 894.772V894.7L385.531 891.784H382.615V910H385.711V900.928C385.711 897.508 386.899 894.34 389.707 894.34C390.571 894.34 391.291 894.664 391.651 894.916L392.191 892.216C391.795 891.856 391.003 891.424 389.887 891.424ZM411.589 901.072C411.589 895.924 408.061 891.424 402.481 891.424C397.081 891.424 393.373 895.672 393.373 900.784C393.373 906.292 397.261 910.36 402.769 910.36C407.557 910.36 410.365 907.192 411.085 904.708L408.349 904.348C407.557 905.968 405.757 907.588 402.769 907.588C399.025 907.588 396.577 905.176 396.469 901.864H411.589V901.072ZM402.481 894.196C406.045 894.196 408.313 896.788 408.493 899.632H396.469C396.577 896.644 399.061 894.196 402.481 894.196ZM429.586 883H426.49V910H429.586V883ZM443.065 910.36C448.609 910.36 452.713 906.112 452.713 900.856C452.713 895.672 448.609 891.424 443.065 891.424C437.557 891.424 433.381 895.672 433.381 900.856C433.381 906.112 437.557 910.36 443.065 910.36ZM443.065 907.444C439.357 907.444 436.477 904.456 436.477 900.856C436.477 897.328 439.357 894.34 443.065 894.34C446.809 894.34 449.617 897.328 449.617 900.856C449.617 904.456 446.809 907.444 443.065 907.444ZM465.037 910.36C470.581 910.36 474.685 906.112 474.685 900.856C474.685 895.672 470.581 891.424 465.037 891.424C459.529 891.424 455.353 895.672 455.353 900.856C455.353 906.112 459.529 910.36 465.037 910.36ZM465.037 907.444C461.329 907.444 458.449 904.456 458.449 900.856C458.449 897.328 461.329 894.34 465.037 894.34C468.781 894.34 471.589 897.328 471.589 900.856C471.589 904.456 468.781 907.444 465.037 907.444ZM495.33 891.784H491.01L481.758 900.532V883H478.662V910H481.758V904.636L484.782 901.792L491.478 910H495.33L486.978 899.704L495.33 891.784ZM499.844 888.76C500.852 888.76 501.608 887.968 501.608 886.996C501.608 885.988 500.852 885.232 499.844 885.232C498.872 885.232 498.08 885.988 498.08 886.996C498.08 887.968 498.872 888.76 499.844 888.76ZM501.392 891.784H498.296V910H501.392V891.784ZM516.378 891.424C513.246 891.424 510.87 893.008 509.214 894.952L509.07 891.784H506.154V910H509.25V900.712C509.25 898.12 510.978 894.34 515.298 894.34C518.106 894.34 520.05 896.068 520.05 900.64V910H523.146V899.344C523.146 894.196 520.59 891.424 516.378 891.424ZM534.309 907.048C532.113 907.048 530.781 906.76 530.781 905.824C530.781 905.356 531.177 904.96 531.825 904.672C532.653 904.96 533.589 905.104 534.561 905.104C538.809 905.104 542.085 902.152 542.085 898.264C542.085 896.788 541.617 895.456 540.789 894.376L542.913 894.556V891.784L538.161 892.216C537.081 891.712 535.857 891.424 534.561 891.424C530.277 891.424 527.037 894.34 527.037 898.264C527.037 900.568 528.153 902.512 529.953 903.736C528.909 904.24 527.865 905.104 527.865 906.328C527.865 907.336 528.549 908.128 529.521 908.668C528.189 909.496 527.037 910.828 527.037 912.844C527.037 916.588 530.709 918.64 534.993 918.64C539.277 918.64 542.949 916.588 542.949 912.844C542.949 909.316 539.709 907.048 534.309 907.048ZM534.561 894.016C537.117 894.016 539.133 895.816 539.133 898.264C539.133 900.676 537.117 902.476 534.561 902.476C532.041 902.476 529.953 900.676 529.953 898.264C529.953 895.816 532.041 894.016 534.561 894.016ZM534.993 916.048C532.005 916.048 529.953 914.896 529.953 912.772C529.953 911.368 531.321 910.108 532.437 909.604C532.797 909.64 533.121 909.676 533.481 909.676C537.297 909.676 540.033 910.504 540.033 912.88C540.033 914.968 537.945 916.048 534.993 916.048ZM564.098 886.996C564.998 886.996 565.97 887.536 566.258 887.752V885.088C565.754 884.692 564.566 884.08 563.126 884.08C560.786 884.08 558.554 885.52 558.554 889.66V891.784H556.754V894.7H558.554V910H561.614V894.7H566.078V891.784H561.614V890.092C561.614 888.22 562.19 886.996 564.098 886.996ZM577.889 910.36C583.433 910.36 587.537 906.112 587.537 900.856C587.537 895.672 583.433 891.424 577.889 891.424C572.381 891.424 568.205 895.672 568.205 900.856C568.205 906.112 572.381 910.36 577.889 910.36ZM577.889 907.444C574.181 907.444 571.301 904.456 571.301 900.856C571.301 897.328 574.181 894.34 577.889 894.34C581.633 894.34 584.441 897.328 584.441 900.856C584.441 904.456 581.633 907.444 577.889 907.444ZM598.399 891.424C596.419 891.424 595.159 892.828 594.223 894.772V894.7L594.043 891.784H591.127V910H594.223V900.928C594.223 897.508 595.411 894.34 598.219 894.34C599.083 894.34 599.803 894.664 600.163 894.916L600.703 892.216C600.307 891.856 599.515 891.424 598.399 891.424ZM636.114 910L632.406 906.256C634.134 903.88 634.926 900.676 634.926 897.148H630.066V898.804H631.83C631.83 900.784 631.254 902.656 630.282 904.096L621.858 895.564C620.49 894.232 619.23 893.008 619.23 891.028C619.23 888.832 620.958 886.996 623.73 886.996C626.502 886.996 628.158 888.832 628.158 891.352H631.218C631.218 887.536 628.518 884.08 623.838 884.08C618.762 884.08 616.17 887.392 616.17 890.74C616.17 892.792 616.854 894.268 618.51 896.032C616.602 897.04 614.514 899.308 614.514 902.584C614.514 906.796 617.79 910.36 623.55 910.36C626.466 910.36 628.806 909.532 630.57 908.164L632.406 910H636.114ZM623.874 907.444C619.986 907.444 617.61 904.888 617.61 901.936C617.61 899.884 618.834 898.372 620.238 897.76L628.446 906.004C627.186 906.904 625.674 907.444 623.874 907.444ZM661.609 891.424C658.477 891.424 656.137 892.972 654.481 894.952V883H651.385V910H654.481V900.712C654.481 898.12 656.209 894.34 660.529 894.34C663.337 894.34 665.281 896.068 665.281 900.64V910H668.377V899.344C668.377 894.196 665.821 891.424 661.609 891.424ZM689.71 901.072C689.71 895.924 686.182 891.424 680.602 891.424C675.202 891.424 671.494 895.672 671.494 900.784C671.494 906.292 675.382 910.36 680.89 910.36C685.678 910.36 688.486 907.192 689.206 904.708L686.47 904.348C685.678 905.968 683.878 907.588 680.89 907.588C677.146 907.588 674.698 905.176 674.59 901.864H689.71V901.072ZM680.602 894.196C684.166 894.196 686.434 896.788 686.614 899.632H674.59C674.698 896.644 677.182 894.196 680.602 894.196ZM696 883H692.904V910H696V883ZM700.498 918.28H703.594V905.68C704.71 908.452 707.662 910.36 711.082 910.36C716.302 910.36 720.154 906.112 720.154 900.856C720.154 895.672 716.302 891.424 711.082 891.424C707.662 891.424 704.71 893.332 703.594 896.068L703.414 891.784H700.498V918.28ZM703.882 900.856C703.882 897.328 706.726 894.34 710.434 894.34C714.178 894.34 717.058 897.328 717.058 900.856C717.058 904.456 714.178 907.444 710.434 907.444C706.726 907.444 703.882 904.456 703.882 900.856ZM743.408 891.784H739.628V886.384H736.568V891.784H733.976V894.7H736.568V910H739.628V894.7H743.408V891.784ZM757.023 891.424C753.891 891.424 751.551 892.972 749.895 894.952V883H746.799V910H749.895V900.712C749.895 898.12 751.623 894.34 755.943 894.34C758.751 894.34 760.695 896.068 760.695 900.64V910H763.791V899.344C763.791 894.196 761.235 891.424 757.023 891.424ZM785.124 901.072C785.124 895.924 781.596 891.424 776.016 891.424C770.616 891.424 766.908 895.672 766.908 900.784C766.908 906.292 770.796 910.36 776.304 910.36C781.092 910.36 783.9 907.192 784.62 904.708L781.884 904.348C781.092 905.968 779.292 907.588 776.304 907.588C772.56 907.588 770.112 905.176 770.004 901.864H785.124V901.072ZM776.016 894.196C779.58 894.196 781.848 896.788 782.028 899.632H770.004C770.112 896.644 772.596 894.196 776.016 894.196ZM810.665 891.424C807.641 891.424 805.373 893.26 803.789 895.528C802.961 893.008 801.053 891.424 798.209 891.424C795.473 891.424 793.313 892.972 791.765 894.952L791.621 891.784H788.705V910H791.801V901.324C792.017 897.508 793.997 894.34 797.129 894.34C799.721 894.34 801.161 896.464 801.161 899.596V910H804.257V901.324C804.473 897.508 806.453 894.34 809.585 894.34C812.213 894.34 813.617 896.464 813.617 899.596V910H816.713V898.66C816.713 894.412 814.553 891.424 810.665 891.424ZM228.991 934.784L224.059 949.22L219.127 934.784H215.851L210.955 949.22L206.023 934.784H202.747L209.335 953H212.539L217.507 939.32L222.439 953H225.679L232.267 934.784H228.991ZM236.769 931.76C237.777 931.76 238.533 930.968 238.533 929.996C238.533 928.988 237.777 928.232 236.769 928.232C235.797 928.232 235.005 928.988 235.005 929.996C235.005 930.968 235.797 931.76 236.769 931.76ZM238.317 934.784H235.221V953H238.317V934.784ZM250.869 934.784H247.089V929.384H244.029V934.784H241.437V937.7H244.029V953H247.089V937.7H250.869V934.784ZM264.484 934.424C261.352 934.424 259.012 935.972 257.356 937.952V926H254.26V953H257.356V943.712C257.356 941.12 259.084 937.34 263.404 937.34C266.212 937.34 268.156 939.068 268.156 943.64V953H271.252V942.344C271.252 937.196 268.696 934.424 264.484 934.424ZM296.159 934.424C293.027 934.424 290.651 936.008 288.995 937.952L288.851 934.784H285.935V953H289.031V943.712C289.031 941.12 290.759 937.34 295.079 937.34C297.887 937.34 299.831 939.068 299.831 943.64V953H302.927V942.344C302.927 937.196 300.371 934.424 296.159 934.424ZM324.261 944.072C324.261 938.924 320.733 934.424 315.153 934.424C309.753 934.424 306.045 938.672 306.045 943.784C306.045 949.292 309.933 953.36 315.441 953.36C320.229 953.36 323.037 950.192 323.757 947.708L321.021 947.348C320.229 948.968 318.429 950.588 315.441 950.588C311.697 950.588 309.249 948.176 309.141 944.864H324.261V944.072ZM315.153 937.196C318.717 937.196 320.985 939.788 321.165 942.632H309.141C309.249 939.644 311.733 937.196 315.153 937.196ZM351.687 934.784L346.755 949.22L341.823 934.784H338.547L333.651 949.22L328.719 934.784H325.443L332.031 953H335.235L340.203 939.32L345.135 953H348.375L354.963 934.784H351.687ZM369.502 943.856C369.502 949.112 373.354 953.36 378.574 953.36C382.138 953.36 384.91 951.272 386.062 948.536L386.206 953H389.158V934.784H386.206L386.062 939.248C384.91 936.512 382.138 934.424 378.574 934.424C373.354 934.424 369.502 938.672 369.502 943.856ZM372.598 943.856C372.598 940.328 375.478 937.34 379.186 937.34C382.93 937.34 385.738 940.328 385.738 943.856C385.738 947.456 382.93 950.444 379.186 950.444C375.478 950.444 372.598 947.456 372.598 943.856ZM407.473 939.608V936.62C406.069 935.252 404.125 934.424 401.785 934.424C396.457 934.424 392.353 938.744 392.353 943.856C392.353 949.076 396.457 953.36 401.785 953.36C404.125 953.36 406.069 952.532 407.473 951.164V948.14C405.961 949.652 404.305 950.444 402.253 950.444C398.761 950.444 395.593 947.672 395.593 943.856C395.593 940.112 398.761 937.34 402.253 937.34C404.305 937.34 405.961 938.132 407.473 939.608ZM425.614 939.608V936.62C424.21 935.252 422.266 934.424 419.926 934.424C414.598 934.424 410.494 938.744 410.494 943.856C410.494 949.076 414.598 953.36 419.926 953.36C422.266 953.36 424.21 952.532 425.614 951.164V948.14C424.102 949.652 422.446 950.444 420.394 950.444C416.902 950.444 413.734 947.672 413.734 943.856C413.734 940.112 416.902 937.34 420.394 937.34C422.446 937.34 424.102 938.132 425.614 939.608ZM446.851 944.072C446.851 938.924 443.323 934.424 437.743 934.424C432.343 934.424 428.635 938.672 428.635 943.784C428.635 949.292 432.523 953.36 438.031 953.36C442.819 953.36 445.627 950.192 446.347 947.708L443.611 947.348C442.819 948.968 441.019 950.588 438.031 950.588C434.287 950.588 431.839 948.176 431.731 944.864H446.851V944.072ZM437.743 937.196C441.307 937.196 443.575 939.788 443.755 942.632H431.731C431.839 939.644 434.323 937.196 437.743 937.196ZM453.141 926H450.045V953H453.141V926ZM475.151 944.072C475.151 938.924 471.623 934.424 466.043 934.424C460.643 934.424 456.935 938.672 456.935 943.784C456.935 949.292 460.823 953.36 466.331 953.36C471.119 953.36 473.927 950.192 474.647 947.708L471.911 947.348C471.119 948.968 469.319 950.588 466.331 950.588C462.587 950.588 460.139 948.176 460.031 944.864H475.151V944.072ZM466.043 937.196C469.607 937.196 471.875 939.788 472.055 942.632H460.031C460.139 939.644 462.623 937.196 466.043 937.196ZM486.004 934.424C484.024 934.424 482.764 935.828 481.828 937.772V937.7L481.648 934.784H478.732V953H481.828V943.928C481.828 940.508 483.016 937.34 485.824 937.34C486.688 937.34 487.408 937.664 487.768 937.916L488.308 935.216C487.912 934.856 487.12 934.424 486.004 934.424ZM489.49 943.856C489.49 949.112 493.342 953.36 498.562 953.36C502.126 953.36 504.898 951.272 506.05 948.536L506.194 953H509.146V934.784H506.194L506.05 939.248C504.898 936.512 502.126 934.424 498.562 934.424C493.342 934.424 489.49 938.672 489.49 943.856ZM492.586 943.856C492.586 940.328 495.466 937.34 499.174 937.34C502.918 937.34 505.726 940.328 505.726 943.856C505.726 947.456 502.918 950.444 499.174 950.444C495.466 950.444 492.586 947.456 492.586 943.856ZM522.135 934.784H518.355V929.384H515.295V934.784H512.703V937.7H515.295V953H518.355V937.7H522.135V934.784ZM533.733 953.36C539.277 953.36 543.381 949.112 543.381 943.856C543.381 938.672 539.277 934.424 533.733 934.424C528.225 934.424 524.049 938.672 524.049 943.856C524.049 949.112 528.225 953.36 533.733 953.36ZM533.733 950.444C530.025 950.444 527.145 947.456 527.145 943.856C527.145 940.328 530.025 937.34 533.733 937.34C537.477 937.34 540.285 940.328 540.285 943.856C540.285 947.456 537.477 950.444 533.733 950.444ZM554.242 934.424C552.262 934.424 551.002 935.828 550.066 937.772V937.7L549.886 934.784H546.97V953H550.066V943.928C550.066 940.508 551.254 937.34 554.062 937.34C554.926 937.34 555.646 937.664 556.006 937.916L556.546 935.216C556.15 934.856 555.358 934.424 554.242 934.424ZM558.502 947.96C558.934 951.452 561.922 953.36 566.098 953.36C570.094 953.36 573.01 951.452 573.01 948.428C573.01 945.692 571.066 944.072 567.646 942.812C564.01 941.408 562.174 940.94 562.174 939.284C562.174 937.808 563.866 937.016 565.342 937.016C566.998 937.016 568.582 937.916 568.798 939.572H571.858C571.678 936.62 569.122 934.424 565.27 934.424C562.138 934.424 559.114 936.224 559.114 939.284C559.114 942.164 561.562 943.532 564.226 944.432C568.042 945.872 569.914 946.304 569.914 948.356C569.914 949.796 568.366 950.732 566.17 950.732C563.614 950.732 562.066 949.616 561.598 947.96H558.502ZM587.928 943.856C587.928 949.112 591.78 953.36 597 953.36C600.564 953.36 603.336 951.272 604.488 948.536L604.632 953H607.584V934.784H604.632L604.488 939.248C603.336 936.512 600.564 934.424 597 934.424C591.78 934.424 587.928 938.672 587.928 943.856ZM591.024 943.856C591.024 940.328 593.904 937.34 597.612 937.34C601.356 937.34 604.164 940.328 604.164 943.856C604.164 947.456 601.356 950.444 597.612 950.444C593.904 950.444 591.024 947.456 591.024 943.856ZM622.304 934.424C619.172 934.424 616.796 936.008 615.14 937.952L614.996 934.784H612.08V953H615.176V943.712C615.176 941.12 616.904 937.34 621.224 937.34C624.032 937.34 625.976 939.068 625.976 943.64V953H629.072V942.344C629.072 937.196 626.516 934.424 622.304 934.424ZM632.189 943.856C632.189 949.112 636.041 953.36 641.261 953.36C644.681 953.36 647.597 951.416 648.749 948.68L648.893 953H651.845V926H648.749V939.068C647.597 936.368 644.681 934.424 641.261 934.424C636.041 934.424 632.189 938.672 632.189 943.856ZM635.285 943.856C635.285 940.328 638.165 937.34 641.873 937.34C645.617 937.34 648.425 940.328 648.425 943.856C648.425 947.456 645.617 950.444 641.873 950.444C638.165 950.444 635.285 947.456 635.285 943.856ZM692.632 934.784L687.7 949.22L682.768 934.784H679.492L674.596 949.22L669.664 934.784H666.388L672.976 953H676.18L681.148 939.32L686.08 953H689.32L695.908 934.784H692.632ZM709.351 934.424C706.219 934.424 703.879 935.972 702.223 937.952V926H699.127V953H702.223V943.712C702.223 941.12 703.951 937.34 708.271 937.34C711.079 937.34 713.023 939.068 713.023 943.64V953H716.119V942.344C716.119 937.196 713.563 934.424 709.351 934.424ZM718.419 934.784L726.339 952.964L722.739 961.28H726.015L737.499 934.784H734.187L727.995 949.148L721.731 934.784H718.419ZM752.037 943.856C752.037 949.112 755.889 953.36 761.109 953.36C764.529 953.36 767.445 951.416 768.597 948.68L768.741 953H771.693V926H768.597V939.068C767.445 936.368 764.529 934.424 761.109 934.424C755.889 934.424 752.037 938.672 752.037 943.856ZM755.133 943.856C755.133 940.328 758.013 937.34 761.721 937.34C765.465 937.34 768.273 940.328 768.273 943.856C768.273 947.456 765.465 950.444 761.721 950.444C758.013 950.444 755.133 947.456 755.133 943.856ZM785.522 953.36C791.066 953.36 795.17 949.112 795.17 943.856C795.17 938.672 791.066 934.424 785.522 934.424C780.014 934.424 775.838 938.672 775.838 943.856C775.838 949.112 780.014 953.36 785.522 953.36ZM785.522 950.444C781.814 950.444 778.934 947.456 778.934 943.856C778.934 940.328 781.814 937.34 785.522 937.34C789.266 937.34 792.074 940.328 792.074 943.856C792.074 947.456 789.266 950.444 785.522 950.444ZM825.2 939.608V936.62C823.796 935.252 821.852 934.424 819.512 934.424C814.184 934.424 810.08 938.744 810.08 943.856C810.08 949.076 814.184 953.36 819.512 953.36C821.852 953.36 823.796 952.532 825.2 951.164V948.14C823.688 949.652 822.032 950.444 819.98 950.444C816.488 950.444 813.32 947.672 813.32 943.856C813.32 940.112 816.488 937.34 819.98 937.34C822.032 937.34 823.688 938.132 825.2 939.608ZM842.886 934.784V944.072H842.85C842.85 946.664 841.122 950.444 836.802 950.444C833.994 950.444 832.05 948.716 832.05 944.144V934.784H828.954V945.44C828.954 950.588 831.51 953.36 835.722 953.36C838.89 953.36 841.23 951.776 842.922 949.796L843.03 953H845.946V934.784H842.886ZM849.912 947.96C850.344 951.452 853.332 953.36 857.508 953.36C861.504 953.36 864.42 951.452 864.42 948.428C864.42 945.692 862.476 944.072 859.056 942.812C855.42 941.408 853.584 940.94 853.584 939.284C853.584 937.808 855.276 937.016 856.752 937.016C858.408 937.016 859.992 937.916 860.208 939.572H863.268C863.088 936.62 860.532 934.424 856.68 934.424C853.548 934.424 850.524 936.224 850.524 939.284C850.524 942.164 852.972 943.532 855.636 944.432C859.452 945.872 861.324 946.304 861.324 948.356C861.324 949.796 859.776 950.732 857.58 950.732C855.024 950.732 853.476 949.616 853.008 947.96H849.912ZM876.123 934.784H872.343V929.384H869.283V934.784H866.691V937.7H869.283V953H872.343V937.7H876.123V934.784ZM887.721 953.36C893.265 953.36 897.369 949.112 897.369 943.856C897.369 938.672 893.265 934.424 887.721 934.424C882.213 934.424 878.037 938.672 878.037 943.856C878.037 949.112 882.213 953.36 887.721 953.36ZM887.721 950.444C884.013 950.444 881.133 947.456 881.133 943.856C881.133 940.328 884.013 937.34 887.721 937.34C891.465 937.34 894.273 940.328 894.273 943.856C894.273 947.456 891.465 950.444 887.721 950.444ZM922.919 934.424C919.895 934.424 917.627 936.26 916.043 938.528C915.215 936.008 913.307 934.424 910.463 934.424C907.727 934.424 905.567 935.972 904.019 937.952L903.875 934.784H900.959V953H904.055V944.324C904.271 940.508 906.251 937.34 909.383 937.34C911.975 937.34 913.415 939.464 913.415 942.596V953H916.511V944.324C916.727 940.508 918.707 937.34 921.839 937.34C924.467 937.34 925.871 939.464 925.871 942.596V953H928.967V941.66C928.967 937.412 926.807 934.424 922.919 934.424ZM950.534 944.072C950.534 938.924 947.006 934.424 941.426 934.424C936.026 934.424 932.318 938.672 932.318 943.784C932.318 949.292 936.206 953.36 941.714 953.36C946.502 953.36 949.31 950.192 950.03 947.708L947.294 947.348C946.502 948.968 944.702 950.588 941.714 950.588C937.97 950.588 935.522 948.176 935.414 944.864H950.534V944.072ZM941.426 937.196C944.99 937.196 947.258 939.788 947.438 942.632H935.414C935.522 939.644 938.006 937.196 941.426 937.196ZM961.387 934.424C959.407 934.424 958.147 935.828 957.211 937.772V937.7L957.031 934.784H954.115V953H957.211V943.928C957.211 940.508 958.399 937.34 961.207 937.34C962.071 937.34 962.791 937.664 963.151 937.916L963.691 935.216C963.295 934.856 962.503 934.424 961.387 934.424ZM965.646 947.96C966.078 951.452 969.066 953.36 973.242 953.36C977.238 953.36 980.154 951.452 980.154 948.428C980.154 945.692 978.21 944.072 974.79 942.812C971.154 941.408 969.318 940.94 969.318 939.284C969.318 937.808 971.01 937.016 972.486 937.016C974.142 937.016 975.726 937.916 975.942 939.572H979.002C978.822 936.62 976.266 934.424 972.414 934.424C969.282 934.424 966.258 936.224 966.258 939.284C966.258 942.164 968.706 943.532 971.37 944.432C975.186 945.872 977.058 946.304 977.058 948.356C977.058 949.796 975.51 950.732 973.314 950.732C970.758 950.732 969.21 949.616 968.742 947.96H965.646ZM106.504 972.996C107.404 972.996 108.376 973.536 108.664 973.752V971.088C108.16 970.692 106.972 970.08 105.532 970.08C103.192 970.08 100.96 971.52 100.96 975.66V977.784H99.16V980.7H100.96V996H104.02V980.7H108.484V977.784H104.02V976.092C104.02 974.22 104.596 972.996 106.504 972.996ZM113.301 974.76C114.309 974.76 115.065 973.968 115.065 972.996C115.065 971.988 114.309 971.232 113.301 971.232C112.329 971.232 111.537 971.988 111.537 972.996C111.537 973.968 112.329 974.76 113.301 974.76ZM114.849 977.784H111.753V996H114.849V977.784ZM129.835 977.424C126.703 977.424 124.327 979.008 122.671 980.952L122.527 977.784H119.611V996H122.707V986.712C122.707 984.12 124.435 980.34 128.755 980.34C131.563 980.34 133.507 982.068 133.507 986.64V996H136.603V985.344C136.603 980.196 134.047 977.424 129.835 977.424ZM139.72 986.856C139.72 992.112 143.572 996.36 148.792 996.36C152.212 996.36 155.128 994.416 156.28 991.68L156.424 996H159.376V969H156.28V982.068C155.128 979.368 152.212 977.424 148.792 977.424C143.572 977.424 139.72 981.672 139.72 986.856ZM142.816 986.856C142.816 983.328 145.696 980.34 149.404 980.34C153.148 980.34 155.956 983.328 155.956 986.856C155.956 990.456 153.148 993.444 149.404 993.444C145.696 993.444 142.816 990.456 142.816 986.856ZM182.631 977.784H178.851V972.384H175.791V977.784H173.199V980.7H175.791V996H178.851V980.7H182.631V977.784ZM196.245 977.424C193.113 977.424 190.773 978.972 189.117 980.952V969H186.021V996H189.117V986.712C189.117 984.12 190.845 980.34 195.165 980.34C197.973 980.34 199.917 982.068 199.917 986.64V996H203.013V985.344C203.013 980.196 200.457 977.424 196.245 977.424ZM224.347 987.072C224.347 981.924 220.819 977.424 215.239 977.424C209.839 977.424 206.131 981.672 206.131 986.784C206.131 992.292 210.019 996.36 215.527 996.36C220.315 996.36 223.123 993.192 223.843 990.708L221.107 990.348C220.315 991.968 218.515 993.588 215.527 993.588C211.783 993.588 209.335 991.176 209.227 987.864H224.347V987.072ZM215.239 980.196C218.803 980.196 221.071 982.788 221.251 985.632H209.227C209.335 982.644 211.819 980.196 215.239 980.196ZM249.888 977.424C246.864 977.424 244.596 979.26 243.012 981.528C242.184 979.008 240.276 977.424 237.432 977.424C234.696 977.424 232.536 978.972 230.988 980.952L230.844 977.784H227.928V996H231.024V987.324C231.24 983.508 233.22 980.34 236.352 980.34C238.944 980.34 240.384 982.464 240.384 985.596V996H243.48V987.324C243.695 983.508 245.676 980.34 248.808 980.34C251.436 980.34 252.84 982.464 252.84 985.596V996H255.936V984.66C255.936 980.412 253.776 977.424 249.888 977.424ZM271.609 974.76C272.617 974.76 273.373 973.968 273.373 972.996C273.373 971.988 272.617 971.232 271.609 971.232C270.637 971.232 269.845 971.988 269.845 972.996C269.845 973.968 270.637 974.76 271.609 974.76ZM273.157 977.784H270.061V996H273.157V977.784ZM299.88 977.424C296.856 977.424 294.588 979.26 293.004 981.528C292.176 979.008 290.268 977.424 287.424 977.424C284.688 977.424 282.528 978.972 280.98 980.952L280.836 977.784H277.92V996H281.016V987.324C281.232 983.508 283.212 980.34 286.344 980.34C288.936 980.34 290.376 982.464 290.376 985.596V996H293.472V987.324C293.688 983.508 295.668 980.34 298.8 980.34C301.428 980.34 302.832 982.464 302.832 985.596V996H305.928V984.66C305.928 980.412 303.768 977.424 299.88 977.424ZM310.439 1004.28H313.535V991.68C314.651 994.452 317.603 996.36 321.023 996.36C326.243 996.36 330.095 992.112 330.095 986.856C330.095 981.672 326.243 977.424 321.023 977.424C317.603 977.424 314.651 979.332 313.535 982.068L313.355 977.784H310.439V1004.28ZM313.823 986.856C313.823 983.328 316.667 980.34 320.375 980.34C324.119 980.34 326.999 983.328 326.999 986.856C326.999 990.456 324.119 993.444 320.375 993.444C316.667 993.444 313.823 990.456 313.823 986.856ZM342.412 996.36C347.956 996.36 352.06 992.112 352.06 986.856C352.06 981.672 347.956 977.424 342.412 977.424C336.904 977.424 332.728 981.672 332.728 986.856C332.728 992.112 336.904 996.36 342.412 996.36ZM342.412 993.444C338.704 993.444 335.824 990.456 335.824 986.856C335.824 983.328 338.704 980.34 342.412 980.34C346.156 980.34 348.964 983.328 348.964 986.856C348.964 990.456 346.156 993.444 342.412 993.444ZM362.922 977.424C360.942 977.424 359.682 978.828 358.746 980.772V980.7L358.566 977.784H355.65V996H358.746V986.928C358.746 983.508 359.934 980.34 362.742 980.34C363.606 980.34 364.326 980.664 364.686 980.916L365.226 978.216C364.83 977.856 364.038 977.424 362.922 977.424ZM376.729 977.784H372.949V972.384H369.889V977.784H367.297V980.7H369.889V996H372.949V980.7H376.729V977.784ZM378.642 986.856C378.642 992.112 382.494 996.36 387.714 996.36C391.278 996.36 394.05 994.272 395.202 991.536L395.346 996H398.298V977.784H395.346L395.202 982.248C394.05 979.512 391.278 977.424 387.714 977.424C382.494 977.424 378.642 981.672 378.642 986.856ZM381.738 986.856C381.738 983.328 384.618 980.34 388.326 980.34C392.07 980.34 394.878 983.328 394.878 986.856C394.878 990.456 392.07 993.444 388.326 993.444C384.618 993.444 381.738 990.456 381.738 986.856ZM413.019 977.424C409.887 977.424 407.511 979.008 405.855 980.952L405.711 977.784H402.795V996H405.891V986.712C405.891 984.12 407.619 980.34 411.939 980.34C414.747 980.34 416.691 982.068 416.691 986.64V996H419.787V985.344C419.787 980.196 417.231 977.424 413.019 977.424ZM432.416 977.784H428.636V972.384H425.576V977.784H422.984V980.7H425.576V996H428.636V980.7H432.416V977.784ZM443.569 970.08C439.357 970.08 435.505 973.032 435.505 978.288H438.565C438.565 974.868 440.977 972.996 443.605 972.996C446.449 972.996 448.213 974.832 448.213 977.244C448.213 980.124 445.981 981.852 442.237 981.852H441.697L441.841 988.98H444.613L444.721 983.94C448.753 983.148 451.273 980.412 451.273 976.812C451.273 973.5 448.537 970.08 443.569 970.08ZM443.245 992.832C442.237 992.832 441.481 993.588 441.481 994.596C441.481 995.568 442.237 996.36 443.245 996.36C444.217 996.36 445.009 995.568 445.009 994.596C445.009 993.588 444.217 992.832 443.245 992.832Z" fill="black"/>
<path d="M846.355 897.508C845.011 896.236 843.463 895.6 841.711 895.6C840.799 895.6 839.923 895.828 839.083 896.284C838.267 896.716 837.595 897.34 837.067 898.156C836.563 898.972 836.311 899.884 836.311 900.892C836.311 901.9 836.563 902.812 837.067 903.628C837.595 904.444 838.267 905.08 839.083 905.536C839.923 905.968 840.799 906.184 841.711 906.184C843.439 906.184 844.987 905.536 846.355 904.24V908.488C844.939 909.736 843.151 910.36 840.991 910.36C839.239 910.36 837.643 909.94 836.203 909.1C834.787 908.236 833.671 907.084 832.855 905.644C832.039 904.18 831.631 902.596 831.631 900.892C831.631 899.188 832.039 897.616 832.855 896.176C833.671 894.736 834.787 893.584 836.203 892.72C837.643 891.856 839.239 891.424 840.991 891.424C843.151 891.424 844.939 892.048 846.355 893.296V897.508ZM858.649 910.36C856.777 910.36 855.097 909.94 853.609 909.1C852.121 908.26 850.957 907.12 850.117 905.68C849.277 904.216 848.857 902.62 848.857 900.892C848.857 899.164 849.277 897.58 850.117 896.14C850.957 894.676 852.121 893.524 853.609 892.684C855.097 891.844 856.777 891.424 858.649 891.424C860.497 891.424 862.165 891.844 863.653 892.684C865.141 893.524 866.293 894.676 867.109 896.14C867.949 897.58 868.369 899.164 868.369 900.892C868.369 902.62 867.949 904.216 867.109 905.68C866.293 907.12 865.141 908.26 863.653 909.1C862.165 909.94 860.497 910.36 858.649 910.36ZM858.649 906.184C859.657 906.184 860.557 905.944 861.349 905.464C862.165 904.984 862.801 904.348 863.257 903.556C863.713 902.74 863.941 901.852 863.941 900.892C863.941 899.932 863.713 899.056 863.257 898.264C862.801 897.448 862.165 896.8 861.349 896.32C860.557 895.84 859.657 895.6 858.649 895.6C857.641 895.6 856.717 895.84 855.877 896.32C855.061 896.8 854.425 897.448 853.969 898.264C853.513 899.056 853.285 899.932 853.285 900.892C853.285 901.852 853.513 902.74 853.969 903.556C854.425 904.348 855.061 904.984 855.877 905.464C856.717 905.944 857.641 906.184 858.649 906.184ZM893.822 891.424C895.718 891.424 897.182 892.072 898.214 893.368C899.246 894.664 899.762 896.392 899.762 898.552V910H895.334V900.064C895.334 898.696 895.046 897.616 894.47 896.824C893.918 896.008 893.126 895.6 892.094 895.6C890.822 895.6 889.79 896.212 888.998 897.436C888.23 898.66 887.822 900.232 887.774 902.152V910H883.346V900.064C883.346 898.696 883.058 897.616 882.482 896.824C881.93 896.008 881.138 895.6 880.106 895.6C878.834 895.6 877.802 896.212 877.01 897.436C876.242 898.66 875.822 900.232 875.75 902.152V910H871.322V891.784H875.498L875.714 894.34C877.538 892.396 879.566 891.424 881.798 891.424C883.094 891.424 884.198 891.736 885.11 892.36C886.022 892.984 886.694 893.86 887.126 894.988C889.118 892.612 891.35 891.424 893.822 891.424ZM903.56 891.784H907.736L907.988 895.384C908.492 894.208 909.356 893.26 910.58 892.54C911.828 891.796 913.22 891.424 914.756 891.424C916.46 891.424 917.984 891.844 919.328 892.684C920.672 893.524 921.716 894.676 922.46 896.14C923.204 897.58 923.576 899.164 923.576 900.892C923.576 902.62 923.204 904.216 922.46 905.68C921.716 907.12 920.672 908.26 919.328 909.1C917.984 909.94 916.46 910.36 914.756 910.36C913.196 910.36 911.792 909.988 910.544 909.244C909.32 908.5 908.468 907.54 907.988 906.364V918.28H903.56V891.784ZM908.492 900.892C908.492 901.852 908.708 902.74 909.14 903.556C909.596 904.348 910.232 904.984 911.048 905.464C911.864 905.944 912.776 906.184 913.784 906.184C914.792 906.184 915.704 905.944 916.52 905.464C917.336 904.984 917.972 904.348 918.428 903.556C918.884 902.74 919.112 901.852 919.112 900.892C919.112 899.932 918.884 899.056 918.428 898.264C917.972 897.448 917.336 896.8 916.52 896.32C915.704 895.84 914.792 895.6 913.784 895.6C912.776 895.6 911.864 895.84 911.048 896.32C910.232 896.8 909.596 897.448 909.14 898.264C908.708 899.056 908.492 899.932 908.492 900.892ZM930.699 910H926.271V883H930.699V910ZM952.081 902.26H938.293C938.365 903.46 938.833 904.456 939.697 905.248C940.561 906.04 941.761 906.436 943.297 906.436C944.377 906.436 945.289 906.208 946.033 905.752C946.801 905.272 947.389 904.672 947.797 903.952L951.685 904.384C951.493 905.296 951.037 906.208 950.317 907.12C949.597 908.032 948.637 908.8 947.437 909.424C946.237 910.048 944.845 910.36 943.261 910.36C941.437 910.36 939.805 909.94 938.365 909.1C936.949 908.236 935.845 907.084 935.053 905.644C934.261 904.18 933.865 902.56 933.865 900.784C933.865 899.08 934.237 897.52 934.981 896.104C935.749 894.664 936.829 893.524 938.221 892.684C939.613 891.844 941.197 891.424 942.973 891.424C944.797 891.424 946.393 891.868 947.761 892.756C949.153 893.62 950.221 894.796 950.965 896.284C951.709 897.748 952.081 899.356 952.081 901.108V902.26ZM942.973 895.348C941.653 895.348 940.549 895.72 939.661 896.464C938.797 897.208 938.341 898.12 938.293 899.2H947.653C947.605 898.144 947.149 897.244 946.285 896.5C945.421 895.732 944.317 895.348 942.973 895.348ZM965.253 895.96H961.221V910H956.793V895.96H953.949V891.784H956.793V886.384H961.221V891.784H965.253V895.96ZM984.882 902.26H971.094C971.166 903.46 971.634 904.456 972.498 905.248C973.362 906.04 974.562 906.436 976.098 906.436C977.178 906.436 978.09 906.208 978.834 905.752C979.602 905.272 980.19 904.672 980.598 903.952L984.486 904.384C984.294 905.296 983.838 906.208 983.118 907.12C982.398 908.032 981.438 908.8 980.238 909.424C979.038 910.048 977.646 910.36 976.062 910.36C974.238 910.36 972.606 909.94 971.166 909.1C969.75 908.236 968.646 907.084 967.854 905.644C967.062 904.18 966.666 902.56 966.666 900.784C966.666 899.08 967.038 897.52 967.782 896.104C968.55 894.664 969.63 893.524 971.022 892.684C972.414 891.844 973.998 891.424 975.774 891.424C977.598 891.424 979.194 891.868 980.562 892.756C981.954 893.62 983.022 894.796 983.766 896.284C984.51 897.748 984.882 899.356 984.882 901.108V902.26ZM975.774 895.348C974.454 895.348 973.35 895.72 972.462 896.464C971.598 897.208 971.142 898.12 971.094 899.2H980.454C980.406 898.144 979.95 897.244 979.086 896.5C978.222 895.732 977.118 895.348 975.774 895.348ZM110.464 938.96H106.432V953H102.004V938.96H99.16V934.784H102.004V929.384H106.432V934.784H110.464V938.96ZM111.877 943.892C111.877 942.164 112.249 940.58 112.993 939.14C113.737 937.676 114.769 936.524 116.089 935.684C117.433 934.844 118.957 934.424 120.661 934.424C122.293 934.424 123.697 934.82 124.873 935.612C126.073 936.404 126.925 937.412 127.429 938.636L127.681 934.784H131.893V953H127.681L127.429 949.112C126.925 950.336 126.073 951.356 124.873 952.172C123.697 952.964 122.293 953.36 120.661 953.36C118.957 953.36 117.433 952.94 116.089 952.1C114.769 951.26 113.737 950.12 112.993 948.68C112.249 947.216 111.877 945.62 111.877 943.892ZM116.305 943.892C116.305 944.852 116.533 945.74 116.989 946.556C117.445 947.348 118.081 947.984 118.897 948.464C119.737 948.944 120.661 949.184 121.669 949.184C122.677 949.184 123.577 948.944 124.369 948.464C125.185 947.984 125.821 947.348 126.277 946.556C126.733 945.74 126.961 944.852 126.961 943.892C126.961 942.932 126.733 942.056 126.277 941.264C125.821 940.448 125.185 939.8 124.369 939.32C123.577 938.84 122.677 938.6 121.669 938.6C120.661 938.6 119.737 938.84 118.897 939.32C118.081 939.8 117.445 940.448 116.989 941.264C116.533 942.056 116.305 942.932 116.305 943.892ZM139.613 947.492C139.733 948.14 140.129 948.668 140.801 949.076C141.497 949.46 142.373 949.652 143.429 949.652C144.245 949.652 144.929 949.508 145.481 949.22C146.033 948.932 146.309 948.524 146.309 947.996C146.309 947.564 146.177 947.228 145.913 946.988C145.649 946.724 145.265 946.496 144.761 946.304C144.257 946.088 143.429 945.8 142.277 945.44C141.557 945.2 141.197 945.08 141.197 945.08C139.493 944.552 138.161 943.868 137.201 943.028C136.241 942.188 135.761 941.072 135.761 939.68C135.761 938.624 136.073 937.7 136.697 936.908C137.321 936.116 138.149 935.504 139.181 935.072C140.213 934.64 141.317 934.424 142.493 934.424C143.957 934.424 145.229 934.676 146.309 935.18C147.413 935.66 148.253 936.332 148.829 937.196C149.429 938.036 149.753 938.972 149.801 940.004H145.373C145.325 939.38 145.025 938.912 144.473 938.6C143.921 938.264 143.309 938.096 142.637 938.096C142.013 938.096 141.449 938.24 140.945 938.528C140.441 938.816 140.189 939.2 140.189 939.68C140.189 940.016 140.297 940.292 140.513 940.508C140.753 940.724 141.101 940.928 141.557 941.12C142.013 941.288 142.781 941.552 143.861 941.912L145.337 942.416C147.257 943.064 148.637 943.868 149.477 944.828C150.341 945.764 150.773 946.856 150.773 948.104C150.773 949.736 150.065 951.02 148.649 951.956C147.257 952.892 145.481 953.36 143.321 953.36C140.945 953.36 139.025 952.868 137.561 951.884C136.097 950.876 135.305 949.412 135.185 947.492H139.613ZM163.762 942.704L172.078 953H166.57L160.63 945.656L157.93 948.248V953H153.502V926H157.93V942.344L165.886 934.784H172.078L163.762 942.704ZM177.055 947.492C177.175 948.14 177.571 948.668 178.243 949.076C178.939 949.46 179.815 949.652 180.871 949.652C181.687 949.652 182.371 949.508 182.923 949.22C183.475 948.932 183.751 948.524 183.751 947.996C183.751 947.564 183.619 947.228 183.355 946.988C183.091 946.724 182.707 946.496 182.203 946.304C181.699 946.088 180.871 945.8 179.719 945.44C178.999 945.2 178.639 945.08 178.639 945.08C176.935 944.552 175.603 943.868 174.643 943.028C173.683 942.188 173.203 941.072 173.203 939.68C173.203 938.624 173.515 937.7 174.139 936.908C174.763 936.116 175.591 935.504 176.623 935.072C177.655 934.64 178.759 934.424 179.935 934.424C181.399 934.424 182.671 934.676 183.751 935.18C184.855 935.66 185.695 936.332 186.271 937.196C186.871 938.036 187.195 938.972 187.243 940.004H182.815C182.767 939.38 182.467 938.912 181.915 938.6C181.363 938.264 180.751 938.096 180.079 938.096C179.455 938.096 178.891 938.24 178.387 938.528C177.883 938.816 177.631 939.2 177.631 939.68C177.631 940.016 177.739 940.292 177.955 940.508C178.195 940.724 178.543 940.928 178.999 941.12C179.455 941.288 180.223 941.552 181.303 941.912L182.779 942.416C184.699 943.064 186.079 943.868 186.919 944.828C187.783 945.764 188.215 946.856 188.215 948.104C188.215 949.736 187.507 951.02 186.091 951.956C184.699 952.892 182.923 953.36 180.763 953.36C178.387 953.36 176.467 952.868 175.003 951.884C173.539 950.876 172.747 949.412 172.627 947.492H177.055Z" fill="#00BF93"/>
<rect x="44" y="15" width="1143" height="662" fill="#CCF2E9"/>
<circle cx="462" cy="290" r="56" fill="#64DFC2"/>
<circle cx="616" cy="290" r="56" fill="#00BF93"/>
<circle cx="770" cy="290" r="56" fill="#00BF93"/>
<circle cx="770" cy="447" r="56" fill="#097A5F"/>
<circle cx="616" cy="447" r="56" fill="#00BF93"/>
<circle cx="462" cy="447" r="56" fill="white"/>
</g>
</g>
<defs>
<filter id="filter0_d" x="0" y="0" width="1231" height="1142" filterUnits="userSpaceOnUse" color-interpolation-filters="sRGB">
<feFlood flood-opacity="0" result="BackgroundImageFix"/>
<feColorMatrix in="SourceAlpha" type="matrix" values="0 0 0 0 0 0 0 0 0 0 0 0 0 0 0 0 0 0 127 0"/>
<feOffset dy="4"/>
<feGaussianBlur stdDeviation="22"/>
<feColorMatrix type="matrix" values="0 0 0 0 0 0 0 0 0 0 0 0 0 0 0 0 0 0 0.25 0"/>
<feBlend mode="normal" in2="BackgroundImageFix" result="effect1_dropShadow"/>
<feBlend mode="normal" in="SourceGraphic" in2="effect1_dropShadow" result="shape"/>
</filter>
<clipPath id="clip0">
<rect x="44" y="40" width="1143" height="1054" rx="10" fill="white"/>
</clipPath>
</defs>
</svg>
