<svg width="707" height="226" viewBox="0 0 707 226" fill="none" xmlns="http://www.w3.org/2000/svg">
<rect x="77" y="88" width="42" height="23" fill="#0078D4"/>
<rect x="327" y="88" width="44" height="23" fill="#0078D4"/>
<path d="M86.6338 105.912C86.2939 106.1 85.8457 106.193 85.2891 106.193C83.7129 106.193 82.9248 105.314 82.9248 103.557V98.2305H81.3779V97H82.9248V94.8027L84.3662 94.3369V97H86.6338V98.2305H84.3662V103.302C84.3662 103.905 84.4688 104.336 84.6738 104.594C84.8789 104.852 85.2188 104.98 85.6934 104.98C86.0566 104.98 86.3701 104.881 86.6338 104.682V105.912ZM95.792 101.86H89.4375C89.4609 102.862 89.7305 103.636 90.2461 104.181C90.7617 104.726 91.4707 104.998 92.373 104.998C93.3867 104.998 94.3184 104.664 95.168 103.996V105.35C94.377 105.924 93.3311 106.211 92.0303 106.211C90.7588 106.211 89.7598 105.804 89.0332 104.989C88.3066 104.169 87.9434 103.018 87.9434 101.535C87.9434 100.135 88.3389 98.9951 89.1299 98.1162C89.9268 97.2314 90.9141 96.7891 92.0918 96.7891C93.2695 96.7891 94.1807 97.1699 94.8252 97.9316C95.4697 98.6934 95.792 99.751 95.792 101.104V101.86ZM94.3154 100.639C94.3096 99.8066 94.1074 99.1592 93.709 98.6963C93.3164 98.2334 92.7686 98.002 92.0654 98.002C91.3857 98.002 90.8086 98.2451 90.334 98.7314C89.8594 99.2178 89.5664 99.8535 89.4551 100.639H94.3154ZM104.555 97L101.531 101.553L104.502 106H102.823L101.057 103.082C100.945 102.9 100.813 102.672 100.661 102.396H100.626C100.597 102.449 100.459 102.678 100.213 103.082L98.4111 106H96.75L99.8174 101.588L96.8818 97H98.5605L100.301 100.076C100.43 100.305 100.556 100.539 100.679 100.779H100.714L102.964 97H104.555ZM110.417 105.912C110.077 106.1 109.629 106.193 109.072 106.193C107.496 106.193 106.708 105.314 106.708 103.557V98.2305H105.161V97H106.708V94.8027L108.149 94.3369V97H110.417V98.2305H108.149V103.302C108.149 103.905 108.252 104.336 108.457 104.594C108.662 104.852 109.002 104.98 109.477 104.98C109.84 104.98 110.153 104.881 110.417 104.682V105.912Z" fill="white"/>
<path d="M587.594 105.587C586.902 106.003 586.082 106.211 585.133 106.211C583.85 106.211 582.812 105.795 582.021 104.963C581.236 104.125 580.844 103.041 580.844 101.711C580.844 100.229 581.269 99.0391 582.118 98.1426C582.968 97.2402 584.102 96.7891 585.52 96.7891C586.311 96.7891 587.008 96.9355 587.611 97.2285V98.7051C586.943 98.2363 586.229 98.002 585.467 98.002C584.547 98.002 583.791 98.333 583.199 98.9951C582.613 99.6514 582.32 100.516 582.32 101.588C582.32 102.643 582.596 103.475 583.146 104.084C583.703 104.693 584.447 104.998 585.379 104.998C586.164 104.998 586.902 104.737 587.594 104.216V105.587ZM591.215 106H589.773V92.6758H591.215V106ZM594.871 94.7148C594.613 94.7148 594.394 94.627 594.212 94.4512C594.03 94.2754 593.939 94.0527 593.939 93.7832C593.939 93.5137 594.03 93.291 594.212 93.1152C594.394 92.9336 594.613 92.8428 594.871 92.8428C595.135 92.8428 595.357 92.9336 595.539 93.1152C595.727 93.291 595.82 93.5137 595.82 93.7832C595.82 94.041 595.727 94.2607 595.539 94.4424C595.357 94.624 595.135 94.7148 594.871 94.7148ZM595.574 106H594.133V97H595.574V106ZM604.627 105.587C603.936 106.003 603.115 106.211 602.166 106.211C600.883 106.211 599.846 105.795 599.055 104.963C598.27 104.125 597.877 103.041 597.877 101.711C597.877 100.229 598.302 99.0391 599.151 98.1426C600.001 97.2402 601.135 96.7891 602.553 96.7891C603.344 96.7891 604.041 96.9355 604.645 97.2285V98.7051C603.977 98.2363 603.262 98.002 602.5 98.002C601.58 98.002 600.824 98.333 600.232 98.9951C599.646 99.6514 599.354 100.516 599.354 101.588C599.354 102.643 599.629 103.475 600.18 104.084C600.736 104.693 601.48 104.998 602.412 104.998C603.197 104.998 603.936 104.737 604.627 104.216V105.587ZM614.277 106H612.256L608.283 101.676H608.248V106H606.807V92.6758H608.248V101.122H608.283L612.062 97H613.952L609.777 101.342L614.277 106Z" fill="black"/>
<path d="M338.594 105.587C337.902 106.003 337.082 106.211 336.133 106.211C334.85 106.211 333.812 105.795 333.021 104.963C332.236 104.125 331.844 103.041 331.844 101.711C331.844 100.229 332.269 99.0391 333.118 98.1426C333.968 97.2402 335.102 96.7891 336.52 96.7891C337.311 96.7891 338.008 96.9355 338.611 97.2285V98.7051C337.943 98.2363 337.229 98.002 336.467 98.002C335.547 98.002 334.791 98.333 334.199 98.9951C333.613 99.6514 333.32 100.516 333.32 101.588C333.32 102.643 333.596 103.475 334.146 104.084C334.703 104.693 335.447 104.998 336.379 104.998C337.164 104.998 337.902 104.737 338.594 104.216V105.587ZM342.215 106H340.773V92.6758H342.215V106ZM345.871 94.7148C345.613 94.7148 345.394 94.627 345.212 94.4512C345.03 94.2754 344.939 94.0527 344.939 93.7832C344.939 93.5137 345.03 93.291 345.212 93.1152C345.394 92.9336 345.613 92.8428 345.871 92.8428C346.135 92.8428 346.357 92.9336 346.539 93.1152C346.727 93.291 346.82 93.5137 346.82 93.7832C346.82 94.041 346.727 94.2607 346.539 94.4424C346.357 94.624 346.135 94.7148 345.871 94.7148ZM346.574 106H345.133V97H346.574V106ZM355.627 105.587C354.936 106.003 354.115 106.211 353.166 106.211C351.883 106.211 350.846 105.795 350.055 104.963C349.27 104.125 348.877 103.041 348.877 101.711C348.877 100.229 349.302 99.0391 350.151 98.1426C351.001 97.2402 352.135 96.7891 353.553 96.7891C354.344 96.7891 355.041 96.9355 355.645 97.2285V98.7051C354.977 98.2363 354.262 98.002 353.5 98.002C352.58 98.002 351.824 98.333 351.232 98.9951C350.646 99.6514 350.354 100.516 350.354 101.588C350.354 102.643 350.629 103.475 351.18 104.084C351.736 104.693 352.48 104.998 353.412 104.998C354.197 104.998 354.936 104.737 355.627 104.216V105.587ZM365.277 106H363.256L359.283 101.676H359.248V106H357.807V92.6758H359.248V101.122H359.283L363.062 97H364.952L360.777 101.342L365.277 106Z" fill="white"/>
<path d="M11.127 106H9.65039V100.252H3.12891V106H1.65234V93.3965H3.12891V98.9248H9.65039V93.3965H11.127V106ZM14.9766 94.7148C14.7188 94.7148 14.499 94.627 14.3174 94.4512C14.1357 94.2754 14.0449 94.0527 14.0449 93.7832C14.0449 93.5137 14.1357 93.291 14.3174 93.1152C14.499 92.9336 14.7188 92.8428 14.9766 92.8428C15.2402 92.8428 15.4629 92.9336 15.6445 93.1152C15.832 93.291 15.9258 93.5137 15.9258 93.7832C15.9258 94.041 15.832 94.2607 15.6445 94.4424C15.4629 94.624 15.2402 94.7148 14.9766 94.7148ZM15.6797 106H14.2383V97H15.6797V106ZM26.2793 105.279C26.2793 108.584 24.6973 110.236 21.5332 110.236C20.4199 110.236 19.4473 110.025 18.6152 109.604V108.162C19.6289 108.725 20.5957 109.006 21.5156 109.006C23.7305 109.006 24.8379 107.828 24.8379 105.473V104.488H24.8027C24.1172 105.637 23.0859 106.211 21.709 106.211C20.5898 106.211 19.6875 105.812 19.002 105.016C18.3223 104.213 17.9824 103.138 17.9824 101.79C17.9824 100.261 18.3486 99.0449 19.0811 98.1426C19.8193 97.2402 20.8271 96.7891 22.1045 96.7891C23.3174 96.7891 24.2168 97.2754 24.8027 98.248H24.8379V97H26.2793V105.279ZM24.8379 101.931V100.604C24.8379 99.8887 24.5947 99.2764 24.1084 98.7666C23.6279 98.2568 23.0273 98.002 22.3066 98.002C21.416 98.002 20.7188 98.3271 20.2148 98.9775C19.7109 99.6221 19.459 100.527 19.459 101.693C19.459 102.695 19.6992 103.498 20.1797 104.102C20.666 104.699 21.3076 104.998 22.1045 104.998C22.9131 104.998 23.5693 104.711 24.0732 104.137C24.583 103.562 24.8379 102.827 24.8379 101.931ZM36.668 106H35.2266V100.814C35.2266 98.9395 34.5293 98.002 33.1348 98.002C32.4316 98.002 31.8398 98.2744 31.3594 98.8193C30.8789 99.3584 30.6387 100.053 30.6387 100.902V106H29.1973V92.6758H30.6387V98.4941H30.6738C31.3652 97.3574 32.3496 96.7891 33.627 96.7891C35.6543 96.7891 36.668 98.0107 36.668 100.454V106ZM40.834 106H39.3926V92.6758H40.834V106ZM44.4902 94.7148C44.2324 94.7148 44.0127 94.627 43.8311 94.4512C43.6494 94.2754 43.5586 94.0527 43.5586 93.7832C43.5586 93.5137 43.6494 93.291 43.8311 93.1152C44.0127 92.9336 44.2324 92.8428 44.4902 92.8428C44.7539 92.8428 44.9766 92.9336 45.1582 93.1152C45.3457 93.291 45.4395 93.5137 45.4395 93.7832C45.4395 94.041 45.3457 94.2607 45.1582 94.4424C44.9766 94.624 44.7539 94.7148 44.4902 94.7148ZM45.1934 106H43.752V97H45.1934V106ZM55.793 105.279C55.793 108.584 54.2109 110.236 51.0469 110.236C49.9336 110.236 48.9609 110.025 48.1289 109.604V108.162C49.1426 108.725 50.1094 109.006 51.0293 109.006C53.2441 109.006 54.3516 107.828 54.3516 105.473V104.488H54.3164C53.6309 105.637 52.5996 106.211 51.2227 106.211C50.1035 106.211 49.2012 105.812 48.5156 105.016C47.8359 104.213 47.4961 103.138 47.4961 101.79C47.4961 100.261 47.8623 99.0449 48.5947 98.1426C49.333 97.2402 50.3408 96.7891 51.6182 96.7891C52.8311 96.7891 53.7305 97.2754 54.3164 98.248H54.3516V97H55.793V105.279ZM54.3516 101.931V100.604C54.3516 99.8887 54.1084 99.2764 53.6221 98.7666C53.1416 98.2568 52.541 98.002 51.8203 98.002C50.9297 98.002 50.2324 98.3271 49.7285 98.9775C49.2246 99.6221 48.9727 100.527 48.9727 101.693C48.9727 102.695 49.2129 103.498 49.6934 104.102C50.1797 104.699 50.8213 104.998 51.6182 104.998C52.4268 104.998 53.083 104.711 53.5869 104.137C54.0967 103.562 54.3516 102.827 54.3516 101.931ZM66.1816 106H64.7402V100.814C64.7402 98.9395 64.043 98.002 62.6484 98.002C61.9453 98.002 61.3535 98.2744 60.873 98.8193C60.3926 99.3584 60.1523 100.053 60.1523 100.902V106H58.7109V92.6758H60.1523V98.4941H60.1875C60.8789 97.3574 61.8633 96.7891 63.1406 96.7891C65.168 96.7891 66.1816 98.0107 66.1816 100.454V106ZM73.0811 105.912C72.7412 106.1 72.293 106.193 71.7363 106.193C70.1602 106.193 69.3721 105.314 69.3721 103.557V98.2305H67.8252V97H69.3721V94.8027L70.8135 94.3369V97H73.0811V98.2305H70.8135V103.302C70.8135 103.905 70.916 104.336 71.1211 104.594C71.3262 104.852 71.666 104.98 72.1406 104.98C72.5039 104.98 72.8174 104.881 73.0811 104.682V105.912Z" fill="black"/>
<path d="M543.688 106H541.93L539.82 102.467C539.627 102.139 539.439 101.86 539.258 101.632C539.076 101.397 538.889 101.207 538.695 101.061C538.508 100.914 538.303 100.809 538.08 100.744C537.863 100.674 537.617 100.639 537.342 100.639H536.129V106H534.652V93.3965H538.414C538.965 93.3965 539.472 93.4668 539.935 93.6074C540.403 93.7422 540.808 93.9502 541.147 94.2314C541.493 94.5127 541.763 94.8643 541.956 95.2861C542.149 95.7021 542.246 96.1914 542.246 96.7539C542.246 97.1934 542.179 97.5977 542.044 97.9668C541.915 98.3301 541.728 98.6553 541.481 98.9424C541.241 99.2295 540.948 99.4756 540.603 99.6807C540.263 99.8799 539.879 100.035 539.451 100.146V100.182C539.662 100.275 539.844 100.384 539.996 100.507C540.154 100.624 540.304 100.765 540.444 100.929C540.585 101.093 540.723 101.28 540.857 101.491C540.998 101.696 541.153 101.937 541.323 102.212L543.688 106ZM536.129 94.7324V99.3027H538.133C538.502 99.3027 538.842 99.2471 539.152 99.1357C539.469 99.0244 539.741 98.8662 539.97 98.6611C540.198 98.4502 540.377 98.1953 540.506 97.8965C540.635 97.5918 540.699 97.252 540.699 96.877C540.699 96.2031 540.479 95.6787 540.04 95.3037C539.606 94.9229 538.977 94.7324 538.15 94.7324H536.129ZM545.973 94.7148C545.715 94.7148 545.495 94.627 545.313 94.4512C545.132 94.2754 545.041 94.0527 545.041 93.7832C545.041 93.5137 545.132 93.291 545.313 93.1152C545.495 92.9336 545.715 92.8428 545.973 92.8428C546.236 92.8428 546.459 92.9336 546.641 93.1152C546.828 93.291 546.922 93.5137 546.922 93.7832C546.922 94.041 546.828 94.2607 546.641 94.4424C546.459 94.624 546.236 94.7148 545.973 94.7148ZM546.676 106H545.234V97H546.676V106ZM557.275 105.279C557.275 108.584 555.693 110.236 552.529 110.236C551.416 110.236 550.443 110.025 549.611 109.604V108.162C550.625 108.725 551.592 109.006 552.512 109.006C554.727 109.006 555.834 107.828 555.834 105.473V104.488H555.799C555.113 105.637 554.082 106.211 552.705 106.211C551.586 106.211 550.684 105.812 549.998 105.016C549.318 104.213 548.979 103.138 548.979 101.79C548.979 100.261 549.345 99.0449 550.077 98.1426C550.815 97.2402 551.823 96.7891 553.101 96.7891C554.313 96.7891 555.213 97.2754 555.799 98.248H555.834V97H557.275V105.279ZM555.834 101.931V100.604C555.834 99.8887 555.591 99.2764 555.104 98.7666C554.624 98.2568 554.023 98.002 553.303 98.002C552.412 98.002 551.715 98.3271 551.211 98.9775C550.707 99.6221 550.455 100.527 550.455 101.693C550.455 102.695 550.695 103.498 551.176 104.102C551.662 104.699 552.304 104.998 553.101 104.998C553.909 104.998 554.565 104.711 555.069 104.137C555.579 103.562 555.834 102.827 555.834 101.931ZM567.664 106H566.223V100.814C566.223 98.9395 565.525 98.002 564.131 98.002C563.428 98.002 562.836 98.2744 562.355 98.8193C561.875 99.3584 561.635 100.053 561.635 100.902V106H560.193V92.6758H561.635V98.4941H561.67C562.361 97.3574 563.346 96.7891 564.623 96.7891C566.65 96.7891 567.664 98.0107 567.664 100.454V106ZM574.563 105.912C574.224 106.1 573.775 106.193 573.219 106.193C571.643 106.193 570.854 105.314 570.854 103.557V98.2305H569.308V97H570.854V94.8027L572.296 94.3369V97H574.563V98.2305H572.296V103.302C572.296 103.905 572.398 104.336 572.604 104.594C572.809 104.852 573.148 104.98 573.623 104.98C573.986 104.98 574.3 104.881 574.563 104.682V105.912Z" fill="black"/>
<path d="M268.652 106V93.3965H272.133C276.574 93.3965 278.795 95.4443 278.795 99.54C278.795 101.485 278.177 103.05 276.94 104.233C275.71 105.411 274.061 106 271.992 106H268.652ZM270.129 94.7324V104.664H272.01C273.662 104.664 274.948 104.222 275.868 103.337C276.788 102.452 277.248 101.198 277.248 99.5752C277.248 96.3467 275.531 94.7324 272.098 94.7324H270.129ZM284.842 106.211C283.512 106.211 282.448 105.792 281.651 104.954C280.86 104.11 280.465 102.994 280.465 101.605C280.465 100.094 280.878 98.9131 281.704 98.0635C282.53 97.2139 283.646 96.7891 285.053 96.7891C286.395 96.7891 287.44 97.2021 288.19 98.0283C288.946 98.8545 289.324 100 289.324 101.465C289.324 102.9 288.917 104.052 288.103 104.919C287.294 105.78 286.207 106.211 284.842 106.211ZM284.947 98.002C284.021 98.002 283.289 98.3184 282.75 98.9512C282.211 99.5781 281.941 100.445 281.941 101.553C281.941 102.619 282.214 103.46 282.759 104.075C283.304 104.69 284.033 104.998 284.947 104.998C285.879 104.998 286.594 104.696 287.092 104.093C287.596 103.489 287.848 102.631 287.848 101.518C287.848 100.393 287.596 99.5254 287.092 98.916C286.594 98.3066 285.879 98.002 284.947 98.002ZM298.904 106H297.463V104.576H297.428C296.83 105.666 295.904 106.211 294.65 106.211C292.506 106.211 291.434 104.934 291.434 102.379V97H292.866V102.15C292.866 104.049 293.593 104.998 295.046 104.998C295.749 104.998 296.326 104.74 296.777 104.225C297.234 103.703 297.463 103.023 297.463 102.186V97H298.904V106ZM303.299 104.699H303.264V106H301.822V92.6758H303.264V98.582H303.299C304.008 97.3867 305.045 96.7891 306.41 96.7891C307.564 96.7891 308.467 97.1934 309.117 98.002C309.773 98.8047 310.102 99.8828 310.102 101.236C310.102 102.742 309.735 103.949 309.003 104.857C308.271 105.76 307.269 106.211 305.997 106.211C304.808 106.211 303.908 105.707 303.299 104.699ZM303.264 101.069V102.326C303.264 103.07 303.504 103.703 303.984 104.225C304.471 104.74 305.086 104.998 305.83 104.998C306.703 104.998 307.386 104.664 307.878 103.996C308.376 103.328 308.625 102.399 308.625 101.21C308.625 100.208 308.394 99.4229 307.931 98.8545C307.468 98.2861 306.841 98.002 306.05 98.002C305.212 98.002 304.538 98.2949 304.028 98.8809C303.519 99.4609 303.264 100.19 303.264 101.069ZM313.846 106H312.404V92.6758H313.846V106ZM323.997 101.86H317.643C317.666 102.862 317.936 103.636 318.451 104.181C318.967 104.726 319.676 104.998 320.578 104.998C321.592 104.998 322.523 104.664 323.373 103.996V105.35C322.582 105.924 321.536 106.211 320.235 106.211C318.964 106.211 317.965 105.804 317.238 104.989C316.512 104.169 316.148 103.018 316.148 101.535C316.148 100.135 316.544 98.9951 317.335 98.1162C318.132 97.2314 319.119 96.7891 320.297 96.7891C321.475 96.7891 322.386 97.1699 323.03 97.9316C323.675 98.6934 323.997 99.751 323.997 101.104V101.86ZM322.521 100.639C322.515 99.8066 322.312 99.1592 321.914 98.6963C321.521 98.2334 320.974 98.002 320.271 98.002C319.591 98.002 319.014 98.2451 318.539 98.7314C318.064 99.2178 317.771 99.8535 317.66 100.639H322.521Z" fill="black"/>
<path d="M123.75 92.5H120V107.5H123.75V108.75H115V107.5H118.75V92.5H115V91.25H123.75V92.5Z" fill="black"/>
<path d="M603.75 92.5H600V107.5H603.75V108.75H595V107.5H598.75V92.5H595V91.25H603.75V92.5Z" fill="black"/>
<path d="M354.75 91.5H351V106.5H354.75V107.75H346V106.5H349.75V91.5H346V90.25H354.75V91.5Z" fill="black"/>
<path d="M618.643 129.75H612.939L614.902 134.008L610.752 135.922L608.74 131.547L605 135.229V116.107L618.643 129.75ZM613.242 133.402L610.996 128.5H615.625L606.25 119.125V132.25L609.141 129.408L611.367 134.262L613.242 133.402Z" fill="black"/>
<g filter="url(#filter0_dd)">
<rect x="134" y="16" width="48" height="168" rx="4" fill="white"/>
</g>
<path d="M165 34.2891V44H155V41H151V28H157.711L160.711 31H161.711L165 34.2891ZM162 34H163.289L162 32.7109V34ZM155 31H159.289L157.289 29H152V40H155V31ZM164 35H161V32H156V43H164V35Z" fill="black"/>
<path d="M163 92V108H152C151.724 108 151.464 107.948 151.219 107.844C150.979 107.74 150.768 107.596 150.586 107.414C150.404 107.232 150.26 107.021 150.156 106.781C150.052 106.536 150 106.276 150 106V94C150 93.7448 150.055 93.4974 150.164 93.2578C150.279 93.013 150.427 92.7995 150.609 92.6172C150.797 92.4297 151.01 92.2812 151.25 92.1719C151.49 92.0573 151.74 92 152 92H163ZM162 105H152C151.859 105 151.729 105.026 151.609 105.078C151.49 105.13 151.383 105.203 151.289 105.297C151.201 105.385 151.13 105.49 151.078 105.609C151.026 105.729 151 105.859 151 106C151 106.141 151.026 106.271 151.078 106.391C151.13 106.51 151.201 106.617 151.289 106.711C151.383 106.799 151.49 106.87 151.609 106.922C151.729 106.974 151.859 107 152 107H162V105ZM151 104.266C151.312 104.089 151.646 104 152 104H162V93H152C151.88 93 151.76 93.0312 151.641 93.0938C151.521 93.151 151.414 93.2266 151.32 93.3203C151.227 93.4141 151.148 93.5208 151.086 93.6406C151.029 93.7604 151 93.8802 151 94V104.266ZM153 95H160V98H153V95ZM154 97H159V96H154V97Z" fill="black"/>
<path d="M155.086 131L157.75 139H156.664L156 137H153L152.336 139H151.25L153.914 131H155.086ZM155.664 136L154.5 132.5L153.336 136H155.664ZM156.297 128.25C156.302 128.042 156.305 127.836 156.305 127.633C156.305 127.43 156.305 127.224 156.305 127.016C156.305 126.865 156.305 126.714 156.305 126.562C156.305 126.411 156.302 126.26 156.297 126.109C156.297 126.083 156.302 126.055 156.312 126.023C156.354 126.013 156.388 126.008 156.414 126.008C156.633 126.013 156.849 126.018 157.062 126.023C157.281 126.029 157.5 126.031 157.719 126.031H159.867V125.945C159.867 125.789 159.865 125.63 159.859 125.469C159.854 125.307 159.833 125.151 159.797 125C160.156 125 160.513 125.016 160.867 125.047C160.898 125.052 160.93 125.06 160.961 125.07C160.997 125.081 161.016 125.107 161.016 125.148C161.016 125.18 161.008 125.211 160.992 125.242C160.977 125.273 160.964 125.305 160.953 125.336C160.943 125.362 160.932 125.404 160.922 125.461C160.917 125.513 160.911 125.57 160.906 125.633C160.906 125.69 160.906 125.747 160.906 125.805C160.906 125.857 160.906 125.898 160.906 125.93V126.031H163.219C163.438 126.031 163.654 126.029 163.867 126.023C164.086 126.018 164.305 126.013 164.523 126.008C164.56 126.008 164.594 126.016 164.625 126.031C164.641 126.057 164.648 126.083 164.648 126.109C164.643 126.198 164.638 126.292 164.633 126.391C164.628 126.484 164.625 126.576 164.625 126.664V127.117C164.625 127.305 164.628 127.495 164.633 127.688C164.638 127.875 164.643 128.062 164.648 128.25C164.648 128.266 164.646 128.284 164.641 128.305C164.641 128.326 164.635 128.341 164.625 128.352C164.583 128.362 164.549 128.367 164.523 128.367C164.497 128.367 164.432 128.37 164.328 128.375C164.224 128.375 164.117 128.375 164.008 128.375C163.909 128.375 163.82 128.372 163.742 128.367C163.664 128.362 163.62 128.354 163.609 128.344C163.599 128.302 163.591 128.24 163.586 128.156C163.586 128.073 163.586 127.979 163.586 127.875C163.586 127.703 163.589 127.526 163.594 127.344C163.599 127.161 163.602 127.026 163.602 126.938H157.336C157.336 126.958 157.336 126.997 157.336 127.055C157.336 127.107 157.336 127.172 157.336 127.25C157.341 127.323 157.344 127.404 157.344 127.492C157.344 127.576 157.344 127.661 157.344 127.75C157.344 127.901 157.341 128.039 157.336 128.164C157.331 128.284 157.323 128.349 157.312 128.359C157.271 128.37 157.237 128.375 157.211 128.375H156.414C156.357 128.375 156.323 128.367 156.312 128.352C156.302 128.336 156.297 128.302 156.297 128.25ZM159.594 133.008C159.719 133.008 159.812 132.99 159.875 132.953C159.943 132.911 159.977 132.823 159.977 132.688V131.203H157.484C157.276 131.203 157.068 131.206 156.859 131.211C156.651 131.216 156.443 131.221 156.234 131.227C156.193 131.227 156.161 131.219 156.141 131.203C156.13 131.172 156.125 131.143 156.125 131.117V130.367C156.125 130.352 156.125 130.333 156.125 130.312C156.13 130.286 156.138 130.268 156.148 130.258C156.18 130.247 156.208 130.242 156.234 130.242C156.443 130.247 156.651 130.253 156.859 130.258C157.068 130.263 157.276 130.266 157.484 130.266H159.977C159.966 130.13 159.958 129.995 159.953 129.859C159.953 129.719 159.94 129.581 159.914 129.445C160.018 129.456 160.12 129.466 160.219 129.477C160.323 129.482 160.427 129.49 160.531 129.5C160.542 129.5 160.549 129.503 160.555 129.508C160.565 129.508 160.576 129.508 160.586 129.508C160.768 129.378 160.943 129.24 161.109 129.094C161.276 128.948 161.443 128.799 161.609 128.648H159.203C158.984 128.648 158.766 128.651 158.547 128.656C158.333 128.661 158.117 128.667 157.898 128.672C157.857 128.672 157.826 128.664 157.805 128.648C157.794 128.617 157.789 128.589 157.789 128.562V127.82C157.789 127.799 157.794 127.768 157.805 127.727C157.846 127.716 157.878 127.711 157.898 127.711C158.117 127.716 158.333 127.721 158.547 127.727C158.766 127.732 158.984 127.734 159.203 127.734H162.117C162.201 127.734 162.279 127.724 162.352 127.703C162.424 127.677 162.49 127.664 162.547 127.664C162.589 127.664 162.648 127.695 162.727 127.758C162.805 127.82 162.883 127.893 162.961 127.977C163.039 128.06 163.107 128.146 163.164 128.234C163.227 128.318 163.258 128.38 163.258 128.422C163.258 128.474 163.24 128.516 163.203 128.547C163.172 128.573 163.135 128.596 163.094 128.617C163.021 128.654 162.951 128.701 162.883 128.758C162.815 128.815 162.75 128.87 162.688 128.922C162.417 129.146 162.143 129.365 161.867 129.578C161.596 129.786 161.312 129.987 161.016 130.18V130.266H163.523C163.732 130.266 163.938 130.263 164.141 130.258C164.344 130.253 164.549 130.247 164.758 130.242C164.794 130.242 164.828 130.25 164.859 130.266C164.87 130.307 164.875 130.341 164.875 130.367V131.117C164.875 131.138 164.87 131.169 164.859 131.211C164.818 131.221 164.784 131.227 164.758 131.227C164.549 131.221 164.344 131.216 164.141 131.211C163.938 131.206 163.732 131.203 163.523 131.203H161.016V131.461C161.016 131.732 161.018 132.003 161.023 132.273C161.029 132.544 161.036 132.815 161.047 133.086V133.117C161.047 133.242 161.023 133.367 160.977 133.492C160.93 133.617 160.854 133.716 160.75 133.789C160.677 133.841 160.573 133.883 160.438 133.914C160.307 133.94 160.167 133.961 160.016 133.977C159.865 133.987 159.716 133.995 159.57 134C159.43 134 159.318 134 159.234 134C159.203 134 159.154 134 159.086 134C159.018 133.995 158.971 133.979 158.945 133.953C158.93 133.938 158.911 133.896 158.891 133.828C158.87 133.76 158.854 133.714 158.844 133.688C158.807 133.552 158.763 133.427 158.711 133.312C158.664 133.193 158.604 133.073 158.531 132.953C158.708 132.974 158.885 132.99 159.062 133C159.24 133.005 159.417 133.008 159.594 133.008ZM164.648 135.352L164 134.711V136C164 136.276 163.948 136.536 163.844 136.781C163.74 137.021 163.596 137.232 163.414 137.414C163.232 137.596 163.018 137.74 162.773 137.844C162.534 137.948 162.276 138 162 138H160.711L161.352 138.648L160.648 139.352L158.797 137.5L160.648 135.648L161.352 136.352L160.711 137H162C162.141 137 162.271 136.974 162.391 136.922C162.51 136.87 162.615 136.799 162.703 136.711C162.797 136.617 162.87 136.51 162.922 136.391C162.974 136.271 163 136.141 163 136V134.711L162.352 135.352L161.648 134.648L163.5 132.797L165.352 134.648L164.648 135.352Z" fill="black"/>
<path d="M152 163C152.141 163 152.271 163.026 152.391 163.078C152.51 163.13 152.615 163.203 152.703 163.297C152.797 163.385 152.87 163.49 152.922 163.609C152.974 163.729 153 163.859 153 164C153 164.141 152.974 164.271 152.922 164.391C152.87 164.51 152.797 164.617 152.703 164.711C152.615 164.799 152.51 164.87 152.391 164.922C152.271 164.974 152.141 165 152 165C151.859 165 151.729 164.974 151.609 164.922C151.49 164.87 151.383 164.799 151.289 164.711C151.201 164.617 151.13 164.51 151.078 164.391C151.026 164.271 151 164.141 151 164C151 163.859 151.026 163.729 151.078 163.609C151.13 163.49 151.201 163.385 151.289 163.297C151.383 163.203 151.49 163.13 151.609 163.078C151.729 163.026 151.859 163 152 163ZM158 163C158.141 163 158.271 163.026 158.391 163.078C158.51 163.13 158.615 163.203 158.703 163.297C158.797 163.385 158.87 163.49 158.922 163.609C158.974 163.729 159 163.859 159 164C159 164.141 158.974 164.271 158.922 164.391C158.87 164.51 158.797 164.617 158.703 164.711C158.615 164.799 158.51 164.87 158.391 164.922C158.271 164.974 158.141 165 158 165C157.859 165 157.729 164.974 157.609 164.922C157.49 164.87 157.383 164.799 157.289 164.711C157.201 164.617 157.13 164.51 157.078 164.391C157.026 164.271 157 164.141 157 164C157 163.859 157.026 163.729 157.078 163.609C157.13 163.49 157.201 163.385 157.289 163.297C157.383 163.203 157.49 163.13 157.609 163.078C157.729 163.026 157.859 163 158 163ZM164 163C164.141 163 164.271 163.026 164.391 163.078C164.51 163.13 164.615 163.203 164.703 163.297C164.797 163.385 164.87 163.49 164.922 163.609C164.974 163.729 165 163.859 165 164C165 164.141 164.974 164.271 164.922 164.391C164.87 164.51 164.797 164.617 164.703 164.711C164.615 164.799 164.51 164.87 164.391 164.922C164.271 164.974 164.141 165 164 165C163.859 165 163.729 164.974 163.609 164.922C163.49 164.87 163.383 164.799 163.289 164.711C163.201 164.617 163.13 164.51 163.078 164.391C163.026 164.271 163 164.141 163 164C163 163.859 163.026 163.729 163.078 163.609C163.13 163.49 163.201 163.385 163.289 163.297C163.383 163.203 163.49 163.13 163.609 163.078C163.729 163.026 163.859 163 164 163Z" fill="black"/>
<path d="M160.5 60C161.005 60 161.492 60.0651 161.961 60.1953C162.43 60.3255 162.867 60.5104 163.273 60.75C163.68 60.9896 164.049 61.2786 164.383 61.6172C164.721 61.9505 165.01 62.3203 165.25 62.7266C165.49 63.1328 165.674 63.5703 165.805 64.0391C165.935 64.5078 166 64.9948 166 65.5C166 66.0052 165.935 66.4922 165.805 66.9609C165.674 67.4297 165.49 67.8672 165.25 68.2734C165.01 68.6797 164.721 69.0521 164.383 69.3906C164.049 69.724 163.68 70.0104 163.273 70.25C162.867 70.4896 162.43 70.6745 161.961 70.8047C161.492 70.9349 161.005 71 160.5 71C159.849 71 159.224 70.8906 158.625 70.6719C158.031 70.4531 157.484 70.138 156.984 69.7266L150.852 75.8516C150.753 75.9505 150.635 76 150.5 76C150.365 76 150.247 75.9505 150.148 75.8516C150.049 75.7526 150 75.6354 150 75.5C150 75.3646 150.049 75.2474 150.148 75.1484L156.273 69.0156C155.862 68.5156 155.547 67.9688 155.328 67.375C155.109 66.776 155 66.151 155 65.5C155 64.9948 155.065 64.5078 155.195 64.0391C155.326 63.5703 155.51 63.1328 155.75 62.7266C155.99 62.3203 156.276 61.9505 156.609 61.6172C156.948 61.2786 157.32 60.9896 157.727 60.75C158.133 60.5104 158.57 60.3255 159.039 60.1953C159.508 60.0651 159.995 60 160.5 60ZM160.5 70C161.12 70 161.703 69.8828 162.25 69.6484C162.797 69.4089 163.273 69.0859 163.68 68.6797C164.086 68.2734 164.406 67.7969 164.641 67.25C164.88 66.7031 165 66.1198 165 65.5C165 64.8802 164.88 64.2969 164.641 63.75C164.406 63.2031 164.086 62.7266 163.68 62.3203C163.273 61.9141 162.797 61.5938 162.25 61.3594C161.703 61.1198 161.12 61 160.5 61C159.88 61 159.297 61.1198 158.75 61.3594C158.203 61.5938 157.727 61.9141 157.32 62.3203C156.914 62.7266 156.591 63.2031 156.352 63.75C156.117 64.2969 156 64.8802 156 65.5C156 66.1198 156.117 66.7031 156.352 67.25C156.591 67.7969 156.914 68.2734 157.32 68.6797C157.727 69.0859 158.203 69.4089 158.75 69.6484C159.297 69.8828 159.88 70 160.5 70Z" fill="black"/>
<g filter="url(#filter1_dd)">
<rect x="630" y="16" width="48" height="168" rx="4" fill="white"/>
</g>
<path d="M661 34.2891V44H651V41H647V28H653.711L656.711 31H657.711L661 34.2891ZM658 34H659.289L658 32.7109V34ZM651 31H655.289L653.289 29H648V40H651V31ZM660 35H657V32H652V43H660V35Z" fill="black"/>
<path d="M659 92V108H648C647.724 108 647.464 107.948 647.219 107.844C646.979 107.74 646.768 107.596 646.586 107.414C646.404 107.232 646.26 107.021 646.156 106.781C646.052 106.536 646 106.276 646 106V94C646 93.7448 646.055 93.4974 646.164 93.2578C646.279 93.013 646.427 92.7995 646.609 92.6172C646.797 92.4297 647.01 92.2812 647.25 92.1719C647.49 92.0573 647.74 92 648 92H659ZM658 105H648C647.859 105 647.729 105.026 647.609 105.078C647.49 105.13 647.383 105.203 647.289 105.297C647.201 105.385 647.13 105.49 647.078 105.609C647.026 105.729 647 105.859 647 106C647 106.141 647.026 106.271 647.078 106.391C647.13 106.51 647.201 106.617 647.289 106.711C647.383 106.799 647.49 106.87 647.609 106.922C647.729 106.974 647.859 107 648 107H658V105ZM647 104.266C647.312 104.089 647.646 104 648 104H658V93H648C647.88 93 647.76 93.0312 647.641 93.0938C647.521 93.151 647.414 93.2266 647.32 93.3203C647.227 93.4141 647.148 93.5208 647.086 93.6406C647.029 93.7604 647 93.8802 647 94V104.266ZM649 95H656V98H649V95ZM650 97H655V96H650V97Z" fill="black"/>
<path d="M651.086 131L653.75 139H652.664L652 137H649L648.336 139H647.25L649.914 131H651.086ZM651.664 136L650.5 132.5L649.336 136H651.664ZM652.297 128.25C652.302 128.042 652.305 127.836 652.305 127.633C652.305 127.43 652.305 127.224 652.305 127.016C652.305 126.865 652.305 126.714 652.305 126.562C652.305 126.411 652.302 126.26 652.297 126.109C652.297 126.083 652.302 126.055 652.312 126.023C652.354 126.013 652.388 126.008 652.414 126.008C652.633 126.013 652.849 126.018 653.062 126.023C653.281 126.029 653.5 126.031 653.719 126.031H655.867V125.945C655.867 125.789 655.865 125.63 655.859 125.469C655.854 125.307 655.833 125.151 655.797 125C656.156 125 656.513 125.016 656.867 125.047C656.898 125.052 656.93 125.06 656.961 125.07C656.997 125.081 657.016 125.107 657.016 125.148C657.016 125.18 657.008 125.211 656.992 125.242C656.977 125.273 656.964 125.305 656.953 125.336C656.943 125.362 656.932 125.404 656.922 125.461C656.917 125.513 656.911 125.57 656.906 125.633C656.906 125.69 656.906 125.747 656.906 125.805C656.906 125.857 656.906 125.898 656.906 125.93V126.031H659.219C659.438 126.031 659.654 126.029 659.867 126.023C660.086 126.018 660.305 126.013 660.523 126.008C660.56 126.008 660.594 126.016 660.625 126.031C660.641 126.057 660.648 126.083 660.648 126.109C660.643 126.198 660.638 126.292 660.633 126.391C660.628 126.484 660.625 126.576 660.625 126.664V127.117C660.625 127.305 660.628 127.495 660.633 127.688C660.638 127.875 660.643 128.062 660.648 128.25C660.648 128.266 660.646 128.284 660.641 128.305C660.641 128.326 660.635 128.341 660.625 128.352C660.583 128.362 660.549 128.367 660.523 128.367C660.497 128.367 660.432 128.37 660.328 128.375C660.224 128.375 660.117 128.375 660.008 128.375C659.909 128.375 659.82 128.372 659.742 128.367C659.664 128.362 659.62 128.354 659.609 128.344C659.599 128.302 659.591 128.24 659.586 128.156C659.586 128.073 659.586 127.979 659.586 127.875C659.586 127.703 659.589 127.526 659.594 127.344C659.599 127.161 659.602 127.026 659.602 126.938H653.336C653.336 126.958 653.336 126.997 653.336 127.055C653.336 127.107 653.336 127.172 653.336 127.25C653.341 127.323 653.344 127.404 653.344 127.492C653.344 127.576 653.344 127.661 653.344 127.75C653.344 127.901 653.341 128.039 653.336 128.164C653.331 128.284 653.323 128.349 653.312 128.359C653.271 128.37 653.237 128.375 653.211 128.375H652.414C652.357 128.375 652.323 128.367 652.312 128.352C652.302 128.336 652.297 128.302 652.297 128.25ZM655.594 133.008C655.719 133.008 655.812 132.99 655.875 132.953C655.943 132.911 655.977 132.823 655.977 132.688V131.203H653.484C653.276 131.203 653.068 131.206 652.859 131.211C652.651 131.216 652.443 131.221 652.234 131.227C652.193 131.227 652.161 131.219 652.141 131.203C652.13 131.172 652.125 131.143 652.125 131.117V130.367C652.125 130.352 652.125 130.333 652.125 130.312C652.13 130.286 652.138 130.268 652.148 130.258C652.18 130.247 652.208 130.242 652.234 130.242C652.443 130.247 652.651 130.253 652.859 130.258C653.068 130.263 653.276 130.266 653.484 130.266H655.977C655.966 130.13 655.958 129.995 655.953 129.859C655.953 129.719 655.94 129.581 655.914 129.445C656.018 129.456 656.12 129.466 656.219 129.477C656.323 129.482 656.427 129.49 656.531 129.5C656.542 129.5 656.549 129.503 656.555 129.508C656.565 129.508 656.576 129.508 656.586 129.508C656.768 129.378 656.943 129.24 657.109 129.094C657.276 128.948 657.443 128.799 657.609 128.648H655.203C654.984 128.648 654.766 128.651 654.547 128.656C654.333 128.661 654.117 128.667 653.898 128.672C653.857 128.672 653.826 128.664 653.805 128.648C653.794 128.617 653.789 128.589 653.789 128.562V127.82C653.789 127.799 653.794 127.768 653.805 127.727C653.846 127.716 653.878 127.711 653.898 127.711C654.117 127.716 654.333 127.721 654.547 127.727C654.766 127.732 654.984 127.734 655.203 127.734H658.117C658.201 127.734 658.279 127.724 658.352 127.703C658.424 127.677 658.49 127.664 658.547 127.664C658.589 127.664 658.648 127.695 658.727 127.758C658.805 127.82 658.883 127.893 658.961 127.977C659.039 128.06 659.107 128.146 659.164 128.234C659.227 128.318 659.258 128.38 659.258 128.422C659.258 128.474 659.24 128.516 659.203 128.547C659.172 128.573 659.135 128.596 659.094 128.617C659.021 128.654 658.951 128.701 658.883 128.758C658.815 128.815 658.75 128.87 658.688 128.922C658.417 129.146 658.143 129.365 657.867 129.578C657.596 129.786 657.312 129.987 657.016 130.18V130.266H659.523C659.732 130.266 659.938 130.263 660.141 130.258C660.344 130.253 660.549 130.247 660.758 130.242C660.794 130.242 660.828 130.25 660.859 130.266C660.87 130.307 660.875 130.341 660.875 130.367V131.117C660.875 131.138 660.87 131.169 660.859 131.211C660.818 131.221 660.784 131.227 660.758 131.227C660.549 131.221 660.344 131.216 660.141 131.211C659.938 131.206 659.732 131.203 659.523 131.203H657.016V131.461C657.016 131.732 657.018 132.003 657.023 132.273C657.029 132.544 657.036 132.815 657.047 133.086V133.117C657.047 133.242 657.023 133.367 656.977 133.492C656.93 133.617 656.854 133.716 656.75 133.789C656.677 133.841 656.573 133.883 656.438 133.914C656.307 133.94 656.167 133.961 656.016 133.977C655.865 133.987 655.716 133.995 655.57 134C655.43 134 655.318 134 655.234 134C655.203 134 655.154 134 655.086 134C655.018 133.995 654.971 133.979 654.945 133.953C654.93 133.938 654.911 133.896 654.891 133.828C654.87 133.76 654.854 133.714 654.844 133.688C654.807 133.552 654.763 133.427 654.711 133.312C654.664 133.193 654.604 133.073 654.531 132.953C654.708 132.974 654.885 132.99 655.062 133C655.24 133.005 655.417 133.008 655.594 133.008ZM660.648 135.352L660 134.711V136C660 136.276 659.948 136.536 659.844 136.781C659.74 137.021 659.596 137.232 659.414 137.414C659.232 137.596 659.018 137.74 658.773 137.844C658.534 137.948 658.276 138 658 138H656.711L657.352 138.648L656.648 139.352L654.797 137.5L656.648 135.648L657.352 136.352L656.711 137H658C658.141 137 658.271 136.974 658.391 136.922C658.51 136.87 658.615 136.799 658.703 136.711C658.797 136.617 658.87 136.51 658.922 136.391C658.974 136.271 659 136.141 659 136V134.711L658.352 135.352L657.648 134.648L659.5 132.797L661.352 134.648L660.648 135.352Z" fill="black"/>
<path d="M648 163C648.141 163 648.271 163.026 648.391 163.078C648.51 163.13 648.615 163.203 648.703 163.297C648.797 163.385 648.87 163.49 648.922 163.609C648.974 163.729 649 163.859 649 164C649 164.141 648.974 164.271 648.922 164.391C648.87 164.51 648.797 164.617 648.703 164.711C648.615 164.799 648.51 164.87 648.391 164.922C648.271 164.974 648.141 165 648 165C647.859 165 647.729 164.974 647.609 164.922C647.49 164.87 647.383 164.799 647.289 164.711C647.201 164.617 647.13 164.51 647.078 164.391C647.026 164.271 647 164.141 647 164C647 163.859 647.026 163.729 647.078 163.609C647.13 163.49 647.201 163.385 647.289 163.297C647.383 163.203 647.49 163.13 647.609 163.078C647.729 163.026 647.859 163 648 163ZM654 163C654.141 163 654.271 163.026 654.391 163.078C654.51 163.13 654.615 163.203 654.703 163.297C654.797 163.385 654.87 163.49 654.922 163.609C654.974 163.729 655 163.859 655 164C655 164.141 654.974 164.271 654.922 164.391C654.87 164.51 654.797 164.617 654.703 164.711C654.615 164.799 654.51 164.87 654.391 164.922C654.271 164.974 654.141 165 654 165C653.859 165 653.729 164.974 653.609 164.922C653.49 164.87 653.383 164.799 653.289 164.711C653.201 164.617 653.13 164.51 653.078 164.391C653.026 164.271 653 164.141 653 164C653 163.859 653.026 163.729 653.078 163.609C653.13 163.49 653.201 163.385 653.289 163.297C653.383 163.203 653.49 163.13 653.609 163.078C653.729 163.026 653.859 163 654 163ZM660 163C660.141 163 660.271 163.026 660.391 163.078C660.51 163.13 660.615 163.203 660.703 163.297C660.797 163.385 660.87 163.49 660.922 163.609C660.974 163.729 661 163.859 661 164C661 164.141 660.974 164.271 660.922 164.391C660.87 164.51 660.797 164.617 660.703 164.711C660.615 164.799 660.51 164.87 660.391 164.922C660.271 164.974 660.141 165 660 165C659.859 165 659.729 164.974 659.609 164.922C659.49 164.87 659.383 164.799 659.289 164.711C659.201 164.617 659.13 164.51 659.078 164.391C659.026 164.271 659 164.141 659 164C659 163.859 659.026 163.729 659.078 163.609C659.13 163.49 659.201 163.385 659.289 163.297C659.383 163.203 659.49 163.13 659.609 163.078C659.729 163.026 659.859 163 660 163Z" fill="black"/>
<path d="M656.5 60C657.005 60 657.492 60.0651 657.961 60.1953C658.43 60.3255 658.867 60.5104 659.273 60.75C659.68 60.9896 660.049 61.2786 660.383 61.6172C660.721 61.9505 661.01 62.3203 661.25 62.7266C661.49 63.1328 661.674 63.5703 661.805 64.0391C661.935 64.5078 662 64.9948 662 65.5C662 66.0052 661.935 66.4922 661.805 66.9609C661.674 67.4297 661.49 67.8672 661.25 68.2734C661.01 68.6797 660.721 69.0521 660.383 69.3906C660.049 69.724 659.68 70.0104 659.273 70.25C658.867 70.4896 658.43 70.6745 657.961 70.8047C657.492 70.9349 657.005 71 656.5 71C655.849 71 655.224 70.8906 654.625 70.6719C654.031 70.4531 653.484 70.138 652.984 69.7266L646.852 75.8516C646.753 75.9505 646.635 76 646.5 76C646.365 76 646.247 75.9505 646.148 75.8516C646.049 75.7526 646 75.6354 646 75.5C646 75.3646 646.049 75.2474 646.148 75.1484L652.273 69.0156C651.862 68.5156 651.547 67.9688 651.328 67.375C651.109 66.776 651 66.151 651 65.5C651 64.9948 651.065 64.5078 651.195 64.0391C651.326 63.5703 651.51 63.1328 651.75 62.7266C651.99 62.3203 652.276 61.9505 652.609 61.6172C652.948 61.2786 653.32 60.9896 653.727 60.75C654.133 60.5104 654.57 60.3255 655.039 60.1953C655.508 60.0651 655.995 60 656.5 60ZM656.5 70C657.12 70 657.703 69.8828 658.25 69.6484C658.797 69.4089 659.273 69.0859 659.68 68.6797C660.086 68.2734 660.406 67.7969 660.641 67.25C660.88 66.7031 661 66.1198 661 65.5C661 64.8802 660.88 64.2969 660.641 63.75C660.406 63.2031 660.086 62.7266 659.68 62.3203C659.273 61.9141 658.797 61.5938 658.25 61.3594C657.703 61.1198 657.12 61 656.5 61C655.88 61 655.297 61.1198 654.75 61.3594C654.203 61.5938 653.727 61.9141 653.32 62.3203C652.914 62.7266 652.591 63.2031 652.352 63.75C652.117 64.2969 652 64.8802 652 65.5C652 66.1198 652.117 66.7031 652.352 67.25C652.591 67.7969 652.914 68.2734 653.32 68.6797C653.727 69.0859 654.203 69.4089 654.75 69.6484C655.297 69.8828 655.88 70 656.5 70Z" fill="black"/>
<g filter="url(#filter2_dd)">
<rect x="381" y="16" width="48" height="168" rx="4" fill="white"/>
</g>
<path d="M412 34.2891V44H402V41H398V28H404.711L407.711 31H408.711L412 34.2891ZM409 34H410.289L409 32.7109V34ZM402 31H406.289L404.289 29H399V40H402V31ZM411 35H408V32H403V43H411V35Z" fill="black"/>
<path d="M410 92V108H399C398.724 108 398.464 107.948 398.219 107.844C397.979 107.74 397.768 107.596 397.586 107.414C397.404 107.232 397.26 107.021 397.156 106.781C397.052 106.536 397 106.276 397 106V94C397 93.7448 397.055 93.4974 397.164 93.2578C397.279 93.013 397.427 92.7995 397.609 92.6172C397.797 92.4297 398.01 92.2812 398.25 92.1719C398.49 92.0573 398.74 92 399 92H410ZM409 105H399C398.859 105 398.729 105.026 398.609 105.078C398.49 105.13 398.383 105.203 398.289 105.297C398.201 105.385 398.13 105.49 398.078 105.609C398.026 105.729 398 105.859 398 106C398 106.141 398.026 106.271 398.078 106.391C398.13 106.51 398.201 106.617 398.289 106.711C398.383 106.799 398.49 106.87 398.609 106.922C398.729 106.974 398.859 107 399 107H409V105ZM398 104.266C398.312 104.089 398.646 104 399 104H409V93H399C398.88 93 398.76 93.0312 398.641 93.0938C398.521 93.151 398.414 93.2266 398.32 93.3203C398.227 93.4141 398.148 93.5208 398.086 93.6406C398.029 93.7604 398 93.8802 398 94V104.266ZM400 95H407V98H400V95ZM401 97H406V96H401V97Z" fill="black"/>
<path d="M402.086 131L404.75 139H403.664L403 137H400L399.336 139H398.25L400.914 131H402.086ZM402.664 136L401.5 132.5L400.336 136H402.664ZM403.297 128.25C403.302 128.042 403.305 127.836 403.305 127.633C403.305 127.43 403.305 127.224 403.305 127.016C403.305 126.865 403.305 126.714 403.305 126.562C403.305 126.411 403.302 126.26 403.297 126.109C403.297 126.083 403.302 126.055 403.312 126.023C403.354 126.013 403.388 126.008 403.414 126.008C403.633 126.013 403.849 126.018 404.062 126.023C404.281 126.029 404.5 126.031 404.719 126.031H406.867V125.945C406.867 125.789 406.865 125.63 406.859 125.469C406.854 125.307 406.833 125.151 406.797 125C407.156 125 407.513 125.016 407.867 125.047C407.898 125.052 407.93 125.06 407.961 125.07C407.997 125.081 408.016 125.107 408.016 125.148C408.016 125.18 408.008 125.211 407.992 125.242C407.977 125.273 407.964 125.305 407.953 125.336C407.943 125.362 407.932 125.404 407.922 125.461C407.917 125.513 407.911 125.57 407.906 125.633C407.906 125.69 407.906 125.747 407.906 125.805C407.906 125.857 407.906 125.898 407.906 125.93V126.031H410.219C410.438 126.031 410.654 126.029 410.867 126.023C411.086 126.018 411.305 126.013 411.523 126.008C411.56 126.008 411.594 126.016 411.625 126.031C411.641 126.057 411.648 126.083 411.648 126.109C411.643 126.198 411.638 126.292 411.633 126.391C411.628 126.484 411.625 126.576 411.625 126.664V127.117C411.625 127.305 411.628 127.495 411.633 127.688C411.638 127.875 411.643 128.062 411.648 128.25C411.648 128.266 411.646 128.284 411.641 128.305C411.641 128.326 411.635 128.341 411.625 128.352C411.583 128.362 411.549 128.367 411.523 128.367C411.497 128.367 411.432 128.37 411.328 128.375C411.224 128.375 411.117 128.375 411.008 128.375C410.909 128.375 410.82 128.372 410.742 128.367C410.664 128.362 410.62 128.354 410.609 128.344C410.599 128.302 410.591 128.24 410.586 128.156C410.586 128.073 410.586 127.979 410.586 127.875C410.586 127.703 410.589 127.526 410.594 127.344C410.599 127.161 410.602 127.026 410.602 126.938H404.336C404.336 126.958 404.336 126.997 404.336 127.055C404.336 127.107 404.336 127.172 404.336 127.25C404.341 127.323 404.344 127.404 404.344 127.492C404.344 127.576 404.344 127.661 404.344 127.75C404.344 127.901 404.341 128.039 404.336 128.164C404.331 128.284 404.323 128.349 404.312 128.359C404.271 128.37 404.237 128.375 404.211 128.375H403.414C403.357 128.375 403.323 128.367 403.312 128.352C403.302 128.336 403.297 128.302 403.297 128.25ZM406.594 133.008C406.719 133.008 406.812 132.99 406.875 132.953C406.943 132.911 406.977 132.823 406.977 132.688V131.203H404.484C404.276 131.203 404.068 131.206 403.859 131.211C403.651 131.216 403.443 131.221 403.234 131.227C403.193 131.227 403.161 131.219 403.141 131.203C403.13 131.172 403.125 131.143 403.125 131.117V130.367C403.125 130.352 403.125 130.333 403.125 130.312C403.13 130.286 403.138 130.268 403.148 130.258C403.18 130.247 403.208 130.242 403.234 130.242C403.443 130.247 403.651 130.253 403.859 130.258C404.068 130.263 404.276 130.266 404.484 130.266H406.977C406.966 130.13 406.958 129.995 406.953 129.859C406.953 129.719 406.94 129.581 406.914 129.445C407.018 129.456 407.12 129.466 407.219 129.477C407.323 129.482 407.427 129.49 407.531 129.5C407.542 129.5 407.549 129.503 407.555 129.508C407.565 129.508 407.576 129.508 407.586 129.508C407.768 129.378 407.943 129.24 408.109 129.094C408.276 128.948 408.443 128.799 408.609 128.648H406.203C405.984 128.648 405.766 128.651 405.547 128.656C405.333 128.661 405.117 128.667 404.898 128.672C404.857 128.672 404.826 128.664 404.805 128.648C404.794 128.617 404.789 128.589 404.789 128.562V127.82C404.789 127.799 404.794 127.768 404.805 127.727C404.846 127.716 404.878 127.711 404.898 127.711C405.117 127.716 405.333 127.721 405.547 127.727C405.766 127.732 405.984 127.734 406.203 127.734H409.117C409.201 127.734 409.279 127.724 409.352 127.703C409.424 127.677 409.49 127.664 409.547 127.664C409.589 127.664 409.648 127.695 409.727 127.758C409.805 127.82 409.883 127.893 409.961 127.977C410.039 128.06 410.107 128.146 410.164 128.234C410.227 128.318 410.258 128.38 410.258 128.422C410.258 128.474 410.24 128.516 410.203 128.547C410.172 128.573 410.135 128.596 410.094 128.617C410.021 128.654 409.951 128.701 409.883 128.758C409.815 128.815 409.75 128.87 409.688 128.922C409.417 129.146 409.143 129.365 408.867 129.578C408.596 129.786 408.312 129.987 408.016 130.18V130.266H410.523C410.732 130.266 410.938 130.263 411.141 130.258C411.344 130.253 411.549 130.247 411.758 130.242C411.794 130.242 411.828 130.25 411.859 130.266C411.87 130.307 411.875 130.341 411.875 130.367V131.117C411.875 131.138 411.87 131.169 411.859 131.211C411.818 131.221 411.784 131.227 411.758 131.227C411.549 131.221 411.344 131.216 411.141 131.211C410.938 131.206 410.732 131.203 410.523 131.203H408.016V131.461C408.016 131.732 408.018 132.003 408.023 132.273C408.029 132.544 408.036 132.815 408.047 133.086V133.117C408.047 133.242 408.023 133.367 407.977 133.492C407.93 133.617 407.854 133.716 407.75 133.789C407.677 133.841 407.573 133.883 407.438 133.914C407.307 133.94 407.167 133.961 407.016 133.977C406.865 133.987 406.716 133.995 406.57 134C406.43 134 406.318 134 406.234 134C406.203 134 406.154 134 406.086 134C406.018 133.995 405.971 133.979 405.945 133.953C405.93 133.938 405.911 133.896 405.891 133.828C405.87 133.76 405.854 133.714 405.844 133.688C405.807 133.552 405.763 133.427 405.711 133.312C405.664 133.193 405.604 133.073 405.531 132.953C405.708 132.974 405.885 132.99 406.062 133C406.24 133.005 406.417 133.008 406.594 133.008ZM411.648 135.352L411 134.711V136C411 136.276 410.948 136.536 410.844 136.781C410.74 137.021 410.596 137.232 410.414 137.414C410.232 137.596 410.018 137.74 409.773 137.844C409.534 137.948 409.276 138 409 138H407.711L408.352 138.648L407.648 139.352L405.797 137.5L407.648 135.648L408.352 136.352L407.711 137H409C409.141 137 409.271 136.974 409.391 136.922C409.51 136.87 409.615 136.799 409.703 136.711C409.797 136.617 409.87 136.51 409.922 136.391C409.974 136.271 410 136.141 410 136V134.711L409.352 135.352L408.648 134.648L410.5 132.797L412.352 134.648L411.648 135.352Z" fill="black"/>
<path d="M399 163C399.141 163 399.271 163.026 399.391 163.078C399.51 163.13 399.615 163.203 399.703 163.297C399.797 163.385 399.87 163.49 399.922 163.609C399.974 163.729 400 163.859 400 164C400 164.141 399.974 164.271 399.922 164.391C399.87 164.51 399.797 164.617 399.703 164.711C399.615 164.799 399.51 164.87 399.391 164.922C399.271 164.974 399.141 165 399 165C398.859 165 398.729 164.974 398.609 164.922C398.49 164.87 398.383 164.799 398.289 164.711C398.201 164.617 398.13 164.51 398.078 164.391C398.026 164.271 398 164.141 398 164C398 163.859 398.026 163.729 398.078 163.609C398.13 163.49 398.201 163.385 398.289 163.297C398.383 163.203 398.49 163.13 398.609 163.078C398.729 163.026 398.859 163 399 163ZM405 163C405.141 163 405.271 163.026 405.391 163.078C405.51 163.13 405.615 163.203 405.703 163.297C405.797 163.385 405.87 163.49 405.922 163.609C405.974 163.729 406 163.859 406 164C406 164.141 405.974 164.271 405.922 164.391C405.87 164.51 405.797 164.617 405.703 164.711C405.615 164.799 405.51 164.87 405.391 164.922C405.271 164.974 405.141 165 405 165C404.859 165 404.729 164.974 404.609 164.922C404.49 164.87 404.383 164.799 404.289 164.711C404.201 164.617 404.13 164.51 404.078 164.391C404.026 164.271 404 164.141 404 164C404 163.859 404.026 163.729 404.078 163.609C404.13 163.49 404.201 163.385 404.289 163.297C404.383 163.203 404.49 163.13 404.609 163.078C404.729 163.026 404.859 163 405 163ZM411 163C411.141 163 411.271 163.026 411.391 163.078C411.51 163.13 411.615 163.203 411.703 163.297C411.797 163.385 411.87 163.49 411.922 163.609C411.974 163.729 412 163.859 412 164C412 164.141 411.974 164.271 411.922 164.391C411.87 164.51 411.797 164.617 411.703 164.711C411.615 164.799 411.51 164.87 411.391 164.922C411.271 164.974 411.141 165 411 165C410.859 165 410.729 164.974 410.609 164.922C410.49 164.87 410.383 164.799 410.289 164.711C410.201 164.617 410.13 164.51 410.078 164.391C410.026 164.271 410 164.141 410 164C410 163.859 410.026 163.729 410.078 163.609C410.13 163.49 410.201 163.385 410.289 163.297C410.383 163.203 410.49 163.13 410.609 163.078C410.729 163.026 410.859 163 411 163Z" fill="black"/>
<path d="M407.5 60C408.005 60 408.492 60.0651 408.961 60.1953C409.43 60.3255 409.867 60.5104 410.273 60.75C410.68 60.9896 411.049 61.2786 411.383 61.6172C411.721 61.9505 412.01 62.3203 412.25 62.7266C412.49 63.1328 412.674 63.5703 412.805 64.0391C412.935 64.5078 413 64.9948 413 65.5C413 66.0052 412.935 66.4922 412.805 66.9609C412.674 67.4297 412.49 67.8672 412.25 68.2734C412.01 68.6797 411.721 69.0521 411.383 69.3906C411.049 69.724 410.68 70.0104 410.273 70.25C409.867 70.4896 409.43 70.6745 408.961 70.8047C408.492 70.9349 408.005 71 407.5 71C406.849 71 406.224 70.8906 405.625 70.6719C405.031 70.4531 404.484 70.138 403.984 69.7266L397.852 75.8516C397.753 75.9505 397.635 76 397.5 76C397.365 76 397.247 75.9505 397.148 75.8516C397.049 75.7526 397 75.6354 397 75.5C397 75.3646 397.049 75.2474 397.148 75.1484L403.273 69.0156C402.862 68.5156 402.547 67.9688 402.328 67.375C402.109 66.776 402 66.151 402 65.5C402 64.9948 402.065 64.5078 402.195 64.0391C402.326 63.5703 402.51 63.1328 402.75 62.7266C402.99 62.3203 403.276 61.9505 403.609 61.6172C403.948 61.2786 404.32 60.9896 404.727 60.75C405.133 60.5104 405.57 60.3255 406.039 60.1953C406.508 60.0651 406.995 60 407.5 60ZM407.5 70C408.12 70 408.703 69.8828 409.25 69.6484C409.797 69.4089 410.273 69.0859 410.68 68.6797C411.086 68.2734 411.406 67.7969 411.641 67.25C411.88 66.7031 412 66.1198 412 65.5C412 64.8802 411.88 64.2969 411.641 63.75C411.406 63.2031 411.086 62.7266 410.68 62.3203C410.273 61.9141 409.797 61.5938 409.25 61.3594C408.703 61.1198 408.12 61 407.5 61C406.88 61 406.297 61.1198 405.75 61.3594C405.203 61.5938 404.727 61.9141 404.32 62.3203C403.914 62.7266 403.591 63.2031 403.352 63.75C403.117 64.2969 403 64.8802 403 65.5C403 66.1198 403.117 66.7031 403.352 67.25C403.591 67.7969 403.914 68.2734 404.32 68.6797C404.727 69.0859 405.203 69.4089 405.75 69.6484C406.297 69.8828 406.88 70 407.5 70Z" fill="black"/>
<defs>
<filter id="filter0_dd" x="105.2" y="9.53674e-07" width="105.6" height="225.6" filterUnits="userSpaceOnUse" color-interpolation-filters="sRGB">
<feFlood flood-opacity="0" result="BackgroundImageFix"/>
<feColorMatrix in="SourceAlpha" type="matrix" values="0 0 0 0 0 0 0 0 0 0 0 0 0 0 0 0 0 0 127 0"/>
<feOffset/>
<feGaussianBlur stdDeviation="4.6"/>
<feColorMatrix type="matrix" values="0 0 0 0 0 0 0 0 0 0 0 0 0 0 0 0 0 0 0.11 0"/>
<feBlend mode="normal" in2="BackgroundImageFix" result="effect1_dropShadow"/>
<feColorMatrix in="SourceAlpha" type="matrix" values="0 0 0 0 0 0 0 0 0 0 0 0 0 0 0 0 0 0 127 0"/>
<feOffset dy="12.8"/>
<feGaussianBlur stdDeviation="14.4"/>
<feColorMatrix type="matrix" values="0 0 0 0 0 0 0 0 0 0 0 0 0 0 0 0 0 0 0.13 0"/>
<feBlend mode="normal" in2="effect1_dropShadow" result="effect2_dropShadow"/>
<feBlend mode="normal" in="SourceGraphic" in2="effect2_dropShadow" result="shape"/>
</filter>
<filter id="filter1_dd" x="601.2" y="9.53674e-07" width="105.6" height="225.6" filterUnits="userSpaceOnUse" color-interpolation-filters="sRGB">
<feFlood flood-opacity="0" result="BackgroundImageFix"/>
<feColorMatrix in="SourceAlpha" type="matrix" values="0 0 0 0 0 0 0 0 0 0 0 0 0 0 0 0 0 0 127 0"/>
<feOffset/>
<feGaussianBlur stdDeviation="4.6"/>
<feColorMatrix type="matrix" values="0 0 0 0 0 0 0 0 0 0 0 0 0 0 0 0 0 0 0.11 0"/>
<feBlend mode="normal" in2="BackgroundImageFix" result="effect1_dropShadow"/>
<feColorMatrix in="SourceAlpha" type="matrix" values="0 0 0 0 0 0 0 0 0 0 0 0 0 0 0 0 0 0 127 0"/>
<feOffset dy="12.8"/>
<feGaussianBlur stdDeviation="14.4"/>
<feColorMatrix type="matrix" values="0 0 0 0 0 0 0 0 0 0 0 0 0 0 0 0 0 0 0.13 0"/>
<feBlend mode="normal" in2="effect1_dropShadow" result="effect2_dropShadow"/>
<feBlend mode="normal" in="SourceGraphic" in2="effect2_dropShadow" result="shape"/>
</filter>
<filter id="filter2_dd" x="352.2" y="9.53674e-07" width="105.6" height="225.6" filterUnits="userSpaceOnUse" color-interpolation-filters="sRGB">
<feFlood flood-opacity="0" result="BackgroundImageFix"/>
<feColorMatrix in="SourceAlpha" type="matrix" values="0 0 0 0 0 0 0 0 0 0 0 0 0 0 0 0 0 0 127 0"/>
<feOffset/>
<feGaussianBlur stdDeviation="4.6"/>
<feColorMatrix type="matrix" values="0 0 0 0 0 0 0 0 0 0 0 0 0 0 0 0 0 0 0.11 0"/>
<feBlend mode="normal" in2="BackgroundImageFix" result="effect1_dropShadow"/>
<feColorMatrix in="SourceAlpha" type="matrix" values="0 0 0 0 0 0 0 0 0 0 0 0 0 0 0 0 0 0 127 0"/>
<feOffset dy="12.8"/>
<feGaussianBlur stdDeviation="14.4"/>
<feColorMatrix type="matrix" values="0 0 0 0 0 0 0 0 0 0 0 0 0 0 0 0 0 0 0.13 0"/>
<feBlend mode="normal" in2="effect1_dropShadow" result="effect2_dropShadow"/>
<feBlend mode="normal" in="SourceGraphic" in2="effect2_dropShadow" result="shape"/>
</filter>
</defs>
</svg>
