<svg width="202" height="202" viewBox="0 0 202 202" fill="none" xmlns="http://www.w3.org/2000/svg">
<circle cx="101" cy="101" r="97" fill="#2CF8C7" stroke="#00BF93" stroke-width="8"/>
<path d="M74.1818 79.4615C71.2196 79.4615 68.8182 81.8953 68.8182 84.8974C68.8182 87.8996 71.2196 90.3333 74.1818 90.3333H90.2727C93.235 90.3333 95.6364 87.8996 95.6364 84.8974C95.6364 81.8953 93.235 79.4615 90.2727 79.4615H74.1818Z" fill="#1A8068"/>
<path d="M68.8182 106.641C68.8182 103.639 71.2196 101.205 74.1818 101.205H79.5455C82.5077 101.205 84.9091 103.639 84.9091 106.641C84.9091 109.643 82.5077 112.077 79.5455 112.077H74.1818C71.2196 112.077 68.8182 109.643 68.8182 106.641Z" fill="#1A8068"/>
<path fill-rule="evenodd" clip-rule="evenodd" d="M119.206 77.0317C118.598 75.7982 117.589 74.9016 116.419 74.4229C115.764 74.1536 115.082 74.0251 114.409 74.0256C113.736 74.0251 113.054 74.1536 112.398 74.4229C111.229 74.9016 110.22 75.7982 109.611 77.0317L96.2518 104.11C96.2164 104.179 96.1824 104.247 96.1498 104.317L90.8384 115.083C89.5137 117.768 90.5876 121.033 93.2371 122.376C95.8867 123.719 99.1084 122.63 100.433 119.945L104.315 112.077H124.503L128.384 119.945C129.709 122.63 132.931 123.719 135.581 122.376C138.23 121.033 139.304 117.768 137.979 115.083L132.677 104.336C132.639 104.254 132.599 104.172 132.557 104.092L119.206 77.0317ZM119.139 101.205L114.409 91.6172L109.679 101.205H119.139Z" fill="#1A8068"/>
<path fill-rule="evenodd" clip-rule="evenodd" d="M47.3636 55C44.4014 55 42 57.4337 42 60.4359V141.974C42 144.977 44.4014 147.41 47.3636 147.41H85.3692L97.2073 159.408C99.302 161.531 102.698 161.531 104.793 159.408L116.631 147.41H154.636C157.599 147.41 160 144.977 160 141.974V60.4359C160 57.4337 157.599 55 154.636 55H47.3636ZM52.7273 136.538V65.8718H149.273V136.538H114.409C112.987 136.538 111.622 137.111 110.616 138.131L101 147.877L91.3836 138.131C90.3777 137.111 89.0134 136.538 87.5909 136.538H52.7273Z" fill="#1A8068"/>
</svg>
