<?xml version="1.0" encoding="utf-8"?>
<!-- Generator: Adobe Illustrator 25.2.0, SVG Export Plug-In . SVG Version: 6.00 Build 0)  -->
<svg version="1.1" id="Logo" xmlns="http://www.w3.org/2000/svg" xmlns:xlink="http://www.w3.org/1999/xlink" x="0px" y="0px"
	 viewBox="0 0 400 400" style="enable-background:new 0 0 400 400;" xml:space="preserve">
<style type="text/css">
	.st0{fill:none;stroke:#26B088;stroke-width:5;stroke-miterlimit:10;}
</style>
<g id="Top">
	<path class="st0" d="M58.01,331.5c-1.65,0-3.31-0.32-4.9-0.97c-4.78-1.98-7.9-6.65-7.9-11.82V175.38c0-3.39,1.35-6.65,3.75-9.05
		l20.47-20.47c5-5,13.1-5,18.1,0c5,5,5,13.1,0,18.1l-16.73,16.73v107.13l46.07-46.07V79.4c0-3.39,1.35-6.65,3.75-9.05l42.87-42.87
		c2.4-2.4,5.65-3.75,9.05-3.75h150.36c5.18,0,9.84,3.12,11.82,7.9c1.98,4.78,0.89,10.28-2.77,13.94l-71.34,71.34
		c-2.4,2.4-5.65,3.75-9.05,3.75h-64.3c-7.07,0-12.8-5.73-12.8-12.8c0-7.07,5.73-12.8,12.8-12.8h59l45.75-45.75H177.85L142.48,84.7
		v162.34c0,3.39-1.35,6.65-3.75,9.05l-71.66,71.66C64.62,330.2,61.34,331.5,58.01,331.5z"/>
</g>
<g id="Bottom">
	<path class="st0" d="M257.52,376.26H88.61c-5.11,0-9.73-3.04-11.75-7.73c-2.02-4.69-1.06-10.14,2.45-13.85l87.02-92.14
		c2.42-2.56,5.78-4.01,9.3-4.01h166.36c5.07,0,9.67,3,11.71,7.64c2.04,4.65,1.15,10.06-2.28,13.8l-84.46,92.14
		C264.53,374.76,261.11,376.26,257.52,376.26z M118.29,350.67h133.6l61-66.54H181.14L118.29,350.67z"/>
</g>
</svg>
