<svg width="482" height="405" viewBox="0 0 482 405" fill="none" xmlns="http://www.w3.org/2000/svg">
<ellipse cx="191.005" cy="215" rx="191.005" ry="190" fill="#C4C4C4" fill-opacity="0.2"/>
<ellipse cx="191.005" cy="215" rx="167.7" ry="166.817" fill="#00BF93" fill-opacity="0.2"/>
<ellipse cx="191.005" cy="215" rx="93.7294" ry="93.2361" fill="#00BF93" fill-opacity="0.16"/>
<ellipse cx="191.005" cy="215" rx="56.2376" ry="55.9416" fill="#00BF93"/>
<path d="M192.704 322.881C136.255 322.881 90.4929 277.12 90.4929 220.67C90.4929 164.22 136.255 118.458 192.704 118.458" fill="#00BF93" fill-opacity="0.8"/>
<path d="M78.7466 220.67C78.7466 157.735 129.77 106.712 192.705 106.712" stroke="#1E1E1E" stroke-miterlimit="10"/>
<path d="M192.705 334.628C129.77 334.628 78.7466 283.605 78.7466 220.67" stroke="#1E1E1E" stroke-width="4" stroke-miterlimit="10"/>
<path d="M78.7466 220.67C78.7466 157.735 129.77 106.712 192.705 106.712" stroke="#1E1E1E" stroke-miterlimit="10"/>
<path d="M192.705 334.628C129.77 334.628 78.7466 283.605 78.7466 220.67" stroke="#1E1E1E" stroke-width="4" stroke-miterlimit="10"/>
<path d="M68.2244 220.67C68.2244 151.922 123.957 96.1897 192.705 96.1897" stroke="#1E1E1E" stroke-miterlimit="10"/>
<path d="M192.705 345.15C123.957 345.15 68.2244 289.418 68.2244 220.67" stroke="#1E1E1E" stroke-width="4" stroke-miterlimit="10"/>
<path d="M68.2244 220.67C68.2244 151.922 123.957 96.1897 192.705 96.1897" stroke="#1E1E1E" stroke-miterlimit="10"/>
<path d="M192.705 345.15C123.957 345.15 68.2244 289.418 68.2244 220.67" stroke="#1E1E1E" stroke-width="4" stroke-miterlimit="10"/>
<path d="M57.7461 220.67C57.7461 146.132 118.166 85.7115 192.705 85.7115" stroke="#1E1E1E" stroke-miterlimit="10"/>
<path d="M192.705 355.628C118.166 355.628 57.7461 295.208 57.7461 220.67" stroke="#1E1E1E" stroke-width="4" stroke-miterlimit="10"/>
<path d="M46.3748 220.67C46.3748 139.856 111.891 74.34 192.705 74.34" stroke="#1E1E1E" stroke-miterlimit="10"/>
<path d="M192.704 367C111.89 367 46.3745 301.484 46.3745 220.67" stroke="#1E1E1E" stroke-width="4" stroke-miterlimit="10"/>
<path d="M191.966 118.459C248.415 118.459 294.177 164.22 294.177 220.67C294.177 277.12 248.415 322.882 191.966 322.882" fill="#00BF93"/>
<path d="M305.923 220.67C305.923 283.605 254.9 334.628 191.965 334.628" stroke="#1E1E1E" stroke-miterlimit="10"/>
<path d="M191.965 106.712C254.9 106.712 305.923 157.735 305.923 220.67" stroke="#1E1E1E" stroke-width="4" stroke-miterlimit="10"/>
<path d="M305.923 220.67C305.923 283.605 254.9 334.628 191.965 334.628" stroke="#1E1E1E" stroke-miterlimit="10"/>
<path d="M191.965 106.712C254.9 106.712 305.923 157.735 305.923 220.67" stroke="#1E1E1E" stroke-width="4" stroke-miterlimit="10"/>
<path d="M316.446 220.67C316.446 289.418 260.713 345.15 191.965 345.15" stroke="#1E1E1E" stroke-miterlimit="10"/>
<path d="M191.965 96.1898C260.713 96.1898 316.446 151.922 316.446 220.67" stroke="#1E1E1E" stroke-width="4" stroke-miterlimit="10"/>
<path d="M316.446 220.67C316.446 289.418 260.713 345.15 191.965 345.15" stroke="#1E1E1E" stroke-miterlimit="10"/>
<path d="M191.965 96.1898C260.713 96.1898 316.446 151.922 316.446 220.67" stroke="#1E1E1E" stroke-width="4" stroke-miterlimit="10"/>
<path d="M326.924 220.67C326.924 295.208 266.504 355.628 191.965 355.628" stroke="#1E1E1E" stroke-miterlimit="10"/>
<path d="M191.965 85.7116C266.504 85.7116 326.924 146.132 326.924 220.67" stroke="#1E1E1E" stroke-width="4" stroke-miterlimit="10"/>
<path d="M338.295 220.67C338.295 301.484 272.779 367 191.965 367" stroke="#1E1E1E" stroke-miterlimit="10"/>
<path d="M191.965 74.3401C272.779 74.3401 338.295 139.856 338.295 220.67" stroke="#1E1E1E" stroke-width="4" stroke-miterlimit="10"/>
<g filter="url(#filter0_d)">
<rect x="119.887" y="132.907" width="140.027" height="223.093" rx="70.0133" fill="#E1E1E1"/>
<rect x="124.887" y="137.907" width="130.027" height="213.093" rx="65.0133" stroke="#1E1E1E" stroke-width="10"/>
</g>
<path d="M190.197 136.763V229.027" stroke="#1E1E1E" stroke-width="10" stroke-linecap="round" stroke-linejoin="round"/>
<rect x="178.626" y="163.76" width="23.7333" height="54.5867" rx="11.8667" fill="#1E1E1E"/>
<rect x="185.153" y="171.473" width="10.0867" height="22.5467" rx="5.04333" fill="#00BF93"/>
<path d="M189.9 151V125V125C189.9 106.265 174.712 91.0767 155.977 91.0767H110.577C100.317 91.0767 92 82.7596 92 72.5V72.5V46.5" stroke="#1E1E1E" stroke-width="10" stroke-linecap="round" stroke-linejoin="round"/>
<rect x="269" y="78" width="172" height="44" rx="22" fill="#00BF93"/>
<path d="M331.348 94.22V107H329.134L322.654 97.946V107H320.44V94.22H322.654L329.134 103.274V94.22H331.348ZM332.872 102.446C332.872 101.582 333.058 100.79 333.43 100.07C333.802 99.338 334.318 98.762 334.978 98.342C335.65 97.922 336.412 97.712 337.264 97.712C338.08 97.712 338.782 97.91 339.37 98.306C339.97 98.702 340.396 99.206 340.648 99.818L340.774 97.892H342.88V107H340.774L340.648 105.056C340.396 105.668 339.97 106.178 339.37 106.586C338.782 106.982 338.08 107.18 337.264 107.18C336.412 107.18 335.65 106.97 334.978 106.55C334.318 106.13 333.802 105.56 333.43 104.84C333.058 104.108 332.872 103.31 332.872 102.446ZM335.086 102.446C335.086 102.926 335.2 103.37 335.428 103.778C335.656 104.174 335.974 104.492 336.382 104.732C336.802 104.972 337.264 105.092 337.768 105.092C338.272 105.092 338.722 104.972 339.118 104.732C339.526 104.492 339.844 104.174 340.072 103.778C340.3 103.37 340.414 102.926 340.414 102.446C340.414 101.966 340.3 101.528 340.072 101.132C339.844 100.724 339.526 100.4 339.118 100.16C338.722 99.92 338.272 99.8 337.768 99.8C337.264 99.8 336.802 99.92 336.382 100.16C335.974 100.4 335.656 100.724 335.428 101.132C335.2 101.528 335.086 101.966 335.086 102.446ZM354.255 97.892L350.403 107H347.847L343.995 97.892H346.479L349.143 104.678L351.789 97.892H354.255ZM357.628 107H355.414V97.892H357.628V107ZM356.512 96.632C356.2 96.632 355.93 96.524 355.702 96.308C355.486 96.08 355.378 95.81 355.378 95.498C355.378 95.186 355.486 94.922 355.702 94.706C355.93 94.478 356.2 94.364 356.512 94.364C356.824 94.364 357.088 94.478 357.304 94.706C357.532 94.922 357.646 95.186 357.646 95.498C357.646 95.81 357.532 96.08 357.304 96.308C357.088 96.524 356.824 96.632 356.512 96.632ZM367.624 99.854L366.778 99.71C366.982 100.154 367.084 100.628 367.084 101.132C367.084 101.792 366.916 102.38 366.58 102.896C366.244 103.412 365.782 103.82 365.194 104.12C364.606 104.408 363.952 104.552 363.232 104.552C362.752 104.552 362.326 104.492 361.954 104.372C361.786 104.48 361.702 104.618 361.702 104.786C361.702 104.99 361.828 105.128 362.08 105.2C362.344 105.272 362.728 105.308 363.232 105.308C364.624 105.308 365.692 105.59 366.436 106.154C367.18 106.706 367.552 107.426 367.552 108.314C367.552 108.938 367.36 109.478 366.976 109.934C366.604 110.39 366.106 110.732 365.482 110.96C364.858 111.2 364.186 111.32 363.466 111.32C362.746 111.32 362.074 111.2 361.45 110.96C360.826 110.732 360.322 110.39 359.938 109.934C359.566 109.478 359.38 108.938 359.38 108.314C359.38 107.498 359.722 106.868 360.406 106.424C359.878 106.064 359.614 105.65 359.614 105.182C359.614 104.606 359.98 104.132 360.712 103.76C360.292 103.448 359.962 103.07 359.722 102.626C359.494 102.17 359.38 101.672 359.38 101.132C359.38 100.472 359.548 99.884 359.884 99.368C360.22 98.84 360.682 98.432 361.27 98.144C361.858 97.856 362.512 97.712 363.232 97.712C363.928 97.712 364.558 97.844 365.122 98.108L367.624 97.892V99.854ZM363.232 102.698C363.712 102.698 364.12 102.554 364.456 102.266C364.804 101.966 364.978 101.588 364.978 101.132C364.978 100.664 364.804 100.286 364.456 99.998C364.12 99.698 363.712 99.548 363.232 99.548C362.752 99.548 362.338 99.698 361.99 99.998C361.642 100.286 361.468 100.664 361.468 101.132C361.468 101.588 361.642 101.966 361.99 102.266C362.338 102.554 362.752 102.698 363.232 102.698ZM365.464 108.35C365.464 107.918 365.218 107.606 364.726 107.414C364.246 107.234 363.532 107.144 362.584 107.144C362.488 107.144 362.41 107.138 362.35 107.126C362.11 107.246 361.9 107.408 361.72 107.612C361.552 107.816 361.468 108.032 361.468 108.26C361.468 108.644 361.648 108.944 362.008 109.16C362.368 109.376 362.854 109.484 363.466 109.484C364.09 109.484 364.576 109.388 364.924 109.196C365.284 109.004 365.464 108.722 365.464 108.35ZM368.626 102.446C368.626 101.582 368.812 100.79 369.184 100.07C369.556 99.338 370.072 98.762 370.732 98.342C371.404 97.922 372.166 97.712 373.018 97.712C373.834 97.712 374.536 97.91 375.124 98.306C375.724 98.702 376.15 99.206 376.402 99.818L376.528 97.892H378.634V107H376.528L376.402 105.056C376.15 105.668 375.724 106.178 375.124 106.586C374.536 106.982 373.834 107.18 373.018 107.18C372.166 107.18 371.404 106.97 370.732 106.55C370.072 106.13 369.556 105.56 369.184 104.84C368.812 104.108 368.626 103.31 368.626 102.446ZM370.84 102.446C370.84 102.926 370.954 103.37 371.182 103.778C371.41 104.174 371.728 104.492 372.136 104.732C372.556 104.972 373.018 105.092 373.522 105.092C374.026 105.092 374.476 104.972 374.872 104.732C375.28 104.492 375.598 104.174 375.826 103.778C376.054 103.37 376.168 102.926 376.168 102.446C376.168 101.966 376.054 101.528 375.826 101.132C375.598 100.724 375.28 100.4 374.872 100.16C374.476 99.92 374.026 99.8 373.522 99.8C373.018 99.8 372.556 99.92 372.136 100.16C371.728 100.4 371.41 100.724 371.182 101.132C370.954 101.528 370.84 101.966 370.84 102.446ZM385.761 99.98H383.745V107H381.531V99.98H380.109V97.892H381.531V95.192H383.745V97.892H385.761V99.98ZM389.304 107H387.09V97.892H389.304V107ZM388.188 96.632C387.876 96.632 387.606 96.524 387.378 96.308C387.162 96.08 387.054 95.81 387.054 95.498C387.054 95.186 387.162 94.922 387.378 94.706C387.606 94.478 387.876 94.364 388.188 94.364C388.5 94.364 388.764 94.478 388.98 94.706C389.208 94.922 389.322 95.186 389.322 95.498C389.322 95.81 389.208 96.08 388.98 96.308C388.764 96.524 388.5 96.632 388.188 96.632ZM395.811 107.18C394.875 107.18 394.035 106.97 393.291 106.55C392.547 106.13 391.965 105.56 391.545 104.84C391.125 104.108 390.915 103.31 390.915 102.446C390.915 101.582 391.125 100.79 391.545 100.07C391.965 99.338 392.547 98.762 393.291 98.342C394.035 97.922 394.875 97.712 395.811 97.712C396.735 97.712 397.569 97.922 398.313 98.342C399.057 98.762 399.633 99.338 400.041 100.07C400.461 100.79 400.671 101.582 400.671 102.446C400.671 103.31 400.461 104.108 400.041 104.84C399.633 105.56 399.057 106.13 398.313 106.55C397.569 106.97 396.735 107.18 395.811 107.18ZM395.811 105.092C396.315 105.092 396.765 104.972 397.161 104.732C397.569 104.492 397.887 104.174 398.115 103.778C398.343 103.37 398.457 102.926 398.457 102.446C398.457 101.966 398.343 101.528 398.115 101.132C397.887 100.724 397.569 100.4 397.161 100.16C396.765 99.92 396.315 99.8 395.811 99.8C395.307 99.8 394.845 99.92 394.425 100.16C394.017 100.4 393.699 100.724 393.471 101.132C393.243 101.528 393.129 101.966 393.129 102.446C393.129 102.926 393.243 103.37 393.471 103.778C393.699 104.174 394.017 104.492 394.425 104.732C394.845 104.972 395.307 105.092 395.811 105.092ZM407.745 97.712C408.837 97.712 409.665 98.054 410.229 98.738C410.805 99.41 411.093 100.37 411.093 101.618V107H408.879V102.644C408.879 101.624 408.705 100.898 408.357 100.466C408.021 100.022 407.529 99.8 406.881 99.8C406.113 99.8 405.501 100.064 405.045 100.592C404.589 101.12 404.361 101.78 404.361 102.572V107H402.147V97.892H404.235L404.343 99.242C405.363 98.222 406.497 97.712 407.745 97.712Z" fill="white"/>
<path d="M312.405 88.4853L307.026 108.562L292.329 93.8647L312.405 88.4853Z" fill="#11D8AA"/>
<path d="M307.456 93.435L302.076 113.511L287.379 98.8145L307.456 93.435Z" fill="#24E6BA"/>
<rect x="310" y="186" width="172" height="44" rx="22" fill="#00BF93"/>
<path d="M371.44 201.22H373.654V214H371.44V201.22ZM381.138 204.712C382.23 204.712 383.058 205.054 383.622 205.738C384.198 206.41 384.486 207.37 384.486 208.618V214H382.272V209.644C382.272 208.624 382.098 207.898 381.75 207.466C381.414 207.022 380.922 206.8 380.274 206.8C379.506 206.8 378.894 207.064 378.438 207.592C377.982 208.12 377.754 208.78 377.754 209.572V214H375.54V204.892H377.628L377.736 206.242C378.756 205.222 379.89 204.712 381.138 204.712ZM395.27 204.892L391.418 214H388.862L385.01 204.892H387.494L390.158 211.678L392.804 204.892H395.27ZM400.493 214.18C399.557 214.18 398.717 213.97 397.973 213.55C397.229 213.13 396.647 212.56 396.227 211.84C395.807 211.108 395.597 210.31 395.597 209.446C395.597 208.582 395.807 207.79 396.227 207.07C396.647 206.338 397.229 205.762 397.973 205.342C398.717 204.922 399.557 204.712 400.493 204.712C401.417 204.712 402.251 204.922 402.995 205.342C403.739 205.762 404.315 206.338 404.723 207.07C405.143 207.79 405.353 208.582 405.353 209.446C405.353 210.31 405.143 211.108 404.723 211.84C404.315 212.56 403.739 213.13 402.995 213.55C402.251 213.97 401.417 214.18 400.493 214.18ZM400.493 212.092C400.997 212.092 401.447 211.972 401.843 211.732C402.251 211.492 402.569 211.174 402.797 210.778C403.025 210.37 403.139 209.926 403.139 209.446C403.139 208.966 403.025 208.528 402.797 208.132C402.569 207.724 402.251 207.4 401.843 207.16C401.447 206.92 400.997 206.8 400.493 206.8C399.989 206.8 399.527 206.92 399.107 207.16C398.699 207.4 398.381 207.724 398.153 208.132C397.925 208.528 397.811 208.966 397.811 209.446C397.811 209.926 397.925 210.37 398.153 210.778C398.381 211.174 398.699 211.492 399.107 211.732C399.527 211.972 399.989 212.092 400.493 212.092ZM413.787 207.754C413.115 207.118 412.341 206.8 411.465 206.8C411.009 206.8 410.571 206.914 410.151 207.142C409.743 207.358 409.407 207.67 409.143 208.078C408.891 208.486 408.765 208.942 408.765 209.446C408.765 209.95 408.891 210.406 409.143 210.814C409.407 211.222 409.743 211.54 410.151 211.768C410.571 211.984 411.009 212.092 411.465 212.092C412.329 212.092 413.103 211.768 413.787 211.12V213.244C413.079 213.868 412.185 214.18 411.105 214.18C410.229 214.18 409.431 213.97 408.711 213.55C408.003 213.118 407.445 212.542 407.037 211.822C406.629 211.09 406.425 210.298 406.425 209.446C406.425 208.594 406.629 207.808 407.037 207.088C407.445 206.368 408.003 205.792 408.711 205.36C409.431 204.928 410.229 204.712 411.105 204.712C412.185 204.712 413.079 205.024 413.787 205.648V207.754ZM415.038 209.446C415.038 208.582 415.224 207.79 415.596 207.07C415.968 206.338 416.484 205.762 417.144 205.342C417.816 204.922 418.578 204.712 419.43 204.712C420.246 204.712 420.948 204.91 421.536 205.306C422.136 205.702 422.562 206.206 422.814 206.818L422.94 204.892H425.046V214H422.94L422.814 212.056C422.562 212.668 422.136 213.178 421.536 213.586C420.948 213.982 420.246 214.18 419.43 214.18C418.578 214.18 417.816 213.97 417.144 213.55C416.484 213.13 415.968 212.56 415.596 211.84C415.224 211.108 415.038 210.31 415.038 209.446ZM417.252 209.446C417.252 209.926 417.366 210.37 417.594 210.778C417.822 211.174 418.14 211.492 418.548 211.732C418.968 211.972 419.43 212.092 419.934 212.092C420.438 212.092 420.888 211.972 421.284 211.732C421.692 211.492 422.01 211.174 422.238 210.778C422.466 210.37 422.58 209.926 422.58 209.446C422.58 208.966 422.466 208.528 422.238 208.132C422.01 207.724 421.692 207.4 421.284 207.16C420.888 206.92 420.438 206.8 419.934 206.8C419.43 206.8 418.968 206.92 418.548 207.16C418.14 207.4 417.822 207.724 417.594 208.132C417.366 208.528 417.252 208.966 417.252 209.446ZM432.173 206.98H430.157V214H427.943V206.98H426.521V204.892H427.943V202.192H430.157V204.892H432.173V206.98ZM435.716 214H433.502V204.892H435.716V214ZM434.6 203.632C434.288 203.632 434.018 203.524 433.79 203.308C433.574 203.08 433.466 202.81 433.466 202.498C433.466 202.186 433.574 201.922 433.79 201.706C434.018 201.478 434.288 201.364 434.6 201.364C434.912 201.364 435.176 201.478 435.392 201.706C435.62 201.922 435.734 202.186 435.734 202.498C435.734 202.81 435.62 203.08 435.392 203.308C435.176 203.524 434.912 203.632 434.6 203.632ZM442.223 214.18C441.287 214.18 440.447 213.97 439.703 213.55C438.959 213.13 438.377 212.56 437.957 211.84C437.537 211.108 437.327 210.31 437.327 209.446C437.327 208.582 437.537 207.79 437.957 207.07C438.377 206.338 438.959 205.762 439.703 205.342C440.447 204.922 441.287 204.712 442.223 204.712C443.147 204.712 443.981 204.922 444.725 205.342C445.469 205.762 446.045 206.338 446.453 207.07C446.873 207.79 447.083 208.582 447.083 209.446C447.083 210.31 446.873 211.108 446.453 211.84C446.045 212.56 445.469 213.13 444.725 213.55C443.981 213.97 443.147 214.18 442.223 214.18ZM442.223 212.092C442.727 212.092 443.177 211.972 443.573 211.732C443.981 211.492 444.299 211.174 444.527 210.778C444.755 210.37 444.869 209.926 444.869 209.446C444.869 208.966 444.755 208.528 444.527 208.132C444.299 207.724 443.981 207.4 443.573 207.16C443.177 206.92 442.727 206.8 442.223 206.8C441.719 206.8 441.257 206.92 440.837 207.16C440.429 207.4 440.111 207.724 439.883 208.132C439.655 208.528 439.541 208.966 439.541 209.446C439.541 209.926 439.655 210.37 439.883 210.778C440.111 211.174 440.429 211.492 440.837 211.732C441.257 211.972 441.719 212.092 442.223 212.092ZM454.157 204.712C455.249 204.712 456.077 205.054 456.641 205.738C457.217 206.41 457.505 207.37 457.505 208.618V214H455.291V209.644C455.291 208.624 455.117 207.898 454.769 207.466C454.433 207.022 453.941 206.8 453.293 206.8C452.525 206.8 451.913 207.064 451.457 207.592C451.001 208.12 450.773 208.78 450.773 209.572V214H448.559V204.892H450.647L450.755 206.242C451.775 205.222 452.909 204.712 454.157 204.712Z" fill="white"/>
<rect x="327" y="195" width="27" height="27" rx="3" fill="#11D8AA"/>
<rect x="329" y="197" width="23" height="23" rx="1" fill="#00BF93"/>
<rect x="332" y="213" width="12" height="4" rx="1" fill="#24E6BA"/>
<rect x="344" y="200" width="12" height="4" rx="1" fill="#4EF6D0"/>
<rect x="344" y="206" width="12" height="4" rx="1" fill="#11D8AA"/>
<rect x="332" y="200" width="7" height="10" rx="1" fill="#4EF6D0"/>
<rect x="292" y="294" width="172" height="44" rx="22" fill="#00BF93"/>
<circle cx="323.5" cy="315.5" r="13.5" fill="#11D8AA"/>
<circle cx="333.5" cy="315.5" r="13.5" fill="#24E7BA"/>
<circle cx="343.5" cy="315.5" r="13.5" fill="#4EF7D0"/>
<path d="M381.864 320.192H376.752L375.744 323H373.44L378.048 310.22H380.568L385.176 323H382.872L381.864 320.192ZM381.108 318.086L379.308 313.118L377.508 318.086H381.108ZM392.935 316.754C392.263 316.118 391.489 315.8 390.613 315.8C390.157 315.8 389.719 315.914 389.299 316.142C388.891 316.358 388.555 316.67 388.291 317.078C388.039 317.486 387.913 317.942 387.913 318.446C387.913 318.95 388.039 319.406 388.291 319.814C388.555 320.222 388.891 320.54 389.299 320.768C389.719 320.984 390.157 321.092 390.613 321.092C391.477 321.092 392.251 320.768 392.935 320.12V322.244C392.227 322.868 391.333 323.18 390.253 323.18C389.377 323.18 388.579 322.97 387.859 322.55C387.151 322.118 386.593 321.542 386.185 320.822C385.777 320.09 385.573 319.298 385.573 318.446C385.573 317.594 385.777 316.808 386.185 316.088C386.593 315.368 387.151 314.792 387.859 314.36C388.579 313.928 389.377 313.712 390.253 313.712C391.333 313.712 392.227 314.024 392.935 314.648V316.754ZM399.843 315.98H397.827V323H395.613V315.98H394.191V313.892H395.613V311.192H397.827V313.892H399.843V315.98ZM403.386 323H401.172V313.892H403.386V323ZM402.27 312.632C401.958 312.632 401.688 312.524 401.46 312.308C401.244 312.08 401.136 311.81 401.136 311.498C401.136 311.186 401.244 310.922 401.46 310.706C401.688 310.478 401.958 310.364 402.27 310.364C402.582 310.364 402.846 310.478 403.062 310.706C403.29 310.922 403.404 311.186 403.404 311.498C403.404 311.81 403.29 312.08 403.062 312.308C402.846 312.524 402.582 312.632 402.27 312.632ZM409.893 323.18C408.957 323.18 408.117 322.97 407.373 322.55C406.629 322.13 406.047 321.56 405.627 320.84C405.207 320.108 404.997 319.31 404.997 318.446C404.997 317.582 405.207 316.79 405.627 316.07C406.047 315.338 406.629 314.762 407.373 314.342C408.117 313.922 408.957 313.712 409.893 313.712C410.817 313.712 411.651 313.922 412.395 314.342C413.139 314.762 413.715 315.338 414.123 316.07C414.543 316.79 414.753 317.582 414.753 318.446C414.753 319.31 414.543 320.108 414.123 320.84C413.715 321.56 413.139 322.13 412.395 322.55C411.651 322.97 410.817 323.18 409.893 323.18ZM409.893 321.092C410.397 321.092 410.847 320.972 411.243 320.732C411.651 320.492 411.969 320.174 412.197 319.778C412.425 319.37 412.539 318.926 412.539 318.446C412.539 317.966 412.425 317.528 412.197 317.132C411.969 316.724 411.651 316.4 411.243 316.16C410.847 315.92 410.397 315.8 409.893 315.8C409.389 315.8 408.927 315.92 408.507 316.16C408.099 316.4 407.781 316.724 407.553 317.132C407.325 317.528 407.211 317.966 407.211 318.446C407.211 318.926 407.325 319.37 407.553 319.778C407.781 320.174 408.099 320.492 408.507 320.732C408.927 320.972 409.389 321.092 409.893 321.092ZM421.827 313.712C422.919 313.712 423.747 314.054 424.311 314.738C424.887 315.41 425.175 316.37 425.175 317.618V323H422.961V318.644C422.961 317.624 422.787 316.898 422.439 316.466C422.103 316.022 421.611 315.8 420.963 315.8C420.195 315.8 419.583 316.064 419.127 316.592C418.671 317.12 418.443 317.78 418.443 318.572V323H416.229V313.892H418.317L418.425 315.242C419.445 314.222 420.579 313.712 421.827 313.712ZM428.814 320.246C428.874 320.57 429.072 320.834 429.408 321.038C429.756 321.23 430.194 321.326 430.722 321.326C431.13 321.326 431.472 321.254 431.748 321.11C432.024 320.966 432.162 320.762 432.162 320.498C432.162 320.282 432.096 320.114 431.964 319.994C431.832 319.862 431.64 319.748 431.388 319.652C431.136 319.544 430.722 319.4 430.146 319.22C429.786 319.1 429.606 319.04 429.606 319.04C428.754 318.776 428.088 318.434 427.608 318.014C427.128 317.594 426.888 317.036 426.888 316.34C426.888 315.812 427.044 315.35 427.356 314.954C427.668 314.558 428.082 314.252 428.598 314.036C429.114 313.82 429.666 313.712 430.254 313.712C430.986 313.712 431.622 313.838 432.162 314.09C432.714 314.33 433.134 314.666 433.422 315.098C433.722 315.518 433.884 315.986 433.908 316.502H431.694C431.67 316.19 431.52 315.956 431.244 315.8C430.968 315.632 430.662 315.548 430.326 315.548C430.014 315.548 429.732 315.62 429.48 315.764C429.228 315.908 429.102 316.1 429.102 316.34C429.102 316.508 429.156 316.646 429.264 316.754C429.384 316.862 429.558 316.964 429.786 317.06C430.014 317.144 430.398 317.276 430.938 317.456L431.676 317.708C432.636 318.032 433.326 318.434 433.746 318.914C434.178 319.382 434.394 319.928 434.394 320.552C434.394 321.368 434.04 322.01 433.332 322.478C432.636 322.946 431.748 323.18 430.668 323.18C429.48 323.18 428.52 322.934 427.788 322.442C427.056 321.938 426.66 321.206 426.6 320.246H428.814Z" fill="white"/>
<path d="M214.04 190.06C216.266 190.06 218.07 188.256 218.07 186.03C218.07 183.804 216.266 182 214.04 182C211.814 182 210.01 183.804 210.01 186.03C210.01 188.256 211.814 190.06 214.04 190.06Z" fill="#00BF93"/>
<path d="M239.66 186.03C239.66 188.25 237.86 190.06 235.63 190.06C233.41 190.06 231.6 188.26 231.6 186.03C231.6 183.81 233.4 182 235.63 182C237.86 182 239.66 183.8 239.66 186.03Z" fill="#00BF93"/>
<path d="M214.04 206.74C216.266 206.74 218.07 204.936 218.07 202.71C218.07 200.484 216.266 198.68 214.04 198.68C211.814 198.68 210.01 200.484 210.01 202.71C210.01 204.936 211.814 206.74 214.04 206.74Z" fill="#00BF93"/>
<path d="M239.66 202.71C239.66 204.93 237.86 206.74 235.63 206.74C233.41 206.74 231.6 204.94 231.6 202.71C231.6 200.48 233.4 198.68 235.63 198.68C237.86 198.69 239.66 200.49 239.66 202.71Z" stroke="#1E1E1E" stroke-miterlimit="10"/>
<path d="M214.04 223.43C216.266 223.43 218.07 221.626 218.07 219.4C218.07 217.174 216.266 215.37 214.04 215.37C211.814 215.37 210.01 217.174 210.01 219.4C210.01 221.626 211.814 223.43 214.04 223.43Z" fill="#1D262D"/>
<path d="M239.66 219.4C239.66 221.62 237.86 223.43 235.63 223.43C233.41 223.43 231.6 221.63 231.6 219.4C231.6 217.17 233.4 215.37 235.63 215.37C237.86 215.37 239.66 217.18 239.66 219.4Z" stroke="#1E1E1E" stroke-miterlimit="10"/>
<path d="M214.04 240.12C216.266 240.12 218.07 238.316 218.07 236.09C218.07 233.864 216.266 232.06 214.04 232.06C211.814 232.06 210.01 233.864 210.01 236.09C210.01 238.316 211.814 240.12 214.04 240.12Z" fill="#1D262D"/>
<path d="M239.66 236.09C239.66 238.31 237.86 240.12 235.63 240.12C233.41 240.12 231.6 238.32 231.6 236.09C231.6 233.87 233.4 232.06 235.63 232.06C237.86 232.06 239.66 233.86 239.66 236.09Z" stroke="#1E1E1E" stroke-miterlimit="10"/>
<path d="M218.06 252.78C218.06 255 216.26 256.81 214.03 256.81C211.81 256.81 210 255.01 210 252.78C210 250.56 211.8 248.75 214.03 248.75C216.26 248.75 218.06 250.55 218.06 252.78Z" fill="#1D262D"/>
<path d="M239.66 252.78C239.66 255 237.86 256.81 235.63 256.81C233.41 256.81 231.6 255.01 231.6 252.78C231.6 250.56 233.4 248.75 235.63 248.75C237.86 248.75 239.66 250.55 239.66 252.78Z" stroke="#1E1E1E" stroke-miterlimit="10"/>
<path d="M218.06 269.46C218.06 271.68 216.26 273.49 214.03 273.49C211.81 273.49 210 271.69 210 269.46C210 267.24 211.8 265.43 214.03 265.43C216.26 265.43 218.06 267.24 218.06 269.46Z" fill="#00BF93"/>
<path d="M239.66 269.46C239.66 271.68 237.86 273.49 235.63 273.49C233.41 273.49 231.6 271.69 231.6 269.46C231.6 267.24 233.4 265.43 235.63 265.43C237.86 265.43 239.66 267.24 239.66 269.46Z" stroke="#1E1E1E" stroke-miterlimit="10"/>
<path d="M218.06 286.15C218.06 288.37 216.26 290.18 214.03 290.18C211.81 290.18 210 288.38 210 286.15C210 283.93 211.8 282.12 214.03 282.12C216.26 282.12 218.06 283.92 218.06 286.15Z" fill="#00BF93"/>
<path d="M239.66 286.15C239.66 288.37 237.86 290.18 235.63 290.18C233.41 290.18 231.6 288.38 231.6 286.15C231.6 283.93 233.4 282.12 235.63 282.12C237.86 282.12 239.66 283.92 239.66 286.15Z" fill="#00BF93"/>
<defs>
<filter id="filter0_d" x="105.887" y="122.907" width="168.027" height="251.093" filterUnits="userSpaceOnUse" color-interpolation-filters="sRGB">
<feFlood flood-opacity="0" result="BackgroundImageFix"/>
<feColorMatrix in="SourceAlpha" type="matrix" values="0 0 0 0 0 0 0 0 0 0 0 0 0 0 0 0 0 0 127 0"/>
<feOffset dy="4"/>
<feGaussianBlur stdDeviation="7"/>
<feColorMatrix type="matrix" values="0 0 0 0 0 0 0 0 0 0 0 0 0 0 0 0 0 0 0.25 0"/>
<feBlend mode="normal" in2="BackgroundImageFix" result="effect1_dropShadow"/>
<feBlend mode="normal" in="SourceGraphic" in2="effect1_dropShadow" result="shape"/>
</filter>
</defs>
</svg>
