<svg width="202" height="202" viewBox="0 0 202 202" fill="none" xmlns="http://www.w3.org/2000/svg">
<circle cx="101" cy="101" r="97" fill="#2CF8C7" stroke="#00BF93" stroke-width="8"/>
<path d="M91.4 60.2727C91.4 57.0594 93.549 54.4545 96.2 54.4545H105.8C108.451 54.4545 110.6 57.0594 110.6 60.2727C110.6 63.486 108.451 66.0909 105.8 66.0909H96.2C93.549 66.0909 91.4 63.486 91.4 60.2727Z" fill="#1A8068"/>
<path d="M91.4 135.909C88.749 135.909 86.6 138.514 86.6 141.727C86.6 144.941 88.749 147.545 91.4 147.545H110.6C113.251 147.545 115.4 144.941 115.4 141.727C115.4 138.514 113.251 135.909 110.6 135.909H91.4Z" fill="#1A8068"/>
<path fill-rule="evenodd" clip-rule="evenodd" d="M65 51.5455C65 43.5122 70.3726 37 77 37H125C131.627 37 137 43.5122 137 51.5455V150.455C137 158.488 131.627 165 125 165H77C70.3726 165 65 158.488 65 150.455V51.5455ZM77 48.6364C75.6745 48.6364 74.6 49.9388 74.6 51.5455V150.455C74.6 152.061 75.6745 153.364 77 153.364H125C126.325 153.364 127.4 152.061 127.4 150.455V51.5455C127.4 49.9388 126.325 48.6364 125 48.6364H77Z" fill="#1A8068"/>
</svg>
