<svg width="1231" height="1142" viewBox="0 0 1231 1142" fill="none" xmlns="http://www.w3.org/2000/svg">
<g filter="url(#filter0_d)">
<g clip-path="url(#clip0)">
<rect x="44" y="40" width="1143" height="1054" rx="10" fill="white"/>
<path d="M137.608 755.44L129.616 781H124.288L118.564 762.676L112.84 781H107.512L99.52 755.44H104.056L110.176 775.204L116.296 755.44H120.832L126.952 775.132L133.072 755.44H137.608ZM151.022 762.424C153.206 762.424 154.862 763.108 155.99 764.476C157.142 765.82 157.718 767.74 157.718 770.236V781H153.29V772.288C153.29 770.248 152.942 768.796 152.246 767.932C151.574 767.044 150.59 766.6 149.294 766.6C147.758 766.6 146.534 767.128 145.622 768.184C144.71 769.24 144.254 770.56 144.254 772.144V781H139.826V754H144.254V765.448C146.318 763.432 148.574 762.424 151.022 762.424ZM160.463 771.892C160.463 770.164 160.835 768.58 161.579 767.14C162.323 765.676 163.355 764.524 164.675 763.684C166.019 762.844 167.543 762.424 169.247 762.424C170.879 762.424 172.283 762.82 173.459 763.612C174.659 764.404 175.511 765.412 176.015 766.636L176.267 762.784H180.479V781H176.267L176.015 777.112C175.511 778.336 174.659 779.356 173.459 780.172C172.283 780.964 170.879 781.36 169.247 781.36C167.543 781.36 166.019 780.94 164.675 780.1C163.355 779.26 162.323 778.12 161.579 776.68C160.835 775.216 160.463 773.62 160.463 771.892ZM164.891 771.892C164.891 772.852 165.119 773.74 165.575 774.556C166.031 775.348 166.667 775.984 167.483 776.464C168.323 776.944 169.247 777.184 170.255 777.184C171.263 777.184 172.163 776.944 172.955 776.464C173.771 775.984 174.407 775.348 174.863 774.556C175.319 773.74 175.547 772.852 175.547 771.892C175.547 770.932 175.319 770.056 174.863 769.264C174.407 768.448 173.771 767.8 172.955 767.32C172.163 766.84 171.263 766.6 170.255 766.6C169.247 766.6 168.323 766.84 167.483 767.32C166.667 767.8 166.031 768.448 165.575 769.264C165.119 770.056 164.891 770.932 164.891 771.892ZM194.734 766.96H190.702V781H186.274V766.96H183.43V762.784H186.274V757.384H190.702V762.784H194.734V766.96ZM224.869 775.384H214.645L212.629 781H208.021L217.237 755.44H222.277L231.493 781H226.885L224.869 775.384ZM223.357 771.172L219.757 761.236L216.157 771.172H223.357ZM242.572 762.424C243.052 762.424 243.484 762.508 243.868 762.676C244.252 762.82 244.552 763 244.768 763.216L244.12 767.068C243.904 766.948 243.628 766.84 243.292 766.744C242.98 766.648 242.656 766.6 242.32 766.6C241.144 766.6 240.232 767.164 239.584 768.292C238.96 769.42 238.648 770.956 238.648 772.9V781H234.22V762.784H238.396L238.648 765.376V765.412C239.152 764.452 239.716 763.72 240.34 763.216C240.988 762.688 241.732 762.424 242.572 762.424ZM263.792 773.26H250.004C250.076 774.46 250.544 775.456 251.408 776.248C252.272 777.04 253.472 777.436 255.008 777.436C256.088 777.436 257 777.208 257.744 776.752C258.512 776.272 259.1 775.672 259.508 774.952L263.396 775.384C263.204 776.296 262.748 777.208 262.028 778.12C261.308 779.032 260.348 779.8 259.148 780.424C257.948 781.048 256.556 781.36 254.972 781.36C253.148 781.36 251.516 780.94 250.076 780.1C248.66 779.236 247.556 778.084 246.764 776.644C245.972 775.18 245.576 773.56 245.576 771.784C245.576 770.08 245.948 768.52 246.692 767.104C247.46 765.664 248.54 764.524 249.932 763.684C251.324 762.844 252.908 762.424 254.684 762.424C256.508 762.424 258.104 762.868 259.472 763.756C260.864 764.62 261.932 765.796 262.676 767.284C263.42 768.748 263.792 770.356 263.792 772.108V773.26ZM254.684 766.348C253.364 766.348 252.26 766.72 251.372 767.464C250.508 768.208 250.052 769.12 250.004 770.2H259.364C259.316 769.144 258.86 768.244 257.996 767.5C257.132 766.732 256.028 766.348 254.684 766.348ZM294.654 775.384H284.43L282.414 781H277.806L287.022 755.44H292.062L301.278 781H296.67L294.654 775.384ZM293.142 771.172L289.542 761.236L285.942 771.172H293.142ZM316.796 768.508C315.452 767.236 313.904 766.6 312.152 766.6C311.24 766.6 310.364 766.828 309.524 767.284C308.708 767.716 308.036 768.34 307.508 769.156C307.004 769.972 306.752 770.884 306.752 771.892C306.752 772.9 307.004 773.812 307.508 774.628C308.036 775.444 308.708 776.08 309.524 776.536C310.364 776.968 311.24 777.184 312.152 777.184C313.88 777.184 315.428 776.536 316.796 775.24V779.488C315.38 780.736 313.592 781.36 311.432 781.36C309.68 781.36 308.084 780.94 306.644 780.1C305.228 779.236 304.112 778.084 303.296 776.644C302.48 775.18 302.072 773.596 302.072 771.892C302.072 770.188 302.48 768.616 303.296 767.176C304.112 765.736 305.228 764.584 306.644 763.72C308.084 762.856 309.68 762.424 311.432 762.424C313.592 762.424 315.38 763.048 316.796 764.296V768.508ZM334.023 768.508C332.679 767.236 331.131 766.6 329.379 766.6C328.467 766.6 327.591 766.828 326.751 767.284C325.935 767.716 325.263 768.34 324.735 769.156C324.231 769.972 323.979 770.884 323.979 771.892C323.979 772.9 324.231 773.812 324.735 774.628C325.263 775.444 325.935 776.08 326.751 776.536C327.591 776.968 328.467 777.184 329.379 777.184C331.107 777.184 332.655 776.536 334.023 775.24V779.488C332.607 780.736 330.819 781.36 328.659 781.36C326.907 781.36 325.311 780.94 323.871 780.1C322.455 779.236 321.339 778.084 320.523 776.644C319.707 775.18 319.299 773.596 319.299 771.892C319.299 770.188 319.707 768.616 320.523 767.176C321.339 765.736 322.455 764.584 323.871 763.72C325.311 762.856 326.907 762.424 328.659 762.424C330.819 762.424 332.607 763.048 334.023 764.296V768.508ZM341.762 781H337.334V754H341.762V781ZM363.144 773.26H349.356C349.428 774.46 349.896 775.456 350.76 776.248C351.624 777.04 352.824 777.436 354.36 777.436C355.44 777.436 356.352 777.208 357.096 776.752C357.864 776.272 358.452 775.672 358.86 774.952L362.748 775.384C362.556 776.296 362.1 777.208 361.38 778.12C360.66 779.032 359.7 779.8 358.5 780.424C357.3 781.048 355.908 781.36 354.324 781.36C352.5 781.36 350.868 780.94 349.428 780.1C348.012 779.236 346.908 778.084 346.116 776.644C345.324 775.18 344.928 773.56 344.928 771.784C344.928 770.08 345.3 768.52 346.044 767.104C346.812 765.664 347.892 764.524 349.284 763.684C350.676 762.844 352.26 762.424 354.036 762.424C355.86 762.424 357.456 762.868 358.824 763.756C360.216 764.62 361.284 765.796 362.027 767.284C362.772 768.748 363.144 770.356 363.144 772.108V773.26ZM354.036 766.348C352.716 766.348 351.612 766.72 350.724 767.464C349.86 768.208 349.404 769.12 349.356 770.2H358.716C358.668 769.144 358.212 768.244 357.348 767.5C356.484 766.732 355.38 766.348 354.036 766.348ZM374.444 762.424C374.924 762.424 375.356 762.508 375.74 762.676C376.124 762.82 376.424 763 376.64 763.216L375.992 767.068C375.776 766.948 375.5 766.84 375.164 766.744C374.852 766.648 374.528 766.6 374.192 766.6C373.016 766.6 372.104 767.164 371.456 768.292C370.832 769.42 370.52 770.956 370.52 772.9V781H366.092V762.784H370.268L370.52 765.376V765.412C371.024 764.452 371.588 763.72 372.212 763.216C372.86 762.688 373.604 762.424 374.444 762.424ZM377.447 771.892C377.447 770.164 377.819 768.58 378.563 767.14C379.307 765.676 380.339 764.524 381.659 763.684C383.003 762.844 384.527 762.424 386.231 762.424C387.863 762.424 389.267 762.82 390.443 763.612C391.643 764.404 392.495 765.412 392.999 766.636L393.251 762.784H397.463V781H393.251L392.999 777.112C392.495 778.336 391.643 779.356 390.443 780.172C389.267 780.964 387.863 781.36 386.231 781.36C384.527 781.36 383.003 780.94 381.659 780.1C380.339 779.26 379.307 778.12 378.563 776.68C377.819 775.216 377.447 773.62 377.447 771.892ZM381.875 771.892C381.875 772.852 382.103 773.74 382.559 774.556C383.015 775.348 383.651 775.984 384.467 776.464C385.307 776.944 386.231 777.184 387.239 777.184C388.247 777.184 389.147 776.944 389.939 776.464C390.755 775.984 391.391 775.348 391.847 774.556C392.303 773.74 392.531 772.852 392.531 771.892C392.531 770.932 392.303 770.056 391.847 769.264C391.391 768.448 390.755 767.8 389.939 767.32C389.147 766.84 388.247 766.6 387.239 766.6C386.231 766.6 385.307 766.84 384.467 767.32C383.651 767.8 383.015 768.448 382.559 769.264C382.103 770.056 381.875 770.932 381.875 771.892ZM411.718 766.96H407.686V781H403.258V766.96H400.414V762.784H403.258V757.384H407.686V762.784H411.718V766.96ZM422.923 781.36C421.051 781.36 419.371 780.94 417.883 780.1C416.395 779.26 415.231 778.12 414.391 776.68C413.551 775.216 413.131 773.62 413.131 771.892C413.131 770.164 413.551 768.58 414.391 767.14C415.231 765.676 416.395 764.524 417.883 763.684C419.371 762.844 421.051 762.424 422.923 762.424C424.771 762.424 426.439 762.844 427.927 763.684C429.415 764.524 430.567 765.676 431.383 767.14C432.223 768.58 432.643 770.164 432.643 771.892C432.643 773.62 432.223 775.216 431.383 776.68C430.567 778.12 429.415 779.26 427.927 780.1C426.439 780.94 424.771 781.36 422.923 781.36ZM422.923 777.184C423.931 777.184 424.831 776.944 425.623 776.464C426.439 775.984 427.075 775.348 427.531 774.556C427.987 773.74 428.215 772.852 428.215 771.892C428.215 770.932 427.987 770.056 427.531 769.264C427.075 768.448 426.439 767.8 425.623 767.32C424.831 766.84 423.931 766.6 422.923 766.6C421.915 766.6 420.991 766.84 420.151 767.32C419.335 767.8 418.699 768.448 418.243 769.264C417.787 770.056 417.559 770.932 417.559 771.892C417.559 772.852 417.787 773.74 418.243 774.556C418.699 775.348 419.335 775.984 420.151 776.464C420.991 776.944 421.915 777.184 422.923 777.184ZM443.947 762.424C444.427 762.424 444.859 762.508 445.243 762.676C445.627 762.82 445.927 763 446.143 763.216L445.495 767.068C445.279 766.948 445.003 766.84 444.667 766.744C444.355 766.648 444.031 766.6 443.695 766.6C442.519 766.6 441.607 767.164 440.959 768.292C440.335 769.42 440.023 770.956 440.023 772.9V781H435.595V762.784H439.771L440.023 765.376V765.412C440.527 764.452 441.091 763.72 441.715 763.216C442.363 762.688 443.107 762.424 443.947 762.424ZM451.836 775.492C451.956 776.14 452.352 776.668 453.024 777.076C453.72 777.46 454.596 777.652 455.652 777.652C456.468 777.652 457.152 777.508 457.704 777.22C458.256 776.932 458.532 776.524 458.532 775.996C458.532 775.564 458.4 775.228 458.136 774.988C457.872 774.724 457.488 774.496 456.984 774.304C456.48 774.088 455.652 773.8 454.5 773.44C453.78 773.2 453.42 773.08 453.42 773.08C451.716 772.552 450.384 771.868 449.424 771.028C448.464 770.188 447.984 769.072 447.984 767.68C447.984 766.624 448.296 765.7 448.92 764.908C449.544 764.116 450.372 763.504 451.404 763.072C452.436 762.64 453.54 762.424 454.716 762.424C456.18 762.424 457.452 762.676 458.532 763.18C459.636 763.66 460.476 764.332 461.052 765.196C461.652 766.036 461.976 766.972 462.024 768.004H457.596C457.548 767.38 457.248 766.912 456.696 766.6C456.144 766.264 455.532 766.096 454.86 766.096C454.236 766.096 453.672 766.24 453.168 766.528C452.664 766.816 452.412 767.2 452.412 767.68C452.412 768.016 452.52 768.292 452.736 768.508C452.976 768.724 453.324 768.928 453.78 769.12C454.236 769.288 455.004 769.552 456.084 769.912L457.56 770.416C459.48 771.064 460.86 771.868 461.7 772.828C462.564 773.764 462.996 774.856 462.996 776.104C462.996 777.736 462.288 779.02 460.872 779.956C459.48 780.892 457.704 781.36 455.544 781.36C453.168 781.36 451.248 780.868 449.784 779.884C448.32 778.876 447.528 777.412 447.408 775.492H451.836ZM476.38 755.08C478.06 755.08 479.524 755.428 480.772 756.124C482.02 756.796 482.98 757.672 483.652 758.752C484.324 759.832 484.66 760.948 484.66 762.1C484.66 763.828 484.084 765.364 482.932 766.708C481.78 768.028 480.196 768.94 478.18 769.444L478.036 773.62H474.112L473.86 766.672H474.724C476.5 766.672 477.856 766.324 478.792 765.628C479.752 764.932 480.232 763.984 480.232 762.784C480.232 761.752 479.872 760.912 479.152 760.264C478.456 759.592 477.556 759.256 476.452 759.256C475.276 759.256 474.268 759.664 473.428 760.48C472.612 761.272 472.204 762.352 472.204 763.72H467.776C467.776 761.944 468.172 760.408 468.964 759.112C469.78 757.792 470.848 756.796 472.168 756.124C473.488 755.428 474.892 755.08 476.38 755.08ZM476.056 776.824C476.704 776.824 477.244 777.052 477.676 777.508C478.108 777.94 478.324 778.468 478.324 779.092C478.324 779.716 478.108 780.256 477.676 780.712C477.244 781.144 476.704 781.36 476.056 781.36C475.432 781.36 474.904 781.144 474.472 780.712C474.04 780.256 473.824 779.716 473.824 779.092C473.824 778.468 474.04 777.94 474.472 777.508C474.904 777.052 475.432 776.824 476.056 776.824ZM118.6 867H121.804L112.588 841.44H109.096L99.88 867H103.084L105.352 860.7H116.332L118.6 867ZM106.396 857.784L110.824 845.472L115.252 857.784H106.396ZM138.669 853.608V850.62C137.265 849.252 135.321 848.424 132.981 848.424C127.653 848.424 123.549 852.744 123.549 857.856C123.549 863.076 127.653 867.36 132.981 867.36C135.321 867.36 137.265 866.532 138.669 865.164V862.14C137.157 863.652 135.501 864.444 133.449 864.444C129.957 864.444 126.789 861.672 126.789 857.856C126.789 854.112 129.957 851.34 133.449 851.34C135.501 851.34 137.157 852.132 138.669 853.608ZM156.809 853.608V850.62C155.405 849.252 153.461 848.424 151.121 848.424C145.793 848.424 141.689 852.744 141.689 857.856C141.689 863.076 145.793 867.36 151.121 867.36C153.461 867.36 155.405 866.532 156.809 865.164V862.14C155.297 863.652 153.641 864.444 151.589 864.444C148.097 864.444 144.929 861.672 144.929 857.856C144.929 854.112 148.097 851.34 151.589 851.34C153.641 851.34 155.297 852.132 156.809 853.608ZM178.046 858.072C178.046 852.924 174.518 848.424 168.938 848.424C163.538 848.424 159.83 852.672 159.83 857.784C159.83 863.292 163.718 867.36 169.226 867.36C174.014 867.36 176.822 864.192 177.542 861.708L174.806 861.348C174.014 862.968 172.214 864.588 169.226 864.588C165.482 864.588 163.034 862.176 162.926 858.864H178.046V858.072ZM168.938 851.196C172.502 851.196 174.77 853.788 174.95 856.632H162.926C163.034 853.644 165.518 851.196 168.938 851.196ZM184.336 840H181.24V867H184.336V840ZM206.347 858.072C206.347 852.924 202.819 848.424 197.239 848.424C191.839 848.424 188.131 852.672 188.131 857.784C188.131 863.292 192.019 867.36 197.527 867.36C202.315 867.36 205.123 864.192 205.843 861.708L203.107 861.348C202.315 862.968 200.515 864.588 197.527 864.588C193.783 864.588 191.335 862.176 191.227 858.864H206.347V858.072ZM197.239 851.196C200.803 851.196 203.071 853.788 203.251 856.632H191.227C191.335 853.644 193.819 851.196 197.239 851.196ZM217.2 848.424C215.22 848.424 213.96 849.828 213.024 851.772V851.7L212.844 848.784H209.928V867H213.024V857.928C213.024 854.508 214.212 851.34 217.02 851.34C217.884 851.34 218.604 851.664 218.964 851.916L219.504 849.216C219.108 848.856 218.316 848.424 217.2 848.424ZM220.685 857.856C220.685 863.112 224.537 867.36 229.757 867.36C233.321 867.36 236.093 865.272 237.245 862.536L237.389 867H240.341V848.784H237.389L237.245 853.248C236.093 850.512 233.321 848.424 229.757 848.424C224.537 848.424 220.685 852.672 220.685 857.856ZM223.781 857.856C223.781 854.328 226.661 851.34 230.369 851.34C234.113 851.34 236.921 854.328 236.921 857.856C236.921 861.456 234.113 864.444 230.369 864.444C226.661 864.444 223.781 861.456 223.781 857.856ZM253.33 848.784H249.55V843.384H246.49V848.784H243.898V851.7H246.49V867H249.55V851.7H253.33V848.784ZM264.928 867.36C270.472 867.36 274.576 863.112 274.576 857.856C274.576 852.672 270.472 848.424 264.928 848.424C259.42 848.424 255.244 852.672 255.244 857.856C255.244 863.112 259.42 867.36 264.928 867.36ZM264.928 864.444C261.22 864.444 258.34 861.456 258.34 857.856C258.34 854.328 261.22 851.34 264.928 851.34C268.672 851.34 271.48 854.328 271.48 857.856C271.48 861.456 268.672 864.444 264.928 864.444ZM285.438 848.424C283.458 848.424 282.198 849.828 281.262 851.772V851.7L281.082 848.784H278.166V867H281.262V857.928C281.262 854.508 282.45 851.34 285.258 851.34C286.122 851.34 286.842 851.664 287.202 851.916L287.742 849.216C287.346 848.856 286.554 848.424 285.438 848.424ZM289.697 861.96C290.129 865.452 293.117 867.36 297.293 867.36C301.289 867.36 304.205 865.452 304.205 862.428C304.205 859.692 302.261 858.072 298.841 856.812C295.205 855.408 293.369 854.94 293.369 853.284C293.369 851.808 295.061 851.016 296.537 851.016C298.193 851.016 299.777 851.916 299.993 853.572H303.053C302.873 850.62 300.317 848.424 296.465 848.424C293.333 848.424 290.309 850.224 290.309 853.284C290.309 856.164 292.757 857.532 295.421 858.432C299.237 859.872 301.109 860.304 301.109 862.356C301.109 863.796 299.561 864.732 297.365 864.732C294.809 864.732 293.261 863.616 292.793 861.96H289.697ZM319.123 857.856C319.123 863.112 322.975 867.36 328.195 867.36C331.759 867.36 334.531 865.272 335.683 862.536L335.827 867H338.779V848.784H335.827L335.683 853.248C334.531 850.512 331.759 848.424 328.195 848.424C322.975 848.424 319.123 852.672 319.123 857.856ZM322.219 857.856C322.219 854.328 325.099 851.34 328.807 851.34C332.551 851.34 335.359 854.328 335.359 857.856C335.359 861.456 332.551 864.444 328.807 864.444C325.099 864.444 322.219 861.456 322.219 857.856ZM350.547 848.424C348.567 848.424 347.307 849.828 346.371 851.772V851.7L346.191 848.784H343.275V867H346.371V857.928C346.371 854.508 347.559 851.34 350.367 851.34C351.231 851.34 351.951 851.664 352.311 851.916L352.851 849.216C352.455 848.856 351.663 848.424 350.547 848.424ZM372.249 858.072C372.249 852.924 368.721 848.424 363.141 848.424C357.741 848.424 354.033 852.672 354.033 857.784C354.033 863.292 357.921 867.36 363.429 867.36C368.217 867.36 371.025 864.192 371.745 861.708L369.009 861.348C368.217 862.968 366.417 864.588 363.429 864.588C359.685 864.588 357.237 862.176 357.129 858.864H372.249V858.072ZM363.141 851.196C366.705 851.196 368.973 853.788 369.153 856.632H357.129C357.237 853.644 359.721 851.196 363.141 851.196ZM387.906 845.76C388.914 845.76 389.67 844.968 389.67 843.996C389.67 842.988 388.914 842.232 387.906 842.232C386.934 842.232 386.142 842.988 386.142 843.996C386.142 844.968 386.934 845.76 387.906 845.76ZM389.454 848.784H386.358V867H389.454V848.784ZM404.441 848.424C401.309 848.424 398.933 850.008 397.277 851.952L397.133 848.784H394.217V867H397.313V857.712C397.313 855.12 399.041 851.34 403.361 851.34C406.169 851.34 408.113 853.068 408.113 857.64V867H411.209V856.344C411.209 851.196 408.653 848.424 404.441 848.424ZM441.084 848.784L435.036 863.796L428.988 848.784H425.532L433.272 867H436.8L444.54 848.784H441.084ZM446.002 857.856C446.002 863.112 449.854 867.36 455.074 867.36C458.638 867.36 461.41 865.272 462.562 862.536L462.706 867H465.658V848.784H462.706L462.562 853.248C461.41 850.512 458.638 848.424 455.074 848.424C449.854 848.424 446.002 852.672 446.002 857.856ZM449.098 857.856C449.098 854.328 451.978 851.34 455.686 851.34C459.43 851.34 462.238 854.328 462.238 857.856C462.238 861.456 459.43 864.444 455.686 864.444C451.978 864.444 449.098 861.456 449.098 857.856ZM477.426 848.424C475.446 848.424 474.186 849.828 473.25 851.772V851.7L473.07 848.784H470.154V867H473.25V857.928C473.25 854.508 474.438 851.34 477.246 851.34C478.11 851.34 478.83 851.664 479.19 851.916L479.73 849.216C479.334 848.856 478.542 848.424 477.426 848.424ZM484.41 845.76C485.418 845.76 486.174 844.968 486.174 843.996C486.174 842.988 485.418 842.232 484.41 842.232C483.438 842.232 482.646 842.988 482.646 843.996C482.646 844.968 483.438 845.76 484.41 845.76ZM485.958 848.784H482.862V867H485.958V848.784ZM499.737 867.36C505.281 867.36 509.385 863.112 509.385 857.856C509.385 852.672 505.281 848.424 499.737 848.424C494.229 848.424 490.053 852.672 490.053 857.856C490.053 863.112 494.229 867.36 499.737 867.36ZM499.737 864.444C496.029 864.444 493.149 861.456 493.149 857.856C493.149 854.328 496.029 851.34 499.737 851.34C503.481 851.34 506.289 854.328 506.289 857.856C506.289 861.456 503.481 864.444 499.737 864.444ZM526.515 848.784V858.072H526.479C526.479 860.664 524.751 864.444 520.431 864.444C517.623 864.444 515.679 862.716 515.679 858.144V848.784H512.583V859.44C512.583 864.588 515.139 867.36 519.351 867.36C522.519 867.36 524.859 865.776 526.551 863.796L526.659 867H529.575V848.784H526.515ZM533.541 861.96C533.973 865.452 536.961 867.36 541.137 867.36C545.133 867.36 548.049 865.452 548.049 862.428C548.049 859.692 546.105 858.072 542.685 856.812C539.049 855.408 537.213 854.94 537.213 853.284C537.213 851.808 538.905 851.016 540.381 851.016C542.037 851.016 543.621 851.916 543.837 853.572H546.897C546.717 850.62 544.161 848.424 540.309 848.424C537.177 848.424 534.153 850.224 534.153 853.284C534.153 856.164 536.601 857.532 539.265 858.432C543.081 859.872 544.953 860.304 544.953 862.356C544.953 863.796 543.405 864.732 541.209 864.732C538.653 864.732 537.105 863.616 536.637 861.96H533.541ZM562.967 861.96C563.399 865.452 566.387 867.36 570.563 867.36C574.559 867.36 577.475 865.452 577.475 862.428C577.475 859.692 575.531 858.072 572.111 856.812C568.475 855.408 566.639 854.94 566.639 853.284C566.639 851.808 568.331 851.016 569.807 851.016C571.463 851.016 573.047 851.916 573.263 853.572H576.323C576.143 850.62 573.587 848.424 569.735 848.424C566.603 848.424 563.579 850.224 563.579 853.284C563.579 856.164 566.027 857.532 568.691 858.432C572.507 859.872 574.379 860.304 574.379 862.356C574.379 863.796 572.831 864.732 570.635 864.732C568.079 864.732 566.531 863.616 566.063 861.96H562.967ZM594.401 848.784V858.072H594.365C594.365 860.664 592.637 864.444 588.317 864.444C585.509 864.444 583.565 862.716 583.565 858.144V848.784H580.469V859.44C580.469 864.588 583.025 867.36 587.237 867.36C590.405 867.36 592.745 865.776 594.437 863.796L594.545 867H597.461V848.784H594.401ZM609.227 848.424C607.247 848.424 605.987 849.828 605.051 851.772V851.7L604.871 848.784H601.955V867H605.051V857.928C605.051 854.508 606.239 851.34 609.047 851.34C609.911 851.34 610.631 851.664 610.991 851.916L611.531 849.216C611.135 848.856 610.343 848.424 609.227 848.424ZM620.945 843.996C621.845 843.996 622.817 844.536 623.105 844.752V842.088C622.601 841.692 621.413 841.08 619.973 841.08C617.633 841.08 615.401 842.52 615.401 846.66V848.784H613.601V851.7H615.401V867H618.461V851.7H622.925V848.784H618.461V847.092C618.461 845.22 619.037 843.996 620.945 843.996ZM625.053 857.856C625.053 863.112 628.905 867.36 634.125 867.36C637.689 867.36 640.461 865.272 641.613 862.536L641.757 867H644.709V848.784H641.757L641.613 853.248C640.461 850.512 637.689 848.424 634.125 848.424C628.905 848.424 625.053 852.672 625.053 857.856ZM628.149 857.856C628.149 854.328 631.029 851.34 634.737 851.34C638.481 851.34 641.289 854.328 641.289 857.856C641.289 861.456 638.481 864.444 634.737 864.444C631.029 864.444 628.149 861.456 628.149 857.856ZM663.024 853.608V850.62C661.62 849.252 659.676 848.424 657.336 848.424C652.008 848.424 647.904 852.744 647.904 857.856C647.904 863.076 652.008 867.36 657.336 867.36C659.676 867.36 661.62 866.532 663.024 865.164V862.14C661.512 863.652 659.856 864.444 657.804 864.444C654.312 864.444 651.144 861.672 651.144 857.856C651.144 854.112 654.312 851.34 657.804 851.34C659.856 851.34 661.512 852.132 663.024 853.608ZM684.261 858.072C684.261 852.924 680.733 848.424 675.153 848.424C669.753 848.424 666.045 852.672 666.045 857.784C666.045 863.292 669.933 867.36 675.441 867.36C680.229 867.36 683.037 864.192 683.757 861.708L681.021 861.348C680.229 862.968 678.429 864.588 675.441 864.588C671.697 864.588 669.249 862.176 669.141 858.864H684.261V858.072ZM675.153 851.196C678.717 851.196 680.985 853.788 681.165 856.632H669.141C669.249 853.644 671.733 851.196 675.153 851.196ZM699.162 857.856C699.162 863.112 703.014 867.36 708.234 867.36C711.798 867.36 714.57 865.272 715.722 862.536L715.866 867H718.818V848.784H715.866L715.722 853.248C714.57 850.512 711.798 848.424 708.234 848.424C703.014 848.424 699.162 852.672 699.162 857.856ZM702.258 857.856C702.258 854.328 705.138 851.34 708.846 851.34C712.59 851.34 715.398 854.328 715.398 857.856C715.398 861.456 712.59 864.444 708.846 864.444C705.138 864.444 702.258 861.456 702.258 857.856ZM730.586 848.424C728.606 848.424 727.346 849.828 726.41 851.772V851.7L726.23 848.784H723.314V867H726.41V857.928C726.41 854.508 727.598 851.34 730.406 851.34C731.27 851.34 731.99 851.664 732.35 851.916L732.89 849.216C732.494 848.856 731.702 848.424 730.586 848.424ZM752.288 858.072C752.288 852.924 748.76 848.424 743.18 848.424C737.78 848.424 734.072 852.672 734.072 857.784C734.072 863.292 737.96 867.36 743.468 867.36C748.256 867.36 751.064 864.192 751.784 861.708L749.048 861.348C748.256 862.968 746.456 864.588 743.468 864.588C739.724 864.588 737.276 862.176 737.168 858.864H752.288V858.072ZM743.18 851.196C746.744 851.196 749.012 853.788 749.192 856.632H737.168C737.276 853.644 739.76 851.196 743.18 851.196ZM755.306 857.856C755.306 863.112 759.158 867.36 764.378 867.36C767.942 867.36 770.714 865.272 771.866 862.536L772.01 867H774.962V848.784H772.01L771.866 853.248C770.714 850.512 767.942 848.424 764.378 848.424C759.158 848.424 755.306 852.672 755.306 857.856ZM758.402 857.856C758.402 854.328 761.282 851.34 764.99 851.34C768.734 851.34 771.542 854.328 771.542 857.856C771.542 861.456 768.734 864.444 764.99 864.444C761.282 864.444 758.402 861.456 758.402 857.856ZM778.931 861.96C779.363 865.452 782.351 867.36 786.527 867.36C790.523 867.36 793.439 865.452 793.439 862.428C793.439 859.692 791.495 858.072 788.075 856.812C784.439 855.408 782.603 854.94 782.603 853.284C782.603 851.808 784.295 851.016 785.771 851.016C787.427 851.016 789.011 851.916 789.227 853.572H792.287C792.107 850.62 789.551 848.424 785.699 848.424C782.567 848.424 779.543 850.224 779.543 853.284C779.543 856.164 781.991 857.532 784.655 858.432C788.471 859.872 790.343 860.304 790.343 862.356C790.343 863.796 788.795 864.732 786.599 864.732C784.043 864.732 782.495 863.616 782.027 861.96H778.931ZM816.709 848.784H812.929V843.384H809.869V848.784H807.277V851.7H809.869V867H812.929V851.7H816.709V848.784ZM830.323 848.424C827.191 848.424 824.851 849.972 823.195 851.952V840H820.099V867H823.195V857.712C823.195 855.12 824.923 851.34 829.243 851.34C832.051 851.34 833.995 853.068 833.995 857.64V867H837.091V856.344C837.091 851.196 834.535 848.424 830.323 848.424ZM848.641 848.424C846.661 848.424 845.401 849.828 844.465 851.772V851.7L844.285 848.784H841.369V867H844.465V857.928C844.465 854.508 845.653 851.34 848.461 851.34C849.325 851.34 850.045 851.664 850.405 851.916L850.945 849.216C850.549 848.856 849.757 848.424 848.641 848.424ZM861.811 867.36C867.355 867.36 871.459 863.112 871.459 857.856C871.459 852.672 867.355 848.424 861.811 848.424C856.303 848.424 852.127 852.672 852.127 857.856C852.127 863.112 856.303 867.36 861.811 867.36ZM861.811 864.444C858.103 864.444 855.223 861.456 855.223 857.856C855.223 854.328 858.103 851.34 861.811 851.34C865.555 851.34 868.363 854.328 868.363 857.856C868.363 861.456 865.555 864.444 861.811 864.444ZM888.589 848.784V858.072H888.553C888.553 860.664 886.825 864.444 882.505 864.444C879.697 864.444 877.753 862.716 877.753 858.144V848.784H874.657V859.44C874.657 864.588 877.213 867.36 881.425 867.36C884.593 867.36 886.933 865.776 888.625 863.796L888.733 867H891.649V848.784H888.589ZM902.817 864.048C900.621 864.048 899.289 863.76 899.289 862.824C899.289 862.356 899.685 861.96 900.333 861.672C901.161 861.96 902.097 862.104 903.069 862.104C907.317 862.104 910.593 859.152 910.593 855.264C910.593 853.788 910.125 852.456 909.297 851.376L911.421 851.556V848.784L906.669 849.216C905.589 848.712 904.365 848.424 903.069 848.424C898.785 848.424 895.545 851.34 895.545 855.264C895.545 857.568 896.661 859.512 898.461 860.736C897.417 861.24 896.373 862.104 896.373 863.328C896.373 864.336 897.057 865.128 898.029 865.668C896.697 866.496 895.545 867.828 895.545 869.844C895.545 873.588 899.217 875.64 903.501 875.64C907.785 875.64 911.457 873.588 911.457 869.844C911.457 866.316 908.217 864.048 902.817 864.048ZM903.069 851.016C905.625 851.016 907.641 852.816 907.641 855.264C907.641 857.676 905.625 859.476 903.069 859.476C900.549 859.476 898.461 857.676 898.461 855.264C898.461 852.816 900.549 851.016 903.069 851.016ZM903.501 873.048C900.513 873.048 898.461 871.896 898.461 869.772C898.461 868.368 899.829 867.108 900.945 866.604C901.305 866.64 901.629 866.676 901.989 866.676C905.805 866.676 908.541 867.504 908.541 869.88C908.541 871.968 906.453 873.048 903.501 873.048ZM925.632 848.424C922.5 848.424 920.16 849.972 918.504 851.952V840H915.408V867H918.504V857.712C918.504 855.12 920.232 851.34 924.552 851.34C927.36 851.34 929.304 853.068 929.304 857.64V867H932.4V856.344C932.4 851.196 929.844 848.424 925.632 848.424ZM945.201 867.36C950.745 867.36 954.849 863.112 954.849 857.856C954.849 852.672 950.745 848.424 945.201 848.424C939.693 848.424 935.517 852.672 935.517 857.856C935.517 863.112 939.693 867.36 945.201 867.36ZM945.201 864.444C941.493 864.444 938.613 861.456 938.613 857.856C938.613 854.328 941.493 851.34 945.201 851.34C948.945 851.34 951.753 854.328 951.753 857.856C951.753 861.456 948.945 864.444 945.201 864.444ZM971.979 848.784V858.072H971.943C971.943 860.664 970.215 864.444 965.895 864.444C963.087 864.444 961.143 862.716 961.143 858.144V848.784H958.047V859.44C958.047 864.588 960.603 867.36 964.815 867.36C967.983 867.36 970.323 865.776 972.015 863.796L972.123 867H975.039V848.784H971.979ZM988.026 848.784H984.246V843.384H981.186V848.784H978.594V851.7H981.186V867H984.246V851.7H988.026V848.784ZM108.592 891.784H104.812V886.384H101.752V891.784H99.16V894.7H101.752V910H104.812V894.7H108.592V891.784ZM122.206 891.424C119.074 891.424 116.734 892.972 115.078 894.952V883H111.982V910H115.078V900.712C115.078 898.12 116.806 894.34 121.126 894.34C123.934 894.34 125.878 896.068 125.878 900.64V910H128.974V899.344C128.974 894.196 126.418 891.424 122.206 891.424ZM150.308 901.072C150.308 895.924 146.78 891.424 141.2 891.424C135.8 891.424 132.092 895.672 132.092 900.784C132.092 906.292 135.98 910.36 141.488 910.36C146.276 910.36 149.084 907.192 149.804 904.708L147.068 904.348C146.276 905.968 144.476 907.588 141.488 907.588C137.744 907.588 135.296 905.176 135.188 901.864H150.308V901.072ZM141.2 894.196C144.764 894.196 147.032 896.788 147.212 899.632H135.188C135.296 896.644 137.78 894.196 141.2 894.196ZM184.541 900.856C184.541 895.672 180.689 891.424 175.469 891.424C172.049 891.424 169.097 893.368 167.981 896.068V883H164.885V910H167.837L167.981 905.68C169.097 908.416 172.049 910.36 175.469 910.36C180.689 910.36 184.541 906.112 184.541 900.856ZM181.445 900.856C181.445 904.456 178.565 907.444 174.821 907.444C171.113 907.444 168.305 904.456 168.305 900.856C168.305 897.328 171.113 894.34 174.821 894.34C178.565 894.34 181.445 897.328 181.445 900.856ZM195.403 891.424C193.423 891.424 192.163 892.828 191.227 894.772V894.7L191.047 891.784H188.131V910H191.227V900.928C191.227 897.508 192.415 894.34 195.223 894.34C196.087 894.34 196.807 894.664 197.167 894.916L197.707 892.216C197.311 891.856 196.519 891.424 195.403 891.424ZM208.572 910.36C214.116 910.36 218.22 906.112 218.22 900.856C218.22 895.672 214.116 891.424 208.572 891.424C203.064 891.424 198.888 895.672 198.888 900.856C198.888 906.112 203.064 910.36 208.572 910.36ZM208.572 907.444C204.864 907.444 201.984 904.456 201.984 900.856C201.984 897.328 204.864 894.34 208.572 894.34C212.316 894.34 215.124 897.328 215.124 900.856C215.124 904.456 212.316 907.444 208.572 907.444ZM245.585 891.784L240.653 906.22L235.721 891.784H232.445L227.549 906.22L222.617 891.784H219.341L225.929 910H229.133L234.101 896.32L239.033 910H242.273L248.861 891.784H245.585ZM250.674 904.96C251.106 908.452 254.094 910.36 258.27 910.36C262.266 910.36 265.182 908.452 265.182 905.428C265.182 902.692 263.238 901.072 259.818 899.812C256.182 898.408 254.346 897.94 254.346 896.284C254.346 894.808 256.038 894.016 257.514 894.016C259.17 894.016 260.754 894.916 260.97 896.572H264.03C263.85 893.62 261.294 891.424 257.442 891.424C254.31 891.424 251.286 893.224 251.286 896.284C251.286 899.164 253.734 900.532 256.398 901.432C260.214 902.872 262.086 903.304 262.086 905.356C262.086 906.796 260.538 907.732 258.342 907.732C255.786 907.732 254.238 906.616 253.77 904.96H250.674ZM286.222 901.072C286.222 895.924 282.694 891.424 277.114 891.424C271.714 891.424 268.006 895.672 268.006 900.784C268.006 906.292 271.894 910.36 277.402 910.36C282.19 910.36 284.998 907.192 285.718 904.708L282.982 904.348C282.19 905.968 280.39 907.588 277.402 907.588C273.658 907.588 271.21 905.176 271.102 901.864H286.222V901.072ZM277.114 894.196C280.678 894.196 282.946 896.788 283.126 899.632H271.102C271.21 896.644 273.694 894.196 277.114 894.196ZM297.075 891.424C295.095 891.424 293.835 892.828 292.899 894.772V894.7L292.719 891.784H289.803V910H292.899V900.928C292.899 897.508 294.087 894.34 296.895 894.34C297.759 894.34 298.479 894.664 298.839 894.916L299.379 892.216C298.983 891.856 298.191 891.424 297.075 891.424ZM301.817 910.36C302.825 910.36 303.581 909.568 303.581 908.596C303.581 907.588 302.825 906.832 301.817 906.832C300.845 906.832 300.053 907.588 300.053 908.596C300.053 909.568 300.845 910.36 301.817 910.36ZM332.656 884.44H317.032V887.356H323.296V910H326.392V887.356H332.656V884.44ZM346.257 891.424C343.125 891.424 340.785 892.972 339.129 894.952V883H336.033V910H339.129V900.712C339.129 898.12 340.857 894.34 345.177 894.34C347.985 894.34 349.929 896.068 349.929 900.64V910H353.025V899.344C353.025 894.196 350.469 891.424 346.257 891.424ZM374.358 901.072C374.358 895.924 370.83 891.424 365.25 891.424C359.85 891.424 356.142 895.672 356.142 900.784C356.142 906.292 360.03 910.36 365.538 910.36C370.326 910.36 373.134 907.192 373.854 904.708L371.118 904.348C370.326 905.968 368.526 907.588 365.538 907.588C361.794 907.588 359.346 905.176 359.238 901.864H374.358V901.072ZM365.25 894.196C368.814 894.196 371.082 896.788 371.262 899.632H359.238C359.346 896.644 361.83 894.196 365.25 894.196ZM379.223 888.76C380.231 888.76 380.987 887.968 380.987 886.996C380.987 885.988 380.231 885.232 379.223 885.232C378.251 885.232 377.459 885.988 377.459 886.996C377.459 887.968 378.251 888.76 379.223 888.76ZM380.771 891.784H377.675V910H380.771V891.784ZM392.805 891.424C390.825 891.424 389.565 892.828 388.629 894.772V894.7L388.449 891.784H385.533V910H388.629V900.928C388.629 897.508 389.817 894.34 392.625 894.34C393.489 894.34 394.209 894.664 394.569 894.916L395.109 892.216C394.713 891.856 393.921 891.424 392.805 891.424ZM409.316 888.76C410.324 888.76 411.08 887.968 411.08 886.996C411.08 885.988 410.324 885.232 409.316 885.232C408.344 885.232 407.552 885.988 407.552 886.996C407.552 887.968 408.344 888.76 409.316 888.76ZM410.864 891.784H407.768V910H410.864V891.784ZM425.851 891.424C422.719 891.424 420.343 893.008 418.687 894.952L418.543 891.784H415.627V910H418.723V900.712C418.723 898.12 420.451 894.34 424.771 894.34C427.579 894.34 429.523 896.068 429.523 900.64V910H432.619V899.344C432.619 894.196 430.063 891.424 425.851 891.424ZM445.248 891.784H441.468V886.384H438.408V891.784H435.816V894.7H438.408V910H441.468V894.7H445.248V891.784ZM465.378 901.072C465.378 895.924 461.85 891.424 456.27 891.424C450.87 891.424 447.162 895.672 447.162 900.784C447.162 906.292 451.05 910.36 456.558 910.36C461.346 910.36 464.154 907.192 464.874 904.708L462.138 904.348C461.346 905.968 459.546 907.588 456.558 907.588C452.814 907.588 450.366 905.176 450.258 901.864H465.378V901.072ZM456.27 894.196C459.834 894.196 462.102 896.788 462.282 899.632H450.258C450.366 896.644 452.85 894.196 456.27 894.196ZM479.183 891.424C476.051 891.424 473.675 893.008 472.019 894.952L471.875 891.784H468.959V910H472.055V900.712C472.055 898.12 473.783 894.34 478.103 894.34C480.911 894.34 482.855 896.068 482.855 900.64V910H485.951V899.344C485.951 894.196 483.395 891.424 479.183 891.424ZM498.58 891.784H494.8V886.384H491.74V891.784H489.148V894.7H491.74V910H494.8V894.7H498.58V891.784ZM513.519 888.76C514.527 888.76 515.283 887.968 515.283 886.996C515.283 885.988 514.527 885.232 513.519 885.232C512.547 885.232 511.755 885.988 511.755 886.996C511.755 887.968 512.547 888.76 513.519 888.76ZM515.067 891.784H511.971V910H515.067V891.784ZM518.599 904.96C519.031 908.452 522.019 910.36 526.195 910.36C530.191 910.36 533.107 908.452 533.107 905.428C533.107 902.692 531.163 901.072 527.743 899.812C524.107 898.408 522.271 897.94 522.271 896.284C522.271 894.808 523.963 894.016 525.439 894.016C527.095 894.016 528.679 894.916 528.895 896.572H531.955C531.775 893.62 529.219 891.424 525.367 891.424C522.235 891.424 519.211 893.224 519.211 896.284C519.211 899.164 521.659 900.532 524.323 901.432C528.139 902.872 530.011 903.304 530.011 905.356C530.011 906.796 528.463 907.732 526.267 907.732C523.711 907.732 522.163 906.616 521.695 904.96H518.599ZM556.377 891.784H552.597V886.384H549.537V891.784H546.945V894.7H549.537V910H552.597V894.7H556.377V891.784ZM567.975 910.36C573.519 910.36 577.623 906.112 577.623 900.856C577.623 895.672 573.519 891.424 567.975 891.424C562.467 891.424 558.291 895.672 558.291 900.856C558.291 906.112 562.467 910.36 567.975 910.36ZM567.975 907.444C564.267 907.444 561.387 904.456 561.387 900.856C561.387 897.328 564.267 894.34 567.975 894.34C571.719 894.34 574.527 897.328 574.527 900.856C574.527 904.456 571.719 907.444 567.975 907.444ZM602.757 891.424C599.625 891.424 597.285 892.972 595.629 894.952V883H592.533V910H595.629V900.712C595.629 898.12 597.357 894.34 601.677 894.34C604.485 894.34 606.429 896.068 606.429 900.64V910H609.525V899.344C609.525 894.196 606.969 891.424 602.757 891.424ZM630.858 901.072C630.858 895.924 627.33 891.424 621.75 891.424C616.35 891.424 612.642 895.672 612.642 900.784C612.642 906.292 616.53 910.36 622.038 910.36C626.826 910.36 629.634 907.192 630.354 904.708L627.618 904.348C626.826 905.968 625.026 907.588 622.038 907.588C618.294 907.588 615.846 905.176 615.738 901.864H630.858V901.072ZM621.75 894.196C625.314 894.196 627.582 896.788 627.762 899.632H615.738C615.846 896.644 618.33 894.196 621.75 894.196ZM637.149 883H634.053V910H637.149V883ZM641.646 918.28H644.742V905.68C645.858 908.452 648.81 910.36 652.23 910.36C657.45 910.36 661.302 906.112 661.302 900.856C661.302 895.672 657.45 891.424 652.23 891.424C648.81 891.424 645.858 893.332 644.742 896.068L644.562 891.784H641.646V918.28ZM645.03 900.856C645.03 897.328 647.874 894.34 651.582 894.34C655.326 894.34 658.206 897.328 658.206 900.856C658.206 904.456 655.326 907.444 651.582 907.444C647.874 907.444 645.03 904.456 645.03 900.856ZM675.845 891.784L683.765 909.964L680.165 918.28H683.441L694.925 891.784H691.613L685.421 906.148L679.157 891.784H675.845ZM705.858 910.36C711.402 910.36 715.506 906.112 715.506 900.856C715.506 895.672 711.402 891.424 705.858 891.424C700.35 891.424 696.174 895.672 696.174 900.856C696.174 906.112 700.35 910.36 705.858 910.36ZM705.858 907.444C702.15 907.444 699.27 904.456 699.27 900.856C699.27 897.328 702.15 894.34 705.858 894.34C709.602 894.34 712.41 897.328 712.41 900.856C712.41 904.456 709.602 907.444 705.858 907.444ZM732.636 891.784V901.072H732.6C732.6 903.664 730.872 907.444 726.552 907.444C723.744 907.444 721.8 905.716 721.8 901.144V891.784H718.704V902.44C718.704 907.588 721.26 910.36 725.472 910.36C728.64 910.36 730.98 908.776 732.672 906.796L732.78 910H735.696V891.784H732.636ZM750.595 900.856C750.595 906.112 754.447 910.36 759.667 910.36C763.231 910.36 766.003 908.272 767.155 905.536L767.299 910H770.251V891.784H767.299L767.155 896.248C766.003 893.512 763.231 891.424 759.667 891.424C754.447 891.424 750.595 895.672 750.595 900.856ZM753.691 900.856C753.691 897.328 756.571 894.34 760.279 894.34C764.023 894.34 766.831 897.328 766.831 900.856C766.831 904.456 764.023 907.444 760.279 907.444C756.571 907.444 753.691 904.456 753.691 900.856ZM788.567 896.608V893.62C787.163 892.252 785.219 891.424 782.879 891.424C777.551 891.424 773.447 895.744 773.447 900.856C773.447 906.076 777.551 910.36 782.879 910.36C785.219 910.36 787.163 909.532 788.567 908.164V905.14C787.055 906.652 785.399 907.444 783.347 907.444C779.855 907.444 776.687 904.672 776.687 900.856C776.687 897.112 779.855 894.34 783.347 894.34C785.399 894.34 787.055 895.132 788.567 896.608ZM806.708 896.608V893.62C805.304 892.252 803.36 891.424 801.02 891.424C795.692 891.424 791.588 895.744 791.588 900.856C791.588 906.076 795.692 910.36 801.02 910.36C803.36 910.36 805.304 909.532 806.708 908.164V905.14C805.196 906.652 803.54 907.444 801.488 907.444C797.996 907.444 794.828 904.672 794.828 900.856C794.828 897.112 797.996 894.34 801.488 894.34C803.54 894.34 805.196 895.132 806.708 896.608ZM819.412 910.36C824.956 910.36 829.06 906.112 829.06 900.856C829.06 895.672 824.956 891.424 819.412 891.424C813.904 891.424 809.728 895.672 809.728 900.856C809.728 906.112 813.904 910.36 819.412 910.36ZM819.412 907.444C815.704 907.444 812.824 904.456 812.824 900.856C812.824 897.328 815.704 894.34 819.412 894.34C823.156 894.34 825.964 897.328 825.964 900.856C825.964 904.456 823.156 907.444 819.412 907.444ZM854.61 891.424C851.586 891.424 849.318 893.26 847.734 895.528C846.906 893.008 844.998 891.424 842.154 891.424C839.418 891.424 837.258 892.972 835.71 894.952L835.566 891.784H832.65V910H835.746V901.324C835.962 897.508 837.942 894.34 841.074 894.34C843.666 894.34 845.106 896.464 845.106 899.596V910H848.202V901.324C848.418 897.508 850.398 894.34 853.53 894.34C856.158 894.34 857.562 896.464 857.562 899.596V910H860.658V898.66C860.658 894.412 858.498 891.424 854.61 891.424ZM865.17 918.28H868.266V905.68C869.382 908.452 872.334 910.36 875.754 910.36C880.974 910.36 884.826 906.112 884.826 900.856C884.826 895.672 880.974 891.424 875.754 891.424C872.334 891.424 869.382 893.332 868.266 896.068L868.086 891.784H865.17V918.28ZM868.554 900.856C868.554 897.328 871.398 894.34 875.106 894.34C878.85 894.34 881.73 897.328 881.73 900.856C881.73 904.456 878.85 907.444 875.106 907.444C871.398 907.444 868.554 904.456 868.554 900.856ZM891.328 883H888.232V910H891.328V883ZM897.074 888.76C898.082 888.76 898.838 887.968 898.838 886.996C898.838 885.988 898.082 885.232 897.074 885.232C896.102 885.232 895.31 885.988 895.31 886.996C895.31 887.968 896.102 888.76 897.074 888.76ZM898.622 891.784H895.526V910H898.622V891.784ZM902.154 904.96C902.586 908.452 905.574 910.36 909.75 910.36C913.746 910.36 916.662 908.452 916.662 905.428C916.662 902.692 914.718 901.072 911.298 899.812C907.662 898.408 905.826 897.94 905.826 896.284C905.826 894.808 907.518 894.016 908.994 894.016C910.65 894.016 912.234 894.916 912.45 896.572H915.51C915.33 893.62 912.774 891.424 908.922 891.424C905.79 891.424 902.766 893.224 902.766 896.284C902.766 899.164 905.214 900.532 907.878 901.432C911.694 902.872 913.566 903.304 913.566 905.356C913.566 906.796 912.018 907.732 909.822 907.732C907.266 907.732 905.718 906.616 905.25 904.96H902.154ZM929.921 891.424C926.789 891.424 924.449 892.972 922.793 894.952V883H919.697V910H922.793V900.712C922.793 898.12 924.521 894.34 928.841 894.34C931.649 894.34 933.593 896.068 933.593 900.64V910H936.689V899.344C936.689 894.196 934.133 891.424 929.921 891.424ZM108.592 934.784H104.812V929.384H101.752V934.784H99.16V937.7H101.752V953H104.812V937.7H108.592V934.784ZM110.506 943.856C110.506 949.112 114.358 953.36 119.578 953.36C123.142 953.36 125.914 951.272 127.066 948.536L127.21 953H130.162V934.784H127.21L127.066 939.248C125.914 936.512 123.142 934.424 119.578 934.424C114.358 934.424 110.506 938.672 110.506 943.856ZM113.602 943.856C113.602 940.328 116.482 937.34 120.19 937.34C123.934 937.34 126.742 940.328 126.742 943.856C126.742 947.456 123.934 950.444 120.19 950.444C116.482 950.444 113.602 947.456 113.602 943.856ZM134.131 947.96C134.563 951.452 137.551 953.36 141.727 953.36C145.723 953.36 148.639 951.452 148.639 948.428C148.639 945.692 146.695 944.072 143.275 942.812C139.639 941.408 137.803 940.94 137.803 939.284C137.803 937.808 139.495 937.016 140.971 937.016C142.627 937.016 144.211 937.916 144.427 939.572H147.487C147.307 936.62 144.751 934.424 140.899 934.424C137.767 934.424 134.743 936.224 134.743 939.284C134.743 942.164 137.191 943.532 139.855 944.432C143.671 945.872 145.543 946.304 145.543 948.356C145.543 949.796 143.995 950.732 141.799 950.732C139.243 950.732 137.695 949.616 137.227 947.96H134.131ZM168.482 934.784H164.162L154.91 943.532V926H151.814V953H154.91V947.636L157.934 944.792L164.63 953H168.482L160.13 942.704L168.482 934.784ZM169.744 947.96C170.176 951.452 173.164 953.36 177.34 953.36C181.336 953.36 184.252 951.452 184.252 948.428C184.252 945.692 182.308 944.072 178.888 942.812C175.252 941.408 173.416 940.94 173.416 939.284C173.416 937.808 175.108 937.016 176.584 937.016C178.24 937.016 179.824 937.916 180.04 939.572H183.1C182.92 936.62 180.364 934.424 176.512 934.424C173.38 934.424 170.356 936.224 170.356 939.284C170.356 942.164 172.804 943.532 175.468 944.432C179.284 945.872 181.156 946.304 181.156 948.356C181.156 949.796 179.608 950.732 177.412 950.732C174.856 950.732 173.308 949.616 172.84 947.96H169.744ZM218.826 961.28V934.784H215.91L215.73 939.068C214.578 936.332 211.662 934.424 208.242 934.424C203.022 934.424 199.17 938.672 199.17 943.856C199.17 949.112 203.022 953.36 208.242 953.36C211.662 953.36 214.578 951.452 215.73 948.68V961.28H218.826ZM215.406 943.856C215.406 947.456 212.598 950.444 208.854 950.444C205.146 950.444 202.266 947.456 202.266 943.856C202.266 940.328 205.146 937.34 208.854 937.34C212.598 937.34 215.406 940.328 215.406 943.856ZM237.038 934.784V944.072H237.002C237.002 946.664 235.274 950.444 230.954 950.444C228.146 950.444 226.202 948.716 226.202 944.144V934.784H223.106V945.44C223.106 950.588 225.662 953.36 229.874 953.36C233.042 953.36 235.382 951.776 237.074 949.796L237.182 953H240.098V934.784H237.038ZM245.453 931.76C246.461 931.76 247.217 930.968 247.217 929.996C247.217 928.988 246.461 928.232 245.453 928.232C244.481 928.232 243.689 928.988 243.689 929.996C243.689 930.968 244.481 931.76 245.453 931.76ZM247.001 934.784H243.905V953H247.001V934.784ZM266.215 939.608V936.62C264.811 935.252 262.867 934.424 260.527 934.424C255.199 934.424 251.095 938.744 251.095 943.856C251.095 949.076 255.199 953.36 260.527 953.36C262.867 953.36 264.811 952.532 266.215 951.164V948.14C264.703 949.652 263.047 950.444 260.995 950.444C257.503 950.444 254.335 947.672 254.335 943.856C254.335 940.112 257.503 937.34 260.995 937.34C263.047 937.34 264.703 938.132 266.215 939.608ZM287.17 934.784H282.85L273.598 943.532V926H270.502V953H273.598V947.636L276.622 944.792L283.318 953H287.17L278.818 942.704L287.17 934.784ZM306.507 944.072C306.507 938.924 302.979 934.424 297.399 934.424C291.999 934.424 288.291 938.672 288.291 943.784C288.291 949.292 292.179 953.36 297.687 953.36C302.475 953.36 305.283 950.192 306.003 947.708L303.267 947.348C302.475 948.968 300.675 950.588 297.687 950.588C293.943 950.588 291.495 948.176 291.387 944.864H306.507V944.072ZM297.399 937.196C300.963 937.196 303.231 939.788 303.411 942.632H291.387C291.495 939.644 293.979 937.196 297.399 937.196ZM317.36 934.424C315.38 934.424 314.12 935.828 313.184 937.772V937.7L313.004 934.784H310.088V953H313.184V943.928C313.184 940.508 314.372 937.34 317.18 937.34C318.044 937.34 318.764 937.664 319.124 937.916L319.664 935.216C319.268 934.856 318.476 934.424 317.36 934.424ZM352.447 943.856C352.447 938.672 348.595 934.424 343.375 934.424C339.955 934.424 337.003 936.368 335.887 939.068V926H332.791V953H335.743L335.887 948.68C337.003 951.416 339.955 953.36 343.375 953.36C348.595 953.36 352.447 949.112 352.447 943.856ZM349.351 943.856C349.351 947.456 346.471 950.444 342.727 950.444C339.019 950.444 336.211 947.456 336.211 943.856C336.211 940.328 339.019 937.34 342.727 937.34C346.471 937.34 349.351 940.328 349.351 943.856ZM353.919 934.784L361.839 952.964L358.239 961.28H361.515L372.999 934.784H369.687L363.495 949.148L357.231 934.784H353.919ZM636.009 950.948L634.389 957.824H636.873L639.321 950.948H636.009ZM901.263 953L897.555 949.256C899.283 946.88 900.075 943.676 900.075 940.148H895.215V941.804H896.979C896.979 943.784 896.402 945.656 895.431 947.096L887.007 938.564C885.639 937.232 884.379 936.008 884.379 934.028C884.379 931.832 886.107 929.996 888.879 929.996C891.651 929.996 893.307 931.832 893.307 934.352H896.367C896.367 930.536 893.667 927.08 888.987 927.08C883.911 927.08 881.319 930.392 881.319 933.74C881.319 935.792 882.003 937.268 883.659 939.032C881.751 940.04 879.663 942.308 879.663 945.584C879.663 949.796 882.939 953.36 888.699 953.36C891.615 953.36 893.955 952.532 895.719 951.164L897.555 953H901.263ZM889.023 950.444C885.135 950.444 882.759 947.888 882.759 944.936C882.759 942.884 883.983 941.372 885.387 940.76L893.595 949.004C892.335 949.904 890.823 950.444 889.023 950.444ZM483.328 996.36C484.336 996.36 485.092 995.568 485.092 994.596C485.092 993.588 484.336 992.832 483.328 992.832C482.356 992.832 481.564 993.588 481.564 994.596C481.564 995.568 482.356 996.36 483.328 996.36Z" fill="black"/>
<path d="M395.889 934.424C396.369 934.424 396.801 934.508 397.185 934.676C397.569 934.82 397.869 935 398.085 935.216L397.437 939.068C397.221 938.948 396.945 938.84 396.609 938.744C396.297 938.648 395.973 938.6 395.637 938.6C394.461 938.6 393.549 939.164 392.901 940.292C392.277 941.42 391.965 942.956 391.965 944.9V953H387.537V934.784H391.713L391.965 937.376V937.412C392.469 936.452 393.033 935.72 393.657 935.216C394.305 934.688 395.049 934.424 395.889 934.424ZM417.108 945.26H403.32C403.392 946.46 403.86 947.456 404.724 948.248C405.588 949.04 406.788 949.436 408.324 949.436C409.404 949.436 410.316 949.208 411.06 948.752C411.828 948.272 412.416 947.672 412.824 946.952L416.712 947.384C416.52 948.296 416.064 949.208 415.344 950.12C414.624 951.032 413.664 951.8 412.464 952.424C411.264 953.048 409.872 953.36 408.288 953.36C406.464 953.36 404.832 952.94 403.392 952.1C401.976 951.236 400.872 950.084 400.08 948.644C399.288 947.18 398.892 945.56 398.892 943.784C398.892 942.08 399.264 940.52 400.008 939.104C400.776 937.664 401.856 936.524 403.248 935.684C404.64 934.844 406.224 934.424 408 934.424C409.824 934.424 411.42 934.868 412.788 935.756C414.18 936.62 415.248 937.796 415.992 939.284C416.736 940.748 417.108 942.356 417.108 944.108V945.26ZM408 938.348C406.68 938.348 405.576 938.72 404.688 939.464C403.824 940.208 403.368 941.12 403.32 942.2H412.68C412.632 941.144 412.176 940.244 411.312 939.5C410.448 938.732 409.344 938.348 408 938.348ZM419.599 943.892C419.599 942.164 419.971 940.58 420.715 939.14C421.459 937.676 422.491 936.524 423.811 935.684C425.155 934.844 426.679 934.424 428.383 934.424C429.943 934.424 431.335 934.796 432.559 935.54C433.807 936.284 434.671 937.244 435.151 938.42V926H439.615V953H435.403L435.151 949.364C434.671 950.54 433.807 951.5 432.559 952.244C431.335 952.988 429.943 953.36 428.383 953.36C426.679 953.36 425.155 952.94 423.811 952.1C422.491 951.26 421.459 950.12 420.715 948.68C419.971 947.216 419.599 945.62 419.599 943.892ZM424.027 943.892C424.027 944.852 424.255 945.74 424.711 946.556C425.167 947.348 425.803 947.984 426.619 948.464C427.459 948.944 428.383 949.184 429.391 949.184C430.399 949.184 431.299 948.944 432.091 948.464C432.907 947.984 433.543 947.348 433.999 946.556C434.455 945.74 434.683 944.852 434.683 943.892C434.683 942.932 434.455 942.056 433.999 941.264C433.543 940.448 432.907 939.8 432.091 939.32C431.299 938.84 430.399 938.6 429.391 938.6C428.383 938.6 427.459 938.84 426.619 939.32C425.803 939.8 425.167 940.448 424.711 941.264C424.255 942.056 424.027 942.932 424.027 943.892ZM461.641 934.784V953H457.465L457.249 950.3C455.209 952.34 452.929 953.36 450.409 953.36C448.249 953.36 446.593 952.688 445.441 951.344C444.313 949.976 443.749 948.044 443.749 945.548V934.784H448.177V943.496C448.177 945.536 448.513 947 449.185 947.888C449.881 948.752 450.877 949.184 452.173 949.184C453.709 949.184 454.933 948.656 455.845 947.6C456.757 946.544 457.213 945.224 457.213 943.64V934.784H461.641ZM478.972 940.508C477.628 939.236 476.08 938.6 474.328 938.6C473.416 938.6 472.54 938.828 471.7 939.284C470.884 939.716 470.212 940.34 469.684 941.156C469.18 941.972 468.928 942.884 468.928 943.892C468.928 944.9 469.18 945.812 469.684 946.628C470.212 947.444 470.884 948.08 471.7 948.536C472.54 948.968 473.416 949.184 474.328 949.184C476.056 949.184 477.604 948.536 478.972 947.24V951.488C477.556 952.736 475.768 953.36 473.608 953.36C471.856 953.36 470.26 952.94 468.82 952.1C467.404 951.236 466.288 950.084 465.472 948.644C464.656 947.18 464.248 945.596 464.248 943.892C464.248 942.188 464.656 940.616 465.472 939.176C466.288 937.736 467.404 936.584 468.82 935.72C470.26 934.856 471.856 934.424 473.608 934.424C475.768 934.424 477.556 935.048 478.972 936.296V940.508ZM486.409 953H481.981V934.784H486.409V953ZM484.177 932.264C483.553 932.264 483.013 932.048 482.557 931.616C482.125 931.16 481.909 930.62 481.909 929.996C481.909 929.372 482.125 928.844 482.557 928.412C483.013 927.956 483.553 927.728 484.177 927.728C484.801 927.728 485.329 927.956 485.761 928.412C486.217 928.844 486.445 929.372 486.445 929.996C486.445 930.62 486.217 931.16 485.761 931.616C485.329 932.048 484.801 932.264 484.177 932.264ZM501.213 934.424C503.397 934.424 505.053 935.108 506.181 936.476C507.333 937.82 507.909 939.74 507.909 942.236V953H503.481V944.288C503.481 942.248 503.133 940.796 502.437 939.932C501.765 939.044 500.781 938.6 499.485 938.6C497.949 938.6 496.725 939.128 495.813 940.184C494.901 941.24 494.445 942.56 494.445 944.144V953H490.017V934.784H494.193L494.409 937.484C496.449 935.444 498.717 934.424 501.213 934.424ZM527.88 938.708L526.188 938.42C526.596 939.308 526.8 940.256 526.8 941.264C526.8 942.584 526.464 943.76 525.792 944.792C525.12 945.824 524.196 946.64 523.02 947.24C521.844 947.816 520.536 948.104 519.096 948.104C518.136 948.104 517.284 947.984 516.54 947.744C516.204 947.96 516.036 948.236 516.036 948.572C516.036 948.98 516.288 949.256 516.792 949.4C517.32 949.544 518.088 949.616 519.096 949.616C521.88 949.616 524.016 950.18 525.504 951.308C526.992 952.412 527.736 953.852 527.736 955.628C527.736 956.876 527.352 957.956 526.584 958.868C525.84 959.78 524.844 960.464 523.596 960.92C522.348 961.4 521.004 961.64 519.564 961.64C518.124 961.64 516.78 961.4 515.532 960.92C514.284 960.464 513.276 959.78 512.508 958.868C511.764 957.956 511.392 956.876 511.392 955.628C511.392 953.996 512.076 952.736 513.444 951.848C512.388 951.128 511.86 950.3 511.86 949.364C511.86 948.212 512.592 947.264 514.056 946.52C513.216 945.896 512.556 945.14 512.076 944.252C511.62 943.34 511.392 942.344 511.392 941.264C511.392 939.944 511.728 938.768 512.4 937.736C513.072 936.68 513.996 935.864 515.172 935.288C516.348 934.712 517.656 934.424 519.096 934.424C520.488 934.424 521.748 934.688 522.876 935.216L527.88 934.784V938.708ZM519.096 944.396C520.056 944.396 520.872 944.108 521.544 943.532C522.24 942.932 522.588 942.176 522.588 941.264C522.588 940.328 522.24 939.572 521.544 938.996C520.872 938.396 520.056 938.096 519.096 938.096C518.136 938.096 517.308 938.396 516.612 938.996C515.916 939.572 515.568 940.328 515.568 941.264C515.568 942.176 515.916 942.932 516.612 943.532C517.308 944.108 518.136 944.396 519.096 944.396ZM523.56 955.7C523.56 954.836 523.068 954.212 522.084 953.828C521.124 953.468 519.696 953.288 517.8 953.288C517.608 953.288 517.452 953.276 517.332 953.252C516.852 953.492 516.432 953.816 516.072 954.224C515.736 954.632 515.568 955.064 515.568 955.52C515.568 956.288 515.928 956.888 516.648 957.32C517.368 957.752 518.34 957.968 519.564 957.968C520.812 957.968 521.784 957.776 522.48 957.392C523.2 957.008 523.56 956.444 523.56 955.7ZM546.547 947.492C546.667 948.14 547.063 948.668 547.735 949.076C548.431 949.46 549.307 949.652 550.363 949.652C551.179 949.652 551.863 949.508 552.415 949.22C552.967 948.932 553.243 948.524 553.243 947.996C553.243 947.564 553.111 947.228 552.847 946.988C552.583 946.724 552.199 946.496 551.695 946.304C551.191 946.088 550.363 945.8 549.211 945.44C548.491 945.2 548.131 945.08 548.131 945.08C546.427 944.552 545.095 943.868 544.135 943.028C543.175 942.188 542.695 941.072 542.695 939.68C542.695 938.624 543.007 937.7 543.631 936.908C544.255 936.116 545.083 935.504 546.115 935.072C547.147 934.64 548.251 934.424 549.427 934.424C550.891 934.424 552.163 934.676 553.243 935.18C554.347 935.66 555.187 936.332 555.763 937.196C556.363 938.036 556.687 938.972 556.735 940.004H552.307C552.259 939.38 551.959 938.912 551.407 938.6C550.855 938.264 550.243 938.096 549.571 938.096C548.947 938.096 548.383 938.24 547.879 938.528C547.375 938.816 547.123 939.2 547.123 939.68C547.123 940.016 547.231 940.292 547.447 940.508C547.687 940.724 548.035 940.928 548.491 941.12C548.947 941.288 549.715 941.552 550.795 941.912L552.271 942.416C554.191 943.064 555.571 943.868 556.411 944.828C557.275 945.764 557.707 946.856 557.707 948.104C557.707 949.736 556.999 951.02 555.583 951.956C554.191 952.892 552.415 953.36 550.255 953.36C547.879 953.36 545.959 952.868 544.495 951.884C543.031 950.876 542.239 949.412 542.119 947.492H546.547ZM570.765 938.96H566.733V953H562.305V938.96H559.461V934.784H562.305V929.384H566.733V934.784H570.765V938.96ZM590.394 945.26H576.606C576.678 946.46 577.146 947.456 578.01 948.248C578.874 949.04 580.074 949.436 581.61 949.436C582.69 949.436 583.602 949.208 584.346 948.752C585.114 948.272 585.702 947.672 586.11 946.952L589.998 947.384C589.806 948.296 589.35 949.208 588.63 950.12C587.91 951.032 586.95 951.8 585.75 952.424C584.55 953.048 583.158 953.36 581.574 953.36C579.75 953.36 578.118 952.94 576.678 952.1C575.262 951.236 574.158 950.084 573.366 948.644C572.574 947.18 572.178 945.56 572.178 943.784C572.178 942.08 572.55 940.52 573.294 939.104C574.062 937.664 575.142 936.524 576.534 935.684C577.926 934.844 579.51 934.424 581.286 934.424C583.11 934.424 584.706 934.868 586.074 935.756C587.466 936.62 588.534 937.796 589.277 939.284C590.022 940.748 590.394 942.356 590.394 944.108V945.26ZM581.286 938.348C579.966 938.348 578.862 938.72 577.974 939.464C577.11 940.208 576.654 941.12 576.606 942.2H585.966C585.918 941.144 585.462 940.244 584.598 939.5C583.734 938.732 582.63 938.348 581.286 938.348ZM593.342 934.784H597.518L597.77 938.384C598.274 937.208 599.138 936.26 600.362 935.54C601.61 934.796 603.002 934.424 604.538 934.424C606.242 934.424 607.766 934.844 609.11 935.684C610.454 936.524 611.498 937.676 612.242 939.14C612.986 940.58 613.358 942.164 613.358 943.892C613.358 945.62 612.986 947.216 612.242 948.68C611.498 950.12 610.454 951.26 609.11 952.1C607.766 952.94 606.242 953.36 604.538 953.36C602.978 953.36 601.574 952.988 600.326 952.244C599.102 951.5 598.25 950.54 597.77 949.364V961.28H593.342V934.784ZM598.274 943.892C598.274 944.852 598.49 945.74 598.922 946.556C599.378 947.348 600.014 947.984 600.83 948.464C601.646 948.944 602.558 949.184 603.566 949.184C604.574 949.184 605.486 948.944 606.302 948.464C607.118 947.984 607.754 947.348 608.21 946.556C608.666 945.74 608.894 944.852 608.894 943.892C608.894 942.932 608.666 942.056 608.21 941.264C607.754 940.448 607.118 939.8 606.302 939.32C605.486 938.84 604.574 938.6 603.566 938.6C602.558 938.6 601.646 938.84 600.83 939.32C600.014 939.8 599.378 940.448 598.922 941.264C598.49 942.056 598.274 942.932 598.274 943.892ZM619.637 947.492C619.757 948.14 620.153 948.668 620.825 949.076C621.521 949.46 622.397 949.652 623.453 949.652C624.269 949.652 624.953 949.508 625.505 949.22C626.057 948.932 626.333 948.524 626.333 947.996C626.333 947.564 626.201 947.228 625.937 946.988C625.673 946.724 625.289 946.496 624.785 946.304C624.281 946.088 623.453 945.8 622.301 945.44C621.581 945.2 621.221 945.08 621.221 945.08C619.517 944.552 618.185 943.868 617.225 943.028C616.265 942.188 615.785 941.072 615.785 939.68C615.785 938.624 616.097 937.7 616.721 936.908C617.345 936.116 618.173 935.504 619.205 935.072C620.237 934.64 621.341 934.424 622.517 934.424C623.981 934.424 625.253 934.676 626.333 935.18C627.437 935.66 628.277 936.332 628.853 937.196C629.453 938.036 629.777 938.972 629.825 940.004H625.397C625.349 939.38 625.049 938.912 624.497 938.6C623.945 938.264 623.333 938.096 622.661 938.096C622.037 938.096 621.473 938.24 620.969 938.528C620.465 938.816 620.213 939.2 620.213 939.68C620.213 940.016 620.321 940.292 620.537 940.508C620.777 940.724 621.125 940.928 621.581 941.12C622.037 941.288 622.805 941.552 623.885 941.912L625.361 942.416C627.281 943.064 628.661 943.868 629.501 944.828C630.365 945.764 630.797 946.856 630.797 948.104C630.797 949.736 630.089 951.02 628.673 951.956C627.281 952.892 625.505 953.36 623.345 953.36C620.969 953.36 619.049 952.868 617.585 951.884C616.121 950.876 615.329 949.412 615.209 947.492H619.637ZM663.718 938.96H659.686V953H655.258V938.96H652.414V934.784H655.258V929.384H659.686V934.784H663.718V938.96ZM670.803 953H666.375V934.784H670.803V953ZM668.571 932.264C667.947 932.264 667.407 932.048 666.951 931.616C666.519 931.16 666.303 930.62 666.303 929.996C666.303 929.372 666.519 928.844 666.951 928.412C667.407 927.956 667.947 927.728 668.571 927.728C669.195 927.728 669.723 927.956 670.155 928.412C670.611 928.844 670.839 929.372 670.839 929.996C670.839 930.62 670.611 931.16 670.155 931.616C669.723 932.048 669.195 932.264 668.571 932.264ZM696.912 934.424C698.808 934.424 700.272 935.072 701.304 936.368C702.336 937.664 702.852 939.392 702.852 941.552V953H698.424V943.064C698.424 941.696 698.136 940.616 697.56 939.824C697.008 939.008 696.216 938.6 695.184 938.6C693.912 938.6 692.88 939.212 692.088 940.436C691.32 941.66 690.912 943.232 690.864 945.152V953H686.436V943.064C686.436 941.696 686.148 940.616 685.572 939.824C685.02 939.008 684.228 938.6 683.196 938.6C681.924 938.6 680.892 939.212 680.1 940.436C679.332 941.66 678.912 943.232 678.84 945.152V953H674.412V934.784H678.588L678.804 937.34C680.628 935.396 682.656 934.424 684.888 934.424C686.184 934.424 687.288 934.736 688.2 935.36C689.112 935.984 689.784 936.86 690.216 937.988C692.208 935.612 694.44 934.424 696.912 934.424ZM723.917 945.26H710.129C710.201 946.46 710.669 947.456 711.533 948.248C712.397 949.04 713.597 949.436 715.133 949.436C716.213 949.436 717.125 949.208 717.869 948.752C718.637 948.272 719.225 947.672 719.633 946.952L723.521 947.384C723.329 948.296 722.873 949.208 722.153 950.12C721.433 951.032 720.473 951.8 719.273 952.424C718.073 953.048 716.681 953.36 715.097 953.36C713.273 953.36 711.641 952.94 710.201 952.1C708.785 951.236 707.681 950.084 706.889 948.644C706.097 947.18 705.701 945.56 705.701 943.784C705.701 942.08 706.073 940.52 706.817 939.104C707.585 937.664 708.665 936.524 710.057 935.684C711.449 934.844 713.033 934.424 714.809 934.424C716.633 934.424 718.229 934.868 719.597 935.756C720.989 936.62 722.057 937.796 722.801 939.284C723.545 940.748 723.917 942.356 723.917 944.108V945.26ZM714.809 938.348C713.489 938.348 712.385 938.72 711.497 939.464C710.633 940.208 710.177 941.12 710.129 942.2H719.489C719.441 941.144 718.985 940.244 718.121 939.5C717.257 938.732 716.153 938.348 714.809 938.348ZM748.083 953.36C746.211 953.36 744.531 952.94 743.043 952.1C741.555 951.26 740.391 950.12 739.551 948.68C738.711 947.216 738.291 945.62 738.291 943.892C738.291 942.164 738.711 940.58 739.551 939.14C740.391 937.676 741.555 936.524 743.043 935.684C744.531 934.844 746.211 934.424 748.083 934.424C749.931 934.424 751.599 934.844 753.087 935.684C754.575 936.524 755.727 937.676 756.543 939.14C757.383 940.58 757.803 942.164 757.803 943.892C757.803 945.62 757.383 947.216 756.543 948.68C755.727 950.12 754.575 951.26 753.087 952.1C751.599 952.94 749.931 953.36 748.083 953.36ZM748.083 949.184C749.091 949.184 749.991 948.944 750.783 948.464C751.599 947.984 752.235 947.348 752.691 946.556C753.147 945.74 753.375 944.852 753.375 943.892C753.375 942.932 753.147 942.056 752.691 941.264C752.235 940.448 751.599 939.8 750.783 939.32C749.991 938.84 749.091 938.6 748.083 938.6C747.075 938.6 746.151 938.84 745.311 939.32C744.495 939.8 743.859 940.448 743.403 941.264C742.947 942.056 742.719 942.932 742.719 943.892C742.719 944.852 742.947 945.74 743.403 946.556C743.859 947.348 744.495 947.984 745.311 948.464C746.151 948.944 747.075 949.184 748.083 949.184ZM771.952 934.424C774.136 934.424 775.792 935.108 776.92 936.476C778.072 937.82 778.648 939.74 778.648 942.236V953H774.22V944.288C774.22 942.248 773.872 940.796 773.176 939.932C772.504 939.044 771.52 938.6 770.224 938.6C768.688 938.6 767.464 939.128 766.552 940.184C765.64 941.24 765.184 942.56 765.184 944.144V953H760.756V934.784H764.932L765.148 937.484C767.188 935.444 769.456 934.424 771.952 934.424ZM803.148 938.96H799.116V953H794.688V938.96H791.844V934.784H794.688V929.384H799.116V934.784H803.148V938.96ZM804.56 943.892C804.56 942.164 804.932 940.58 805.676 939.14C806.42 937.676 807.452 936.524 808.772 935.684C810.116 934.844 811.64 934.424 813.344 934.424C814.976 934.424 816.38 934.82 817.556 935.612C818.756 936.404 819.608 937.412 820.112 938.636L820.364 934.784H824.576V953H820.364L820.112 949.112C819.608 950.336 818.756 951.356 817.556 952.172C816.38 952.964 814.976 953.36 813.344 953.36C811.64 953.36 810.116 952.94 808.772 952.1C807.452 951.26 806.42 950.12 805.676 948.68C804.932 947.216 804.56 945.62 804.56 943.892ZM808.988 943.892C808.988 944.852 809.216 945.74 809.672 946.556C810.128 947.348 810.764 947.984 811.58 948.464C812.42 948.944 813.344 949.184 814.352 949.184C815.36 949.184 816.26 948.944 817.052 948.464C817.868 947.984 818.504 947.348 818.96 946.556C819.416 945.74 819.644 944.852 819.644 943.892C819.644 942.932 819.416 942.056 818.96 941.264C818.504 940.448 817.868 939.8 817.052 939.32C816.26 938.84 815.36 938.6 814.352 938.6C813.344 938.6 812.42 938.84 811.58 939.32C810.764 939.8 810.128 940.448 809.672 941.264C809.216 942.056 808.988 942.932 808.988 943.892ZM832.297 947.492C832.417 948.14 832.813 948.668 833.485 949.076C834.181 949.46 835.057 949.652 836.113 949.652C836.929 949.652 837.613 949.508 838.165 949.22C838.717 948.932 838.993 948.524 838.993 947.996C838.993 947.564 838.861 947.228 838.597 946.988C838.333 946.724 837.949 946.496 837.445 946.304C836.941 946.088 836.113 945.8 834.961 945.44C834.241 945.2 833.881 945.08 833.881 945.08C832.177 944.552 830.845 943.868 829.885 943.028C828.925 942.188 828.445 941.072 828.445 939.68C828.445 938.624 828.757 937.7 829.381 936.908C830.005 936.116 830.833 935.504 831.865 935.072C832.897 934.64 834.001 934.424 835.177 934.424C836.641 934.424 837.913 934.676 838.993 935.18C840.097 935.66 840.937 936.332 841.513 937.196C842.113 938.036 842.437 938.972 842.485 940.004H838.057C838.009 939.38 837.709 938.912 837.157 938.6C836.605 938.264 835.993 938.096 835.321 938.096C834.697 938.096 834.133 938.24 833.629 938.528C833.125 938.816 832.873 939.2 832.873 939.68C832.873 940.016 832.981 940.292 833.197 940.508C833.437 940.724 833.785 940.928 834.241 941.12C834.697 941.288 835.465 941.552 836.545 941.912L838.021 942.416C839.941 943.064 841.321 943.868 842.161 944.828C843.025 945.764 843.457 946.856 843.457 948.104C843.457 949.736 842.749 951.02 841.333 951.956C839.941 952.892 838.165 953.36 836.005 953.36C833.629 953.36 831.709 952.868 830.245 951.884C828.781 950.876 827.989 949.412 827.869 947.492H832.297ZM856.445 942.704L864.761 953H859.253L853.313 945.656L850.613 948.248V953H846.185V926H850.613V942.344L858.569 934.784H864.761L856.445 942.704ZM114.964 983.508C113.62 982.236 112.072 981.6 110.32 981.6C109.408 981.6 108.532 981.828 107.692 982.284C106.876 982.716 106.204 983.34 105.676 984.156C105.172 984.972 104.92 985.884 104.92 986.892C104.92 987.9 105.172 988.812 105.676 989.628C106.204 990.444 106.876 991.08 107.692 991.536C108.532 991.968 109.408 992.184 110.32 992.184C112.048 992.184 113.596 991.536 114.964 990.24V994.488C113.548 995.736 111.76 996.36 109.6 996.36C107.848 996.36 106.252 995.94 104.812 995.1C103.396 994.236 102.28 993.084 101.464 991.644C100.648 990.18 100.24 988.596 100.24 986.892C100.24 985.188 100.648 983.616 101.464 982.176C102.28 980.736 103.396 979.584 104.812 978.72C106.252 977.856 107.848 977.424 109.6 977.424C111.76 977.424 113.548 978.048 114.964 979.296V983.508ZM127.259 996.36C125.387 996.36 123.707 995.94 122.219 995.1C120.731 994.26 119.567 993.12 118.727 991.68C117.887 990.216 117.467 988.62 117.467 986.892C117.467 985.164 117.887 983.58 118.727 982.14C119.567 980.676 120.731 979.524 122.219 978.684C123.707 977.844 125.387 977.424 127.259 977.424C129.107 977.424 130.775 977.844 132.263 978.684C133.751 979.524 134.903 980.676 135.719 982.14C136.559 983.58 136.979 985.164 136.979 986.892C136.979 988.62 136.559 990.216 135.719 991.68C134.903 993.12 133.751 994.26 132.263 995.1C130.775 995.94 129.107 996.36 127.259 996.36ZM127.259 992.184C128.267 992.184 129.167 991.944 129.959 991.464C130.775 990.984 131.411 990.348 131.867 989.556C132.323 988.74 132.551 987.852 132.551 986.892C132.551 985.932 132.323 985.056 131.867 984.264C131.411 983.448 130.775 982.8 129.959 982.32C129.167 981.84 128.267 981.6 127.259 981.6C126.251 981.6 125.327 981.84 124.487 982.32C123.671 982.8 123.035 983.448 122.579 984.264C122.123 985.056 121.895 985.932 121.895 986.892C121.895 987.852 122.123 988.74 122.579 989.556C123.035 990.348 123.671 990.984 124.487 991.464C125.327 991.944 126.251 992.184 127.259 992.184ZM151.127 977.424C153.311 977.424 154.967 978.108 156.095 979.476C157.247 980.82 157.823 982.74 157.823 985.236V996H153.395V987.288C153.395 985.248 153.047 983.796 152.351 982.932C151.679 982.044 150.695 981.6 149.399 981.6C147.863 981.6 146.639 982.128 145.727 983.184C144.815 984.24 144.359 985.56 144.359 987.144V996H139.931V977.784H144.107L144.323 980.484C146.363 978.444 148.631 977.424 151.127 977.424ZM165.102 990.492C165.222 991.14 165.618 991.668 166.29 992.076C166.986 992.46 167.862 992.652 168.918 992.652C169.734 992.652 170.418 992.508 170.97 992.22C171.522 991.932 171.798 991.524 171.798 990.996C171.798 990.564 171.666 990.228 171.402 989.988C171.138 989.724 170.754 989.496 170.25 989.304C169.746 989.088 168.918 988.8 167.766 988.44C167.046 988.2 166.686 988.08 166.686 988.08C164.982 987.552 163.65 986.868 162.69 986.028C161.73 985.188 161.25 984.072 161.25 982.68C161.25 981.624 161.562 980.7 162.186 979.908C162.81 979.116 163.638 978.504 164.67 978.072C165.702 977.64 166.806 977.424 167.982 977.424C169.446 977.424 170.718 977.676 171.798 978.18C172.902 978.66 173.742 979.332 174.318 980.196C174.918 981.036 175.242 981.972 175.29 983.004H170.862C170.814 982.38 170.514 981.912 169.962 981.6C169.41 981.264 168.798 981.096 168.126 981.096C167.502 981.096 166.938 981.24 166.434 981.528C165.93 981.816 165.678 982.2 165.678 982.68C165.678 983.016 165.786 983.292 166.002 983.508C166.242 983.724 166.59 983.928 167.046 984.12C167.502 984.288 168.27 984.552 169.35 984.912L170.826 985.416C172.746 986.064 174.126 986.868 174.966 987.828C175.83 988.764 176.262 989.856 176.262 991.104C176.262 992.736 175.554 994.02 174.138 994.956C172.746 995.892 170.97 996.36 168.81 996.36C166.434 996.36 164.514 995.868 163.05 994.884C161.586 993.876 160.794 992.412 160.674 990.492H165.102ZM196.633 977.784V996H192.457L192.241 993.3C190.201 995.34 187.921 996.36 185.401 996.36C183.241 996.36 181.585 995.688 180.433 994.344C179.305 992.976 178.741 991.044 178.741 988.548V977.784H183.169V986.496C183.169 988.536 183.505 990 184.177 990.888C184.873 991.752 185.869 992.184 187.165 992.184C188.701 992.184 189.925 991.656 190.837 990.6C191.749 989.544 192.205 988.224 192.205 986.64V977.784H196.633ZM222.935 977.424C224.831 977.424 226.295 978.072 227.327 979.368C228.359 980.664 228.875 982.392 228.875 984.552V996H224.447V986.064C224.447 984.696 224.159 983.616 223.583 982.824C223.031 982.008 222.239 981.6 221.207 981.6C219.935 981.6 218.903 982.212 218.111 983.436C217.343 984.66 216.935 986.232 216.887 988.152V996H212.459V986.064C212.459 984.696 212.171 983.616 211.595 982.824C211.043 982.008 210.251 981.6 209.219 981.6C207.947 981.6 206.915 982.212 206.123 983.436C205.355 984.66 204.935 986.232 204.863 988.152V996H200.435V977.784H204.611L204.827 980.34C206.651 978.396 208.679 977.424 210.911 977.424C212.207 977.424 213.311 977.736 214.223 978.36C215.135 978.984 215.807 979.86 216.239 980.988C218.231 978.612 220.463 977.424 222.935 977.424ZM232.674 977.784H236.85L237.102 981.384C237.606 980.208 238.47 979.26 239.694 978.54C240.942 977.796 242.334 977.424 243.87 977.424C245.574 977.424 247.098 977.844 248.442 978.684C249.786 979.524 250.83 980.676 251.574 982.14C252.318 983.58 252.69 985.164 252.69 986.892C252.69 988.62 252.318 990.216 251.574 991.68C250.83 993.12 249.786 994.26 248.442 995.1C247.098 995.94 245.574 996.36 243.87 996.36C242.31 996.36 240.906 995.988 239.658 995.244C238.434 994.5 237.582 993.54 237.102 992.364V1004.28H232.674V977.784ZM237.606 986.892C237.606 987.852 237.822 988.74 238.254 989.556C238.71 990.348 239.346 990.984 240.162 991.464C240.978 991.944 241.89 992.184 242.898 992.184C243.906 992.184 244.818 991.944 245.634 991.464C246.45 990.984 247.086 990.348 247.542 989.556C247.998 988.74 248.226 987.852 248.226 986.892C248.226 985.932 247.998 985.056 247.542 984.264C247.086 983.448 246.45 982.8 245.634 982.32C244.818 981.84 243.906 981.6 242.898 981.6C241.89 981.6 240.978 981.84 240.162 982.32C239.346 982.8 238.71 983.448 238.254 984.264C237.822 985.056 237.606 985.932 237.606 986.892ZM265.855 981.96H261.823V996H257.395V981.96H254.551V977.784H257.395V972.384H261.823V977.784H265.855V981.96ZM272.94 996H268.512V977.784H272.94V996ZM270.708 975.264C270.084 975.264 269.544 975.048 269.088 974.616C268.656 974.16 268.44 973.62 268.44 972.996C268.44 972.372 268.656 971.844 269.088 971.412C269.544 970.956 270.084 970.728 270.708 970.728C271.332 970.728 271.86 970.956 272.292 971.412C272.748 971.844 272.976 972.372 272.976 972.996C272.976 973.62 272.748 974.16 272.292 974.616C271.86 975.048 271.332 975.264 270.708 975.264ZM285.954 996.36C284.082 996.36 282.402 995.94 280.914 995.1C279.426 994.26 278.262 993.12 277.422 991.68C276.582 990.216 276.162 988.62 276.162 986.892C276.162 985.164 276.582 983.58 277.422 982.14C278.262 980.676 279.426 979.524 280.914 978.684C282.402 977.844 284.082 977.424 285.954 977.424C287.802 977.424 289.47 977.844 290.958 978.684C292.446 979.524 293.598 980.676 294.414 982.14C295.254 983.58 295.674 985.164 295.674 986.892C295.674 988.62 295.254 990.216 294.414 991.68C293.598 993.12 292.446 994.26 290.958 995.1C289.47 995.94 287.802 996.36 285.954 996.36ZM285.954 992.184C286.962 992.184 287.862 991.944 288.654 991.464C289.47 990.984 290.106 990.348 290.562 989.556C291.018 988.74 291.246 987.852 291.246 986.892C291.246 985.932 291.018 985.056 290.562 984.264C290.106 983.448 289.47 982.8 288.654 982.32C287.862 981.84 286.962 981.6 285.954 981.6C284.946 981.6 284.022 981.84 283.182 982.32C282.366 982.8 281.73 983.448 281.274 984.264C280.818 985.056 280.59 985.932 280.59 986.892C280.59 987.852 280.818 988.74 281.274 989.556C281.73 990.348 282.366 990.984 283.182 991.464C284.022 991.944 284.946 992.184 285.954 992.184ZM309.823 977.424C312.007 977.424 313.663 978.108 314.791 979.476C315.943 980.82 316.519 982.74 316.519 985.236V996H312.091V987.288C312.091 985.248 311.743 983.796 311.047 982.932C310.375 982.044 309.391 981.6 308.095 981.6C306.559 981.6 305.335 982.128 304.423 983.184C303.511 984.24 303.055 985.56 303.055 987.144V996H298.627V977.784H302.803L303.019 980.484C305.059 978.444 307.327 977.424 309.823 977.424ZM340.587 996.36C338.715 996.36 337.035 995.94 335.547 995.1C334.059 994.26 332.895 993.12 332.055 991.68C331.215 990.216 330.795 988.62 330.795 986.892C330.795 985.164 331.215 983.58 332.055 982.14C332.895 980.676 334.059 979.524 335.547 978.684C337.035 977.844 338.715 977.424 340.587 977.424C342.435 977.424 344.103 977.844 345.591 978.684C347.079 979.524 348.231 980.676 349.047 982.14C349.887 983.58 350.307 985.164 350.307 986.892C350.307 988.62 349.887 990.216 349.047 991.68C348.231 993.12 347.079 994.26 345.591 995.1C344.103 995.94 342.435 996.36 340.587 996.36ZM340.587 992.184C341.595 992.184 342.495 991.944 343.287 991.464C344.103 990.984 344.739 990.348 345.195 989.556C345.651 988.74 345.879 987.852 345.879 986.892C345.879 985.932 345.651 985.056 345.195 984.264C344.739 983.448 344.103 982.8 343.287 982.32C342.495 981.84 341.595 981.6 340.587 981.6C339.579 981.6 338.655 981.84 337.815 982.32C336.999 982.8 336.363 983.448 335.907 984.264C335.451 985.056 335.223 985.932 335.223 986.892C335.223 987.852 335.451 988.74 335.907 989.556C336.363 990.348 336.999 990.984 337.815 991.464C338.655 991.944 339.579 992.184 340.587 992.184ZM371.134 977.784L363.43 996H358.318L350.614 977.784H355.582L360.91 991.356L366.202 977.784H371.134ZM390.003 988.26H376.215C376.287 989.46 376.755 990.456 377.619 991.248C378.483 992.04 379.683 992.436 381.219 992.436C382.299 992.436 383.211 992.208 383.955 991.752C384.723 991.272 385.311 990.672 385.719 989.952L389.607 990.384C389.415 991.296 388.959 992.208 388.239 993.12C387.519 994.032 386.559 994.8 385.359 995.424C384.159 996.048 382.767 996.36 381.183 996.36C379.359 996.36 377.727 995.94 376.287 995.1C374.871 994.236 373.767 993.084 372.975 991.644C372.183 990.18 371.787 988.56 371.787 986.784C371.787 985.08 372.159 983.52 372.903 982.104C373.671 980.664 374.751 979.524 376.143 978.684C377.535 977.844 379.119 977.424 380.895 977.424C382.719 977.424 384.315 977.868 385.683 978.756C387.075 979.62 388.143 980.796 388.887 982.284C389.631 983.748 390.003 985.356 390.003 987.108V988.26ZM380.895 981.348C379.575 981.348 378.471 981.72 377.583 982.464C376.719 983.208 376.263 984.12 376.215 985.2H385.575C385.527 984.144 385.071 983.244 384.207 982.5C383.343 981.732 382.239 981.348 380.895 981.348ZM401.303 977.424C401.783 977.424 402.215 977.508 402.599 977.676C402.983 977.82 403.283 978 403.499 978.216L402.851 982.068C402.635 981.948 402.359 981.84 402.023 981.744C401.711 981.648 401.387 981.6 401.051 981.6C399.875 981.6 398.963 982.164 398.315 983.292C397.691 984.42 397.379 985.956 397.379 987.9V996H392.951V977.784H397.127L397.379 980.376V980.412C397.883 979.452 398.447 978.72 399.071 978.216C399.719 977.688 400.463 977.424 401.303 977.424ZM410.527 996H406.099V969H410.527V996ZM423.485 996.36C421.613 996.36 419.933 995.94 418.445 995.1C416.957 994.26 415.793 993.12 414.953 991.68C414.113 990.216 413.693 988.62 413.693 986.892C413.693 985.164 414.113 983.58 414.953 982.14C415.793 980.676 416.957 979.524 418.445 978.684C419.933 977.844 421.613 977.424 423.485 977.424C425.333 977.424 427.001 977.844 428.489 978.684C429.977 979.524 431.129 980.676 431.945 982.14C432.785 983.58 433.205 985.164 433.205 986.892C433.205 988.62 432.785 990.216 431.945 991.68C431.129 993.12 429.977 994.26 428.489 995.1C427.001 995.94 425.333 996.36 423.485 996.36ZM423.485 992.184C424.493 992.184 425.393 991.944 426.185 991.464C427.001 990.984 427.637 990.348 428.093 989.556C428.549 988.74 428.777 987.852 428.777 986.892C428.777 985.932 428.549 985.056 428.093 984.264C427.637 983.448 427.001 982.8 426.185 982.32C425.393 981.84 424.493 981.6 423.485 981.6C422.477 981.6 421.553 981.84 420.713 982.32C419.897 982.8 419.261 983.448 418.805 984.264C418.349 985.056 418.121 985.932 418.121 986.892C418.121 987.852 418.349 988.74 418.805 989.556C419.261 990.348 419.897 990.984 420.713 991.464C421.553 991.944 422.477 992.184 423.485 992.184ZM435.349 986.892C435.349 985.164 435.721 983.58 436.465 982.14C437.209 980.676 438.241 979.524 439.561 978.684C440.905 977.844 442.429 977.424 444.133 977.424C445.765 977.424 447.169 977.82 448.345 978.612C449.545 979.404 450.397 980.412 450.901 981.636L451.153 977.784H455.365V996H451.153L450.901 992.112C450.397 993.336 449.545 994.356 448.345 995.172C447.169 995.964 445.765 996.36 444.133 996.36C442.429 996.36 440.905 995.94 439.561 995.1C438.241 994.26 437.209 993.12 436.465 991.68C435.721 990.216 435.349 988.62 435.349 986.892ZM439.777 986.892C439.777 987.852 440.005 988.74 440.461 989.556C440.917 990.348 441.553 990.984 442.369 991.464C443.209 991.944 444.133 992.184 445.141 992.184C446.149 992.184 447.049 991.944 447.841 991.464C448.657 990.984 449.293 990.348 449.749 989.556C450.205 988.74 450.433 987.852 450.433 986.892C450.433 985.932 450.205 985.056 449.749 984.264C449.293 983.448 448.657 982.8 447.841 982.32C447.049 981.84 446.149 981.6 445.141 981.6C444.133 981.6 443.209 981.84 442.369 982.32C441.553 982.8 440.917 983.448 440.461 984.264C440.005 985.056 439.777 985.932 439.777 986.892ZM457.955 986.892C457.955 985.164 458.327 983.58 459.071 982.14C459.815 980.676 460.847 979.524 462.167 978.684C463.511 977.844 465.035 977.424 466.739 977.424C468.299 977.424 469.691 977.796 470.915 978.54C472.163 979.284 473.027 980.244 473.507 981.42V969H477.971V996H473.759L473.507 992.364C473.027 993.54 472.163 994.5 470.915 995.244C469.691 995.988 468.299 996.36 466.739 996.36C465.035 996.36 463.511 995.94 462.167 995.1C460.847 994.26 459.815 993.12 459.071 991.68C458.327 990.216 457.955 988.62 457.955 986.892ZM462.383 986.892C462.383 987.852 462.611 988.74 463.067 989.556C463.523 990.348 464.159 990.984 464.975 991.464C465.815 991.944 466.739 992.184 467.747 992.184C468.755 992.184 469.655 991.944 470.447 991.464C471.263 990.984 471.899 990.348 472.355 989.556C472.811 988.74 473.039 987.852 473.039 986.892C473.039 985.932 472.811 985.056 472.355 984.264C471.899 983.448 471.263 982.8 470.447 982.32C469.655 981.84 468.755 981.6 467.747 981.6C466.739 981.6 465.815 981.84 464.975 982.32C464.159 982.8 463.523 983.448 463.067 984.264C462.611 985.056 462.383 985.932 462.383 986.892Z" fill="#00BF93"/>
<g clip-path="url(#clip1)">
<rect x="44" y="15" width="1143" height="662" fill="#CCF2E9"/>
<rect x="109" y="179" width="762" height="605" rx="12" fill="#2BC09D"/>
<rect x="781" y="271" width="288" height="353" rx="8" fill="#64DFC2"/>
<rect x="163" y="402" width="288" height="382" rx="8" fill="#64DFC2"/>
<rect x="163" y="309" width="288" height="37" rx="3" fill="#76F7D8"/>
<rect x="184" y="579" width="243" height="37" rx="3" fill="#76F7D8"/>
<rect x="184" y="631" width="243" height="37" rx="3" fill="#76F7D8"/>
<rect x="836" y="522" width="264" height="34" rx="12" fill="#76F7D8"/>
<rect x="142" y="206" width="685" height="24" rx="12" fill="#AEF5E4"/>
<path d="M956.12 399.481L942.297 344.189C941.439 340.757 945.13 337.983 948.188 339.761L996.792 368.019C999.777 369.754 999.309 374.202 996.028 375.278L975.441 382.028C974.513 382.332 973.728 382.966 973.234 383.809L963.454 400.531C961.644 403.626 956.99 402.96 956.12 399.481Z" fill="white"/>
<ellipse cx="251.238" cy="499.942" rx="56.2376" ry="55.9416" fill="#00BF93"/>
</g>
</g>
</g>
<defs>
<filter id="filter0_d" x="0" y="0" width="1231" height="1142" filterUnits="userSpaceOnUse" color-interpolation-filters="sRGB">
<feFlood flood-opacity="0" result="BackgroundImageFix"/>
<feColorMatrix in="SourceAlpha" type="matrix" values="0 0 0 0 0 0 0 0 0 0 0 0 0 0 0 0 0 0 127 0"/>
<feOffset dy="4"/>
<feGaussianBlur stdDeviation="22"/>
<feColorMatrix type="matrix" values="0 0 0 0 0 0 0 0 0 0 0 0 0 0 0 0 0 0 0.25 0"/>
<feBlend mode="normal" in2="BackgroundImageFix" result="effect1_dropShadow"/>
<feBlend mode="normal" in="SourceGraphic" in2="effect1_dropShadow" result="shape"/>
</filter>
<clipPath id="clip0">
<rect x="44" y="40" width="1143" height="1054" rx="10" fill="white"/>
</clipPath>
<clipPath id="clip1">
<rect width="1143" height="662" fill="white" transform="translate(44 15)"/>
</clipPath>
</defs>
</svg>
