<svg width="1817" height="1475" viewBox="0 0 1817 1475" fill="none" xmlns="http://www.w3.org/2000/svg">
<path d="M71 436.5H752C790.384 436.5 821.5 467.616 821.5 506C821.5 544.384 790.384 575.5 752 575.5H71C32.6162 575.5 1.5 544.384 1.5 506C1.5 467.616 32.6162 436.5 71 436.5Z" fill="#FA649A" fill-opacity="0.1" stroke="#FF4387" stroke-width="3"/>
<path d="M1432 1422.5H1565C1579.08 1422.5 1590.5 1433.92 1590.5 1448C1590.5 1462.08 1579.08 1473.5 1565 1473.5H1432C1417.92 1473.5 1406.5 1462.08 1406.5 1448C1406.5 1433.92 1417.92 1422.5 1432 1422.5Z" fill="#FA649A" fill-opacity="0.1" stroke="#FF4387" stroke-width="3"/>
<path d="M1657 929.5H1790C1804.08 929.5 1815.5 940.917 1815.5 955C1815.5 969.083 1804.08 980.5 1790 980.5H1657C1642.92 980.5 1631.5 969.083 1631.5 955C1631.5 940.917 1642.92 929.5 1657 929.5Z" fill="#FA649A" fill-opacity="0.1" stroke="#FF4387" stroke-width="3"/>
<path d="M1087 875.5H1220C1234.08 875.5 1245.5 886.917 1245.5 901C1245.5 915.083 1234.08 926.5 1220 926.5H1087C1072.92 926.5 1061.5 915.083 1061.5 901C1061.5 886.917 1072.92 875.5 1087 875.5Z" fill="#FA649A" fill-opacity="0.1" stroke="#FF4387" stroke-width="3"/>
<circle cx="423" cy="128" r="128" fill="#11D8AA" fill-opacity="0.9"/>
<path d="M378.925 132.308V135.44H382.813V137.528H378.925V140.912H383.875V143H376.711V130.22H383.875V132.308H378.925ZM388.753 138.446L385.117 133.892H387.853L390.121 136.934L392.389 133.892H395.125L391.489 138.446L395.125 143H392.389L390.121 139.958L387.853 143H385.117L388.753 138.446ZM396.424 133.892H398.512L398.638 135.692C398.89 135.104 399.322 134.63 399.934 134.27C400.558 133.898 401.254 133.712 402.022 133.712C402.874 133.712 403.636 133.922 404.308 134.342C404.98 134.762 405.502 135.338 405.874 136.07C406.246 136.79 406.432 137.582 406.432 138.446C406.432 139.31 406.246 140.108 405.874 140.84C405.502 141.56 404.98 142.13 404.308 142.55C403.636 142.97 402.874 143.18 402.022 143.18C401.242 143.18 400.54 142.994 399.916 142.622C399.304 142.25 398.878 141.77 398.638 141.182V147.14H396.424V133.892ZM398.89 138.446C398.89 138.926 398.998 139.37 399.214 139.778C399.442 140.174 399.76 140.492 400.168 140.732C400.576 140.972 401.032 141.092 401.536 141.092C402.04 141.092 402.496 140.972 402.904 140.732C403.312 140.492 403.63 140.174 403.858 139.778C404.086 139.37 404.2 138.926 404.2 138.446C404.2 137.966 404.086 137.528 403.858 137.132C403.63 136.724 403.312 136.4 402.904 136.16C402.496 135.92 402.04 135.8 401.536 135.8C401.032 135.8 400.576 135.92 400.168 136.16C399.76 136.4 399.442 136.724 399.214 137.132C398.998 137.528 398.89 137.966 398.89 138.446ZM416.606 139.13H409.712C409.748 139.73 409.982 140.228 410.414 140.624C410.846 141.02 411.446 141.218 412.214 141.218C412.754 141.218 413.21 141.104 413.582 140.876C413.966 140.636 414.26 140.336 414.464 139.976L416.408 140.192C416.312 140.648 416.084 141.104 415.724 141.56C415.364 142.016 414.884 142.4 414.284 142.712C413.684 143.024 412.988 143.18 412.196 143.18C411.284 143.18 410.468 142.97 409.748 142.55C409.04 142.118 408.488 141.542 408.092 140.822C407.696 140.09 407.498 139.28 407.498 138.392C407.498 137.54 407.684 136.76 408.056 136.052C408.44 135.332 408.98 134.762 409.676 134.342C410.372 133.922 411.164 133.712 412.052 133.712C412.964 133.712 413.762 133.934 414.446 134.378C415.142 134.81 415.676 135.398 416.048 136.142C416.42 136.874 416.606 137.678 416.606 138.554V139.13ZM412.052 135.674C411.392 135.674 410.84 135.86 410.396 136.232C409.964 136.604 409.736 137.06 409.712 137.6H414.392C414.368 137.072 414.14 136.622 413.708 136.25C413.276 135.866 412.724 135.674 412.052 135.674ZM422.256 133.712C422.496 133.712 422.712 133.754 422.904 133.838C423.096 133.91 423.246 134 423.354 134.108L423.03 136.034C422.922 135.974 422.784 135.92 422.616 135.872C422.46 135.824 422.298 135.8 422.13 135.8C421.542 135.8 421.086 136.082 420.762 136.646C420.45 137.21 420.294 137.978 420.294 138.95V143H418.08V133.892H420.168L420.294 135.188V135.206C420.546 134.726 420.828 134.36 421.14 134.108C421.464 133.844 421.836 133.712 422.256 133.712ZM426.77 143H424.556V133.892H426.77V143ZM425.654 132.632C425.342 132.632 425.072 132.524 424.844 132.308C424.628 132.08 424.52 131.81 424.52 131.498C424.52 131.186 424.628 130.922 424.844 130.706C425.072 130.478 425.342 130.364 425.654 130.364C425.966 130.364 426.23 130.478 426.446 130.706C426.674 130.922 426.788 131.186 426.788 131.498C426.788 131.81 426.674 132.08 426.446 132.308C426.23 132.524 425.966 132.632 425.654 132.632ZM439.824 133.712C440.772 133.712 441.504 134.036 442.02 134.684C442.536 135.332 442.794 136.196 442.794 137.276V143H440.58V138.032C440.58 137.348 440.436 136.808 440.148 136.412C439.872 136.004 439.476 135.8 438.96 135.8C438.324 135.8 437.808 136.106 437.412 136.718C437.028 137.33 436.824 138.116 436.8 139.076V143H434.586V138.032C434.586 137.348 434.442 136.808 434.154 136.412C433.878 136.004 433.482 135.8 432.966 135.8C432.33 135.8 431.814 136.106 431.418 136.718C431.034 137.33 430.824 138.116 430.788 139.076V143H428.574V133.892H430.662L430.77 135.17C431.682 134.198 432.696 133.712 433.812 133.712C434.46 133.712 435.012 133.868 435.468 134.18C435.924 134.492 436.26 134.93 436.476 135.494C437.472 134.306 438.588 133.712 439.824 133.712ZM453.327 139.13H446.433C446.469 139.73 446.703 140.228 447.135 140.624C447.567 141.02 448.167 141.218 448.935 141.218C449.475 141.218 449.931 141.104 450.303 140.876C450.687 140.636 450.981 140.336 451.185 139.976L453.129 140.192C453.033 140.648 452.805 141.104 452.445 141.56C452.085 142.016 451.605 142.4 451.005 142.712C450.405 143.024 449.709 143.18 448.917 143.18C448.005 143.18 447.189 142.97 446.469 142.55C445.761 142.118 445.209 141.542 444.813 140.822C444.417 140.09 444.219 139.28 444.219 138.392C444.219 137.54 444.405 136.76 444.777 136.052C445.161 135.332 445.701 134.762 446.397 134.342C447.093 133.922 447.885 133.712 448.773 133.712C449.685 133.712 450.483 133.934 451.167 134.378C451.863 134.81 452.397 135.398 452.769 136.142C453.141 136.874 453.327 137.678 453.327 138.554V139.13ZM448.773 135.674C448.113 135.674 447.561 135.86 447.117 136.232C446.685 136.604 446.457 137.06 446.433 137.6H451.113C451.089 137.072 450.861 136.622 450.429 136.25C449.997 135.866 449.445 135.674 448.773 135.674ZM460.399 133.712C461.491 133.712 462.319 134.054 462.883 134.738C463.459 135.41 463.747 136.37 463.747 137.618V143H461.533V138.644C461.533 137.624 461.359 136.898 461.011 136.466C460.675 136.022 460.183 135.8 459.535 135.8C458.767 135.8 458.155 136.064 457.699 136.592C457.243 137.12 457.015 137.78 457.015 138.572V143H454.801V133.892H456.889L456.997 135.242C458.017 134.222 459.151 133.712 460.399 133.712ZM470.706 135.98H468.69V143H466.476V135.98H465.054V133.892H466.476V131.192H468.69V133.892H470.706V135.98Z" fill="white"/>
<path d="M423.001 105V117" stroke="white" stroke-width="2" stroke-linecap="round" stroke-linejoin="round"/>
<path d="M423.001 105C424.381 105 425.501 103.881 425.501 102.5C425.501 101.12 424.381 100 423.001 100C421.62 100 420.501 101.12 420.501 102.5C420.501 103.881 421.62 105 423.001 105Z" stroke="white" stroke-width="2" stroke-linecap="round" stroke-linejoin="round"/>
<path d="M416.001 95.0004V90.0004C416.001 89.7352 416.106 89.4809 416.294 89.2933C416.481 89.1058 416.736 89.0004 417.001 89.0004H429.001C429.266 89.0004 429.52 89.1058 429.708 89.2933C429.895 89.4809 430.001 89.7352 430.001 90.0004V95.0004" stroke="white" stroke-width="2" stroke-linecap="round" stroke-linejoin="round"/>
<path d="M416.001 95.0004L412.577 101.929C412.496 102.094 412.462 102.277 412.478 102.46C412.494 102.643 412.56 102.817 412.669 102.965L423.001 117L433.333 102.965C433.441 102.817 433.507 102.643 433.524 102.46C433.54 102.277 433.505 102.094 433.424 101.929L430.001 95.0004H416.001Z" stroke="white" stroke-width="2" stroke-linecap="round" stroke-linejoin="round"/>
<circle cx="619" cy="128" r="128" fill="#4EF6D0" fill-opacity="0.8"/>
<path d="M597.186 130.22V143H594.954V134.216L590.94 140.624H590.04L586.026 134.216V143H583.812V130.22H586.026L590.49 137.294L594.954 130.22H597.186ZM608.053 139.13H601.159C601.195 139.73 601.429 140.228 601.861 140.624C602.293 141.02 602.893 141.218 603.661 141.218C604.201 141.218 604.657 141.104 605.029 140.876C605.413 140.636 605.707 140.336 605.911 139.976L607.855 140.192C607.759 140.648 607.531 141.104 607.171 141.56C606.811 142.016 606.331 142.4 605.731 142.712C605.131 143.024 604.435 143.18 603.643 143.18C602.731 143.18 601.915 142.97 601.195 142.55C600.487 142.118 599.935 141.542 599.539 140.822C599.143 140.09 598.945 139.28 598.945 138.392C598.945 137.54 599.131 136.76 599.503 136.052C599.887 135.332 600.427 134.762 601.123 134.342C601.819 133.922 602.611 133.712 603.499 133.712C604.411 133.712 605.209 133.934 605.893 134.378C606.589 134.81 607.123 135.398 607.495 136.142C607.867 136.874 608.053 137.678 608.053 138.554V139.13ZM603.499 135.674C602.839 135.674 602.287 135.86 601.843 136.232C601.411 136.604 601.183 137.06 601.159 137.6H605.839C605.815 137.072 605.587 136.622 605.155 136.25C604.723 135.866 604.171 135.674 603.499 135.674ZM609.299 138.446C609.299 137.582 609.485 136.79 609.857 136.07C610.229 135.338 610.745 134.762 611.405 134.342C612.077 133.922 612.839 133.712 613.691 133.712C614.507 133.712 615.209 133.91 615.797 134.306C616.397 134.702 616.823 135.206 617.075 135.818L617.201 133.892H619.307V143H617.201L617.075 141.056C616.823 141.668 616.397 142.178 615.797 142.586C615.209 142.982 614.507 143.18 613.691 143.18C612.839 143.18 612.077 142.97 611.405 142.55C610.745 142.13 610.229 141.56 609.857 140.84C609.485 140.108 609.299 139.31 609.299 138.446ZM611.513 138.446C611.513 138.926 611.627 139.37 611.855 139.778C612.083 140.174 612.401 140.492 612.809 140.732C613.229 140.972 613.691 141.092 614.195 141.092C614.699 141.092 615.149 140.972 615.545 140.732C615.953 140.492 616.271 140.174 616.499 139.778C616.727 139.37 616.841 138.926 616.841 138.446C616.841 137.966 616.727 137.528 616.499 137.132C616.271 136.724 615.953 136.4 615.545 136.16C615.149 135.92 614.699 135.8 614.195 135.8C613.691 135.8 613.229 135.92 612.809 136.16C612.401 136.4 612.083 136.724 611.855 137.132C611.627 137.528 611.513 137.966 611.513 138.446ZM623.167 140.246C623.227 140.57 623.425 140.834 623.761 141.038C624.109 141.23 624.547 141.326 625.075 141.326C625.483 141.326 625.825 141.254 626.101 141.11C626.377 140.966 626.515 140.762 626.515 140.498C626.515 140.282 626.449 140.114 626.317 139.994C626.185 139.862 625.993 139.748 625.741 139.652C625.489 139.544 625.075 139.4 624.499 139.22C624.139 139.1 623.959 139.04 623.959 139.04C623.107 138.776 622.441 138.434 621.961 138.014C621.481 137.594 621.241 137.036 621.241 136.34C621.241 135.812 621.397 135.35 621.709 134.954C622.021 134.558 622.435 134.252 622.951 134.036C623.467 133.82 624.019 133.712 624.607 133.712C625.339 133.712 625.975 133.838 626.515 134.09C627.067 134.33 627.487 134.666 627.775 135.098C628.075 135.518 628.237 135.986 628.261 136.502H626.047C626.023 136.19 625.873 135.956 625.597 135.8C625.321 135.632 625.015 135.548 624.679 135.548C624.367 135.548 624.085 135.62 623.833 135.764C623.581 135.908 623.455 136.1 623.455 136.34C623.455 136.508 623.509 136.646 623.617 136.754C623.737 136.862 623.911 136.964 624.139 137.06C624.367 137.144 624.751 137.276 625.291 137.456L626.029 137.708C626.989 138.032 627.679 138.434 628.099 138.914C628.531 139.382 628.747 139.928 628.747 140.552C628.747 141.368 628.393 142.01 627.685 142.478C626.989 142.946 626.101 143.18 625.021 143.18C623.833 143.18 622.873 142.934 622.141 142.442C621.409 141.938 621.013 141.206 620.953 140.246H623.167ZM638.933 133.892V143H636.845L636.737 141.65C635.717 142.67 634.577 143.18 633.317 143.18C632.237 143.18 631.409 142.844 630.833 142.172C630.269 141.488 629.987 140.522 629.987 139.274V133.892H632.201V138.248C632.201 139.268 632.369 140 632.705 140.444C633.053 140.876 633.551 141.092 634.199 141.092C634.967 141.092 635.579 140.828 636.035 140.3C636.491 139.772 636.719 139.112 636.719 138.32V133.892H638.933ZM645.01 133.712C645.25 133.712 645.466 133.754 645.658 133.838C645.85 133.91 646 134 646.108 134.108L645.784 136.034C645.676 135.974 645.538 135.92 645.37 135.872C645.214 135.824 645.052 135.8 644.884 135.8C644.296 135.8 643.84 136.082 643.516 136.646C643.204 137.21 643.048 137.978 643.048 138.95V143H640.834V133.892H642.922L643.048 135.188V135.206C643.3 134.726 643.582 134.36 643.894 134.108C644.218 133.844 644.59 133.712 645.01 133.712ZM655.62 139.13H648.726C648.762 139.73 648.996 140.228 649.428 140.624C649.86 141.02 650.46 141.218 651.228 141.218C651.768 141.218 652.224 141.104 652.596 140.876C652.98 140.636 653.274 140.336 653.478 139.976L655.422 140.192C655.326 140.648 655.098 141.104 654.738 141.56C654.378 142.016 653.898 142.4 653.298 142.712C652.698 143.024 652.002 143.18 651.21 143.18C650.298 143.18 649.482 142.97 648.762 142.55C648.054 142.118 647.502 141.542 647.106 140.822C646.71 140.09 646.512 139.28 646.512 138.392C646.512 137.54 646.698 136.76 647.07 136.052C647.454 135.332 647.994 134.762 648.69 134.342C649.386 133.922 650.178 133.712 651.066 133.712C651.978 133.712 652.776 133.934 653.46 134.378C654.156 134.81 654.69 135.398 655.062 136.142C655.434 136.874 655.62 137.678 655.62 138.554V139.13ZM651.066 135.674C650.406 135.674 649.854 135.86 649.41 136.232C648.978 136.604 648.75 137.06 648.726 137.6H653.406C653.382 137.072 653.154 136.622 652.722 136.25C652.29 135.866 651.738 135.674 651.066 135.674Z" fill="white"/>
<path d="M612 98.5H607C606.448 98.5 606 98.9477 606 99.5V104.5C606 105.052 606.448 105.5 607 105.5H612C612.552 105.5 613 105.052 613 104.5V99.5C613 98.9477 612.552 98.5 612 98.5Z" stroke="white" stroke-width="2" stroke-linecap="round" stroke-linejoin="round"/>
<path d="M630 91H624C623.448 91 623 91.4477 623 92V98C623 98.5523 623.448 99 624 99H630C630.552 99 631 98.5523 631 98V92C631 91.4477 630.552 91 630 91Z" stroke="white" stroke-width="2" stroke-linecap="round" stroke-linejoin="round"/>
<path d="M630 105H624C623.448 105 623 105.448 623 106V112C623 112.552 623.448 113 624 113H630C630.552 113 631 112.552 631 112V106C631 105.448 630.552 105 630 105Z" stroke="white" stroke-width="2" stroke-linecap="round" stroke-linejoin="round"/>
<path d="M613 102H618" stroke="white" stroke-width="2" stroke-linecap="round" stroke-linejoin="round"/>
<path d="M623 109H621C620.204 109 619.441 108.684 618.879 108.121C618.316 107.559 618 106.796 618 106V98C618 97.2044 618.316 96.4413 618.879 95.8787C619.441 95.3161 620.204 95 621 95H623" stroke="white" stroke-width="2" stroke-linecap="round" stroke-linejoin="round"/>
<circle cx="222" cy="128" r="128" fill="#00BF93"/>
<path d="M188.341 132.308V135.44H192.229V137.528H188.341V140.912H193.291V143H186.127V130.22H193.291V132.308H188.341ZM204.336 133.892L200.484 143H197.928L194.076 133.892H196.56L199.224 140.678L201.87 133.892H204.336ZM204.662 138.446C204.662 137.582 204.848 136.79 205.22 136.07C205.592 135.338 206.108 134.762 206.768 134.342C207.44 133.922 208.202 133.712 209.054 133.712C209.87 133.712 210.572 133.91 211.16 134.306C211.76 134.702 212.186 135.206 212.438 135.818L212.564 133.892H214.67V143H212.564L212.438 141.056C212.186 141.668 211.76 142.178 211.16 142.586C210.572 142.982 209.87 143.18 209.054 143.18C208.202 143.18 207.44 142.97 206.768 142.55C206.108 142.13 205.592 141.56 205.22 140.84C204.848 140.108 204.662 139.31 204.662 138.446ZM206.876 138.446C206.876 138.926 206.99 139.37 207.218 139.778C207.446 140.174 207.764 140.492 208.172 140.732C208.592 140.972 209.054 141.092 209.558 141.092C210.062 141.092 210.512 140.972 210.908 140.732C211.316 140.492 211.634 140.174 211.862 139.778C212.09 139.37 212.204 138.926 212.204 138.446C212.204 137.966 212.09 137.528 211.862 137.132C211.634 136.724 211.316 136.4 210.908 136.16C210.512 135.92 210.062 135.8 209.558 135.8C209.054 135.8 208.592 135.92 208.172 136.16C207.764 136.4 207.446 136.724 207.218 137.132C206.99 137.528 206.876 137.966 206.876 138.446ZM218.776 143H216.562V129.5H218.776V143ZM229.673 133.892V143H227.585L227.477 141.65C226.457 142.67 225.317 143.18 224.057 143.18C222.977 143.18 222.149 142.844 221.573 142.172C221.009 141.488 220.727 140.522 220.727 139.274V133.892H222.941V138.248C222.941 139.268 223.109 140 223.445 140.444C223.793 140.876 224.291 141.092 224.939 141.092C225.707 141.092 226.319 140.828 226.775 140.3C227.231 139.772 227.459 139.112 227.459 138.32V133.892H229.673ZM230.976 138.446C230.976 137.582 231.162 136.79 231.534 136.07C231.906 135.338 232.422 134.762 233.082 134.342C233.754 133.922 234.516 133.712 235.368 133.712C236.184 133.712 236.886 133.91 237.474 134.306C238.074 134.702 238.5 135.206 238.752 135.818L238.878 133.892H240.984V143H238.878L238.752 141.056C238.5 141.668 238.074 142.178 237.474 142.586C236.886 142.982 236.184 143.18 235.368 143.18C234.516 143.18 233.754 142.97 233.082 142.55C232.422 142.13 231.906 141.56 231.534 140.84C231.162 140.108 230.976 139.31 230.976 138.446ZM233.19 138.446C233.19 138.926 233.304 139.37 233.532 139.778C233.76 140.174 234.078 140.492 234.486 140.732C234.906 140.972 235.368 141.092 235.872 141.092C236.376 141.092 236.826 140.972 237.222 140.732C237.63 140.492 237.948 140.174 238.176 139.778C238.404 139.37 238.518 138.926 238.518 138.446C238.518 137.966 238.404 137.528 238.176 137.132C237.948 136.724 237.63 136.4 237.222 136.16C236.826 135.92 236.376 135.8 235.872 135.8C235.368 135.8 234.906 135.92 234.486 136.16C234.078 136.4 233.76 136.724 233.532 137.132C233.304 137.528 233.19 137.966 233.19 138.446ZM248.112 135.98H246.096V143H243.882V135.98H242.46V133.892H243.882V131.192H246.096V133.892H248.112V135.98ZM257.926 139.13H251.032C251.068 139.73 251.302 140.228 251.734 140.624C252.166 141.02 252.766 141.218 253.534 141.218C254.074 141.218 254.53 141.104 254.902 140.876C255.286 140.636 255.58 140.336 255.784 139.976L257.728 140.192C257.632 140.648 257.404 141.104 257.044 141.56C256.684 142.016 256.204 142.4 255.604 142.712C255.004 143.024 254.308 143.18 253.516 143.18C252.604 143.18 251.788 142.97 251.068 142.55C250.36 142.118 249.808 141.542 249.412 140.822C249.016 140.09 248.818 139.28 248.818 138.392C248.818 137.54 249.004 136.76 249.376 136.052C249.76 135.332 250.3 134.762 250.996 134.342C251.692 133.922 252.484 133.712 253.372 133.712C254.284 133.712 255.082 133.934 255.766 134.378C256.462 134.81 256.996 135.398 257.368 136.142C257.74 136.874 257.926 137.678 257.926 138.554V139.13ZM253.372 135.674C252.712 135.674 252.16 135.86 251.716 136.232C251.284 136.604 251.056 137.06 251.032 137.6H255.712C255.688 137.072 255.46 136.622 255.028 136.25C254.596 135.866 254.044 135.674 253.372 135.674Z" fill="white"/>
<path d="M222 92.999C212 92.999 208 102 208 102C208 102 212 110.999 222 110.999C232 110.999 236 102 236 102C236 102 232 92.999 222 92.999Z" stroke="white" stroke-width="2" stroke-linecap="round" stroke-linejoin="round"/>
<path d="M222 107C224.761 107 227 104.762 227 102C227 99.2387 224.761 97.0001 222 97.0001C219.239 97.0001 217 99.2387 217 102C217 104.762 219.239 107 222 107Z" stroke="white" stroke-width="2" stroke-linecap="round" stroke-linejoin="round"/>
<path d="M599.849 290.22H592.037V291.678H595.169V303H596.717V291.678H599.849V290.22ZM608.783 298.536C608.783 295.962 607.019 293.712 604.229 293.712C601.529 293.712 599.675 295.836 599.675 298.392C599.675 301.146 601.619 303.18 604.373 303.18C606.767 303.18 608.171 301.596 608.531 300.354L607.163 300.174C606.767 300.984 605.867 301.794 604.373 301.794C602.501 301.794 601.277 300.588 601.223 298.932H608.783V298.536ZM604.229 295.098C606.011 295.098 607.145 296.394 607.235 297.816H601.223C601.277 296.322 602.519 295.098 604.229 295.098ZM610.011 300.48C610.227 302.226 611.721 303.18 613.809 303.18C615.807 303.18 617.265 302.226 617.265 300.714C617.265 299.346 616.293 298.536 614.583 297.906C612.765 297.204 611.847 296.97 611.847 296.142C611.847 295.404 612.693 295.008 613.431 295.008C614.259 295.008 615.051 295.458 615.159 296.286H616.689C616.599 294.81 615.321 293.712 613.395 293.712C611.829 293.712 610.317 294.612 610.317 296.142C610.317 297.582 611.541 298.266 612.873 298.716C614.781 299.436 615.717 299.652 615.717 300.678C615.717 301.398 614.943 301.866 613.845 301.866C612.567 301.866 611.793 301.308 611.559 300.48H610.011ZM623.116 293.892H621.226V291.192H619.696V293.892H618.4V295.35H619.696V303H621.226V295.35H623.116V293.892ZM625.418 292.38C625.922 292.38 626.3 291.984 626.3 291.498C626.3 290.994 625.922 290.616 625.418 290.616C624.932 290.616 624.536 290.994 624.536 291.498C624.536 291.984 624.932 292.38 625.418 292.38ZM626.192 293.892H624.644V303H626.192V293.892ZM633.685 293.712C632.119 293.712 630.931 294.504 630.103 295.476L630.031 293.892H628.573V303H630.121V298.356C630.121 297.06 630.985 295.17 633.145 295.17C634.549 295.17 635.521 296.034 635.521 298.32V303H637.069V297.672C637.069 295.098 635.791 293.712 633.685 293.712ZM642.651 301.524C641.553 301.524 640.887 301.38 640.887 300.912C640.887 300.678 641.085 300.48 641.409 300.336C641.823 300.48 642.291 300.552 642.777 300.552C644.901 300.552 646.539 299.076 646.539 297.132C646.539 296.394 646.305 295.728 645.891 295.188L646.953 295.278V293.892L644.577 294.108C644.037 293.856 643.425 293.712 642.777 293.712C640.635 293.712 639.015 295.17 639.015 297.132C639.015 298.284 639.573 299.256 640.473 299.868C639.951 300.12 639.429 300.552 639.429 301.164C639.429 301.668 639.771 302.064 640.257 302.334C639.591 302.748 639.015 303.414 639.015 304.422C639.015 306.294 640.851 307.32 642.993 307.32C645.135 307.32 646.971 306.294 646.971 304.422C646.971 302.658 645.351 301.524 642.651 301.524ZM642.777 295.008C644.055 295.008 645.063 295.908 645.063 297.132C645.063 298.338 644.055 299.238 642.777 299.238C641.517 299.238 640.473 298.338 640.473 297.132C640.473 295.908 641.517 295.008 642.777 295.008ZM642.993 306.024C641.499 306.024 640.473 305.448 640.473 304.386C640.473 303.684 641.157 303.054 641.715 302.802C641.895 302.82 642.057 302.838 642.237 302.838C644.145 302.838 645.513 303.252 645.513 304.44C645.513 305.484 644.469 306.024 642.993 306.024Z" fill="#00BF93"/>
<path d="M585.844 312.678V311.22H578.986V324H580.534V318.15H584.998V316.692H580.534V312.678H585.844ZM595.379 319.536C595.379 316.962 593.615 314.712 590.825 314.712C588.125 314.712 586.271 316.836 586.271 319.392C586.271 322.146 588.215 324.18 590.969 324.18C593.363 324.18 594.767 322.596 595.127 321.354L593.759 321.174C593.363 321.984 592.463 322.794 590.969 322.794C589.097 322.794 587.873 321.588 587.819 319.932H595.379V319.536ZM590.825 316.098C592.607 316.098 593.741 317.394 593.831 318.816H587.819C587.873 317.322 589.115 316.098 590.825 316.098ZM605.997 319.536C605.997 316.962 604.233 314.712 601.443 314.712C598.743 314.712 596.889 316.836 596.889 319.392C596.889 322.146 598.833 324.18 601.587 324.18C603.981 324.18 605.385 322.596 605.745 321.354L604.377 321.174C603.981 321.984 603.081 322.794 601.587 322.794C599.715 322.794 598.491 321.588 598.437 319.932H605.997V319.536ZM601.443 316.098C603.225 316.098 604.359 317.394 604.449 318.816H598.437C598.491 317.322 599.733 316.098 601.443 316.098ZM607.506 319.428C607.506 322.056 609.432 324.18 612.042 324.18C613.752 324.18 615.21 323.208 615.786 321.84L615.858 324H617.334V310.5H615.786V317.034C615.21 315.684 613.752 314.712 612.042 314.712C609.432 314.712 607.506 316.836 607.506 319.428ZM609.054 319.428C609.054 317.664 610.494 316.17 612.348 316.17C614.22 316.17 615.624 317.664 615.624 319.428C615.624 321.228 614.22 322.722 612.348 322.722C610.494 322.722 609.054 321.228 609.054 319.428ZM629.406 319.428C629.406 316.836 627.48 314.712 624.87 314.712C623.16 314.712 621.684 315.684 621.126 317.034V310.5H619.578V324H621.054L621.126 321.84C621.684 323.208 623.16 324.18 624.87 324.18C627.48 324.18 629.406 322.056 629.406 319.428ZM627.858 319.428C627.858 321.228 626.418 322.722 624.546 322.722C622.692 322.722 621.288 321.228 621.288 319.428C621.288 317.664 622.692 316.17 624.546 316.17C626.418 316.17 627.858 317.664 627.858 319.428ZM630.726 319.428C630.726 322.056 632.652 324.18 635.262 324.18C637.044 324.18 638.43 323.136 639.006 321.768L639.078 324H640.554V314.892H639.078L639.006 317.124C638.43 315.756 637.044 314.712 635.262 314.712C632.652 314.712 630.726 316.836 630.726 319.428ZM632.274 319.428C632.274 317.664 633.714 316.17 635.568 316.17C637.44 316.17 638.844 317.664 638.844 319.428C638.844 321.228 637.44 322.722 635.568 322.722C633.714 322.722 632.274 321.228 632.274 319.428ZM649.712 317.304V315.81C649.01 315.126 648.038 314.712 646.868 314.712C644.204 314.712 642.152 316.872 642.152 319.428C642.152 322.038 644.204 324.18 646.868 324.18C648.038 324.18 649.01 323.766 649.712 323.082V321.57C648.956 322.326 648.128 322.722 647.102 322.722C645.356 322.722 643.772 321.336 643.772 319.428C643.772 317.556 645.356 316.17 647.102 316.17C648.128 316.17 648.956 316.566 649.712 317.304ZM660.189 314.892H658.029L653.403 319.266V310.5H651.855V324H653.403V321.318L654.915 319.896L658.263 324H660.189L656.013 318.852L660.189 314.892Z" fill="#00BF93"/>
<path d="M595.16 332.22H591.038V345H595.16C598.796 345 601.226 342.192 601.226 338.61C601.226 335.028 598.796 332.22 595.16 332.22ZM595.16 343.542H592.568V333.678H595.16C597.77 333.678 599.678 335.622 599.678 338.61C599.678 341.598 597.77 343.542 595.16 343.542ZM611.542 340.536C611.542 337.962 609.778 335.712 606.988 335.712C604.288 335.712 602.434 337.836 602.434 340.392C602.434 343.146 604.378 345.18 607.132 345.18C609.526 345.18 610.93 343.596 611.29 342.354L609.922 342.174C609.526 342.984 608.626 343.794 607.132 343.794C605.26 343.794 604.036 342.588 603.982 340.932H611.542V340.536ZM606.988 337.098C608.77 337.098 609.904 338.394 609.994 339.816H603.982C604.036 338.322 605.278 337.098 606.988 337.098ZM613.333 349.14H614.881V342.84C615.439 344.226 616.915 345.18 618.625 345.18C621.235 345.18 623.161 343.056 623.161 340.428C623.161 337.836 621.235 335.712 618.625 335.712C616.915 335.712 615.439 336.666 614.881 338.034L614.791 335.892H613.333V349.14ZM615.025 340.428C615.025 338.664 616.447 337.17 618.301 337.17C620.173 337.17 621.613 338.664 621.613 340.428C621.613 342.228 620.173 343.722 618.301 343.722C616.447 343.722 615.025 342.228 615.025 340.428ZM626.412 331.5H624.864V345H626.412V331.5ZM633.151 345.18C635.923 345.18 637.975 343.056 637.975 340.428C637.975 337.836 635.923 335.712 633.151 335.712C630.397 335.712 628.309 337.836 628.309 340.428C628.309 343.056 630.397 345.18 633.151 345.18ZM633.151 343.722C631.297 343.722 629.857 342.228 629.857 340.428C629.857 338.664 631.297 337.17 633.151 337.17C635.023 337.17 636.427 338.664 636.427 340.428C636.427 342.228 635.023 343.722 633.151 343.722ZM638.711 335.892L642.671 344.982L640.871 349.14H642.509L648.251 335.892H646.595L643.499 343.074L640.367 335.892H638.711Z" fill="#00BF93"/>
<path d="M386.968 303H388.516V290.22H386.968V303ZM390.4 298.428C390.4 301.056 392.326 303.18 394.936 303.18C396.646 303.18 398.104 302.208 398.68 300.84L398.752 303H400.228V289.5H398.68V296.034C398.104 294.684 396.646 293.712 394.936 293.712C392.326 293.712 390.4 295.836 390.4 298.428ZM391.948 298.428C391.948 296.664 393.388 295.17 395.242 295.17C397.114 295.17 398.518 296.664 398.518 298.428C398.518 300.228 397.114 301.722 395.242 301.722C393.388 301.722 391.948 300.228 391.948 298.428ZM411.409 298.536C411.409 295.962 409.645 293.712 406.855 293.712C404.155 293.712 402.301 295.836 402.301 298.392C402.301 301.146 404.245 303.18 406.999 303.18C409.393 303.18 410.797 301.596 411.157 300.354L409.789 300.174C409.393 300.984 408.493 301.794 406.999 301.794C405.127 301.794 403.903 300.588 403.849 298.932H411.409V298.536ZM406.855 295.098C408.637 295.098 409.771 296.394 409.861 297.816H403.849C403.903 296.322 405.145 295.098 406.855 295.098ZM412.918 298.428C412.918 301.056 414.844 303.18 417.454 303.18C419.236 303.18 420.622 302.136 421.198 300.768L421.27 303H422.746V293.892H421.27L421.198 296.124C420.622 294.756 419.236 293.712 417.454 293.712C414.844 293.712 412.918 295.836 412.918 298.428ZM414.466 298.428C414.466 296.664 415.906 295.17 417.76 295.17C419.632 295.17 421.036 296.664 421.036 298.428C421.036 300.228 419.632 301.722 417.76 301.722C415.906 301.722 414.466 300.228 414.466 298.428ZM429.24 293.892H427.35V291.192H425.82V293.892H424.524V295.35H425.82V303H427.35V295.35H429.24V293.892ZM431.542 292.38C432.046 292.38 432.424 291.984 432.424 291.498C432.424 290.994 432.046 290.616 431.542 290.616C431.056 290.616 430.66 290.994 430.66 291.498C430.66 291.984 431.056 292.38 431.542 292.38ZM432.316 293.892H430.768V303H432.316V293.892ZM439.205 303.18C441.977 303.18 444.029 301.056 444.029 298.428C444.029 295.836 441.977 293.712 439.205 293.712C436.451 293.712 434.363 295.836 434.363 298.428C434.363 301.056 436.451 303.18 439.205 303.18ZM439.205 301.722C437.351 301.722 435.911 300.228 435.911 298.428C435.911 296.664 437.351 295.17 439.205 295.17C441.077 295.17 442.481 296.664 442.481 298.428C442.481 300.228 441.077 301.722 439.205 301.722ZM450.936 293.712C449.37 293.712 448.182 294.504 447.354 295.476L447.282 293.892H445.824V303H447.372V298.356C447.372 297.06 448.236 295.17 450.396 295.17C451.8 295.17 452.772 296.034 452.772 298.32V303H454.32V297.672C454.32 295.098 453.042 293.712 450.936 293.712Z" fill="#00BF93"/>
<path d="M384.42 311.22H380.208V324H381.738V319.626H384.42C386.904 319.626 388.938 318.168 388.938 315.414C388.938 312.678 386.904 311.22 384.42 311.22ZM384.42 318.15H381.738V312.678H384.42C386.13 312.678 387.408 313.56 387.408 315.414C387.408 317.268 386.13 318.15 384.42 318.15ZM394.151 314.712C393.161 314.712 392.531 315.414 392.063 316.386V316.35L391.973 314.892H390.515V324H392.063V319.464C392.063 317.754 392.657 316.17 394.061 316.17C394.493 316.17 394.853 316.332 395.033 316.458L395.303 315.108C395.105 314.928 394.709 314.712 394.151 314.712ZM400.735 324.18C403.507 324.18 405.559 322.056 405.559 319.428C405.559 316.836 403.507 314.712 400.735 314.712C397.981 314.712 395.893 316.836 395.893 319.428C395.893 322.056 397.981 324.18 400.735 324.18ZM400.735 322.722C398.881 322.722 397.441 321.228 397.441 319.428C397.441 317.664 398.881 316.17 400.735 316.17C402.607 316.17 404.011 317.664 404.011 319.428C404.011 321.228 402.607 322.722 400.735 322.722ZM411.53 314.892H409.64V312.192H408.11V314.892H406.814V316.35H408.11V324H409.64V316.35H411.53V314.892ZM417.329 324.18C420.101 324.18 422.153 322.056 422.153 319.428C422.153 316.836 420.101 314.712 417.329 314.712C414.575 314.712 412.487 316.836 412.487 319.428C412.487 322.056 414.575 324.18 417.329 324.18ZM417.329 322.722C415.475 322.722 414.035 321.228 414.035 319.428C414.035 317.664 415.475 316.17 417.329 316.17C419.201 316.17 420.605 317.664 420.605 319.428C420.605 321.228 419.201 322.722 417.329 322.722ZM428.124 314.892H426.234V312.192H424.704V314.892H423.408V316.35H424.704V324H426.234V316.35H428.124V314.892ZM429.463 314.892L433.423 323.982L431.623 328.14H433.261L439.003 314.892H437.347L434.251 322.074L431.119 314.892H429.463ZM440.647 328.14H442.195V321.84C442.753 323.226 444.229 324.18 445.939 324.18C448.549 324.18 450.475 322.056 450.475 319.428C450.475 316.836 448.549 314.712 445.939 314.712C444.229 314.712 442.753 315.666 442.195 317.034L442.105 314.892H440.647V328.14ZM442.339 319.428C442.339 317.664 443.761 316.17 445.615 316.17C447.487 316.17 448.927 317.664 448.927 319.428C448.927 321.228 447.487 322.722 445.615 322.722C443.761 322.722 442.339 321.228 442.339 319.428ZM460.9 319.536C460.9 316.962 459.136 314.712 456.346 314.712C453.646 314.712 451.792 316.836 451.792 319.392C451.792 322.146 453.736 324.18 456.49 324.18C458.884 324.18 460.288 322.596 460.648 321.354L459.28 321.174C458.884 321.984 457.984 322.794 456.49 322.794C454.618 322.794 453.394 321.588 453.34 319.932H460.9V319.536ZM456.346 316.098C458.128 316.098 459.262 317.394 459.352 318.816H453.34C453.394 317.322 454.636 316.098 456.346 316.098Z" fill="#00BF93"/>
<path d="M404.263 332.22L399.349 340.14L394.417 332.22H392.887V345H394.417V335.028L398.989 342.408H399.691L404.263 335.028V345H405.811V332.22H404.263ZM412.689 345.18C415.461 345.18 417.513 343.056 417.513 340.428C417.513 337.836 415.461 335.712 412.689 335.712C409.935 335.712 407.847 337.836 407.847 340.428C407.847 343.056 409.935 345.18 412.689 345.18ZM412.689 343.722C410.835 343.722 409.395 342.228 409.395 340.428C409.395 338.664 410.835 337.17 412.689 337.17C414.561 337.17 415.965 338.664 415.965 340.428C415.965 342.228 414.561 343.722 412.689 343.722ZM423.484 335.892H421.594V333.192H420.063V335.892H418.768V337.35H420.063V345H421.594V337.35H423.484V335.892ZM425.785 334.38C426.289 334.38 426.667 333.984 426.667 333.498C426.667 332.994 426.289 332.616 425.785 332.616C425.299 332.616 424.903 332.994 424.903 333.498C424.903 333.984 425.299 334.38 425.785 334.38ZM426.559 335.892H425.011V345H426.559V335.892ZM433.448 345.18C436.22 345.18 438.272 343.056 438.272 340.428C438.272 337.836 436.22 335.712 433.448 335.712C430.694 335.712 428.606 337.836 428.606 340.428C428.606 343.056 430.694 345.18 433.448 345.18ZM433.448 343.722C431.594 343.722 430.154 342.228 430.154 340.428C430.154 338.664 431.594 337.17 433.448 337.17C435.32 337.17 436.724 338.664 436.724 340.428C436.724 342.228 435.32 343.722 433.448 343.722ZM445.179 335.712C443.613 335.712 442.425 336.504 441.597 337.476L441.525 335.892H440.067V345H441.615V340.356C441.615 339.06 442.479 337.17 444.639 337.17C446.043 337.17 447.015 338.034 447.015 340.32V345H448.563V339.672C448.563 337.098 447.285 335.712 445.179 335.712Z" fill="#00BF93"/>
<path d="M172.001 303H173.603L168.995 290.22H167.249L162.641 303H164.243L165.377 299.85H170.867L172.001 303ZM165.899 298.392L168.113 292.236L170.327 298.392H165.899ZM174.581 300.48C174.797 302.226 176.291 303.18 178.379 303.18C180.377 303.18 181.835 302.226 181.835 300.714C181.835 299.346 180.863 298.536 179.153 297.906C177.335 297.204 176.417 296.97 176.417 296.142C176.417 295.404 177.263 295.008 178.001 295.008C178.829 295.008 179.621 295.458 179.729 296.286H181.259C181.169 294.81 179.891 293.712 177.965 293.712C176.399 293.712 174.887 294.612 174.887 296.142C174.887 297.582 176.111 298.266 177.443 298.716C179.351 299.436 180.287 299.652 180.287 300.678C180.287 301.398 179.513 301.866 178.415 301.866C177.137 301.866 176.363 301.308 176.129 300.48H174.581ZM182.966 300.48C183.182 302.226 184.676 303.18 186.764 303.18C188.762 303.18 190.22 302.226 190.22 300.714C190.22 299.346 189.248 298.536 187.538 297.906C185.72 297.204 184.802 296.97 184.802 296.142C184.802 295.404 185.648 295.008 186.386 295.008C187.214 295.008 188.006 295.458 188.114 296.286H189.644C189.554 294.81 188.276 293.712 186.35 293.712C184.784 293.712 183.272 294.612 183.272 296.142C183.272 297.582 184.496 298.266 185.828 298.716C187.736 299.436 188.672 299.652 188.672 300.678C188.672 301.398 187.898 301.866 186.8 301.866C185.522 301.866 184.748 301.308 184.514 300.48H182.966ZM198.683 293.892V298.536H198.665C198.665 299.832 197.801 301.722 195.641 301.722C194.237 301.722 193.265 300.858 193.265 298.572V293.892H191.717V299.22C191.717 301.794 192.995 303.18 195.101 303.18C196.685 303.18 197.855 302.388 198.701 301.398L198.755 303H200.213V293.892H198.683ZM213.44 293.712C211.928 293.712 210.794 294.63 210.002 295.764C209.588 294.504 208.634 293.712 207.212 293.712C205.844 293.712 204.764 294.486 203.99 295.476L203.918 293.892H202.46V303H204.008V298.662C204.116 296.754 205.106 295.17 206.672 295.17C207.968 295.17 208.688 296.232 208.688 297.798V303H210.236V298.662C210.344 296.754 211.334 295.17 212.9 295.17C214.214 295.17 214.916 296.232 214.916 297.798V303H216.464V297.33C216.464 295.206 215.384 293.712 213.44 293.712ZM218.72 307.14H220.268V300.84C220.826 302.226 222.302 303.18 224.012 303.18C226.622 303.18 228.548 301.056 228.548 298.428C228.548 295.836 226.622 293.712 224.012 293.712C222.302 293.712 220.826 294.666 220.268 296.034L220.178 293.892H218.72V307.14ZM220.412 298.428C220.412 296.664 221.834 295.17 223.688 295.17C225.56 295.17 227 296.664 227 298.428C227 300.228 225.56 301.722 223.688 301.722C221.834 301.722 220.412 300.228 220.412 298.428ZM234.515 293.892H232.625V291.192H231.095V293.892H229.799V295.35H231.095V303H232.625V295.35H234.515V293.892ZM236.816 292.38C237.32 292.38 237.698 291.984 237.698 291.498C237.698 290.994 237.32 290.616 236.816 290.616C236.33 290.616 235.934 290.994 235.934 291.498C235.934 291.984 236.33 292.38 236.816 292.38ZM237.59 293.892H236.042V303H237.59V293.892ZM244.48 303.18C247.252 303.18 249.304 301.056 249.304 298.428C249.304 295.836 247.252 293.712 244.48 293.712C241.726 293.712 239.638 295.836 239.638 298.428C239.638 301.056 241.726 303.18 244.48 303.18ZM244.48 301.722C242.626 301.722 241.186 300.228 241.186 298.428C241.186 296.664 242.626 295.17 244.48 295.17C246.352 295.17 247.756 296.664 247.756 298.428C247.756 300.228 246.352 301.722 244.48 301.722ZM256.211 293.712C254.645 293.712 253.457 294.504 252.629 295.476L252.557 293.892H251.099V303H252.647V298.356C252.647 297.06 253.511 295.17 255.671 295.17C257.075 295.17 258.047 296.034 258.047 298.32V303H259.595V297.672C259.595 295.098 258.317 293.712 256.211 293.712ZM261.276 300.48C261.492 302.226 262.986 303.18 265.074 303.18C267.072 303.18 268.53 302.226 268.53 300.714C268.53 299.346 267.558 298.536 265.848 297.906C264.03 297.204 263.112 296.97 263.112 296.142C263.112 295.404 263.958 295.008 264.696 295.008C265.524 295.008 266.316 295.458 266.424 296.286H267.954C267.864 294.81 266.586 293.712 264.66 293.712C263.094 293.712 261.582 294.612 261.582 296.142C261.582 297.582 262.806 298.266 264.138 298.716C266.046 299.436 266.982 299.652 266.982 300.678C266.982 301.398 266.208 301.866 265.11 301.866C263.832 301.866 263.058 301.308 262.824 300.48H261.276Z" fill="#00BF93"/>
<path d="M175.368 311.22H171.156V324H172.686V319.626H175.368C177.852 319.626 179.886 318.168 179.886 315.414C179.886 312.678 177.852 311.22 175.368 311.22ZM175.368 318.15H172.686V312.678H175.368C177.078 312.678 178.356 313.56 178.356 315.414C178.356 317.268 177.078 318.15 175.368 318.15ZM180.742 319.428C180.742 322.056 182.668 324.18 185.278 324.18C187.06 324.18 188.446 323.136 189.022 321.768L189.094 324H190.57V314.892H189.094L189.022 317.124C188.446 315.756 187.06 314.712 185.278 314.712C182.668 314.712 180.742 316.836 180.742 319.428ZM182.29 319.428C182.29 317.664 183.73 316.17 185.584 316.17C187.456 316.17 188.86 317.664 188.86 319.428C188.86 321.228 187.456 322.722 185.584 322.722C183.73 322.722 182.29 321.228 182.29 319.428ZM193.249 313.38C193.753 313.38 194.131 312.984 194.131 312.498C194.131 311.994 193.753 311.616 193.249 311.616C192.763 311.616 192.367 311.994 192.367 312.498C192.367 312.984 192.763 313.38 193.249 313.38ZM194.023 314.892H192.475V324H194.023V314.892ZM201.516 314.712C199.95 314.712 198.762 315.504 197.934 316.476L197.862 314.892H196.404V324H197.952V319.356C197.952 318.06 198.816 316.17 200.976 316.17C202.38 316.17 203.352 317.034 203.352 319.32V324H204.9V318.672C204.9 316.098 203.622 314.712 201.516 314.712ZM216.202 311.22H211.99V324H213.52V319.626H216.202C218.686 319.626 220.72 318.168 220.72 315.414C220.72 312.678 218.686 311.22 216.202 311.22ZM216.202 318.15H213.52V312.678H216.202C217.912 312.678 219.19 313.56 219.19 315.414C219.19 317.268 217.912 318.15 216.202 318.15ZM226.418 324.18C229.19 324.18 231.242 322.056 231.242 319.428C231.242 316.836 229.19 314.712 226.418 314.712C223.664 314.712 221.576 316.836 221.576 319.428C221.576 322.056 223.664 324.18 226.418 324.18ZM226.418 322.722C224.564 322.722 223.124 321.228 223.124 319.428C223.124 317.664 224.564 316.17 226.418 316.17C228.29 316.17 229.694 317.664 229.694 319.428C229.694 321.228 228.29 322.722 226.418 322.722ZM233.696 313.38C234.2 313.38 234.578 312.984 234.578 312.498C234.578 311.994 234.2 311.616 233.696 311.616C233.21 311.616 232.814 311.994 232.814 312.498C232.814 312.984 233.21 313.38 233.696 313.38ZM234.47 314.892H232.922V324H234.47V314.892ZM241.963 314.712C240.397 314.712 239.209 315.504 238.381 316.476L238.309 314.892H236.851V324H238.399V319.356C238.399 318.06 239.263 316.17 241.423 316.17C242.827 316.17 243.799 317.034 243.799 319.32V324H245.347V318.672C245.347 316.098 244.069 314.712 241.963 314.712ZM251.662 314.892H249.772V312.192H248.242V314.892H246.946V316.35H248.242V324H249.772V316.35H251.662V314.892ZM252.689 321.48C252.905 323.226 254.399 324.18 256.487 324.18C258.485 324.18 259.943 323.226 259.943 321.714C259.943 320.346 258.971 319.536 257.261 318.906C255.443 318.204 254.525 317.97 254.525 317.142C254.525 316.404 255.371 316.008 256.109 316.008C256.937 316.008 257.729 316.458 257.837 317.286H259.367C259.277 315.81 257.999 314.712 256.073 314.712C254.507 314.712 252.995 315.612 252.995 317.142C252.995 318.582 254.219 319.266 255.551 319.716C257.459 320.436 258.395 320.652 258.395 321.678C258.395 322.398 257.621 322.866 256.523 322.866C255.245 322.866 254.471 322.308 254.237 321.48H252.689Z" fill="#00BF93"/>
<path d="M167.903 345.18C171.557 345.18 174.365 342.228 174.365 338.61C174.365 334.992 171.557 332.04 167.903 332.04C164.267 332.04 161.459 334.992 161.459 338.61C161.459 342.228 164.267 345.18 167.903 345.18ZM167.903 343.722C165.131 343.722 163.007 341.4 163.007 338.61C163.007 335.82 165.131 333.498 167.903 333.498C170.693 333.498 172.817 335.82 172.817 338.61C172.817 341.4 170.693 343.722 167.903 343.722ZM175.943 349.14H177.491V342.84C178.049 344.226 179.525 345.18 181.235 345.18C183.845 345.18 185.771 343.056 185.771 340.428C185.771 337.836 183.845 335.712 181.235 335.712C179.525 335.712 178.049 336.666 177.491 338.034L177.401 335.892H175.943V349.14ZM177.635 340.428C177.635 338.664 179.057 337.17 180.911 337.17C182.783 337.17 184.223 338.664 184.223 340.428C184.223 342.228 182.783 343.722 180.911 343.722C179.057 343.722 177.635 342.228 177.635 340.428ZM187.562 349.14H189.11V342.84C189.668 344.226 191.144 345.18 192.854 345.18C195.464 345.18 197.39 343.056 197.39 340.428C197.39 337.836 195.464 335.712 192.854 335.712C191.144 335.712 189.668 336.666 189.11 338.034L189.02 335.892H187.562V349.14ZM189.254 340.428C189.254 338.664 190.676 337.17 192.53 337.17C194.402 337.17 195.842 338.664 195.842 340.428C195.842 342.228 194.402 343.722 192.53 343.722C190.676 343.722 189.254 342.228 189.254 340.428ZM203.549 345.18C206.321 345.18 208.373 343.056 208.373 340.428C208.373 337.836 206.321 335.712 203.549 335.712C200.795 335.712 198.707 337.836 198.707 340.428C198.707 343.056 200.795 345.18 203.549 345.18ZM203.549 343.722C201.695 343.722 200.255 342.228 200.255 340.428C200.255 338.664 201.695 337.17 203.549 337.17C205.421 337.17 206.825 338.664 206.825 340.428C206.825 342.228 205.421 343.722 203.549 343.722ZM213.804 335.712C212.814 335.712 212.184 336.414 211.716 337.386V337.35L211.626 335.892H210.168V345H211.716V340.464C211.716 338.754 212.31 337.17 213.714 337.17C214.146 337.17 214.506 337.332 214.686 337.458L214.956 336.108C214.758 335.928 214.362 335.712 213.804 335.712ZM220.707 335.892H218.817V333.192H217.287V335.892H215.991V337.35H217.287V345H218.817V337.35H220.707V335.892ZM229.155 335.892V340.536H229.137C229.137 341.832 228.273 343.722 226.113 343.722C224.709 343.722 223.737 342.858 223.737 340.572V335.892H222.189V341.22C222.189 343.794 223.467 345.18 225.573 345.18C227.157 345.18 228.327 344.388 229.173 343.398L229.227 345H230.685V335.892H229.155ZM238.044 335.712C236.478 335.712 235.29 336.504 234.462 337.476L234.39 335.892H232.932V345H234.48V340.356C234.48 339.06 235.344 337.17 237.504 337.17C238.908 337.17 239.88 338.034 239.88 340.32V345H241.428V339.672C241.428 337.098 240.15 335.712 238.044 335.712ZM244.296 334.38C244.8 334.38 245.178 333.984 245.178 333.498C245.178 332.994 244.8 332.616 244.296 332.616C243.81 332.616 243.414 332.994 243.414 333.498C243.414 333.984 243.81 334.38 244.296 334.38ZM245.07 335.892H243.522V345H245.07V335.892ZM251.346 335.892H249.456V333.192H247.926V335.892H246.63V337.35H247.926V345H249.456V337.35H251.346V335.892ZM261.411 340.536C261.411 337.962 259.647 335.712 256.857 335.712C254.157 335.712 252.303 337.836 252.303 340.392C252.303 343.146 254.247 345.18 257.001 345.18C259.395 345.18 260.799 343.596 261.159 342.354L259.791 342.174C259.395 342.984 258.495 343.794 257.001 343.794C255.129 343.794 253.905 342.588 253.851 340.932H261.411V340.536ZM256.857 337.098C258.639 337.098 259.773 338.394 259.863 339.816H253.851C253.905 338.322 255.147 337.098 256.857 337.098ZM262.639 342.48C262.855 344.226 264.349 345.18 266.437 345.18C268.435 345.18 269.893 344.226 269.893 342.714C269.893 341.346 268.921 340.536 267.211 339.906C265.393 339.204 264.475 338.97 264.475 338.142C264.475 337.404 265.321 337.008 266.059 337.008C266.887 337.008 267.679 337.458 267.787 338.286H269.317C269.227 336.81 267.949 335.712 266.023 335.712C264.457 335.712 262.945 336.612 262.945 338.142C262.945 339.582 264.169 340.266 265.501 340.716C267.409 341.436 268.345 341.652 268.345 342.678C268.345 343.398 267.571 343.866 266.473 343.866C265.195 343.866 264.421 343.308 264.187 342.48H262.639Z" fill="#00BF93"/>
<path d="M557 278H681" stroke="black"/>
<rect x="555" y="276" width="4" height="4" fill="#00BF93"/>
<rect x="679" y="276" width="4" height="4" fill="#00BF93"/>
<path d="M358 278H482" stroke="black"/>
<rect x="356" y="276" width="4" height="4" fill="#00BF93"/>
<rect x="480" y="276" width="4" height="4" fill="#00BF93"/>
<path d="M358 278H482" stroke="black"/>
<rect x="356" y="276" width="4" height="4" fill="#00BF93"/>
<rect x="480" y="276" width="4" height="4" fill="#00BF93"/>
<path d="M153 278H277" stroke="black"/>
<rect x="151" y="276" width="4" height="4" fill="#00BF93"/>
<rect x="275" y="276" width="4" height="4" fill="#00BF93"/>
<path d="M153 278H277" stroke="black"/>
<rect x="151" y="276" width="4" height="4" fill="#00BF93"/>
<rect x="275" y="276" width="4" height="4" fill="#00BF93"/>
</svg>
