<?xml version="1.0" encoding="utf-8"?>
<!-- Generator: Adobe Illustrator 25.2.0, SVG Export Plug-In . SVG Version: 6.00 Build 0)  -->
<svg version="1.1" id="Layer_1" xmlns="http://www.w3.org/2000/svg" xmlns:xlink="http://www.w3.org/1999/xlink" x="0px" y="0px"
	 viewBox="0 0 200 75" style="enable-background:new 0 0 200 75;" xml:space="preserve">
<style type="text/css">
	.st0{fill:#26B088;}
	.st1{fill:#737171;}
	.st2{fill:none;stroke:#26B088;stroke-miterlimit:10;}
	.st3{fill:none;stroke:#3F3D3C;stroke-miterlimit:10;}
	.st4{fill:#737171;stroke:#3F3D3C;stroke-linecap:round;stroke-linejoin:round;stroke-miterlimit:10;}
</style>
<g>
	<g>
		<path class="st0" d="M6.45,16.4c-1.39,0-2.09-0.77-2.09-2.31v-2.73h1.19v2.73c0,0.44,0.07,0.75,0.21,0.93
			c0.14,0.17,0.37,0.26,0.69,0.26s0.55-0.09,0.69-0.26c0.14-0.17,0.21-0.48,0.21-0.93v-2.73h1.19v2.73
			C8.53,15.63,7.84,16.4,6.45,16.4z"/>
		<path class="st0" d="M12.2,13.85l1.88,2.49h-1.44l-1.16-1.53l-1.16,1.53H8.88l1.88-2.49l-1.88-2.48h1.44l1.16,1.53l1.16-1.53h1.44
			L12.2,13.85z"/>
		<path class="st0" d="M17.33,16.33h-1.02l1.86-4.97h1.01L17.33,16.33z"/>
		<path class="st0" d="M23.52,16.4c-1.39,0-2.09-0.77-2.09-2.31v-2.73h1.19v2.73c0,0.44,0.07,0.75,0.21,0.93
			c0.14,0.17,0.37,0.26,0.69,0.26s0.55-0.09,0.69-0.26c0.14-0.17,0.21-0.48,0.21-0.93v-2.73h1.19v2.73
			C25.61,15.63,24.91,16.4,23.52,16.4z"/>
		<path class="st0" d="M26.16,11.36h1.19v4.97h-1.19V11.36z"/>
		<path class="st0" d="M32.89,11.69c0.37,0.22,0.66,0.52,0.87,0.9s0.31,0.8,0.31,1.26s-0.1,0.88-0.31,1.26s-0.5,0.68-0.87,0.9
			c-0.37,0.22-0.79,0.33-1.25,0.33H29.8v-4.97h1.84C32.11,11.36,32.52,11.47,32.89,11.69z M32.54,14.87
			c0.24-0.23,0.35-0.57,0.35-1.03c0-0.46-0.12-0.8-0.35-1.03c-0.24-0.23-0.53-0.34-0.89-0.34h-0.65v2.73h0.65
			C32,15.21,32.3,15.1,32.54,14.87z"/>
		<path class="st0" d="M35.69,12.48v0.8h1.4v1.12h-1.4v0.81h1.75v1.12H34.5v-4.97h2.94v1.12H35.69z"/>
		<path class="st0" d="M38.91,14.67c0,0.2,0.05,0.35,0.16,0.46s0.25,0.15,0.43,0.15c0.15,0,0.26-0.03,0.34-0.09
			c0.08-0.06,0.12-0.13,0.12-0.22c0-0.09-0.04-0.16-0.11-0.23c-0.07-0.06-0.21-0.16-0.42-0.28l-0.25-0.15
			c-0.38-0.23-0.66-0.43-0.86-0.62c-0.19-0.18-0.32-0.35-0.39-0.51c-0.07-0.16-0.1-0.35-0.1-0.56c0-0.26,0.07-0.49,0.2-0.7
			c0.13-0.2,0.32-0.36,0.55-0.47s0.49-0.17,0.78-0.17c0.33,0,0.61,0.08,0.86,0.23c0.25,0.15,0.44,0.36,0.58,0.62
			c0.14,0.26,0.2,0.55,0.2,0.87h-1.19c0-0.2-0.04-0.34-0.12-0.44s-0.19-0.15-0.33-0.15c-0.1,0-0.18,0.02-0.25,0.07
			c-0.07,0.05-0.1,0.12-0.1,0.2c0,0.1,0.04,0.18,0.12,0.26s0.24,0.18,0.48,0.32c0.37,0.21,0.66,0.41,0.88,0.58
			c0.22,0.17,0.38,0.35,0.49,0.54s0.16,0.41,0.16,0.64c0,0.29-0.07,0.54-0.22,0.75s-0.35,0.37-0.6,0.47
			c-0.25,0.11-0.52,0.16-0.82,0.16c-0.38,0-0.71-0.08-0.98-0.25c-0.27-0.17-0.47-0.39-0.61-0.65c-0.13-0.27-0.2-0.54-0.2-0.83H38.91
			z"/>
		<path class="st0" d="M41.57,11.36h1.19v4.97h-1.19V11.36z"/>
		<path class="st0" d="M48.26,13.45c0,0.63-0.11,1.17-0.32,1.62c-0.21,0.44-0.51,0.78-0.9,1c-0.38,0.22-0.82,0.34-1.32,0.34
			c-0.46,0-0.88-0.12-1.26-0.35c-0.38-0.23-0.67-0.54-0.89-0.93c-0.22-0.39-0.33-0.82-0.33-1.28s0.11-0.89,0.33-1.28
			c0.22-0.39,0.53-0.7,0.93-0.93s0.85-0.34,1.35-0.34c0.4,0,0.76,0.09,1.09,0.26s0.61,0.42,0.85,0.73l-0.9,0.69
			c-0.11-0.16-0.26-0.29-0.43-0.4s-0.38-0.16-0.61-0.16c-0.28,0-0.53,0.06-0.74,0.19s-0.38,0.29-0.5,0.51
			c-0.12,0.22-0.18,0.46-0.18,0.73c0,0.27,0.05,0.52,0.16,0.74c0.1,0.22,0.25,0.39,0.45,0.51c0.19,0.12,0.42,0.19,0.67,0.19
			c0.29,0,0.54-0.06,0.75-0.19c0.21-0.12,0.36-0.3,0.46-0.53h-1.53v-1.12H48.26z"/>
		<path class="st0" d="M53.21,11.36v4.97h-1.19l-2.15-2.99v2.99h-1.19v-4.97h1.19l2.15,2.99v-2.99H53.21z"/>
		<path class="st0" d="M54.89,12.48v0.8h1.4v1.12h-1.4v0.81h1.75v1.12H53.7v-4.97h2.94v1.12H54.89z"/>
		<path class="st0" d="M58.91,14.9h-0.59v1.43h-1.19v-4.97h2c0.33,0,0.63,0.07,0.92,0.22s0.52,0.35,0.69,0.62
			c0.17,0.27,0.26,0.58,0.26,0.93c0,0.34-0.08,0.64-0.24,0.91c-0.16,0.26-0.38,0.47-0.65,0.62l0.97,1.67h-1.34L58.91,14.9z
			 M58.32,13.78h0.81c0.2,0,0.36-0.06,0.49-0.17c0.13-0.12,0.19-0.28,0.19-0.48c0-0.2-0.06-0.36-0.19-0.48
			c-0.13-0.12-0.29-0.17-0.49-0.17h-0.81V13.78z"/>
	</g>
	<g>
		<path class="st1" d="M17.08,54.61c-0.38-0.3-0.89-0.56-1.52-0.79c-0.63-0.23-1.34-0.35-2.12-0.35c-0.9,0-1.73,0.2-2.5,0.6
			c-0.77,0.4-1.38,0.97-1.82,1.72c-0.45,0.74-0.67,1.61-0.67,2.6c0,0.99,0.22,1.86,0.67,2.6c0.45,0.74,1.06,1.32,1.82,1.72
			c0.77,0.4,1.6,0.6,2.5,0.6c0.78,0,1.49-0.12,2.12-0.35c0.63-0.23,1.14-0.5,1.52-0.79c0.38-0.3,0.65-0.54,0.79-0.73v4.08
			c-0.48,0.38-1.12,0.75-1.93,1.1c-0.81,0.35-1.82,0.53-3.04,0.53c-1.55,0-2.98-0.38-4.3-1.14C7.3,65.25,6.26,64.2,5.5,62.86
			c-0.76-1.34-1.14-2.83-1.14-4.46s0.38-3.12,1.14-4.46c0.76-1.34,1.8-2.4,3.11-3.16c1.31-0.76,2.74-1.14,4.3-1.14
			c1.22,0,2.23,0.18,3.04,0.53c0.81,0.35,1.45,0.72,1.93,1.1v4.08C17.73,55.15,17.46,54.91,17.08,54.61z"/>
		<path class="st1" d="M34.43,49.87v17.04h-4.08V60.5h-6.72v6.41h-4.08V49.87h4.08v6.79h6.72v-6.79H34.43z"/>
		<path class="st1" d="M47.2,63.72h-6.19l-1.15,3.19h-4.22l6.14-17.04h4.66l6.14,17.04h-4.22L47.2,63.72z M45.81,59.88l-1.7-4.75
			l-1.7,4.75H45.81z"/>
		<path class="st1" d="M59.63,62.02h-2.02v4.9h-4.08V49.87h6.84c1.12,0,2.17,0.25,3.16,0.74c0.98,0.5,1.78,1.2,2.38,2.12
			c0.6,0.92,0.9,1.99,0.9,3.2c0,1.17-0.28,2.2-0.83,3.11s-1.3,1.61-2.24,2.12l3.31,5.74h-4.58L59.63,62.02z M57.62,58.18h2.76
			c0.69,0,1.25-0.2,1.69-0.6s0.66-0.94,0.66-1.63s-0.22-1.23-0.66-1.63c-0.44-0.4-1-0.6-1.69-0.6h-2.76V58.18z"/>
		<path class="st1" d="M80.49,63.07v3.84H69.45V49.87h4.08v13.2H80.49z"/>
		<path class="st1" d="M86.01,53.71v2.74h4.8v3.84h-4.8v2.78h6v3.84H81.93V49.87h10.08v3.84H86.01z"/>
		<path class="st1" d="M97.05,61.22c0,0.69,0.19,1.21,0.56,1.56s0.87,0.53,1.48,0.53c0.51,0,0.9-0.1,1.16-0.31
			c0.26-0.21,0.4-0.46,0.4-0.74c0-0.3-0.12-0.56-0.37-0.78s-0.73-0.54-1.45-0.97L97.96,60c-1.3-0.78-2.28-1.49-2.94-2.11
			s-1.11-1.21-1.34-1.76c-0.23-0.55-0.35-1.19-0.35-1.91c0-0.9,0.23-1.69,0.7-2.39s1.1-1.24,1.9-1.62c0.8-0.38,1.7-0.58,2.69-0.58
			c1.12,0,2.11,0.26,2.96,0.78c0.86,0.52,1.52,1.22,1.98,2.11c0.46,0.89,0.7,1.88,0.7,2.99h-4.08c0-0.67-0.14-1.18-0.42-1.52
			c-0.28-0.34-0.66-0.52-1.14-0.52c-0.34,0-0.62,0.08-0.85,0.25c-0.23,0.17-0.35,0.4-0.35,0.68c0,0.34,0.14,0.63,0.41,0.88
			s0.82,0.61,1.66,1.09c1.26,0.74,2.27,1.4,3.01,1.98c0.74,0.58,1.3,1.2,1.68,1.86c0.38,0.66,0.56,1.39,0.56,2.21
			c0,0.99-0.26,1.84-0.77,2.56c-0.51,0.71-1.2,1.25-2.05,1.62c-0.86,0.37-1.8,0.55-2.82,0.55c-1.31,0-2.43-0.29-3.36-0.86
			s-1.62-1.32-2.08-2.23c-0.46-0.91-0.68-1.86-0.68-2.83H97.05z"/>
	</g>
	<path class="st2" d="M122.23,51c1.27,0.75,2.27,1.78,2.99,3.07c0.72,1.3,1.08,2.74,1.08,4.32s-0.36,3.02-1.08,4.32
		c-0.72,1.3-1.72,2.32-2.99,3.07c-1.27,0.75-2.7,1.13-4.28,1.13h-6.31V49.87h6.31C119.53,49.87,120.96,50.25,122.23,51z M121,61.91
		c0.81-0.78,1.21-1.95,1.21-3.52c0-1.57-0.4-2.74-1.21-3.52c-0.81-0.78-1.83-1.16-3.06-1.16h-2.23v9.36h2.23
		C119.18,63.07,120.2,62.68,121,61.91z"/>
	<path class="st2" d="M136.38,67.15c-4.77,0-7.15-2.64-7.15-7.92v-9.36h4.08v9.36c0,1.52,0.24,2.58,0.72,3.18
		c0.48,0.6,1.26,0.9,2.35,0.9s1.87-0.3,2.35-0.9c0.48-0.6,0.72-1.66,0.72-3.18v-9.36h4.08v9.36
		C143.54,64.51,141.15,67.15,136.38,67.15z"/>
	<path class="st2" d="M163.1,49.87l-5.47,17.04h-4.8l-5.47-17.04h4.25l3.62,11.69l3.62-11.69H163.1z"/>
	<path class="st2" d="M174.24,63.72h-6.19l-1.15,3.19h-4.22l6.14-17.04h4.66l6.14,17.04h-4.22L174.24,63.72z M172.85,59.88
		l-1.7-4.75l-1.7,4.75H172.85z"/>
	<path class="st2" d="M194.59,63.07v3.84h-11.04V49.87h4.08v13.2H194.59z"/>
	<rect x="110.46" y="48.7" class="st0" width="2.35" height="2.35"/>
	<rect x="110.46" y="65.44" class="st0" width="2.35" height="2.35"/>
	<rect x="125" y="56.76" class="st0" width="2.35" height="2.35"/>
	<rect x="128.06" y="48.7" class="st0" width="2.35" height="2.35"/>
	<rect x="131.97" y="48.7" class="st0" width="2.35" height="2.35"/>
	<rect x="135.11" y="62.03" class="st0" width="2.35" height="2.35"/>
	<rect x="135.11" y="65.98" class="st0" width="2.35" height="2.35"/>
	<rect x="151.47" y="65.98" class="st0" width="2.35" height="2.35"/>
	<rect x="157.73" y="48.73" class="st0" width="2.35" height="2.35"/>
	<rect x="150.2" y="48.73" class="st0" width="2.35" height="2.35"/>
	<rect x="146.4" y="48.73" class="st0" width="2.35" height="2.35"/>
	<rect x="161.93" y="48.73" class="st0" width="2.35" height="2.35"/>
	<rect x="156.46" y="65.98" class="st0" width="2.35" height="2.35"/>
	<rect x="161.77" y="65.98" class="st0" width="2.35" height="2.35"/>
	<rect x="165.98" y="65.98" class="st0" width="2.35" height="2.35"/>
	<rect x="174.18" y="65.98" class="st0" width="2.35" height="2.35"/>
	<rect x="178.27" y="65.98" class="st0" width="2.35" height="2.35"/>
	<rect x="167.65" y="48.53" class="st0" width="2.35" height="2.35"/>
	<rect x="171.94" y="48.53" class="st0" width="2.35" height="2.35"/>
	<rect x="182.57" y="48.53" class="st0" width="2.35" height="2.35"/>
	<rect x="182.53" y="66.02" class="st0" width="2.35" height="2.35"/>
	<rect x="193.22" y="61.98" class="st0" width="2.35" height="2.35"/>
	<rect x="193.13" y="66.02" class="st0" width="2.35" height="2.35"/>
	<rect x="186.31" y="48.53" class="st0" width="2.35" height="2.35"/>
	<rect x="138.54" y="48.7" class="st0" width="2.35" height="2.35"/>
	<rect x="142.53" y="48.7" class="st0" width="2.35" height="2.35"/>
	<g>
		<path class="st1" d="M157.84,19.33h-9.27c-0.95,0-1.71-0.77-1.71-1.71V8.34c0-0.94,0.77-1.71,1.71-1.71h9.27
			c0.94,0,1.71,0.77,1.71,1.71v9.27C159.55,18.56,158.78,19.33,157.84,19.33z M148.57,7.63c-0.39,0-0.71,0.32-0.71,0.71v9.27
			c0,0.39,0.32,0.71,0.71,0.71h9.27c0.39,0,0.71-0.32,0.71-0.71V8.34c0-0.39-0.32-0.71-0.71-0.71H148.57z"/>
		<path class="st1" d="M171.89,19.33c-3.5,0-6.35-2.85-6.35-6.35s2.85-6.35,6.35-6.35s6.35,2.85,6.35,6.35
			S175.39,19.33,171.89,19.33z M171.89,7.63c-2.95,0-5.35,2.4-5.35,5.35s2.4,5.35,5.35,5.35s5.35-2.4,5.35-5.35
			S174.84,7.63,171.89,7.63z"/>
		<path class="st1" d="M149.51,17.25c-0.13,0-0.26-0.05-0.35-0.15c-0.2-0.2-0.2-0.51,0-0.71l0.97-0.97l-0.86-0.86
			c-0.2-0.2-0.2-0.51,0-0.71s0.51-0.2,0.71,0l1.21,1.21c0.2,0.2,0.2,0.51,0,0.71l-1.33,1.33C149.76,17.2,149.64,17.25,149.51,17.25z
			"/>
		<path class="st1" d="M155.11,17.09h-2.74c-0.28,0-0.5-0.22-0.5-0.5s0.22-0.5,0.5-0.5h2.74c0.28,0,0.5,0.22,0.5,0.5
			S155.38,17.09,155.11,17.09z"/>
		<circle class="st1" cx="169.68" cy="11.95" r="0.7"/>
		<circle class="st1" cx="171.89" cy="10.29" r="0.7"/>
		<circle class="st1" cx="174.09" cy="11.95" r="0.7"/>
		<path class="st1" d="M171.94,16.46c-0.04,0-0.07,0-0.11,0c-1.33-0.06-2.2-1.22-2.24-1.27c-0.16-0.22-0.12-0.54,0.11-0.7
			c0.22-0.16,0.53-0.12,0.7,0.1c0.01,0.02,0.64,0.83,1.49,0.87c0.51,0.02,1.09-0.28,1.64-0.9c0.18-0.21,0.5-0.23,0.71-0.04
			c0.21,0.18,0.23,0.5,0.04,0.71C173.55,16.04,172.76,16.46,171.94,16.46z"/>
		<path class="st1" d="M188.89,17.04c-0.3,0-0.6-0.12-0.82-0.34l-2.68-2.68c-0.38-0.38-0.45-0.98-0.17-1.44l2.67-4.29l6.59-1.6
			c0.32-0.08,0.66,0.02,0.89,0.25c0.23,0.24,0.32,0.57,0.24,0.89l-1.49,5.76l-4.56,3.23C189.36,16.97,189.12,17.04,188.89,17.04z
			 M188.52,9.17l-2.45,3.94c-0.04,0.06-0.03,0.15,0.02,0.2l2.68,2.68c0.06,0.06,0.15,0.06,0.21,0.02v0l4.26-3.02l1.37-5.3
			L188.52,9.17z"/>
		<path class="st1" d="M187.75,19.52c-0.13,0-0.27-0.05-0.37-0.16l-4.92-5.27c-0.19-0.2-0.18-0.52,0.02-0.71
			c0.2-0.19,0.52-0.18,0.71,0.02l4.92,5.27c0.19,0.2,0.18,0.52-0.02,0.71C188,19.48,187.87,19.52,187.75,19.52z"/>
		<line class="st1" x1="194.7" y1="7.56" x2="190.03" y2="12.18"/>
		
			<rect x="189.09" y="9.37" transform="matrix(0.711 -0.7032 0.7032 0.711 48.6537 138.1221)" class="st1" width="6.56" height="1"/>
		<circle class="st1" cx="190.19" cy="11.82" r="1.21"/>
	</g>
</g>
</svg>
