<svg width="202" height="202" viewBox="0 0 202 202" fill="none" xmlns="http://www.w3.org/2000/svg">
<circle cx="101" cy="101" r="97" fill="#2CF8C7" stroke="#00BF93" stroke-width="8"/>
<path d="M86.5445 63.7051C89.8733 57.9397 97.2457 55.9643 103.011 59.293C104.515 60.1614 105.761 61.305 106.723 62.6234L106.925 62.9198L107.719 62.7648C110.104 62.3746 112.619 62.6957 114.925 63.8189L115.686 64.2231C118.193 65.6703 119.983 67.882 120.933 70.3937L121.192 71.1545L121.554 71.186C122.906 71.3304 124.252 71.7069 125.533 72.3309L126.293 72.7351C130.806 75.3401 132.997 80.422 132.141 85.272L132.029 85.7838L132.268 85.8744L133.044 86.2195L133.806 86.624C139.566 89.9496 141.546 97.3097 138.233 103.078L113.782 145.644C113.309 146.466 112.953 147.022 112.447 147.646C108.128 152.979 100.831 156.999 90.3342 156.999C75.716 156.999 61.1255 148.64 53.7027 135.644C52.0423 132.737 50.8218 129.57 49.9312 125.577L49.5431 123.674L49.1996 121.641L48.8981 119.466L48.6362 117.137L48.4116 114.642L48.2219 111.968L48.0646 109.102L47.8844 104.419L47.7978 101.021L47.7352 97.3896L47.6813 91.4757L47.667 82.3326C47.667 68.4036 65.521 64.8326 73.4371 76.7079C74.343 78.0671 75.1288 79.7728 75.8458 81.816L75.9331 82.0825L86.5445 63.7051ZM97.6779 68.5306C97.0141 68.1474 96.1652 68.3748 95.782 69.0385L78.4623 99.0372C75.9438 103.399 69.339 102.161 68.5723 97.1823C68.5566 97.0802 68.5376 96.961 68.5155 96.826L68.2321 95.2137L67.6932 92.4995C67.4084 91.162 67.0986 89.8492 66.7671 88.6076C66.004 85.7488 65.1905 83.5679 64.5615 82.6242C62.1255 78.9699 58.3337 79.7283 58.3337 82.3311L58.3481 91.3295L58.4021 97.0311L58.5023 102.17L58.6544 106.782L58.7872 109.584L58.9472 112.181L59.136 114.582L59.3551 116.801L59.6062 118.847C59.6509 119.174 59.6969 119.495 59.7443 119.809L60.0466 121.618L60.385 123.282L60.7612 124.813C60.893 125.303 61.0315 125.772 61.1767 126.222L61.6333 127.52C62.0313 128.559 62.4738 129.494 62.965 130.354C68.4774 140.005 79.5218 146.333 90.3342 146.333C94.3795 146.333 97.6621 145.475 100.317 144.012C102.08 143.041 103.347 141.934 104.157 140.934C104.173 140.915 104.191 140.891 104.212 140.859L128.984 97.7649C129.368 97.0972 129.139 96.2462 128.472 95.8615C127.805 95.4762 126.952 95.7049 126.566 96.3723C123.01 102.531 113.773 97.1971 117.329 91.0387L121.468 83.8686C121.852 83.2048 121.624 82.3561 120.96 81.9727C120.297 81.5896 119.448 81.8171 119.064 82.4809C115.509 88.6393 106.271 83.3055 109.827 77.1473L110.861 75.3566C111.244 74.6928 111.017 73.8441 110.353 73.4607C109.689 73.0776 108.841 73.3049 108.458 73.9686L107.423 75.7598C103.868 81.9182 94.6302 76.5849 98.1858 70.4265C98.569 69.7627 98.3416 68.9138 97.6779 68.5306ZM132.272 45.364L133.044 45.7336L135.729 47.1724C135.932 47.285 136.131 47.3968 136.33 47.51C137.893 48.4011 139.299 49.2994 140.657 50.3046C143.58 52.4696 146.069 54.9894 148.104 58.0414C151.16 62.6254 152.809 68.384 153.74 76.3836C154.08 79.3094 151.984 81.9571 149.058 82.2975C146.132 82.6378 143.485 80.5418 143.144 77.6161C142.391 71.1421 141.166 66.8645 139.229 63.9584C137.918 61.9917 136.29 60.3443 134.309 58.8767L133.222 58.0971L132.527 57.6422L131.741 57.1692L130.169 56.2946L127.829 55.0419C125.228 53.6588 124.241 50.4293 125.624 47.8287C126.909 45.4139 129.785 44.3905 132.272 45.364Z" fill="#1A8068"/>
</svg>
