<svg width="383" height="405" viewBox="0 0 383 405" fill="none" xmlns="http://www.w3.org/2000/svg">
<ellipse cx="191.005" cy="215" rx="191.005" ry="190" fill="#C4C4C4" fill-opacity="0.2"/>
<ellipse cx="191.005" cy="215" rx="167.7" ry="166.817" fill="#00BF93" fill-opacity="0.2"/>
<ellipse cx="191.005" cy="215" rx="93.7294" ry="93.2361" fill="#00BF93" fill-opacity="0.16"/>
<ellipse cx="191.005" cy="215" rx="56.2376" ry="55.9416" fill="#00BF93"/>
<path d="M192.704 322.881C136.255 322.881 90.4929 277.12 90.4929 220.67C90.4929 164.22 136.255 118.458 192.704 118.458" fill="#00BF93" fill-opacity="0.8"/>
<path d="M78.7466 220.67C78.7466 157.735 129.77 106.712 192.705 106.712" stroke="#1E1E1E" stroke-miterlimit="10"/>
<path d="M192.705 334.628C129.77 334.628 78.7466 283.605 78.7466 220.67" stroke="#1E1E1E" stroke-width="4" stroke-miterlimit="10"/>
<path d="M78.7466 220.67C78.7466 157.735 129.77 106.712 192.705 106.712" stroke="#1E1E1E" stroke-miterlimit="10"/>
<path d="M192.705 334.628C129.77 334.628 78.7466 283.605 78.7466 220.67" stroke="#1E1E1E" stroke-width="4" stroke-miterlimit="10"/>
<path d="M68.2244 220.67C68.2244 151.922 123.957 96.1897 192.705 96.1897" stroke="#1E1E1E" stroke-miterlimit="10"/>
<path d="M192.705 345.15C123.957 345.15 68.2244 289.418 68.2244 220.67" stroke="#1E1E1E" stroke-width="4" stroke-miterlimit="10"/>
<path d="M68.2244 220.67C68.2244 151.922 123.957 96.1897 192.705 96.1897" stroke="#1E1E1E" stroke-miterlimit="10"/>
<path d="M192.705 345.15C123.957 345.15 68.2244 289.418 68.2244 220.67" stroke="#1E1E1E" stroke-width="4" stroke-miterlimit="10"/>
<path d="M57.7461 220.67C57.7461 146.132 118.166 85.7115 192.705 85.7115" stroke="#1E1E1E" stroke-miterlimit="10"/>
<path d="M192.705 355.628C118.166 355.628 57.7461 295.208 57.7461 220.67" stroke="#1E1E1E" stroke-width="4" stroke-miterlimit="10"/>
<path d="M46.3748 220.67C46.3748 139.856 111.891 74.34 192.705 74.34" stroke="#1E1E1E" stroke-miterlimit="10"/>
<path d="M192.704 367C111.89 367 46.3745 301.484 46.3745 220.67" stroke="#1E1E1E" stroke-width="4" stroke-miterlimit="10"/>
<path d="M191.966 118.459C248.415 118.459 294.177 164.22 294.177 220.67C294.177 277.12 248.415 322.882 191.966 322.882" fill="#00BF93"/>
<path d="M305.923 220.67C305.923 283.605 254.9 334.628 191.965 334.628" stroke="#1E1E1E" stroke-miterlimit="10"/>
<path d="M191.965 106.712C254.9 106.712 305.923 157.735 305.923 220.67" stroke="#1E1E1E" stroke-width="4" stroke-miterlimit="10"/>
<path d="M305.923 220.67C305.923 283.605 254.9 334.628 191.965 334.628" stroke="#1E1E1E" stroke-miterlimit="10"/>
<path d="M191.965 106.712C254.9 106.712 305.923 157.735 305.923 220.67" stroke="#1E1E1E" stroke-width="4" stroke-miterlimit="10"/>
<path d="M316.446 220.67C316.446 289.418 260.713 345.15 191.965 345.15" stroke="#1E1E1E" stroke-miterlimit="10"/>
<path d="M191.965 96.1898C260.713 96.1898 316.446 151.922 316.446 220.67" stroke="#1E1E1E" stroke-width="4" stroke-miterlimit="10"/>
<path d="M316.446 220.67C316.446 289.418 260.713 345.15 191.965 345.15" stroke="#1E1E1E" stroke-miterlimit="10"/>
<path d="M191.965 96.1898C260.713 96.1898 316.446 151.922 316.446 220.67" stroke="#1E1E1E" stroke-width="4" stroke-miterlimit="10"/>
<path d="M326.924 220.67C326.924 295.208 266.504 355.628 191.965 355.628" stroke="#1E1E1E" stroke-miterlimit="10"/>
<path d="M191.965 85.7116C266.504 85.7116 326.924 146.132 326.924 220.67" stroke="#1E1E1E" stroke-width="4" stroke-miterlimit="10"/>
<path d="M338.295 220.67C338.295 301.484 272.779 367 191.965 367" stroke="#1E1E1E" stroke-miterlimit="10"/>
<path d="M191.965 74.3401C272.779 74.3401 338.295 139.856 338.295 220.67" stroke="#1E1E1E" stroke-width="4" stroke-miterlimit="10"/>
<g filter="url(#filter0_d)">
<rect x="119.887" y="132.907" width="140.027" height="223.093" rx="70.0133" fill="#E1E1E1"/>
<rect x="124.887" y="137.907" width="130.027" height="213.093" rx="65.0133" stroke="#1E1E1E" stroke-width="10"/>
</g>
<path d="M190.197 136.763V229.027" stroke="#1E1E1E" stroke-width="10" stroke-linecap="round" stroke-linejoin="round"/>
<rect x="178.626" y="163.76" width="23.7333" height="54.5867" rx="11.8667" fill="#1E1E1E"/>
<rect x="185.153" y="171.473" width="10.0867" height="22.5467" rx="5.04333" fill="#00BF93"/>
<path d="M189.9 151V125V125C189.9 106.265 174.712 91.0767 155.977 91.0767H110.577C100.317 91.0767 92 82.7596 92 72.5V72.5V46.5" stroke="#1E1E1E" stroke-width="10" stroke-linecap="round" stroke-linejoin="round"/>
<path d="M214.04 190.06C216.266 190.06 218.07 188.256 218.07 186.03C218.07 183.804 216.266 182 214.04 182C211.814 182 210.01 183.804 210.01 186.03C210.01 188.256 211.814 190.06 214.04 190.06Z" fill="#00BF93"/>
<path d="M239.66 186.03C239.66 188.25 237.86 190.06 235.63 190.06C233.41 190.06 231.6 188.26 231.6 186.03C231.6 183.81 233.4 182 235.63 182C237.86 182 239.66 183.8 239.66 186.03Z" fill="#00BF93"/>
<path d="M214.04 206.74C216.266 206.74 218.07 204.936 218.07 202.71C218.07 200.484 216.266 198.68 214.04 198.68C211.814 198.68 210.01 200.484 210.01 202.71C210.01 204.936 211.814 206.74 214.04 206.74Z" fill="#00BF93"/>
<path d="M239.66 202.71C239.66 204.93 237.86 206.74 235.63 206.74C233.41 206.74 231.6 204.94 231.6 202.71C231.6 200.48 233.4 198.68 235.63 198.68C237.86 198.69 239.66 200.49 239.66 202.71Z" stroke="#1E1E1E" stroke-miterlimit="10"/>
<path d="M214.04 223.43C216.266 223.43 218.07 221.626 218.07 219.4C218.07 217.174 216.266 215.37 214.04 215.37C211.814 215.37 210.01 217.174 210.01 219.4C210.01 221.626 211.814 223.43 214.04 223.43Z" fill="#1D262D"/>
<path d="M239.66 219.4C239.66 221.62 237.86 223.43 235.63 223.43C233.41 223.43 231.6 221.63 231.6 219.4C231.6 217.17 233.4 215.37 235.63 215.37C237.86 215.37 239.66 217.18 239.66 219.4Z" stroke="#1E1E1E" stroke-miterlimit="10"/>
<path d="M214.04 240.12C216.266 240.12 218.07 238.316 218.07 236.09C218.07 233.864 216.266 232.06 214.04 232.06C211.814 232.06 210.01 233.864 210.01 236.09C210.01 238.316 211.814 240.12 214.04 240.12Z" fill="#1D262D"/>
<path d="M239.66 236.09C239.66 238.31 237.86 240.12 235.63 240.12C233.41 240.12 231.6 238.32 231.6 236.09C231.6 233.87 233.4 232.06 235.63 232.06C237.86 232.06 239.66 233.86 239.66 236.09Z" stroke="#1E1E1E" stroke-miterlimit="10"/>
<path d="M218.06 252.78C218.06 255 216.26 256.81 214.03 256.81C211.81 256.81 210 255.01 210 252.78C210 250.56 211.8 248.75 214.03 248.75C216.26 248.75 218.06 250.55 218.06 252.78Z" fill="#1D262D"/>
<path d="M239.66 252.78C239.66 255 237.86 256.81 235.63 256.81C233.41 256.81 231.6 255.01 231.6 252.78C231.6 250.56 233.4 248.75 235.63 248.75C237.86 248.75 239.66 250.55 239.66 252.78Z" stroke="#1E1E1E" stroke-miterlimit="10"/>
<path d="M218.06 269.46C218.06 271.68 216.26 273.49 214.03 273.49C211.81 273.49 210 271.69 210 269.46C210 267.24 211.8 265.43 214.03 265.43C216.26 265.43 218.06 267.24 218.06 269.46Z" fill="#00BF93"/>
<path d="M239.66 269.46C239.66 271.68 237.86 273.49 235.63 273.49C233.41 273.49 231.6 271.69 231.6 269.46C231.6 267.24 233.4 265.43 235.63 265.43C237.86 265.43 239.66 267.24 239.66 269.46Z" stroke="#1E1E1E" stroke-miterlimit="10"/>
<path d="M218.06 286.15C218.06 288.37 216.26 290.18 214.03 290.18C211.81 290.18 210 288.38 210 286.15C210 283.93 211.8 282.12 214.03 282.12C216.26 282.12 218.06 283.92 218.06 286.15Z" fill="#00BF93"/>
<path d="M239.66 286.15C239.66 288.37 237.86 290.18 235.63 290.18C233.41 290.18 231.6 288.38 231.6 286.15C231.6 283.93 233.4 282.12 235.63 282.12C237.86 282.12 239.66 283.92 239.66 286.15Z" fill="#00BF93"/>
<defs>
<filter id="filter0_d" x="105.887" y="122.907" width="168.027" height="251.093" filterUnits="userSpaceOnUse" color-interpolation-filters="sRGB">
<feFlood flood-opacity="0" result="BackgroundImageFix"/>
<feColorMatrix in="SourceAlpha" type="matrix" values="0 0 0 0 0 0 0 0 0 0 0 0 0 0 0 0 0 0 127 0"/>
<feOffset dy="4"/>
<feGaussianBlur stdDeviation="7"/>
<feColorMatrix type="matrix" values="0 0 0 0 0 0 0 0 0 0 0 0 0 0 0 0 0 0 0.25 0"/>
<feBlend mode="normal" in2="BackgroundImageFix" result="effect1_dropShadow"/>
<feBlend mode="normal" in="SourceGraphic" in2="effect1_dropShadow" result="shape"/>
</filter>
</defs>
</svg>
