<svg width="202" height="202" viewBox="0 0 202 202" fill="none" xmlns="http://www.w3.org/2000/svg">
<circle cx="101" cy="101" r="97" fill="#2CF8C7" stroke="#00BF93" stroke-width="8"/>
<path fill-rule="evenodd" clip-rule="evenodd" d="M95.667 55.6667C75.0482 55.6667 58.3337 72.3813 58.3337 93C58.3337 103.677 62.8089 113.3 70.001 120.112C70.8107 120.879 71.3597 121.88 71.5707 122.975L76.0709 146.333H107.041L109.054 132.246C109.257 130.824 110.025 129.545 111.183 128.696C112.342 127.848 113.794 127.503 115.21 127.739L130.775 130.333H133V119.667C133 117.124 134.795 114.935 137.288 114.437L143.457 113.203L133.671 95.5901C133.231 94.7978 133 93.9064 133 93C133 72.3813 116.286 55.6667 95.667 55.6667ZM47.667 93C47.667 66.4902 69.1572 45 95.667 45C121.702 45 142.896 65.7275 143.646 91.581L156.329 114.41C157.156 115.899 157.223 117.693 156.508 119.239C155.793 120.784 154.383 121.896 152.713 122.23L143.667 124.039V135.667C143.667 138.612 141.279 141 138.334 141H130.334C130.04 141 129.747 140.976 129.457 140.927L118.841 139.158L116.947 152.421C116.571 155.048 114.321 157 111.667 157H71.667C69.1105 157 66.9136 155.186 66.43 152.676L61.4107 126.623C52.9156 117.968 47.667 106.093 47.667 93ZM95.667 79.6667C91.2488 79.6667 87.667 83.2485 87.667 87.6667C87.667 90.6122 85.2792 93 82.3337 93C79.3881 93 77.0003 90.6122 77.0003 87.6667C77.0003 77.3574 85.3577 69 95.667 69C105.976 69 114.334 77.3574 114.334 87.6667C114.334 96.1227 108.711 103.265 101 105.56V109C101 111.946 98.6125 114.333 95.667 114.333C92.7215 114.333 90.3337 111.946 90.3337 109V101C90.3337 98.0545 92.7215 95.6667 95.667 95.6667C100.085 95.6667 103.667 92.0849 103.667 87.6667C103.667 83.2485 100.085 79.6667 95.667 79.6667ZM95.667 119.667C98.6125 119.667 101 122.054 101 125V127.667C101 130.612 98.6125 133 95.667 133C92.7215 133 90.3337 130.612 90.3337 127.667V125C90.3337 122.054 92.7215 119.667 95.667 119.667Z" fill="#1A8068"/>
</svg>
