<svg width="478" height="410" viewBox="0 0 478 410" fill="none" xmlns="http://www.w3.org/2000/svg">
<ellipse cx="191.005" cy="220" rx="191.005" ry="190" fill="#C4C4C4" fill-opacity="0.2"/>
<ellipse cx="191.005" cy="220" rx="167.7" ry="166.817" fill="#00BF93" fill-opacity="0.2"/>
<ellipse cx="191.005" cy="220" rx="93.7294" ry="93.2361" fill="#00BF93" fill-opacity="0.16"/>
<ellipse cx="191.005" cy="220" rx="56.2376" ry="55.9416" fill="#00BF93"/>
<path d="M192.704 327.881C136.255 327.881 90.4929 282.12 90.4929 225.67C90.4929 169.22 136.255 123.458 192.704 123.458" fill="#00BF93" fill-opacity="0.8"/>
<path d="M78.7466 225.67C78.7466 162.735 129.77 111.712 192.705 111.712" stroke="#1D262D" stroke-miterlimit="10"/>
<path d="M192.705 339.628C129.77 339.628 78.7466 288.605 78.7466 225.67" stroke="#1D262D" stroke-width="4" stroke-miterlimit="10"/>
<path d="M78.7466 225.67C78.7466 162.735 129.77 111.712 192.705 111.712" stroke="#1D262D" stroke-miterlimit="10"/>
<path d="M192.705 339.628C129.77 339.628 78.7466 288.605 78.7466 225.67" stroke="#1D262D" stroke-width="4" stroke-miterlimit="10"/>
<path d="M68.2244 225.67C68.2244 156.922 123.957 101.19 192.705 101.19" stroke="#1D262D" stroke-miterlimit="10"/>
<path d="M192.705 350.15C123.957 350.15 68.2244 294.418 68.2244 225.67" stroke="#1D262D" stroke-width="4" stroke-miterlimit="10"/>
<path d="M68.2244 225.67C68.2244 156.922 123.957 101.19 192.705 101.19" stroke="#1D262D" stroke-miterlimit="10"/>
<path d="M192.705 350.15C123.957 350.15 68.2244 294.418 68.2244 225.67" stroke="#1D262D" stroke-width="4" stroke-miterlimit="10"/>
<path d="M57.7461 225.67C57.7461 151.132 118.166 90.7115 192.705 90.7115" stroke="#1D262D" stroke-miterlimit="10"/>
<path d="M192.705 360.628C118.166 360.628 57.7461 300.208 57.7461 225.67" stroke="#1D262D" stroke-width="4" stroke-miterlimit="10"/>
<path d="M46.3748 225.67C46.3748 144.856 111.891 79.34 192.705 79.34" stroke="#1D262D" stroke-miterlimit="10"/>
<path d="M192.704 372C111.89 372 46.3745 306.484 46.3745 225.67" stroke="#1D262D" stroke-width="4" stroke-miterlimit="10"/>
<path d="M191.966 123.459C248.415 123.459 294.177 169.22 294.177 225.67C294.177 282.12 248.415 327.882 191.966 327.882" fill="#00BF93"/>
<path d="M305.923 225.67C305.923 288.605 254.9 339.628 191.965 339.628" stroke="#1D262D" stroke-miterlimit="10"/>
<path d="M191.965 111.712C254.9 111.712 305.923 162.735 305.923 225.67" stroke="#1D262D" stroke-width="4" stroke-miterlimit="10"/>
<path d="M305.923 225.67C305.923 288.605 254.9 339.628 191.965 339.628" stroke="#1D262D" stroke-miterlimit="10"/>
<path d="M191.965 111.712C254.9 111.712 305.923 162.735 305.923 225.67" stroke="#1D262D" stroke-width="4" stroke-miterlimit="10"/>
<path d="M316.446 225.67C316.446 294.418 260.713 350.15 191.965 350.15" stroke="#1D262D" stroke-miterlimit="10"/>
<path d="M191.965 101.19C260.713 101.19 316.446 156.922 316.446 225.67" stroke="#1D262D" stroke-width="4" stroke-miterlimit="10"/>
<path d="M316.446 225.67C316.446 294.418 260.713 350.15 191.965 350.15" stroke="#1D262D" stroke-miterlimit="10"/>
<path d="M191.965 101.19C260.713 101.19 316.446 156.922 316.446 225.67" stroke="#1D262D" stroke-width="4" stroke-miterlimit="10"/>
<path d="M326.924 225.67C326.924 300.208 266.504 360.628 191.965 360.628" stroke="#1D262D" stroke-miterlimit="10"/>
<path d="M191.965 90.7116C266.504 90.7116 326.924 151.132 326.924 225.67" stroke="#1D262D" stroke-width="4" stroke-miterlimit="10"/>
<path d="M338.295 225.67C338.295 306.484 272.779 372 191.965 372" stroke="#1D262D" stroke-miterlimit="10"/>
<path d="M191.965 79.3401C272.779 79.3401 338.295 144.856 338.295 225.67" stroke="#1D262D" stroke-width="4" stroke-miterlimit="10"/>
<g filter="url(#filter0_d)">
<rect x="119.887" y="137.907" width="140.027" height="223.093" rx="70.0133" fill="#E1E1E1"/>
<rect x="124.887" y="142.907" width="130.027" height="213.093" rx="65.0133" stroke="#1E1E1E" stroke-width="10"/>
</g>
<path d="M190.197 141.763V234.027" stroke="#1E1E1E" stroke-width="10" stroke-linecap="round" stroke-linejoin="round"/>
<rect x="178.626" y="168.76" width="23.7333" height="54.5867" rx="11.8667" fill="#1E1E1E"/>
<rect x="185.153" y="176.473" width="10.0867" height="22.5467" rx="5.04333" fill="#00BF93"/>
<path d="M189.9 139.39V123.667V123.667C189.9 108.429 177.548 96.0767 162.31 96.0767H140.95C113.916 96.0767 92 74.161 92 47.1267V5" stroke="#1E1E1E" stroke-width="10" stroke-linecap="round" stroke-linejoin="round"/>
<rect x="265" y="83" width="172" height="44" rx="22" fill="#00BF93"/>
<path d="M327.348 99.22V112H325.134L318.654 102.946V112H316.44V99.22H318.654L325.134 108.274V99.22H327.348ZM328.872 107.446C328.872 106.582 329.058 105.79 329.43 105.07C329.802 104.338 330.318 103.762 330.978 103.342C331.65 102.922 332.412 102.712 333.264 102.712C334.08 102.712 334.782 102.91 335.37 103.306C335.97 103.702 336.396 104.206 336.648 104.818L336.774 102.892H338.88V112H336.774L336.648 110.056C336.396 110.668 335.97 111.178 335.37 111.586C334.782 111.982 334.08 112.18 333.264 112.18C332.412 112.18 331.65 111.97 330.978 111.55C330.318 111.13 329.802 110.56 329.43 109.84C329.058 109.108 328.872 108.31 328.872 107.446ZM331.086 107.446C331.086 107.926 331.2 108.37 331.428 108.778C331.656 109.174 331.974 109.492 332.382 109.732C332.802 109.972 333.264 110.092 333.768 110.092C334.272 110.092 334.722 109.972 335.118 109.732C335.526 109.492 335.844 109.174 336.072 108.778C336.3 108.37 336.414 107.926 336.414 107.446C336.414 106.966 336.3 106.528 336.072 106.132C335.844 105.724 335.526 105.4 335.118 105.16C334.722 104.92 334.272 104.8 333.768 104.8C333.264 104.8 332.802 104.92 332.382 105.16C331.974 105.4 331.656 105.724 331.428 106.132C331.2 106.528 331.086 106.966 331.086 107.446ZM350.255 102.892L346.403 112H343.847L339.995 102.892H342.479L345.143 109.678L347.789 102.892H350.255ZM353.628 112H351.414V102.892H353.628V112ZM352.512 101.632C352.2 101.632 351.93 101.524 351.702 101.308C351.486 101.08 351.378 100.81 351.378 100.498C351.378 100.186 351.486 99.922 351.702 99.706C351.93 99.478 352.2 99.364 352.512 99.364C352.824 99.364 353.088 99.478 353.304 99.706C353.532 99.922 353.646 100.186 353.646 100.498C353.646 100.81 353.532 101.08 353.304 101.308C353.088 101.524 352.824 101.632 352.512 101.632ZM363.624 104.854L362.778 104.71C362.982 105.154 363.084 105.628 363.084 106.132C363.084 106.792 362.916 107.38 362.58 107.896C362.244 108.412 361.782 108.82 361.194 109.12C360.606 109.408 359.952 109.552 359.232 109.552C358.752 109.552 358.326 109.492 357.954 109.372C357.786 109.48 357.702 109.618 357.702 109.786C357.702 109.99 357.828 110.128 358.08 110.2C358.344 110.272 358.728 110.308 359.232 110.308C360.624 110.308 361.692 110.59 362.436 111.154C363.18 111.706 363.552 112.426 363.552 113.314C363.552 113.938 363.36 114.478 362.976 114.934C362.604 115.39 362.106 115.732 361.482 115.96C360.858 116.2 360.186 116.32 359.466 116.32C358.746 116.32 358.074 116.2 357.45 115.96C356.826 115.732 356.322 115.39 355.938 114.934C355.566 114.478 355.38 113.938 355.38 113.314C355.38 112.498 355.722 111.868 356.406 111.424C355.878 111.064 355.614 110.65 355.614 110.182C355.614 109.606 355.98 109.132 356.712 108.76C356.292 108.448 355.962 108.07 355.722 107.626C355.494 107.17 355.38 106.672 355.38 106.132C355.38 105.472 355.548 104.884 355.884 104.368C356.22 103.84 356.682 103.432 357.27 103.144C357.858 102.856 358.512 102.712 359.232 102.712C359.928 102.712 360.558 102.844 361.122 103.108L363.624 102.892V104.854ZM359.232 107.698C359.712 107.698 360.12 107.554 360.456 107.266C360.804 106.966 360.978 106.588 360.978 106.132C360.978 105.664 360.804 105.286 360.456 104.998C360.12 104.698 359.712 104.548 359.232 104.548C358.752 104.548 358.338 104.698 357.99 104.998C357.642 105.286 357.468 105.664 357.468 106.132C357.468 106.588 357.642 106.966 357.99 107.266C358.338 107.554 358.752 107.698 359.232 107.698ZM361.464 113.35C361.464 112.918 361.218 112.606 360.726 112.414C360.246 112.234 359.532 112.144 358.584 112.144C358.488 112.144 358.41 112.138 358.35 112.126C358.11 112.246 357.9 112.408 357.72 112.612C357.552 112.816 357.468 113.032 357.468 113.26C357.468 113.644 357.648 113.944 358.008 114.16C358.368 114.376 358.854 114.484 359.466 114.484C360.09 114.484 360.576 114.388 360.924 114.196C361.284 114.004 361.464 113.722 361.464 113.35ZM364.626 107.446C364.626 106.582 364.812 105.79 365.184 105.07C365.556 104.338 366.072 103.762 366.732 103.342C367.404 102.922 368.166 102.712 369.018 102.712C369.834 102.712 370.536 102.91 371.124 103.306C371.724 103.702 372.15 104.206 372.402 104.818L372.528 102.892H374.634V112H372.528L372.402 110.056C372.15 110.668 371.724 111.178 371.124 111.586C370.536 111.982 369.834 112.18 369.018 112.18C368.166 112.18 367.404 111.97 366.732 111.55C366.072 111.13 365.556 110.56 365.184 109.84C364.812 109.108 364.626 108.31 364.626 107.446ZM366.84 107.446C366.84 107.926 366.954 108.37 367.182 108.778C367.41 109.174 367.728 109.492 368.136 109.732C368.556 109.972 369.018 110.092 369.522 110.092C370.026 110.092 370.476 109.972 370.872 109.732C371.28 109.492 371.598 109.174 371.826 108.778C372.054 108.37 372.168 107.926 372.168 107.446C372.168 106.966 372.054 106.528 371.826 106.132C371.598 105.724 371.28 105.4 370.872 105.16C370.476 104.92 370.026 104.8 369.522 104.8C369.018 104.8 368.556 104.92 368.136 105.16C367.728 105.4 367.41 105.724 367.182 106.132C366.954 106.528 366.84 106.966 366.84 107.446ZM381.761 104.98H379.745V112H377.531V104.98H376.109V102.892H377.531V100.192H379.745V102.892H381.761V104.98ZM385.304 112H383.09V102.892H385.304V112ZM384.188 101.632C383.876 101.632 383.606 101.524 383.378 101.308C383.162 101.08 383.054 100.81 383.054 100.498C383.054 100.186 383.162 99.922 383.378 99.706C383.606 99.478 383.876 99.364 384.188 99.364C384.5 99.364 384.764 99.478 384.98 99.706C385.208 99.922 385.322 100.186 385.322 100.498C385.322 100.81 385.208 101.08 384.98 101.308C384.764 101.524 384.5 101.632 384.188 101.632ZM391.811 112.18C390.875 112.18 390.035 111.97 389.291 111.55C388.547 111.13 387.965 110.56 387.545 109.84C387.125 109.108 386.915 108.31 386.915 107.446C386.915 106.582 387.125 105.79 387.545 105.07C387.965 104.338 388.547 103.762 389.291 103.342C390.035 102.922 390.875 102.712 391.811 102.712C392.735 102.712 393.569 102.922 394.313 103.342C395.057 103.762 395.633 104.338 396.041 105.07C396.461 105.79 396.671 106.582 396.671 107.446C396.671 108.31 396.461 109.108 396.041 109.84C395.633 110.56 395.057 111.13 394.313 111.55C393.569 111.97 392.735 112.18 391.811 112.18ZM391.811 110.092C392.315 110.092 392.765 109.972 393.161 109.732C393.569 109.492 393.887 109.174 394.115 108.778C394.343 108.37 394.457 107.926 394.457 107.446C394.457 106.966 394.343 106.528 394.115 106.132C393.887 105.724 393.569 105.4 393.161 105.16C392.765 104.92 392.315 104.8 391.811 104.8C391.307 104.8 390.845 104.92 390.425 105.16C390.017 105.4 389.699 105.724 389.471 106.132C389.243 106.528 389.129 106.966 389.129 107.446C389.129 107.926 389.243 108.37 389.471 108.778C389.699 109.174 390.017 109.492 390.425 109.732C390.845 109.972 391.307 110.092 391.811 110.092ZM403.745 102.712C404.837 102.712 405.665 103.054 406.229 103.738C406.805 104.41 407.093 105.37 407.093 106.618V112H404.879V107.644C404.879 106.624 404.705 105.898 404.357 105.466C404.021 105.022 403.529 104.8 402.881 104.8C402.113 104.8 401.501 105.064 401.045 105.592C400.589 106.12 400.361 106.78 400.361 107.572V112H398.147V102.892H400.235L400.343 104.242C401.363 103.222 402.497 102.712 403.745 102.712Z" fill="white"/>
<path d="M308.405 93.4853L303.026 113.562L288.329 98.8647L308.405 93.4853Z" fill="#11D8AA"/>
<path d="M303.456 98.435L298.076 118.511L283.379 103.814L303.456 98.435Z" fill="#24E6BA"/>
<rect x="306" y="195" width="172" height="44" rx="22" fill="#00BF93"/>
<path d="M367.44 210.22H369.654V223H367.44V210.22ZM377.138 213.712C378.23 213.712 379.058 214.054 379.622 214.738C380.198 215.41 380.486 216.37 380.486 217.618V223H378.272V218.644C378.272 217.624 378.098 216.898 377.75 216.466C377.414 216.022 376.922 215.8 376.274 215.8C375.506 215.8 374.894 216.064 374.438 216.592C373.982 217.12 373.754 217.78 373.754 218.572V223H371.54V213.892H373.628L373.736 215.242C374.756 214.222 375.89 213.712 377.138 213.712ZM391.27 213.892L387.418 223H384.862L381.01 213.892H383.494L386.158 220.678L388.804 213.892H391.27ZM396.493 223.18C395.557 223.18 394.717 222.97 393.973 222.55C393.229 222.13 392.647 221.56 392.227 220.84C391.807 220.108 391.597 219.31 391.597 218.446C391.597 217.582 391.807 216.79 392.227 216.07C392.647 215.338 393.229 214.762 393.973 214.342C394.717 213.922 395.557 213.712 396.493 213.712C397.417 213.712 398.251 213.922 398.995 214.342C399.739 214.762 400.315 215.338 400.723 216.07C401.143 216.79 401.353 217.582 401.353 218.446C401.353 219.31 401.143 220.108 400.723 220.84C400.315 221.56 399.739 222.13 398.995 222.55C398.251 222.97 397.417 223.18 396.493 223.18ZM396.493 221.092C396.997 221.092 397.447 220.972 397.843 220.732C398.251 220.492 398.569 220.174 398.797 219.778C399.025 219.37 399.139 218.926 399.139 218.446C399.139 217.966 399.025 217.528 398.797 217.132C398.569 216.724 398.251 216.4 397.843 216.16C397.447 215.92 396.997 215.8 396.493 215.8C395.989 215.8 395.527 215.92 395.107 216.16C394.699 216.4 394.381 216.724 394.153 217.132C393.925 217.528 393.811 217.966 393.811 218.446C393.811 218.926 393.925 219.37 394.153 219.778C394.381 220.174 394.699 220.492 395.107 220.732C395.527 220.972 395.989 221.092 396.493 221.092ZM409.787 216.754C409.115 216.118 408.341 215.8 407.465 215.8C407.009 215.8 406.571 215.914 406.151 216.142C405.743 216.358 405.407 216.67 405.143 217.078C404.891 217.486 404.765 217.942 404.765 218.446C404.765 218.95 404.891 219.406 405.143 219.814C405.407 220.222 405.743 220.54 406.151 220.768C406.571 220.984 407.009 221.092 407.465 221.092C408.329 221.092 409.103 220.768 409.787 220.12V222.244C409.079 222.868 408.185 223.18 407.105 223.18C406.229 223.18 405.431 222.97 404.711 222.55C404.003 222.118 403.445 221.542 403.037 220.822C402.629 220.09 402.425 219.298 402.425 218.446C402.425 217.594 402.629 216.808 403.037 216.088C403.445 215.368 404.003 214.792 404.711 214.36C405.431 213.928 406.229 213.712 407.105 213.712C408.185 213.712 409.079 214.024 409.787 214.648V216.754ZM411.038 218.446C411.038 217.582 411.224 216.79 411.596 216.07C411.968 215.338 412.484 214.762 413.144 214.342C413.816 213.922 414.578 213.712 415.43 213.712C416.246 213.712 416.948 213.91 417.536 214.306C418.136 214.702 418.562 215.206 418.814 215.818L418.94 213.892H421.046V223H418.94L418.814 221.056C418.562 221.668 418.136 222.178 417.536 222.586C416.948 222.982 416.246 223.18 415.43 223.18C414.578 223.18 413.816 222.97 413.144 222.55C412.484 222.13 411.968 221.56 411.596 220.84C411.224 220.108 411.038 219.31 411.038 218.446ZM413.252 218.446C413.252 218.926 413.366 219.37 413.594 219.778C413.822 220.174 414.14 220.492 414.548 220.732C414.968 220.972 415.43 221.092 415.934 221.092C416.438 221.092 416.888 220.972 417.284 220.732C417.692 220.492 418.01 220.174 418.238 219.778C418.466 219.37 418.58 218.926 418.58 218.446C418.58 217.966 418.466 217.528 418.238 217.132C418.01 216.724 417.692 216.4 417.284 216.16C416.888 215.92 416.438 215.8 415.934 215.8C415.43 215.8 414.968 215.92 414.548 216.16C414.14 216.4 413.822 216.724 413.594 217.132C413.366 217.528 413.252 217.966 413.252 218.446ZM428.173 215.98H426.157V223H423.943V215.98H422.521V213.892H423.943V211.192H426.157V213.892H428.173V215.98ZM431.716 223H429.502V213.892H431.716V223ZM430.6 212.632C430.288 212.632 430.018 212.524 429.79 212.308C429.574 212.08 429.466 211.81 429.466 211.498C429.466 211.186 429.574 210.922 429.79 210.706C430.018 210.478 430.288 210.364 430.6 210.364C430.912 210.364 431.176 210.478 431.392 210.706C431.62 210.922 431.734 211.186 431.734 211.498C431.734 211.81 431.62 212.08 431.392 212.308C431.176 212.524 430.912 212.632 430.6 212.632ZM438.223 223.18C437.287 223.18 436.447 222.97 435.703 222.55C434.959 222.13 434.377 221.56 433.957 220.84C433.537 220.108 433.327 219.31 433.327 218.446C433.327 217.582 433.537 216.79 433.957 216.07C434.377 215.338 434.959 214.762 435.703 214.342C436.447 213.922 437.287 213.712 438.223 213.712C439.147 213.712 439.981 213.922 440.725 214.342C441.469 214.762 442.045 215.338 442.453 216.07C442.873 216.79 443.083 217.582 443.083 218.446C443.083 219.31 442.873 220.108 442.453 220.84C442.045 221.56 441.469 222.13 440.725 222.55C439.981 222.97 439.147 223.18 438.223 223.18ZM438.223 221.092C438.727 221.092 439.177 220.972 439.573 220.732C439.981 220.492 440.299 220.174 440.527 219.778C440.755 219.37 440.869 218.926 440.869 218.446C440.869 217.966 440.755 217.528 440.527 217.132C440.299 216.724 439.981 216.4 439.573 216.16C439.177 215.92 438.727 215.8 438.223 215.8C437.719 215.8 437.257 215.92 436.837 216.16C436.429 216.4 436.111 216.724 435.883 217.132C435.655 217.528 435.541 217.966 435.541 218.446C435.541 218.926 435.655 219.37 435.883 219.778C436.111 220.174 436.429 220.492 436.837 220.732C437.257 220.972 437.719 221.092 438.223 221.092ZM450.157 213.712C451.249 213.712 452.077 214.054 452.641 214.738C453.217 215.41 453.505 216.37 453.505 217.618V223H451.291V218.644C451.291 217.624 451.117 216.898 450.769 216.466C450.433 216.022 449.941 215.8 449.293 215.8C448.525 215.8 447.913 216.064 447.457 216.592C447.001 217.12 446.773 217.78 446.773 218.572V223H444.559V213.892H446.647L446.755 215.242C447.775 214.222 448.909 213.712 450.157 213.712Z" fill="white"/>
<rect x="288" y="307" width="172" height="44" rx="22" fill="#00BF93"/>
<circle cx="319.5" cy="328.5" r="13.5" fill="#11D8AA"/>
<circle cx="329.5" cy="328.5" r="13.5" fill="#24E7BA"/>
<circle cx="339.5" cy="328.5" r="13.5" fill="#4EF7D0"/>
<path d="M384.864 333.192H379.752L378.744 336H376.44L381.048 323.22H383.568L388.176 336H385.872L384.864 333.192ZM384.108 331.086L382.308 326.118L380.508 331.086H384.108ZM395.935 329.754C395.263 329.118 394.489 328.8 393.613 328.8C393.157 328.8 392.719 328.914 392.299 329.142C391.891 329.358 391.555 329.67 391.291 330.078C391.039 330.486 390.913 330.942 390.913 331.446C390.913 331.95 391.039 332.406 391.291 332.814C391.555 333.222 391.891 333.54 392.299 333.768C392.719 333.984 393.157 334.092 393.613 334.092C394.477 334.092 395.251 333.768 395.935 333.12V335.244C395.227 335.868 394.333 336.18 393.253 336.18C392.377 336.18 391.579 335.97 390.859 335.55C390.151 335.118 389.593 334.542 389.185 333.822C388.777 333.09 388.573 332.298 388.573 331.446C388.573 330.594 388.777 329.808 389.185 329.088C389.593 328.368 390.151 327.792 390.859 327.36C391.579 326.928 392.377 326.712 393.253 326.712C394.333 326.712 395.227 327.024 395.935 327.648V329.754ZM402.843 328.98H400.827V336H398.613V328.98H397.191V326.892H398.613V324.192H400.827V326.892H402.843V328.98ZM406.386 336H404.172V326.892H406.386V336ZM405.27 325.632C404.958 325.632 404.688 325.524 404.46 325.308C404.244 325.08 404.136 324.81 404.136 324.498C404.136 324.186 404.244 323.922 404.46 323.706C404.688 323.478 404.958 323.364 405.27 323.364C405.582 323.364 405.846 323.478 406.062 323.706C406.29 323.922 406.404 324.186 406.404 324.498C406.404 324.81 406.29 325.08 406.062 325.308C405.846 325.524 405.582 325.632 405.27 325.632ZM412.893 336.18C411.957 336.18 411.117 335.97 410.373 335.55C409.629 335.13 409.047 334.56 408.627 333.84C408.207 333.108 407.997 332.31 407.997 331.446C407.997 330.582 408.207 329.79 408.627 329.07C409.047 328.338 409.629 327.762 410.373 327.342C411.117 326.922 411.957 326.712 412.893 326.712C413.817 326.712 414.651 326.922 415.395 327.342C416.139 327.762 416.715 328.338 417.123 329.07C417.543 329.79 417.753 330.582 417.753 331.446C417.753 332.31 417.543 333.108 417.123 333.84C416.715 334.56 416.139 335.13 415.395 335.55C414.651 335.97 413.817 336.18 412.893 336.18ZM412.893 334.092C413.397 334.092 413.847 333.972 414.243 333.732C414.651 333.492 414.969 333.174 415.197 332.778C415.425 332.37 415.539 331.926 415.539 331.446C415.539 330.966 415.425 330.528 415.197 330.132C414.969 329.724 414.651 329.4 414.243 329.16C413.847 328.92 413.397 328.8 412.893 328.8C412.389 328.8 411.927 328.92 411.507 329.16C411.099 329.4 410.781 329.724 410.553 330.132C410.325 330.528 410.211 330.966 410.211 331.446C410.211 331.926 410.325 332.37 410.553 332.778C410.781 333.174 411.099 333.492 411.507 333.732C411.927 333.972 412.389 334.092 412.893 334.092ZM424.827 326.712C425.919 326.712 426.747 327.054 427.311 327.738C427.887 328.41 428.175 329.37 428.175 330.618V336H425.961V331.644C425.961 330.624 425.787 329.898 425.439 329.466C425.103 329.022 424.611 328.8 423.963 328.8C423.195 328.8 422.583 329.064 422.127 329.592C421.671 330.12 421.443 330.78 421.443 331.572V336H419.229V326.892H421.317L421.425 328.242C422.445 327.222 423.579 326.712 424.827 326.712ZM431.814 333.246C431.874 333.57 432.072 333.834 432.408 334.038C432.756 334.23 433.194 334.326 433.722 334.326C434.13 334.326 434.472 334.254 434.748 334.11C435.024 333.966 435.162 333.762 435.162 333.498C435.162 333.282 435.096 333.114 434.964 332.994C434.832 332.862 434.64 332.748 434.388 332.652C434.136 332.544 433.722 332.4 433.146 332.22C432.786 332.1 432.606 332.04 432.606 332.04C431.754 331.776 431.088 331.434 430.608 331.014C430.128 330.594 429.888 330.036 429.888 329.34C429.888 328.812 430.044 328.35 430.356 327.954C430.668 327.558 431.082 327.252 431.598 327.036C432.114 326.82 432.666 326.712 433.254 326.712C433.986 326.712 434.622 326.838 435.162 327.09C435.714 327.33 436.134 327.666 436.422 328.098C436.722 328.518 436.884 328.986 436.908 329.502H434.694C434.67 329.19 434.52 328.956 434.244 328.8C433.968 328.632 433.662 328.548 433.326 328.548C433.014 328.548 432.732 328.62 432.48 328.764C432.228 328.908 432.102 329.1 432.102 329.34C432.102 329.508 432.156 329.646 432.264 329.754C432.384 329.862 432.558 329.964 432.786 330.06C433.014 330.144 433.398 330.276 433.938 330.456L434.676 330.708C435.636 331.032 436.326 331.434 436.746 331.914C437.178 332.382 437.394 332.928 437.394 333.552C437.394 334.368 437.04 335.01 436.332 335.478C435.636 335.946 434.748 336.18 433.668 336.18C432.48 336.18 431.52 335.934 430.788 335.442C430.056 334.938 429.66 334.206 429.6 333.246H431.814Z" fill="white"/>
<path d="M339 326.5C338.172 326.5 337.5 327.172 337.5 328C337.5 328.828 338.172 329.5 339 329.5V326.5ZM361.5 329.5C362.328 329.5 363 328.828 363 328C363 327.172 362.328 326.5 361.5 326.5V329.5ZM339 329.5L361.5 329.5V326.5L339 326.5V329.5Z" fill="#1BA383"/>
<rect x="323" y="204" width="27" height="27" rx="3" fill="#11D8AA"/>
<rect x="325" y="206" width="23" height="23" rx="1" fill="#00BF93"/>
<rect x="328" y="222" width="12" height="4" rx="1" fill="#24E6BA"/>
<rect x="340" y="209" width="12" height="4" rx="1" fill="#4EF6D0"/>
<rect x="340" y="215" width="12" height="4" rx="1" fill="#11D8AA"/>
<rect x="328" y="209" width="7" height="10" rx="1" fill="#4EF6D0"/>
<path d="M214.04 195.06C216.266 195.06 218.07 193.256 218.07 191.03C218.07 188.804 216.266 187 214.04 187C211.814 187 210.01 188.804 210.01 191.03C210.01 193.256 211.814 195.06 214.04 195.06Z" fill="#00BF93"/>
<path d="M239.66 191.03C239.66 193.25 237.86 195.06 235.63 195.06C233.41 195.06 231.6 193.26 231.6 191.03C231.6 188.81 233.4 187 235.63 187C237.86 187 239.66 188.8 239.66 191.03Z" fill="#00BF93"/>
<path d="M214.04 211.74C216.266 211.74 218.07 209.936 218.07 207.71C218.07 205.484 216.266 203.68 214.04 203.68C211.814 203.68 210.01 205.484 210.01 207.71C210.01 209.936 211.814 211.74 214.04 211.74Z" fill="#00BF93"/>
<path d="M239.66 207.71C239.66 209.93 237.86 211.74 235.63 211.74C233.41 211.74 231.6 209.94 231.6 207.71C231.6 205.48 233.4 203.68 235.63 203.68C237.86 203.69 239.66 205.49 239.66 207.71Z" stroke="#1E1E1E" stroke-miterlimit="10"/>
<path d="M214.04 228.43C216.266 228.43 218.07 226.626 218.07 224.4C218.07 222.174 216.266 220.37 214.04 220.37C211.814 220.37 210.01 222.174 210.01 224.4C210.01 226.626 211.814 228.43 214.04 228.43Z" fill="#1D262D"/>
<path d="M239.66 224.4C239.66 226.62 237.86 228.43 235.63 228.43C233.41 228.43 231.6 226.63 231.6 224.4C231.6 222.17 233.4 220.37 235.63 220.37C237.86 220.37 239.66 222.18 239.66 224.4Z" stroke="#1E1E1E" stroke-miterlimit="10"/>
<path d="M214.04 245.12C216.266 245.12 218.07 243.316 218.07 241.09C218.07 238.864 216.266 237.06 214.04 237.06C211.814 237.06 210.01 238.864 210.01 241.09C210.01 243.316 211.814 245.12 214.04 245.12Z" fill="#1D262D"/>
<path d="M239.66 241.09C239.66 243.31 237.86 245.12 235.63 245.12C233.41 245.12 231.6 243.32 231.6 241.09C231.6 238.87 233.4 237.06 235.63 237.06C237.86 237.06 239.66 238.86 239.66 241.09Z" stroke="#1E1E1E" stroke-miterlimit="10"/>
<path d="M218.06 257.78C218.06 260 216.26 261.81 214.03 261.81C211.81 261.81 210 260.01 210 257.78C210 255.56 211.8 253.75 214.03 253.75C216.26 253.75 218.06 255.55 218.06 257.78Z" fill="#1D262D"/>
<path d="M239.66 257.78C239.66 260 237.86 261.81 235.63 261.81C233.41 261.81 231.6 260.01 231.6 257.78C231.6 255.56 233.4 253.75 235.63 253.75C237.86 253.75 239.66 255.55 239.66 257.78Z" stroke="#1E1E1E" stroke-miterlimit="10"/>
<path d="M218.06 274.46C218.06 276.68 216.26 278.49 214.03 278.49C211.81 278.49 210 276.69 210 274.46C210 272.24 211.8 270.43 214.03 270.43C216.26 270.43 218.06 272.24 218.06 274.46Z" fill="#00BF93"/>
<path d="M239.66 274.46C239.66 276.68 237.86 278.49 235.63 278.49C233.41 278.49 231.6 276.69 231.6 274.46C231.6 272.24 233.4 270.43 235.63 270.43C237.86 270.43 239.66 272.24 239.66 274.46Z" stroke="#1E1E1E" stroke-miterlimit="10"/>
<path d="M218.06 291.15C218.06 293.37 216.26 295.18 214.03 295.18C211.81 295.18 210 293.38 210 291.15C210 288.93 211.8 287.12 214.03 287.12C216.26 287.12 218.06 288.92 218.06 291.15Z" fill="#00BF93"/>
<path d="M239.66 291.15C239.66 293.37 237.86 295.18 235.63 295.18C233.41 295.18 231.6 293.38 231.6 291.15C231.6 288.93 233.4 287.12 235.63 287.12C237.86 287.12 239.66 288.92 239.66 291.15Z" fill="#00BF93"/>
<defs>
<filter id="filter0_d" x="105.887" y="127.907" width="168.027" height="251.093" filterUnits="userSpaceOnUse" color-interpolation-filters="sRGB">
<feFlood flood-opacity="0" result="BackgroundImageFix"/>
<feColorMatrix in="SourceAlpha" type="matrix" values="0 0 0 0 0 0 0 0 0 0 0 0 0 0 0 0 0 0 127 0"/>
<feOffset dy="4"/>
<feGaussianBlur stdDeviation="7"/>
<feColorMatrix type="matrix" values="0 0 0 0 0 0 0 0 0 0 0 0 0 0 0 0 0 0 0.25 0"/>
<feBlend mode="normal" in2="BackgroundImageFix" result="effect1_dropShadow"/>
<feBlend mode="normal" in="SourceGraphic" in2="effect1_dropShadow" result="shape"/>
</filter>
</defs>
</svg>
