<svg width="202" height="202" viewBox="0 0 202 202" fill="none" xmlns="http://www.w3.org/2000/svg">
<circle cx="101" cy="101" r="97" fill="#2CF8C7" stroke="#00BF93" stroke-width="8"/>
<path fill-rule="evenodd" clip-rule="evenodd" d="M44.208 64.25C44.208 61.3505 46.5399 59 49.4163 59H106.708C109.585 59 111.916 61.3505 111.916 64.25V85.25C111.916 88.1495 109.585 90.5 106.708 90.5H49.4163C46.5399 90.5 44.208 88.1495 44.208 85.25V64.25ZM54.6247 69.5V80H101.5V69.5H54.6247ZM123.859 60.5377C125.892 58.4874 129.19 58.4874 131.224 60.5377L137.958 67.3254L144.692 60.5377C146.726 58.4874 150.024 58.4874 152.058 60.5377C154.092 62.5879 154.092 65.9121 152.058 67.9623L145.324 74.75L152.058 81.5377C154.092 83.5879 154.092 86.9121 152.058 88.9623C150.024 91.0126 146.726 91.0126 144.692 88.9623L137.958 82.1746L131.224 88.9623C129.19 91.0126 125.892 91.0126 123.859 88.9623C121.825 86.9121 121.825 83.5879 123.859 81.5377L130.592 74.75L123.859 67.9623C121.825 65.9121 121.825 62.5879 123.859 60.5377ZM157.013 112.799C159.178 114.708 159.397 118.025 157.503 120.207L139.274 141.207C138.324 142.301 136.968 142.949 135.527 142.997C134.086 143.045 132.69 142.49 131.671 141.462L121.254 130.962C119.22 128.912 119.22 125.588 121.254 123.538C123.288 121.487 126.586 121.487 128.62 123.538L135.1 130.07L149.663 113.293C151.558 111.111 154.848 110.89 157.013 112.799ZM44.208 116.75C44.208 113.85 46.5399 111.5 49.4163 111.5H106.708C109.585 111.5 111.916 113.85 111.916 116.75V137.75C111.916 140.649 109.585 143 106.708 143H49.4163C46.5399 143 44.208 140.649 44.208 137.75V116.75ZM54.6247 122V132.5H101.5V122H54.6247Z" fill="#1A8068"/>
</svg>
